<svg version="1.1" xmlns="http://www.w3.org/2000/svg" xmlns:xlink="http://www.w3.org/1999/xlink" width="1318" height="890"><defs><clipPath id="xQVxnFpyhtuH"><path fill="none" stroke="none" d=" M 0 0 L 1318 0 L 1318 890 L 0 890 L 0 0 Z"/></clipPath></defs><g transform="scale(1,1)" clip-path="url(#xQVxnFpyhtuH)"><g><rect fill="rgb(255,255,255)" stroke="none" x="0" y="0" width="1319" height="891" fill-opacity="1"/><path fill="none" stroke="rgb(180,179,186)" paint-order="fill stroke markers" d=" M 25.5 0.5 L 25.5 853.5 M 25.5 0.5 L 25.5 853.5 M 88.5 0.5 L 88.5 853.5 M 151.5 0.5 L 151.5 853.5 M 215.5 0.5 L 215.5 853.5 M 278.5 0.5 L 278.5 853.5 M 342.5 0.5 L 342.5 853.5 M 405.5 0.5 L 405.5 853.5 M 468.5 0.5 L 468.5 853.5 M 532.5 0.5 L 532.5 853.5 M 595.5 0.5 L 595.5 853.5 M 722.5 0.5 L 722.5 853.5 M 785.5 0.5 L 785.5 853.5 M 849.5 0.5 L 849.5 853.5 M 912.5 0.5 L 912.5 853.5 M 975.5 0.5 L 975.5 853.5 M 1039.5 0.5 L 1039.5 853.5 M 1102.5 0.5 L 1102.5 853.5 M 1166.5 0.5 L 1166.5 853.5 M 1229.5 0.5 L 1229.5 853.5 M 1292.5 0.5 L 1292.5 853.5" stroke-opacity="1" stroke-linecap="round" stroke-linejoin="round" stroke-miterlimit="10"/><path fill="none" stroke="rgb(180,179,186)" paint-order="fill stroke markers" d="" stroke-opacity="0.23529411764705882" stroke-linecap="round" stroke-linejoin="round" stroke-miterlimit="10"/><path fill="none" stroke="rgb(180,179,186)" paint-order="fill stroke markers" d=" M 0.5 3.5 L 1318.5 3.5 M 0.5 3.5 L 1318.5 3.5 M 0.5 74.5 L 1318.5 74.5 M 0.5 145.5 L 1318.5 145.5 M 0.5 216.5 L 1318.5 216.5 M 0.5 286.5 L 1318.5 286.5 M 0.5 357.5 L 1318.5 357.5 M 0.5 428.5 L 1318.5 428.5 M 0.5 499.5 L 1318.5 499.5 M 0.5 569.5 L 1318.5 569.5 M 0.5 640.5 L 1318.5 640.5 M 0.5 711.5 L 1318.5 711.5 M 0.5 782.5 L 1318.5 782.5" stroke-opacity="1" stroke-linecap="round" stroke-linejoin="round" stroke-miterlimit="10"/><path fill="none" stroke="rgb(180,179,186)" paint-order="fill stroke markers" d="" stroke-opacity="0.23529411764705882" stroke-linecap="round" stroke-linejoin="round" stroke-miterlimit="10"/><path fill="none" stroke="rgb(28,28,31)" paint-order="fill stroke markers" d=" M 659.5 2.5 L 659.5 853.5" stroke-opacity="1" stroke-miterlimit="10"/><path fill="none" stroke="rgb(28,28,31)" paint-order="fill stroke markers" d=" M 659.5 1.5 L 655.5 5.5" stroke-opacity="1" stroke-miterlimit="10"/><path fill="none" stroke="rgb(28,28,31)" paint-order="fill stroke markers" d=" M 659.5 1.5 L 663.5 5.5" stroke-opacity="1" stroke-miterlimit="10"/><path fill="none" stroke="rgb(28,28,31)" paint-order="fill stroke markers" d=" M 0.5 853.5 L 1316.5 853.5" stroke-opacity="1" stroke-miterlimit="10"/><path fill="none" stroke="rgb(28,28,31)" paint-order="fill stroke markers" d=" M 1317.5 853.5 L 1313.5 849.5" stroke-opacity="1" stroke-miterlimit="10"/><path fill="none" stroke="rgb(28,28,31)" paint-order="fill stroke markers" d=" M 1317.5 853.5 L 1313.5 857.5" stroke-opacity="1" stroke-miterlimit="10"/><text fill="rgb(28,28,31)" stroke="none" font-family="geogebra-sans-serif, sans-serif" font-size="12px" font-style="normal" font-weight="normal" text-decoration="normal" x="20" y="869" text-anchor="start" dominant-baseline="alphabetic" fill-opacity="1">–1</text><text fill="rgb(28,28,31)" stroke="none" font-family="geogebra-sans-serif, sans-serif" font-size="12px" font-style="normal" font-weight="normal" text-decoration="normal" x="77" y="869" text-anchor="start" dominant-baseline="alphabetic" fill-opacity="1">–0.9</text><text fill="rgb(28,28,31)" stroke="none" font-family="geogebra-sans-serif, sans-serif" font-size="12px" font-style="normal" font-weight="normal" text-decoration="normal" x="140" y="869" text-anchor="start" dominant-baseline="alphabetic" fill-opacity="1">–0.8</text><text fill="rgb(28,28,31)" stroke="none" font-family="geogebra-sans-serif, sans-serif" font-size="12px" font-style="normal" font-weight="normal" text-decoration="normal" x="204" y="869" text-anchor="start" dominant-baseline="alphabetic" fill-opacity="1">–0.7</text><text fill="rgb(28,28,31)" stroke="none" font-family="geogebra-sans-serif, sans-serif" font-size="12px" font-style="normal" font-weight="normal" text-decoration="normal" x="267" y="869" text-anchor="start" dominant-baseline="alphabetic" fill-opacity="1">–0.6</text><text fill="rgb(28,28,31)" stroke="none" font-family="geogebra-sans-serif, sans-serif" font-size="12px" font-style="normal" font-weight="normal" text-decoration="normal" x="331" y="869" text-anchor="start" dominant-baseline="alphabetic" fill-opacity="1">–0.5</text><text fill="rgb(28,28,31)" stroke="none" font-family="geogebra-sans-serif, sans-serif" font-size="12px" font-style="normal" font-weight="normal" text-decoration="normal" x="394" y="869" text-anchor="start" dominant-baseline="alphabetic" fill-opacity="1">–0.4</text><text fill="rgb(28,28,31)" stroke="none" font-family="geogebra-sans-serif, sans-serif" font-size="12px" font-style="normal" font-weight="normal" text-decoration="normal" x="457" y="869" text-anchor="start" dominant-baseline="alphabetic" fill-opacity="1">–0.3</text><text fill="rgb(28,28,31)" stroke="none" font-family="geogebra-sans-serif, sans-serif" font-size="12px" font-style="normal" font-weight="normal" text-decoration="normal" x="521" y="869" text-anchor="start" dominant-baseline="alphabetic" fill-opacity="1">–0.2</text><text fill="rgb(28,28,31)" stroke="none" font-family="geogebra-sans-serif, sans-serif" font-size="12px" font-style="normal" font-weight="normal" text-decoration="normal" x="584" y="869" text-anchor="start" dominant-baseline="alphabetic" fill-opacity="1">–0.1</text><text fill="rgb(28,28,31)" stroke="none" font-family="geogebra-sans-serif, sans-serif" font-size="12px" font-style="normal" font-weight="normal" text-decoration="normal" x="714" y="869" text-anchor="start" dominant-baseline="alphabetic" fill-opacity="1">0.1</text><text fill="rgb(28,28,31)" stroke="none" font-family="geogebra-sans-serif, sans-serif" font-size="12px" font-style="normal" font-weight="normal" text-decoration="normal" x="777" y="869" text-anchor="start" dominant-baseline="alphabetic" fill-opacity="1">0.2</text><text fill="rgb(28,28,31)" stroke="none" font-family="geogebra-sans-serif, sans-serif" font-size="12px" font-style="normal" font-weight="normal" text-decoration="normal" x="841" y="869" text-anchor="start" dominant-baseline="alphabetic" fill-opacity="1">0.3</text><text fill="rgb(28,28,31)" stroke="none" font-family="geogebra-sans-serif, sans-serif" font-size="12px" font-style="normal" font-weight="normal" text-decoration="normal" x="904" y="869" text-anchor="start" dominant-baseline="alphabetic" fill-opacity="1">0.4</text><text fill="rgb(28,28,31)" stroke="none" font-family="geogebra-sans-serif, sans-serif" font-size="12px" font-style="normal" font-weight="normal" text-decoration="normal" x="967" y="869" text-anchor="start" dominant-baseline="alphabetic" fill-opacity="1">0.5</text><text fill="rgb(28,28,31)" stroke="none" font-family="geogebra-sans-serif, sans-serif" font-size="12px" font-style="normal" font-weight="normal" text-decoration="normal" x="1031" y="869" text-anchor="start" dominant-baseline="alphabetic" fill-opacity="1">0.6</text><text fill="rgb(28,28,31)" stroke="none" font-family="geogebra-sans-serif, sans-serif" font-size="12px" font-style="normal" font-weight="normal" text-decoration="normal" x="1094" y="869" text-anchor="start" dominant-baseline="alphabetic" fill-opacity="1">0.7</text><text fill="rgb(28,28,31)" stroke="none" font-family="geogebra-sans-serif, sans-serif" font-size="12px" font-style="normal" font-weight="normal" text-decoration="normal" x="1158" y="869" text-anchor="start" dominant-baseline="alphabetic" fill-opacity="1">0.8</text><text fill="rgb(28,28,31)" stroke="none" font-family="geogebra-sans-serif, sans-serif" font-size="12px" font-style="normal" font-weight="normal" text-decoration="normal" x="1221" y="869" text-anchor="start" dominant-baseline="alphabetic" fill-opacity="1">0.9</text><text fill="rgb(28,28,31)" stroke="none" font-family="geogebra-sans-serif, sans-serif" font-size="12px" font-style="normal" font-weight="normal" text-decoration="normal" x="1290" y="869" text-anchor="start" dominant-baseline="alphabetic" fill-opacity="1">1</text><text fill="rgb(28,28,31)" stroke="none" font-family="geogebra-sans-serif, sans-serif" font-size="12px" font-style="normal" font-weight="normal" text-decoration="normal" x="635" y="787" text-anchor="start" dominant-baseline="alphabetic" fill-opacity="1">0.1</text><text fill="rgb(28,28,31)" stroke="none" font-family="geogebra-sans-serif, sans-serif" font-size="12px" font-style="normal" font-weight="normal" text-decoration="normal" x="635" y="716" text-anchor="start" dominant-baseline="alphabetic" fill-opacity="1">0.2</text><text fill="rgb(28,28,31)" stroke="none" font-family="geogebra-sans-serif, sans-serif" font-size="12px" font-style="normal" font-weight="normal" text-decoration="normal" x="635" y="645" text-anchor="start" dominant-baseline="alphabetic" fill-opacity="1">0.3</text><text fill="rgb(28,28,31)" stroke="none" font-family="geogebra-sans-serif, sans-serif" font-size="12px" font-style="normal" font-weight="normal" text-decoration="normal" x="635" y="574" text-anchor="start" dominant-baseline="alphabetic" fill-opacity="1">0.4</text><text fill="rgb(28,28,31)" stroke="none" font-family="geogebra-sans-serif, sans-serif" font-size="12px" font-style="normal" font-weight="normal" text-decoration="normal" x="635" y="504" text-anchor="start" dominant-baseline="alphabetic" fill-opacity="1">0.5</text><text fill="rgb(28,28,31)" stroke="none" font-family="geogebra-sans-serif, sans-serif" font-size="12px" font-style="normal" font-weight="normal" text-decoration="normal" x="635" y="433" text-anchor="start" dominant-baseline="alphabetic" fill-opacity="1">0.6</text><text fill="rgb(28,28,31)" stroke="none" font-family="geogebra-sans-serif, sans-serif" font-size="12px" font-style="normal" font-weight="normal" text-decoration="normal" x="635" y="362" text-anchor="start" dominant-baseline="alphabetic" fill-opacity="1">0.7</text><text fill="rgb(28,28,31)" stroke="none" font-family="geogebra-sans-serif, sans-serif" font-size="12px" font-style="normal" font-weight="normal" text-decoration="normal" x="635" y="291" text-anchor="start" dominant-baseline="alphabetic" fill-opacity="1">0.8</text><text fill="rgb(28,28,31)" stroke="none" font-family="geogebra-sans-serif, sans-serif" font-size="12px" font-style="normal" font-weight="normal" text-decoration="normal" x="635" y="221" text-anchor="start" dominant-baseline="alphabetic" fill-opacity="1">0.9</text><text fill="rgb(28,28,31)" stroke="none" font-family="geogebra-sans-serif, sans-serif" font-size="12px" font-style="normal" font-weight="normal" text-decoration="normal" x="645" y="150" text-anchor="start" dominant-baseline="alphabetic" fill-opacity="1">1</text><text fill="rgb(28,28,31)" stroke="none" font-family="geogebra-sans-serif, sans-serif" font-size="12px" font-style="normal" font-weight="normal" text-decoration="normal" x="635" y="79" text-anchor="start" dominant-baseline="alphabetic" fill-opacity="1">1.1</text><text fill="rgb(28,28,31)" stroke="none" font-family="geogebra-sans-serif, sans-serif" font-size="12px" font-style="normal" font-weight="normal" text-decoration="normal" x="656" y="869" text-anchor="start" dominant-baseline="alphabetic" fill-opacity="1">0</text><path fill="none" stroke="rgb(153,51,0)" paint-order="fill stroke markers" d=" M 0 860.5523414754592 L 2.5742187499998863 860.5235841274813 L 5.1484375 860.4948267795033 L 7.722656249999886 860.4660694315254 L 10.296874999999886 860.4373120835475 L 12.87109375 860.4085547355695 L 15.445312499999886 860.3797973875916 L 18.019531249999886 860.3510400396137 L 20.59375 860.3222826916358 L 23.167968749999886 860.2935253436578 L 25.7421875 860.2647679956799 L 28.31640625 860.236010647702 L 30.890624999999886 860.207253299724 L 33.464843749999886 860.1784959517461 L 36.0390625 860.1497386037681 L 38.61328125 860.1209812557902 L 41.187499999999886 860.0922239078124 L 43.76171875 860.0634665598344 L 46.3359375 860.0347092118565 L 48.910156249999886 860.0059518638785 L 51.484375 859.9771945159006 L 54.05859375 859.9484371679226 L 56.6328125 859.9196798199447 L 59.207031249999886 859.8909224719667 L 61.78125 859.8621651239888 L 64.35546875 859.833407776011 L 66.92968749999989 859.804650428033 L 69.50390625 859.7758930800551 L 72.078125 859.7471357320771 L 74.65234374999989 859.7183783840992 L 77.2265625 859.6896210361213 L 79.80078125 859.6608636881433 L 82.37499999999989 859.6321063401654 L 84.94921874999989 859.6033489921874 L 87.5234375 859.5745916442096 L 90.09765624999989 859.5458342962316 L 92.67187499999989 859.5170769482537 L 95.24609375 859.4883196002758 L 97.8203125 859.4595622522978 L 100.39453125 859.4308049043199 L 102.96875 859.4020475563419 L 105.54296875 859.373290208364 L 108.1171875 859.344532860386 L 110.69140624999989 859.3157755124082 L 113.265625 859.2870181644303 L 115.83984375 859.2582608164523 L 118.41406249999989 859.2295034684744 L 120.98828125 859.2007461204964 L 123.5625 859.1719887725185 L 126.13671874999989 859.1432314245405 L 128.7109375 859.1144740765626 L 131.28515625 859.0857167285847 L 133.8593749999999 859.0569593806068 L 136.4335937499999 859.0282020326289 L 139.0078125 858.9994446846509 L 141.58203125 858.970687336673 L 144.15625 858.941929988695 L 146.73046875 858.9131726407171 L 149.3046875 858.8844152927392 L 151.87890625 858.8556579447612 L 154.45312499999994 858.8269005967833 L 157.02734374999994 858.7981432488054 L 159.6015625 858.7693859008275 L 162.17578124999994 858.7406285528496 L 164.74999999999994 858.7118712048716 L 167.32421875 858.6831138568937 L 169.89843749999994 858.6543565089157 L 172.47265624999994 858.6255991609378 L 175.046875 858.5968418129598 L 177.62109374999994 858.5680844649819 L 180.19531249999994 858.539327117004 L 182.76953124999994 858.5105697690261 L 185.34374999999994 858.4818124210482 L 187.91796875 858.4530550730702 L 190.49218749999994 858.4242977250923 L 193.0664062499999 858.3955403771143 L 195.640625 858.3667830291364 L 198.21484374999994 858.3380256811585 L 200.7890625 858.3092683331805 L 203.36328125 858.2805109852026 L 205.93749999999994 858.2517536372247 L 208.51171874999994 858.2229962892468 L 211.0859375 858.1942389412688 L 213.66015624999994 858.1654815932909 L 216.23437499999994 858.136724245313 L 218.80859375 858.107966897335 L 221.38281249999994 858.0792095493571 L 223.95703124999994 858.0504522013791 L 226.53125 858.0216948534012 L 229.10546874999994 857.9929375054234 L 231.6796875 857.9641801574454 L 234.25390624999994 857.9354228094675 L 236.82812499999994 857.9066654614895 L 239.40234375 857.8779081135116 L 241.97656249999994 857.8491507655336 L 244.55078125 857.8203934175557 L 247.125 857.7916360695777 L 249.69921874999994 857.7628787215998 L 252.2734375 857.734121373622 L 254.84765625 857.705364025644 L 257.42187499999994 857.6766066776661 L 259.99609374999994 857.6478493296881 L 262.5703125 857.6190919817102 L 265.14453124999994 857.5903346337323 L 267.71874999999994 857.5615772857543 L 270.29296875 857.5328199377764 L 272.86718749999994 857.5040625897984 L 275.44140624999994 857.4753052418206 L 278.015625 857.4465478938426 L 280.58984374999994 857.4177905458647 L 283.1640625 857.3890331978868 L 285.73828124999994 857.3602758499088 L 288.3125 857.3315185019309 L 290.88671875 857.3027611539529 L 293.46093749999994 857.274003805975 L 296.03515625 857.245246457997 L 298.609375 857.2164891100192 L 301.18359374999994 857.1877317620413 L 303.7578125 857.1589744140633 L 306.33203125 857.1302170660854 L 308.90624999999994 857.1014597181074 L 311.48046874999994 857.0727023701295 L 314.0546875 857.0439450221515 L 316.62890624999994 857.0151876741736 L 319.20312499999994 856.9864303261957 L 321.77734375 856.9576729782178 L 324.3515625 856.9289156302399 L 326.92578124999994 856.9001582822619 L 329.5 856.871400934284 L 332.07421875 856.842643586306 L 334.64843749999994 856.8138862383281 L 337.22265624999994 856.7851288903502 L 339.796875 856.7563715423722 L 342.37109375 856.7276141943943 L 344.94531249999994 856.6988568464164 L 347.51953125 856.6700994984385 L 350.09375 856.6413421504606 L 352.66796874999994 856.6125848024826 L 355.2421875 856.5838274545047 L 357.81640625 856.5550701065267 L 360.39062499999994 856.5263127585488 L 362.96484374999994 856.4975554105708 L 365.5390625 856.4687980625929 L 368.11328125 856.4400407146151 L 370.68749999999994 856.4112833666371 L 373.26171875 856.3825260186592 L 375.8359375 856.3537686706812 L 378.41015624999994 856.3250113227033 L 380.984375 856.2962539747253 L 383.55859375 856.2674966267474 L 386.13281249999994 856.2387392787695 L 388.70703124999994 856.2099819307915 L 391.28125 856.1812245828137 L 393.85546875 856.1524672348357 L 396.42968749999994 856.1237098868578 L 399.00390625 856.0949525388799 L 401.578125 856.0661951909019 L 404.15234374999994 856.037437842924 L 406.7265625 856.008680494946 L 409.30078125 855.9799231469681 L 411.87499999999994 855.9511657989901 L 414.44921875 855.9224084510123 L 417.0234375 855.8936511030344 L 419.59765625 855.8648937550564 L 422.171875 855.8361364070785 L 424.74609375 855.8073790591005 L 427.3203125 855.7786217111226 L 429.89453124999994 855.7498643631446 L 432.46875 855.7211070151667 L 435.04296875 855.6923496671888 L 437.6171875 855.6635923192109 L 440.19140625 855.634834971233 L 442.765625 855.606077623255 L 445.33984375 855.5773202752771 L 447.9140625 855.5485629272991 L 450.48828125 855.5198055793212 L 453.0625 855.4910482313433 L 455.63671874999994 855.4622908833653 L 458.2109375 855.4335335353874 L 460.78515625 855.4047761874095 L 463.359375 855.3760188394316 L 465.93359375 855.3472614914537 L 468.5078125 855.3185041434757 L 471.08203125 855.2897467954978 L 473.65625 855.2609894475198 L 476.23046875 855.2322320995419 L 478.8046875 855.2034747515639 L 481.37890624999994 855.174717403586 L 483.953125 855.1459600556082 L 486.52734375 855.1172027076302 L 489.1015625 855.0884453596523 L 491.67578125 855.0596880116743 L 494.25 855.0309306636964 L 496.82421875 855.0021733157184 L 499.3984375 854.9734159677405 L 501.97265625 854.9446586197625 L 504.546875 854.9159012717846 L 507.12109375 854.8871439238067 L 509.6953125 854.8583865758288 L 512.26953125 854.8296292278509 L 514.84375 854.800871879873 L 517.41796875 854.772114531895 L 519.9921875 854.743357183917 L 522.56640625 854.7145998359391 L 525.140625 854.6858424879612 L 527.71484375 854.6570851399832 L 530.2890625 854.6283277920053 L 532.86328125 854.5995704440274 L 535.4375 854.5708130960495 L 538.01171875 854.5420557480716 L 540.5859375 854.5132984000936 L 543.16015625 854.4845410521157 L 545.734375 854.4557837041377 L 548.30859375 854.4270263561598 L 550.8828125 854.3982690081818 L 553.45703125 854.3695116602039 L 556.03125 854.3407543122261 L 558.60546875 854.3119969642481 L 561.1796875 854.2832396162702 L 563.75390625 854.2544822682922 L 566.328125 854.2257249203143 L 568.90234375 854.1969675723363 L 571.4765625 854.1682102243584 L 574.05078125 854.1394528763805 L 576.625 854.1106955284025 L 579.19921875 854.0819381804247 L 581.7734375 854.0531808324467 L 584.34765625 854.0244234844688 L 586.921875 853.9956661364909 L 589.49609375 853.9669087885129 L 592.0703125 853.938151440535 L 594.64453125 853.909394092557 L 597.21875 853.8806367445791 L 599.79296875 853.8518793966011 L 602.3671875 853.8231220486233 L 604.94140625 853.7943647006454 L 607.515625 853.7656073526674 L 610.08984375 853.7368500046895 L 612.6640625 853.7080926567115 L 615.23828125 853.6793353087336 L 617.8125 853.6505779607556 L 620.38671875 853.6218206127777 L 622.9609375 853.5930632647998 L 625.53515625 853.5643059168219 L 628.109375 853.535548568844 L 630.68359375 853.506791220866 L 633.2578125 853.4780338728881 L 635.83203125 853.4492765249101 L 638.40625 853.4205191769322 L 640.9804687500001 853.3917618289543 L 643.5546875 853.3630044809763 L 646.12890625 853.3342471329984 L 648.703125 853.3054897850205 L 651.27734375 853.2767324370426 L 653.8515625 853.2479750890647 L 656.42578125 853.2192177410867 L 659 853.1904603931088 M 659 853.1904603931088 L 661.57421875 850.3147255953156 L 664.1484375 847.4389907975225 L 666.72265625 844.5632559997293 L 669.296875 841.6875212019362 L 671.87109375 838.811786404143 L 674.4453125 835.9360516063499 L 677.01953125 833.0603168085568 L 679.59375 830.1845820107636 L 682.16796875 827.3088472129705 L 684.7421875 824.4331124151773 L 687.31640625 821.5573776173842 L 689.890625 818.681642819591 L 692.46484375 815.8059080217979 L 695.0390625 812.9301732240048 L 697.61328125 810.0544384262116 L 700.1875 807.1787036284185 L 702.76171875 804.3029688306253 L 705.3359375 801.4272340328323 L 707.91015625 798.551499235039 L 710.484375 795.675764437246 L 713.05859375 792.8000296394529 L 715.6328125 789.9242948416597 L 718.20703125 787.0485600438666 L 720.78125 784.1728252460734 L 723.35546875 781.2970904482803 L 725.9296875 778.4213556504872 L 728.50390625 775.545620852694 L 731.078125 772.6698860549009 L 733.65234375 769.7941512571077 L 736.2265625 766.9184164593146 L 738.80078125 764.0426816615214 L 741.375 761.1669468637283 L 743.94921875 758.2912120659352 L 746.5234375 755.415477268142 L 749.09765625 752.5397424703489 L 751.671875 749.6640076725557 L 754.24609375 746.7882728747626 L 756.8203125 743.9125380769694 L 759.39453125 741.0368032791763 L 761.96875 738.1610684813832 L 764.54296875 735.28533368359 L 767.1171875 732.4095988857969 L 769.69140625 729.5338640880037 L 772.265625 726.6581292902106 L 774.83984375 723.7823944924174 L 777.4140625 720.9066596946243 L 779.98828125 718.0309248968312 L 782.5625 715.155190099038 L 785.13671875 712.2794553012449 L 787.7109375 709.4037205034517 L 790.28515625 706.5279857056587 L 792.859375 703.6522509078654 L 795.43359375 700.7765161100724 L 798.0078125 697.9007813122792 L 800.58203125 695.0250465144861 L 803.15625 692.1493117166929 L 805.73046875 689.2735769188998 L 808.3046875 686.3978421211066 L 810.87890625 683.5221073233135 L 813.453125 680.6463725255203 L 816.02734375 677.7706377277273 L 818.6015625 674.8949029299341 L 821.17578125 672.019168132141 L 823.75 669.1434333343478 L 826.32421875 666.2676985365547 L 828.8984375 663.3919637387615 L 831.47265625 660.5162289409684 L 834.046875 657.6404941431753 L 836.62109375 654.7647593453821 L 839.1953125 651.889024547589 L 841.76953125 649.0132897497958 L 844.34375 646.1375549520027 L 846.91796875 643.2618201542095 L 849.4921875 640.3860853564164 L 852.06640625 637.5103505586233 L 854.640625 634.6346157608301 L 857.21484375 631.758880963037 L 859.7890625 628.8831461652438 L 862.36328125 626.0074113674507 L 864.9375 623.1316765696575 L 867.51171875 620.2559417718644 L 870.0859375 617.3802069740713 L 872.66015625 614.5044721762781 L 875.234375 611.628737378485 L 877.80859375 608.7530025806918 L 880.3828125 605.8772677828987 L 882.95703125 603.0015329851055 L 885.53125 600.1257981873124 L 888.10546875 597.2500633895193 L 890.6796875 594.3743285917262 L 893.25390625 591.498593793933 L 895.828125 588.6228589961399 L 898.40234375 585.7471241983467 L 900.9765625 582.8713894005537 L 903.55078125 579.9956546027604 L 906.125 577.1199198049674 L 908.69921875 574.2441850071742 L 911.2734375 571.3684502093811 L 913.84765625 568.4927154115879 L 916.421875 565.6169806137948 L 918.99609375 562.7412458160015 L 921.5703125 559.8655110182085 L 924.14453125 556.9897762204153 L 926.71875 554.1140414226222 L 929.29296875 551.238306624829 L 931.8671875 548.3625718270359 L 934.44140625 545.4868370292428 L 937.015625 542.6111022314496 L 939.58984375 539.7353674336565 L 942.1640625 536.8596326358634 L 944.73828125 533.9838978380702 L 947.3125 531.1081630402771 L 949.88671875 528.2324282424839 L 952.4609375 525.3566934446908 L 955.03515625 522.4809586468976 L 957.609375 519.6052238491045 L 960.18359375 516.7294890513114 L 962.7578125 513.8537542535182 L 965.33203125 510.97801945572513 L 967.90625 508.10228465793193 L 970.48046875 505.22654986013885 L 973.0546875 502.35081506234565 L 975.62890625 499.47508026455256 L 978.203125 496.5993454667594 L 980.77734375 493.7236106689663 L 983.3515625 490.8478758711731 L 985.92578125 487.97214107338 L 988.5 485.09640627558684 L 991.07421875 482.2206714777937 L 993.6484375 479.3449366800006 L 996.22265625 476.4692018822074 L 998.796875 473.59346708441427 L 1001.37109375 470.71773228662113 L 1003.9453125 467.84199748882804 L 1006.51953125 464.96626269103484 L 1009.09375 462.0905278932417 L 1011.66796875 459.2147930954486 L 1014.2421875 456.33905829765547 L 1016.81640625 453.46332349986227 L 1019.390625 450.5875887020692 L 1021.96484375 447.71185390427604 L 1024.5390625 444.83611910648284 L 1027.11328125 441.9603843086897 L 1029.6875 439.0846495108966 L 1032.26171875 436.20891471310347 L 1034.8359375 433.33317991531027 L 1037.41015625 430.4574451175172 L 1039.984375 427.58171031972404 L 1042.55859375 424.7059755219309 L 1045.1328125 421.8302407241378 L 1047.70703125 418.9545059263446 L 1050.28125 416.07877112855147 L 1052.85546875 413.2030363307583 L 1055.4296875 410.32730153296524 L 1058.00390625 407.45156673517204 L 1060.578125 404.5758319373789 L 1063.15234375 401.7000971395858 L 1065.7265625 398.82436234179266 L 1068.30078125 395.94862754399946 L 1070.875 393.0728927462064 L 1073.44921875 390.19715794841323 L 1076.0234375 387.3214231506201 L 1078.59765625 384.4456883528269 L 1081.171875 381.5699535550338 L 1083.74609375 378.69421875724066 L 1086.3203125 375.8184839594475 L 1088.89453125 372.94274916165443 L 1091.46875 370.06701436386123 L 1094.04296875 367.1912795660681 L 1096.6171875 364.31554476827495 L 1099.19140625 361.43980997048186 L 1101.765625 358.56407517268866 L 1104.33984375 355.6883403748955 L 1106.9140625 352.81260557710243 L 1109.48828125 349.9368707793093 L 1112.0625 347.0611359815161 L 1114.63671875 344.185401183723 L 1117.2109375 341.30966638592986 L 1119.78515625 338.4339315881367 L 1122.359375 335.5581967903436 L 1124.93359375 332.68246199255043 L 1127.5078125 329.8067271947573 L 1130.08203125 326.93099239696414 L 1132.65625 324.055257599171 L 1135.23046875 321.17952280137786 L 1137.8046875 318.3037880035847 L 1140.37890625 315.42805320579157 L 1142.953125 312.5523184079984 L 1145.52734375 309.6765836102053 L 1148.1015625 306.80084881241214 L 1150.67578125 303.925114014619 L 1153.25 301.04937921682586 L 1155.82421875 298.1736444190327 L 1158.3984375 295.2979096212397 L 1160.97265625 292.4221748234464 L 1163.546875 289.5464400256533 L 1166.12109375 286.67070522786014 L 1168.6953125 283.7949704300671 L 1171.26953125 280.91923563227385 L 1173.84375 278.0435008344807 L 1176.41796875 275.1677660366877 L 1178.9921875 272.2920312388944 L 1181.56640625 269.4162964411013 L 1184.140625 266.54056164330825 L 1186.71484375 263.6648268455151 L 1189.2890625 260.78909204772185 L 1191.86328125 257.9133572499287 L 1194.4375 255.03762245213568 L 1197.01171875 252.16188765434254 L 1199.5859375 249.28615285654928 L 1202.16015625 246.41041805875625 L 1204.734375 243.5346832609631 L 1207.30859375 240.65894846316996 L 1209.8828125 237.78321366537682 L 1212.45703125 234.90747886758368 L 1215.03125 232.03174406979053 L 1217.60546875 229.1560092719974 L 1220.1796875 226.28027447420425 L 1222.75390625 223.4045396764111 L 1225.328125 220.52880487861796 L 1227.90234375 217.65307008082482 L 1230.4765625 214.77733528303168 L 1233.05078125 211.90160048523853 L 1235.625 209.0258656874454 L 1238.19921875 206.15013088965225 L 1240.7734375 203.2743960918591 L 1243.34765625 200.39866129406596 L 1245.921875 197.52292649627282 L 1248.49609375 194.64719169847967 L 1251.0703125 191.77145690068653 L 1253.64453125 188.8957221028935 L 1256.21875 186.01998730510024 L 1258.79296875 183.1442525073071 L 1261.3671875 180.26851770951396 L 1263.94140625 177.39278291172093 L 1266.515625 174.51704811392767 L 1269.08984375 171.64131331613453 L 1271.6640625 168.7655785183415 L 1274.23828125 165.88984372054836 L 1276.8125 163.0141089227551 L 1279.38671875 160.13837412496207 L 1281.9609375 157.26263932716893 L 1284.53515625 154.38690452937567 L 1287.109375 151.51116973158253 L 1289.68359375 148.6354349337895 L 1292.2578125 145.75970013599635 L 1294.83203125 142.8839653382031 L 1297.40625 140.00823054041007 L 1299.98046875 137.1324957426168 L 1302.5546875 134.25676094482378 L 1305.12890625 131.38102614703064 L 1307.703125 128.50529134923738 L 1310.27734375 125.62955655144435 L 1312.8515625 122.75382175365121 L 1315.42578125 119.87808695585795 L 1318 117.00235215806492" stroke-opacity="0.6980392156862745" stroke-linecap="round" stroke-linejoin="round" stroke-miterlimit="10" stroke-width="2.5"/><text fill="rgb(153,51,0)" stroke="none" font-family="geogebra-sans-serif, sans-serif" font-size="16px" font-style="normal" font-weight="normal" text-decoration="normal" x="8" y="860" text-anchor="start" dominant-baseline="alphabetic" fill-opacity="1">LeakyReLU</text></g></g></svg>