<svg version="1.1" xmlns="http://www.w3.org/2000/svg" xmlns:xlink="http://www.w3.org/1999/xlink" width="1318" height="890"><defs><clipPath id="xmIOklcwEbpb"><path fill="none" stroke="none" d=" M 0 0 L 1318 0 L 1318 890 L 0 890 L 0 0 Z"/></clipPath></defs><g transform="scale(1,1)" clip-path="url(#xmIOklcwEbpb)"><g><rect fill="rgb(255,255,255)" stroke="none" x="0" y="0" width="1319" height="891" fill-opacity="1"/><path fill="none" stroke="rgb(180,179,186)" paint-order="fill stroke markers" d=" M 31.5 0.5 L 31.5 849.5 M 31.5 0.5 L 31.5 849.5 M 128.5 0.5 L 128.5 849.5 M 224.5 0.5 L 224.5 849.5 M 321.5 0.5 L 321.5 849.5 M 417.5 0.5 L 417.5 849.5 M 514.5 0.5 L 514.5 849.5 M 610.5 0.5 L 610.5 849.5 M 707.5 0.5 L 707.5 849.5 M 803.5 0.5 L 803.5 849.5 M 900.5 0.5 L 900.5 849.5 M 996.5 0.5 L 996.5 849.5 M 1190.5 0.5 L 1190.5 849.5 M 1286.5 0.5 L 1286.5 849.5" stroke-opacity="1" stroke-linecap="round" stroke-linejoin="round" stroke-miterlimit="10"/><path fill="none" stroke="rgb(180,179,186)" paint-order="fill stroke markers" d="" stroke-opacity="0.23529411764705882" stroke-linecap="round" stroke-linejoin="round" stroke-miterlimit="10"/><path fill="none" stroke="rgb(180,179,186)" paint-order="fill stroke markers" d=" M 0.5 40.5 L 1318.5 40.5 M 0.5 40.5 L 1318.5 40.5 M 0.5 121.5 L 1318.5 121.5 M 0.5 202.5 L 1318.5 202.5 M 0.5 283.5 L 1318.5 283.5 M 0.5 364.5 L 1318.5 364.5 M 0.5 444.5 L 1318.5 444.5 M 0.5 525.5 L 1318.5 525.5 M 0.5 606.5 L 1318.5 606.5 M 0.5 687.5 L 1318.5 687.5 M 0.5 768.5 L 1318.5 768.5" stroke-opacity="1" stroke-linecap="round" stroke-linejoin="round" stroke-miterlimit="10"/><path fill="none" stroke="rgb(180,179,186)" paint-order="fill stroke markers" d="" stroke-opacity="0.23529411764705882" stroke-linecap="round" stroke-linejoin="round" stroke-miterlimit="10"/><path fill="none" stroke="rgb(28,28,31)" paint-order="fill stroke markers" d=" M 1093.5 2.5 L 1093.5 849.5" stroke-opacity="1" stroke-miterlimit="10"/><path fill="none" stroke="rgb(28,28,31)" paint-order="fill stroke markers" d=" M 1093.5 1.5 L 1089.5 5.5" stroke-opacity="1" stroke-miterlimit="10"/><path fill="none" stroke="rgb(28,28,31)" paint-order="fill stroke markers" d=" M 1093.5 1.5 L 1097.5 5.5" stroke-opacity="1" stroke-miterlimit="10"/><path fill="none" stroke="rgb(28,28,31)" paint-order="fill stroke markers" d=" M 0.5 849.5 L 1316.5 849.5" stroke-opacity="1" stroke-miterlimit="10"/><path fill="none" stroke="rgb(28,28,31)" paint-order="fill stroke markers" d=" M 1317.5 849.5 L 1313.5 845.5" stroke-opacity="1" stroke-miterlimit="10"/><path fill="none" stroke="rgb(28,28,31)" paint-order="fill stroke markers" d=" M 1317.5 849.5 L 1313.5 853.5" stroke-opacity="1" stroke-miterlimit="10"/><text fill="rgb(28,28,31)" stroke="none" font-family="geogebra-sans-serif, sans-serif" font-size="12px" font-style="normal" font-weight="normal" text-decoration="normal" x="23" y="865" text-anchor="start" dominant-baseline="alphabetic" fill-opacity="1">–11</text><text fill="rgb(28,28,31)" stroke="none" font-family="geogebra-sans-serif, sans-serif" font-size="12px" font-style="normal" font-weight="normal" text-decoration="normal" x="120" y="865" text-anchor="start" dominant-baseline="alphabetic" fill-opacity="1">–10</text><text fill="rgb(28,28,31)" stroke="none" font-family="geogebra-sans-serif, sans-serif" font-size="12px" font-style="normal" font-weight="normal" text-decoration="normal" x="219" y="865" text-anchor="start" dominant-baseline="alphabetic" fill-opacity="1">–9</text><text fill="rgb(28,28,31)" stroke="none" font-family="geogebra-sans-serif, sans-serif" font-size="12px" font-style="normal" font-weight="normal" text-decoration="normal" x="316" y="865" text-anchor="start" dominant-baseline="alphabetic" fill-opacity="1">–8</text><text fill="rgb(28,28,31)" stroke="none" font-family="geogebra-sans-serif, sans-serif" font-size="12px" font-style="normal" font-weight="normal" text-decoration="normal" x="412" y="865" text-anchor="start" dominant-baseline="alphabetic" fill-opacity="1">–7</text><text fill="rgb(28,28,31)" stroke="none" font-family="geogebra-sans-serif, sans-serif" font-size="12px" font-style="normal" font-weight="normal" text-decoration="normal" x="509" y="865" text-anchor="start" dominant-baseline="alphabetic" fill-opacity="1">–6</text><text fill="rgb(28,28,31)" stroke="none" font-family="geogebra-sans-serif, sans-serif" font-size="12px" font-style="normal" font-weight="normal" text-decoration="normal" x="605" y="865" text-anchor="start" dominant-baseline="alphabetic" fill-opacity="1">–5</text><text fill="rgb(28,28,31)" stroke="none" font-family="geogebra-sans-serif, sans-serif" font-size="12px" font-style="normal" font-weight="normal" text-decoration="normal" x="702" y="865" text-anchor="start" dominant-baseline="alphabetic" fill-opacity="1">–4</text><text fill="rgb(28,28,31)" stroke="none" font-family="geogebra-sans-serif, sans-serif" font-size="12px" font-style="normal" font-weight="normal" text-decoration="normal" x="798" y="865" text-anchor="start" dominant-baseline="alphabetic" fill-opacity="1">–3</text><text fill="rgb(28,28,31)" stroke="none" font-family="geogebra-sans-serif, sans-serif" font-size="12px" font-style="normal" font-weight="normal" text-decoration="normal" x="895" y="865" text-anchor="start" dominant-baseline="alphabetic" fill-opacity="1">–2</text><text fill="rgb(28,28,31)" stroke="none" font-family="geogebra-sans-serif, sans-serif" font-size="12px" font-style="normal" font-weight="normal" text-decoration="normal" x="991" y="865" text-anchor="start" dominant-baseline="alphabetic" fill-opacity="1">–1</text><text fill="rgb(28,28,31)" stroke="none" font-family="geogebra-sans-serif, sans-serif" font-size="12px" font-style="normal" font-weight="normal" text-decoration="normal" x="1188" y="865" text-anchor="start" dominant-baseline="alphabetic" fill-opacity="1">1</text><text fill="rgb(28,28,31)" stroke="none" font-family="geogebra-sans-serif, sans-serif" font-size="12px" font-style="normal" font-weight="normal" text-decoration="normal" x="1284" y="865" text-anchor="start" dominant-baseline="alphabetic" fill-opacity="1">2</text><text fill="rgb(28,28,31)" stroke="none" font-family="geogebra-sans-serif, sans-serif" font-size="12px" font-style="normal" font-weight="normal" text-decoration="normal" x="1069" y="773" text-anchor="start" dominant-baseline="alphabetic" fill-opacity="1">0.1</text><text fill="rgb(28,28,31)" stroke="none" font-family="geogebra-sans-serif, sans-serif" font-size="12px" font-style="normal" font-weight="normal" text-decoration="normal" x="1069" y="692" text-anchor="start" dominant-baseline="alphabetic" fill-opacity="1">0.2</text><text fill="rgb(28,28,31)" stroke="none" font-family="geogebra-sans-serif, sans-serif" font-size="12px" font-style="normal" font-weight="normal" text-decoration="normal" x="1069" y="611" text-anchor="start" dominant-baseline="alphabetic" fill-opacity="1">0.3</text><text fill="rgb(28,28,31)" stroke="none" font-family="geogebra-sans-serif, sans-serif" font-size="12px" font-style="normal" font-weight="normal" text-decoration="normal" x="1069" y="530" text-anchor="start" dominant-baseline="alphabetic" fill-opacity="1">0.4</text><text fill="rgb(28,28,31)" stroke="none" font-family="geogebra-sans-serif, sans-serif" font-size="12px" font-style="normal" font-weight="normal" text-decoration="normal" x="1069" y="450" text-anchor="start" dominant-baseline="alphabetic" fill-opacity="1">0.5</text><text fill="rgb(28,28,31)" stroke="none" font-family="geogebra-sans-serif, sans-serif" font-size="12px" font-style="normal" font-weight="normal" text-decoration="normal" x="1069" y="369" text-anchor="start" dominant-baseline="alphabetic" fill-opacity="1">0.6</text><text fill="rgb(28,28,31)" stroke="none" font-family="geogebra-sans-serif, sans-serif" font-size="12px" font-style="normal" font-weight="normal" text-decoration="normal" x="1069" y="288" text-anchor="start" dominant-baseline="alphabetic" fill-opacity="1">0.7</text><text fill="rgb(28,28,31)" stroke="none" font-family="geogebra-sans-serif, sans-serif" font-size="12px" font-style="normal" font-weight="normal" text-decoration="normal" x="1069" y="207" text-anchor="start" dominant-baseline="alphabetic" fill-opacity="1">0.8</text><text fill="rgb(28,28,31)" stroke="none" font-family="geogebra-sans-serif, sans-serif" font-size="12px" font-style="normal" font-weight="normal" text-decoration="normal" x="1069" y="126" text-anchor="start" dominant-baseline="alphabetic" fill-opacity="1">0.9</text><text fill="rgb(28,28,31)" stroke="none" font-family="geogebra-sans-serif, sans-serif" font-size="12px" font-style="normal" font-weight="normal" text-decoration="normal" x="1079" y="45" text-anchor="start" dominant-baseline="alphabetic" fill-opacity="1">1</text><text fill="rgb(28,28,31)" stroke="none" font-family="geogebra-sans-serif, sans-serif" font-size="12px" font-style="normal" font-weight="normal" text-decoration="normal" x="1090" y="865" text-anchor="start" dominant-baseline="alphabetic" fill-opacity="1">0</text><path fill="none" stroke="rgb(153,51,0)" paint-order="fill stroke markers" d=" M 550.9985795454545 895.0055119521486 L 555.2698863636364 894.6475587442219 L 559.5411931818182 894.2896055362951 L 563.8125000000001 893.9316523283684 L 568.0838068181819 893.5736991204417 L 572.3551136363636 893.215745912515 L 576.6264204545455 892.8577927045882 L 580.8977272727274 892.4998394966615 L 585.1690340909091 892.1418862887348 L 589.440340909091 891.7839330808081 L 593.7116477272727 891.4259798728813 L 597.9829545454546 891.0680266649546 L 602.2542613636365 890.7100734570279 L 606.5255681818182 890.3521202491012 L 610.796875 889.9941670411744 L 615.0681818181819 889.6362138332477 L 619.3394886363637 889.278260625321 L 623.6107954545455 888.9203074173943 L 627.8821022727273 888.5623542094675 L 632.1534090909092 888.2044010015408 L 636.424715909091 887.8464477936141 L 640.6960227272727 887.4884945856874 L 644.9673295454546 887.1305413777607 L 649.2386363636364 886.7725881698339 L 653.5099431818182 886.4146349619072 L 657.78125 886.0566817539805 L 662.0525568181818 885.6987285460538 L 666.3238636363637 885.340775338127 L 670.5951704545455 884.9828221302002 L 674.8664772727273 884.6248689222735 L 679.1377840909091 884.2669157143469 L 683.409090909091 883.90896250642 L 687.6803977272727 883.5510092984933 L 691.9517045454546 883.1930560905666 L 696.2230113636364 882.83510288264 L 700.4943181818182 882.4771496747132 L 704.765625 882.1191964667864 L 709.036931818182 881.7612432588597 L 713.3082386363637 881.403290050933 L 717.5795454545455 881.0453368430063 L 721.8508522727274 880.6873836350795 L 726.1221590909091 880.3294304271528 L 730.393465909091 879.9714772192261 L 734.6647727272727 879.6135240112994 L 738.9360795454545 879.2555708033726 L 743.2073863636365 878.8976175954459 L 747.4786931818182 878.5396643875192 L 751.75 878.1817111795925 L 756.0213068181819 877.8237579716658 L 760.2926136363637 877.465804763739 L 764.5639204545455 877.1078515558123 L 768.8352272727273 876.7498983478856 L 773.1065340909092 876.3919451399589 L 777.377840909091 876.0339919320321 L 781.6491477272727 875.6760387241054 L 785.9204545454545 875.3180855161787 L 790.1917613636363 874.960132308252 L 794.4630681818182 874.6021791003252 L 798.734375 874.2442258923985 L 803.0056818181819 873.8862726844718 L 807.2769886363636 873.5283194765451 L 811.5482954545455 873.1703662686184 L 815.8196022727274 872.8124130606916 L 820.0909090909092 872.4544598527649 L 824.362215909091 872.0965066448382 L 828.6335227272727 871.7385534369115 L 832.9048295454545 871.3806002289847 L 837.1761363636365 871.022647021058 L 841.4474431818182 870.6646938131313 L 845.71875 870.3067406052046 L 849.9900568181819 869.9487873972778 L 854.2613636363636 869.5908341893511 L 858.5326704545454 869.2328809814244 L 862.8039772727274 868.8749277734977 L 867.0752840909091 868.5169745655709 L 871.346590909091 868.1590213576442 L 875.6178977272727 867.8010681497175 L 879.8892045454545 867.4431149417908 L 884.1605113636365 867.085161733864 L 888.4318181818182 866.7272085259373 L 892.703125 866.3692553180106 L 896.9744318181819 866.0113021100839 L 901.2457386363636 865.6533489021572 L 905.5170454545456 865.2953956942304 L 909.7883522727274 864.9374424863037 L 914.0596590909091 864.579489278377 L 918.330965909091 864.2215360704503 L 922.6022727272727 863.8635828625235 L 926.8735795454547 863.5056296545968 L 931.1448863636365 863.1476764466701 L 935.4161931818182 862.7897232387434 L 939.6875 862.4317700308166 L 943.9588068181818 862.0738168228899 L 948.2301136363636 861.7158636149632 L 952.5014204545455 861.3579104070365 L 956.7727272727274 860.9999571991096 L 961.0440340909091 860.642003991183 L 965.3153409090909 860.2840507832562 L 969.5866477272727 859.9260975753295 L 973.8579545454546 859.5681443674029 L 978.1292613636365 859.210191159476 L 982.4005681818182 858.8522379515493 L 986.671875 858.4942847436226 L 990.9431818181818 858.136331535696 L 995.2144886363637 857.7783783277691 L 999.4857954545455 857.4204251198424 L 1003.7571022727274 857.0624719119157 L 1008.0284090909091 856.704518703989 L 1012.2997159090909 856.3465654960622 L 1016.5710227272729 855.9886122881355 L 1020.8423295454546 855.6306590802088 L 1025.1136363636365 855.2727058722821 L 1029.3849431818182 854.9147526643554 L 1033.65625 854.5567994564286 L 1037.927556818182 854.1988462485019 L 1042.1988636363637 853.8408930405752 L 1046.4701704545455 853.4829398326485 L 1050.7414772727273 853.1249866247217 L 1055.012784090909 852.767033416795 L 1059.2840909090908 852.4090802088683 L 1063.5553977272727 852.0511270009416 L 1067.8267045454545 851.6931737930148 L 1072.0980113636365 851.3352205850881 L 1076.3693181818182 850.9772673771614 L 1080.640625 850.6193141692347 L 1084.911931818182 850.2613609613079 L 1089.1832386363637 849.9034077533812 L 1093.4545454545455 849.5454545454545 M 1093.4545454545455 849.5454545454545 L 1094.3316761363637 842.1947360255093 L 1095.2088068181818 834.8440175055641 L 1096.0859375 827.4932989856188 L 1096.9630681818182 820.1425804656736 L 1097.8401988636365 812.7918619457284 L 1098.7173295454545 805.4411434257833 L 1099.5944602272727 798.0904249058381 L 1100.471590909091 790.7397063858928 L 1101.3487215909092 783.3889878659476 L 1102.2258522727273 776.0382693460024 L 1103.1029829545455 768.6875508260572 L 1103.9801136363637 761.336832306112 L 1104.8572443181818 753.9861137861667 L 1105.734375 746.6353952662215 L 1106.6115056818182 739.2846767462763 L 1107.4886363636365 731.9339582263311 L 1108.3657670454545 724.5832397063859 L 1109.2428977272727 717.2325211864406 L 1110.120028409091 709.8818026664954 L 1110.9971590909092 702.5310841465503 L 1111.8742897727273 695.1803656266051 L 1112.7514204545455 687.8296471066599 L 1113.6285511363637 680.4789285867146 L 1114.5056818181818 673.1282100667694 L 1115.3828125 665.7774915468242 L 1116.2599431818182 658.426773026879 L 1117.1370738636365 651.0760545069338 L 1118.0142045454545 643.7253359869885 L 1118.8913352272727 636.3746174670433 L 1119.768465909091 629.0238989470981 L 1120.6455965909092 621.6731804271529 L 1121.5227272727273 614.3224619072078 L 1122.3998579545455 606.9717433872624 L 1123.2769886363637 599.6210248673173 L 1124.1541193181818 592.2703063473721 L 1125.03125 584.9195878274268 L 1125.9083806818182 577.5688693074817 L 1126.7855113636365 570.2181507875364 L 1127.6626420454545 562.8674322675912 L 1128.5397727272727 555.516713747646 L 1129.416903409091 548.1659952277007 L 1130.294034090909 540.8152767077556 L 1131.1711647727273 533.4645581878103 L 1132.0482954545455 526.1138396678651 L 1132.9254261363637 518.76312114792 L 1133.8025568181818 511.4124026279747 L 1134.6796875 504.0616841080295 L 1135.5568181818182 496.71096558808426 L 1136.4339488636365 489.3602470681391 L 1137.3110795454545 482.0095285481939 L 1138.1882102272727 474.65881002824864 L 1139.065340909091 467.30809150830345 L 1139.942471590909 459.9573729883582 L 1140.8196022727273 452.606654468413 L 1141.6967329545455 445.25593594846777 L 1142.5738636363637 437.9052174285226 L 1143.4509943181818 430.5544989085774 L 1144.328125 423.20378038863214 L 1145.2052556818182 415.85306186868695 L 1146.0823863636365 408.5023433487417 L 1146.9595170454545 401.1516248287965 L 1147.8366477272727 393.8009063088513 L 1148.713778409091 386.4501877889061 L 1149.590909090909 379.0994692689609 L 1150.4680397727273 371.74875074901564 L 1151.3451704545455 364.39803222907045 L 1152.2223011363637 357.04731370912526 L 1153.0994318181818 349.69659518918 L 1153.9765625 342.3458766692348 L 1154.8536931818182 334.99515814928964 L 1155.7308238636365 327.64443962934433 L 1156.6079545454545 320.29372110939914 L 1157.4850852272727 312.94300258945395 L 1158.362215909091 305.59228406950876 L 1159.239346590909 298.2415655495636 L 1160.1164772727273 290.89084702961827 L 1160.9936079545455 283.5401285096731 L 1161.8707386363637 276.1894099897279 L 1162.7478693181818 268.8386914697827 L 1163.625 261.4879729498375 L 1164.5021306818182 254.1372544298922 L 1165.3792613636365 246.78653590994702 L 1166.2563920454545 239.43581739000183 L 1167.1335227272727 232.08509887005664 L 1168.010653409091 224.73438035011145 L 1168.887784090909 217.38366183016615 L 1169.7649147727273 210.03294331022096 L 1170.6420454545455 202.68222479027577 L 1171.5191761363637 195.33150627033058 L 1172.3963068181818 187.9807877503854 L 1173.2734375 180.63006923044009 L 1174.1505681818182 173.2793507104949 L 1175.0276988636365 165.9286321905497 L 1175.9048295454545 158.57791367060452 L 1176.7819602272727 151.22719515065933 L 1177.659090909091 143.87647663071402 L 1178.536221590909 136.52575811076883 L 1179.4133522727273 129.17503959082364 L 1180.2904829545455 121.82432107087845 L 1181.1676136363637 114.47360255093326 L 1182.0447443181818 107.12288403098796 L 1182.921875 99.77216551104277 L 1183.7990056818182 92.42144699109758 L 1184.6761363636365 85.07072847115239 L 1185.5532670454545 77.7200099512072 L 1186.4303977272727 70.3692914312619 L 1187.307528409091 63.01857291131671 L 1188.184659090909 55.66785439137152 L 1189.0617897727273 48.31713587142633 L 1189.9389204545455 40.96641735148103 L 1190.8160511363637 33.61569883153595 L 1191.6931818181818 26.264980311590648 L 1192.5703125 18.914261791645345 L 1193.4474431818182 11.563543271700269 L 1194.3245738636363 4.212824751755079 L 1195.2017045454545 -3.1378937681902244 L 1196.0788352272727 -10.488612288135528" stroke-opacity="0.6980392156862745" stroke-linecap="round" stroke-linejoin="round" stroke-miterlimit="10" stroke-width="2.5"/><text fill="rgb(153,51,0)" stroke="none" font-family="geogebra-sans-serif, sans-serif" font-size="16px" font-style="normal" font-weight="normal" text-decoration="normal" x="610" y="882" text-anchor="start" dominant-baseline="alphabetic" fill-opacity="1">LeakyReLU</text><path fill="none" stroke="rgb(0,0,255)" paint-order="fill stroke markers" d=" M 0 857.6362660779533 L 4.271306818181756 857.6362616649326 L 8.542613636363512 857.6362570522904 L 12.813920454545496 857.6362522309969 L 17.085227272727252 857.6362471916138 L 21.356534090909236 857.6362419242761 L 25.62784090909099 857.6362364186722 L 29.899147727272748 857.6362306640242 L 34.17045454545473 857.6362246490667 L 38.44176136363649 857.6362183620246 L 42.713068181818244 857.6362117905904 L 46.984375 857.6362049218997 L 51.255681818181756 857.6361977425062 L 55.52698863636374 857.6361902383552 L 59.798295454545496 857.6361823947566 L 64.06960227272725 857.6361741963556 L 68.34090909090924 857.6361656271027 L 72.61221590909088 857.6361566702227 L 76.88352272727275 857.6361473081813 L 81.15482954545462 857.6361375226512 L 85.42613636363649 857.6361272944761 L 89.69744318181824 857.636116603633 L 93.96875 857.6361054291933 L 98.24005681818176 857.6360937492818 L 102.51136363636374 857.6360815410336 L 106.7826704545455 857.6360687805494 L 111.05397727272737 857.6360554428493 L 115.32528409090912 857.6360415018229 L 119.59659090909088 857.6360269301789 L 123.86789772727263 857.6360116993918 L 128.13920454545462 857.6359957796453 L 132.41051136363637 857.6359791397746 L 136.68181818181824 857.6359617472051 L 140.953125 857.6359435678888 L 145.22443181818198 857.6359245662376 L 149.49573863636374 857.6359047050531 L 153.7670454545455 857.6358839454549 L 158.03835227272737 857.6358622468035 L 162.30965909090912 857.6358395666211 L 166.58096590909088 857.6358158605087 L 170.85227272727286 857.6357910820584 L 175.12357954545462 857.6357651827636 L 179.39488636363637 857.6357381119232 L 183.66619318181824 857.6357098165427 L 187.9375 857.6356802412305 L 192.20880681818198 857.6356493280895 L 196.48011363636374 857.6356170166031 L 200.7514204545455 857.635583243518 L 205.02272727272725 857.6355479427191 L 209.29403409090912 857.6355110451008 L 213.56534090909088 857.6354724784316 L 217.83664772727286 857.6354321672125 L 222.10795454545462 857.6353900325295 L 226.37926136363637 857.6353459918987 L 230.65056818181813 857.6352999591053 L 234.9218750000001 857.6352518440345 L 239.19318181818187 857.6352015524952 L 243.46448863636374 857.6351489860357 L 247.7357954545455 857.6350940417507 L 252.00710227272725 857.63503661208 L 256.278409090909 857.6349765845981 L 260.549715909091 857.634913841794 L 264.82102272727275 857.634848260841 L 269.0923295454546 857.6347797133562 L 273.3636363636364 857.63470806515 L 277.63494318181836 857.6346331759621 L 281.9062500000001 857.6345548991877 L 286.17755681818187 857.6344730815907 L 290.44886363636374 857.6343875630032 L 294.7201704545455 857.6342981760122 L 298.99147727272725 857.6342047456317 L 303.262784090909 857.6341070889604 L 307.534090909091 857.6340050148235 L 311.80539772727275 857.6338983233986 L 316.0767045454546 857.6337868058242 L 320.3480113636364 857.6336702437911 L 324.61931818181824 857.633548409115 L 328.8906250000001 857.6334210632897 L 333.16193181818187 857.6332879570202 L 337.4332386363636 857.633148829735 L 341.7045454545455 857.6330034090754 L 345.97585227272737 857.632851410363 L 350.24715909090924 857.6326925360415 L 354.518465909091 857.6325264750955 L 358.78977272727275 857.6323529024402 L 363.0610795454545 857.6321714782863 L 367.3323863636364 857.631981847474 L 371.60369318181824 857.6317836387777 L 375.8750000000001 857.6315764641801 L 380.14630681818187 857.6313599181116 L 384.4176136363636 857.631133576657 L 388.6889204545455 857.6308969967255 L 392.96022727272725 857.630649715183 L 397.2315340909091 857.630391247946 L 401.502840909091 857.6301210890334 L 405.77414772727275 857.6298387095765 L 410.0454545454546 857.6295435567829 L 414.3167613636364 857.6292350528554 L 418.58806818181824 857.6289125938602 L 422.859375 857.6285755485443 L 427.13068181818187 857.6282232571009 L 431.40198863636374 857.6278550298766 L 435.6732954545455 857.6274701460219 L 439.94460227272725 857.6270678520799 L 444.2159090909091 857.6266473605114 L 448.487215909091 857.626207848153 L 452.75852272727286 857.625748454606 L 457.0298295454546 857.6252682805516 L 461.3011363636364 857.624766385991 L 465.57244318181824 857.6242417884046 L 469.84375 857.6236934608287 L 474.11505681818187 857.6231203298457 L 478.38636363636374 857.6225212734821 L 482.6576704545455 857.6218951190122 L 486.92897727272737 857.6212406406627 L 491.2002840909091 857.6205565572127 L 495.4715909090909 857.6198415294858 L 499.74289772727275 857.6190941577285 L 504.0142045454546 857.6183129788695 L 508.2855113636365 857.6174964636567 L 512.5568181818182 857.6166430136623 L 516.828125 857.6157509581542 L 521.0994318181819 857.6148185508256 L 525.3707386363636 857.6138439663757 L 529.6420454545455 857.6128252969372 L 533.9133522727274 857.6117605483412 L 538.1846590909091 857.6106476362127 L 542.455965909091 857.6094843818911 L 546.7272727272727 857.608268508165 L 550.9985795454545 857.6069976348139 L 555.2698863636364 857.6056692739487 L 559.5411931818182 857.6042808251419 L 563.8125000000001 857.6028295703363 L 568.0838068181819 857.6013126685244 L 572.3551136363636 857.5997271501867 L 576.6264204545455 857.5980699114785 L 580.8977272727274 857.5963377081539 L 585.1690340909091 857.5945271492144 L 589.440340909091 857.592634690271 L 593.7116477272727 857.5906566266057 L 597.9829545454546 857.5885890859184 L 602.2542613636365 857.5864280207475 L 606.5255681818182 857.5841692005451 L 610.796875 857.5818082033968 L 615.0681818181819 857.5793404073637 L 619.3394886363637 857.5767609814354 L 623.6107954545455 857.5740648760726 L 627.8821022727273 857.5712468133214 L 632.1534090909092 857.5683012764821 L 636.424715909091 857.5652224993083 L 640.6960227272727 857.5620044547201 L 644.9673295454546 857.5586408430044 L 649.2386363636364 857.5551250794827 L 653.5099431818182 857.551450281621 L 657.78125 857.5476092555564 L 662.0525568181818 857.5435944820139 L 666.3238636363637 857.5393981015866 L 670.5951704545455 857.5350118993505 L 674.8664772727273 857.5304272887819 L 679.1377840909091 857.5256352949491 L 683.409090909091 857.5206265369421 L 687.6803977272727 857.515391209509 L 691.9517045454546 857.5099190638605 L 696.2230113636364 857.5041993876072 L 700.4943181818182 857.4982209837881 L 704.765625 857.4919721489517 L 709.036931818182 857.4854406502453 L 713.3082386363637 857.4786137014669 L 717.5795454545455 857.4714779380353 L 721.8508522727274 857.4640193908269 L 726.1221590909091 857.4562234588301 L 730.393465909091 857.4480748805612 L 734.6647727272727 857.4395577041888 L 738.9360795454545 857.430655256306 L 743.2073863636365 857.4213501092897 L 747.4786931818182 857.4116240471851 L 751.75 857.4014580300444 L 756.0213068181819 857.3908321566546 L 760.2926136363637 857.3797256255782 L 764.5639204545455 857.3681166944319 L 768.8352272727273 857.3559826373236 L 773.1065340909092 857.3432997003626 L 777.377840909091 857.33004305516 L 781.6491477272727 857.316186750223 L 785.9204545454545 857.3017036601522 L 790.1917613636363 857.2865654325399 L 794.4630681818182 857.2707424324674 L 798.734375 857.2542036844906 L 803.0056818181819 857.2369168120022 L 807.2769886363636 857.2188479738498 L 811.5482954545455 857.1999617980891 L 815.8196022727274 857.1802213127373 L 820.0909090909092 857.1595878733974 L 824.362215909091 857.1380210876063 L 828.6335227272727 857.1154787357619 L 832.9048295454545 857.0919166884732 L 837.1761363636365 857.0672888201716 L 841.4474431818182 857.0415469188141 L 845.71875 857.0146405915029 L 849.9900568181819 856.9865171658354 L 854.2613636363636 856.9571215867904 L 858.5326704545454 856.9263963089527 L 862.8039772727274 856.8942811838597 L 867.0752840909091 856.8607133422544 L 871.346590909091 856.8256270710107 L 875.6178977272727 856.788953684492 L 879.8892045454545 856.750621390091 L 884.1605113636365 856.7105551476867 L 888.4318181818182 856.6686765227444 L 892.703125 856.6249035327702 L 896.9744318181819 856.5791504868209 L 901.2457386363636 856.5313278177534 L 905.5170454545456 856.4813419068859 L 909.7883522727274 856.4290949007278 L 914.0596590909091 856.3744845194203 L 918.330965909091 856.3174038565105 L 922.6022727272727 856.2577411696697 L 926.8735795454547 856.1953796619432 L 931.1448863636365 856.1301972531072 L 935.4161931818182 856.0620663406813 L 939.6875 855.9908535501312 L 943.9588068181818 855.9164194737718 L 948.2301136363636 855.8386183978604 L 952.5014204545455 855.7572980173431 L 956.7727272727274 855.6722991377006 L 961.0440340909091 855.5834553633043 L 965.3153409090909 855.4905927716776 L 969.5866477272727 855.3935295730209 L 973.8579545454546 855.2920757543365 L 978.1292613636365 855.1860327074545 L 982.4005681818182 855.0751928402341 L 986.671875 854.9593391701756 L 990.9431818181818 854.8382448996517 L 995.2144886363637 854.7116729719235 L 999.4857954545455 854.5793756070725 L 1003.7571022727274 854.4410938169423 L 1008.0284090909091 854.2965568981367 L 1012.2997159090909 854.1454819020863 L 1016.5710227272729 853.9875730811411 L 1020.8423295454546 853.8225213096091 L 1025.1136363636365 853.6500034786052 L 1029.3849431818182 853.4696818635261 L 1033.65625 853.281203462914 L 1037.927556818182 853.0841993074124 L 1042.1988636363637 852.8782837374648 L 1046.4701704545455 852.6630536483384 L 1050.7414772727273 852.4380877009982 L 1055.012784090909 852.2029454972846 L 1059.2840909090908 851.9571667177803 L 1063.5553977272727 851.7002702206795 L 1067.8267045454545 851.4317530998937 L 1072.0980113636365 851.1510897005531 L 1076.3693181818182 850.8577305899723 L 1080.640625 850.5511014820694 L 1084.911931818182 850.2306021131316 L 1089.1832386363637 849.8956050667257 L 1093.4545454545455 849.5454545454545 M 1093.4545454545455 849.5454545454545 L 1094.3316761363637 842.1947360255093 L 1095.2088068181818 834.8440175055641 L 1096.0859375 827.4932989856188 L 1096.9630681818182 820.1425804656736 L 1097.8401988636365 812.7918619457284 L 1098.7173295454545 805.4411434257833 L 1099.5944602272727 798.0904249058381 L 1100.471590909091 790.7397063858928 L 1101.3487215909092 783.3889878659476 L 1102.2258522727273 776.0382693460024 L 1103.1029829545455 768.6875508260572 L 1103.9801136363637 761.336832306112 L 1104.8572443181818 753.9861137861667 L 1105.734375 746.6353952662215 L 1106.6115056818182 739.2846767462763 L 1107.4886363636365 731.9339582263311 L 1108.3657670454545 724.5832397063859 L 1109.2428977272727 717.2325211864406 L 1110.120028409091 709.8818026664954 L 1110.9971590909092 702.5310841465503 L 1111.8742897727273 695.1803656266051 L 1112.7514204545455 687.8296471066599 L 1113.6285511363637 680.4789285867146 L 1114.5056818181818 673.1282100667694 L 1115.3828125 665.7774915468242 L 1116.2599431818182 658.426773026879 L 1117.1370738636365 651.0760545069338 L 1118.0142045454545 643.7253359869885 L 1118.8913352272727 636.3746174670433 L 1119.768465909091 629.0238989470981 L 1120.6455965909092 621.6731804271529 L 1121.5227272727273 614.3224619072078 L 1122.3998579545455 606.9717433872624 L 1123.2769886363637 599.6210248673173 L 1124.1541193181818 592.2703063473721 L 1125.03125 584.9195878274268 L 1125.9083806818182 577.5688693074817 L 1126.7855113636365 570.2181507875364 L 1127.6626420454545 562.8674322675912 L 1128.5397727272727 555.516713747646 L 1129.416903409091 548.1659952277007 L 1130.294034090909 540.8152767077556 L 1131.1711647727273 533.4645581878103 L 1132.0482954545455 526.1138396678651 L 1132.9254261363637 518.76312114792 L 1133.8025568181818 511.4124026279747 L 1134.6796875 504.0616841080295 L 1135.5568181818182 496.71096558808426 L 1136.4339488636365 489.3602470681391 L 1137.3110795454545 482.0095285481939 L 1138.1882102272727 474.65881002824864 L 1139.065340909091 467.30809150830345 L 1139.942471590909 459.9573729883582 L 1140.8196022727273 452.606654468413 L 1141.6967329545455 445.25593594846777 L 1142.5738636363637 437.9052174285226 L 1143.4509943181818 430.5544989085774 L 1144.328125 423.20378038863214 L 1145.2052556818182 415.85306186868695 L 1146.0823863636365 408.5023433487417 L 1146.9595170454545 401.1516248287965 L 1147.8366477272727 393.8009063088513 L 1148.713778409091 386.4501877889061 L 1149.590909090909 379.0994692689609 L 1150.4680397727273 371.74875074901564 L 1151.3451704545455 364.39803222907045 L 1152.2223011363637 357.04731370912526 L 1153.0994318181818 349.69659518918 L 1153.9765625 342.3458766692348 L 1154.8536931818182 334.99515814928964 L 1155.7308238636365 327.64443962934433 L 1156.6079545454545 320.29372110939914 L 1157.4850852272727 312.94300258945395 L 1158.362215909091 305.59228406950876 L 1159.239346590909 298.2415655495636 L 1160.1164772727273 290.89084702961827 L 1160.9936079545455 283.5401285096731 L 1161.8707386363637 276.1894099897279 L 1162.7478693181818 268.8386914697827 L 1163.625 261.4879729498375 L 1164.5021306818182 254.1372544298922 L 1165.3792613636365 246.78653590994702 L 1166.2563920454545 239.43581739000183 L 1167.1335227272727 232.08509887005664 L 1168.010653409091 224.73438035011145 L 1168.887784090909 217.38366183016615 L 1169.7649147727273 210.03294331022096 L 1170.6420454545455 202.68222479027577 L 1171.5191761363637 195.33150627033058 L 1172.3963068181818 187.9807877503854 L 1173.2734375 180.63006923044009 L 1174.1505681818182 173.2793507104949 L 1175.0276988636365 165.9286321905497 L 1175.9048295454545 158.57791367060452 L 1176.7819602272727 151.22719515065933 L 1177.659090909091 143.87647663071402 L 1178.536221590909 136.52575811076883 L 1179.4133522727273 129.17503959082364 L 1180.2904829545455 121.82432107087845 L 1181.1676136363637 114.47360255093326 L 1182.0447443181818 107.12288403098796 L 1182.921875 99.77216551104277 L 1183.7990056818182 92.42144699109758 L 1184.6761363636365 85.07072847115239 L 1185.5532670454545 77.7200099512072 L 1186.4303977272727 70.3692914312619 L 1187.307528409091 63.01857291131671 L 1188.184659090909 55.66785439137152 L 1189.0617897727273 48.31713587142633 L 1189.9389204545455 40.96641735148103 L 1190.8160511363637 33.61569883153595 L 1191.6931818181818 26.264980311590648 L 1192.5703125 18.914261791645345 L 1193.4474431818182 11.563543271700269 L 1194.3245738636363 4.212824751755079 L 1195.2017045454545 -3.1378937681902244 L 1196.0788352272727 -10.488612288135528" stroke-opacity="0.6980392156862745" stroke-linecap="round" stroke-linejoin="round" stroke-miterlimit="10" stroke-width="2.5"/><text fill="rgb(0,0,255)" stroke="none" font-family="geogebra-sans-serif, sans-serif" font-size="16px" font-style="normal" font-weight="normal" text-decoration="normal" x="8" y="857" text-anchor="start" dominant-baseline="alphabetic" fill-opacity="1">ELU</text></g></g></svg>