<svg version="1.1" xmlns="http://www.w3.org/2000/svg" xmlns:xlink="http://www.w3.org/1999/xlink" width="1318" height="890"><defs><clipPath id="kvcaXPdTQABW"><path fill="none" stroke="none" d=" M 0 0 L 1318 0 L 1318 890 L 0 890 L 0 0 Z"/></clipPath></defs><g transform="scale(1,1)" clip-path="url(#kvcaXPdTQABW)"><g><rect fill="rgb(255,255,255)" stroke="none" x="0" y="0" width="1319" height="891" fill-opacity="1"/><path fill="none" stroke="rgb(180,179,186)" paint-order="fill stroke markers" d=" M 33.5 0.5 L 33.5 890.5 M 33.5 0.5 L 33.5 890.5 M 93.5 0.5 L 93.5 890.5 M 153.5 0.5 L 153.5 890.5 M 213.5 0.5 L 213.5 890.5 M 273.5 0.5 L 273.5 890.5 M 333.5 0.5 L 333.5 890.5 M 393.5 0.5 L 393.5 890.5 M 453.5 0.5 L 453.5 890.5 M 513.5 0.5 L 513.5 890.5 M 573.5 0.5 L 573.5 890.5 M 633.5 0.5 L 633.5 890.5 M 693.5 0.5 L 693.5 890.5 M 753.5 0.5 L 753.5 890.5 M 813.5 0.5 L 813.5 890.5 M 873.5 0.5 L 873.5 890.5 M 993.5 0.5 L 993.5 890.5 M 1053.5 0.5 L 1053.5 890.5 M 1113.5 0.5 L 1113.5 890.5 M 1172.5 0.5 L 1172.5 890.5 M 1232.5 0.5 L 1232.5 890.5 M 1292.5 0.5 L 1292.5 890.5" stroke-opacity="1" stroke-linecap="round" stroke-linejoin="round" stroke-miterlimit="10"/><path fill="none" stroke="rgb(180,179,186)" paint-order="fill stroke markers" d="" stroke-opacity="0.23529411764705882" stroke-linecap="round" stroke-linejoin="round" stroke-miterlimit="10"/><path fill="none" stroke="rgb(180,179,186)" paint-order="fill stroke markers" d=" M 0.5 31.5 L 1318.5 31.5 M 0.5 31.5 L 1318.5 31.5 M 0.5 94.5 L 1318.5 94.5 M 0.5 157.5 L 1318.5 157.5 M 0.5 219.5 L 1318.5 219.5 M 0.5 282.5 L 1318.5 282.5 M 0.5 345.5 L 1318.5 345.5 M 0.5 408.5 L 1318.5 408.5 M 0.5 471.5 L 1318.5 471.5 M 0.5 534.5 L 1318.5 534.5 M 0.5 596.5 L 1318.5 596.5 M 0.5 659.5 L 1318.5 659.5 M 0.5 722.5 L 1318.5 722.5 M 0.5 848.5 L 1318.5 848.5" stroke-opacity="1" stroke-linecap="round" stroke-linejoin="round" stroke-miterlimit="10"/><path fill="none" stroke="rgb(180,179,186)" paint-order="fill stroke markers" d="" stroke-opacity="0.23529411764705882" stroke-linecap="round" stroke-linejoin="round" stroke-miterlimit="10"/><path fill="none" stroke="rgb(28,28,31)" paint-order="fill stroke markers" d=" M 933.5 2.5 L 933.5 890.5" stroke-opacity="1" stroke-miterlimit="10"/><path fill="none" stroke="rgb(28,28,31)" paint-order="fill stroke markers" d=" M 933.5 1.5 L 929.5 5.5" stroke-opacity="1" stroke-miterlimit="10"/><path fill="none" stroke="rgb(28,28,31)" paint-order="fill stroke markers" d=" M 933.5 1.5 L 937.5 5.5" stroke-opacity="1" stroke-miterlimit="10"/><path fill="none" stroke="rgb(28,28,31)" paint-order="fill stroke markers" d=" M 0.5 785.5 L 1316.5 785.5" stroke-opacity="1" stroke-miterlimit="10"/><path fill="none" stroke="rgb(28,28,31)" paint-order="fill stroke markers" d=" M 1317.5 785.5 L 1313.5 781.5" stroke-opacity="1" stroke-miterlimit="10"/><path fill="none" stroke="rgb(28,28,31)" paint-order="fill stroke markers" d=" M 1317.5 785.5 L 1313.5 789.5" stroke-opacity="1" stroke-miterlimit="10"/><text fill="rgb(28,28,31)" stroke="none" font-family="geogebra-sans-serif, sans-serif" font-size="12px" font-style="normal" font-weight="normal" text-decoration="normal" x="22" y="801" text-anchor="start" dominant-baseline="alphabetic" fill-opacity="1">–7.5</text><text fill="rgb(28,28,31)" stroke="none" font-family="geogebra-sans-serif, sans-serif" font-size="12px" font-style="normal" font-weight="normal" text-decoration="normal" x="88" y="801" text-anchor="start" dominant-baseline="alphabetic" fill-opacity="1">–7</text><text fill="rgb(28,28,31)" stroke="none" font-family="geogebra-sans-serif, sans-serif" font-size="12px" font-style="normal" font-weight="normal" text-decoration="normal" x="142" y="801" text-anchor="start" dominant-baseline="alphabetic" fill-opacity="1">–6.5</text><text fill="rgb(28,28,31)" stroke="none" font-family="geogebra-sans-serif, sans-serif" font-size="12px" font-style="normal" font-weight="normal" text-decoration="normal" x="208" y="801" text-anchor="start" dominant-baseline="alphabetic" fill-opacity="1">–6</text><text fill="rgb(28,28,31)" stroke="none" font-family="geogebra-sans-serif, sans-serif" font-size="12px" font-style="normal" font-weight="normal" text-decoration="normal" x="262" y="801" text-anchor="start" dominant-baseline="alphabetic" fill-opacity="1">–5.5</text><text fill="rgb(28,28,31)" stroke="none" font-family="geogebra-sans-serif, sans-serif" font-size="12px" font-style="normal" font-weight="normal" text-decoration="normal" x="328" y="801" text-anchor="start" dominant-baseline="alphabetic" fill-opacity="1">–5</text><text fill="rgb(28,28,31)" stroke="none" font-family="geogebra-sans-serif, sans-serif" font-size="12px" font-style="normal" font-weight="normal" text-decoration="normal" x="382" y="801" text-anchor="start" dominant-baseline="alphabetic" fill-opacity="1">–4.5</text><text fill="rgb(28,28,31)" stroke="none" font-family="geogebra-sans-serif, sans-serif" font-size="12px" font-style="normal" font-weight="normal" text-decoration="normal" x="448" y="801" text-anchor="start" dominant-baseline="alphabetic" fill-opacity="1">–4</text><text fill="rgb(28,28,31)" stroke="none" font-family="geogebra-sans-serif, sans-serif" font-size="12px" font-style="normal" font-weight="normal" text-decoration="normal" x="502" y="801" text-anchor="start" dominant-baseline="alphabetic" fill-opacity="1">–3.5</text><text fill="rgb(28,28,31)" stroke="none" font-family="geogebra-sans-serif, sans-serif" font-size="12px" font-style="normal" font-weight="normal" text-decoration="normal" x="568" y="801" text-anchor="start" dominant-baseline="alphabetic" fill-opacity="1">–3</text><text fill="rgb(28,28,31)" stroke="none" font-family="geogebra-sans-serif, sans-serif" font-size="12px" font-style="normal" font-weight="normal" text-decoration="normal" x="622" y="801" text-anchor="start" dominant-baseline="alphabetic" fill-opacity="1">–2.5</text><text fill="rgb(28,28,31)" stroke="none" font-family="geogebra-sans-serif, sans-serif" font-size="12px" font-style="normal" font-weight="normal" text-decoration="normal" x="688" y="801" text-anchor="start" dominant-baseline="alphabetic" fill-opacity="1">–2</text><text fill="rgb(28,28,31)" stroke="none" font-family="geogebra-sans-serif, sans-serif" font-size="12px" font-style="normal" font-weight="normal" text-decoration="normal" x="742" y="801" text-anchor="start" dominant-baseline="alphabetic" fill-opacity="1">–1.5</text><text fill="rgb(28,28,31)" stroke="none" font-family="geogebra-sans-serif, sans-serif" font-size="12px" font-style="normal" font-weight="normal" text-decoration="normal" x="808" y="801" text-anchor="start" dominant-baseline="alphabetic" fill-opacity="1">–1</text><text fill="rgb(28,28,31)" stroke="none" font-family="geogebra-sans-serif, sans-serif" font-size="12px" font-style="normal" font-weight="normal" text-decoration="normal" x="862" y="801" text-anchor="start" dominant-baseline="alphabetic" fill-opacity="1">–0.5</text><text fill="rgb(28,28,31)" stroke="none" font-family="geogebra-sans-serif, sans-serif" font-size="12px" font-style="normal" font-weight="normal" text-decoration="normal" x="985" y="801" text-anchor="start" dominant-baseline="alphabetic" fill-opacity="1">0.5</text><text fill="rgb(28,28,31)" stroke="none" font-family="geogebra-sans-serif, sans-serif" font-size="12px" font-style="normal" font-weight="normal" text-decoration="normal" x="1051" y="801" text-anchor="start" dominant-baseline="alphabetic" fill-opacity="1">1</text><text fill="rgb(28,28,31)" stroke="none" font-family="geogebra-sans-serif, sans-serif" font-size="12px" font-style="normal" font-weight="normal" text-decoration="normal" x="1105" y="801" text-anchor="start" dominant-baseline="alphabetic" fill-opacity="1">1.5</text><text fill="rgb(28,28,31)" stroke="none" font-family="geogebra-sans-serif, sans-serif" font-size="12px" font-style="normal" font-weight="normal" text-decoration="normal" x="1170" y="801" text-anchor="start" dominant-baseline="alphabetic" fill-opacity="1">2</text><text fill="rgb(28,28,31)" stroke="none" font-family="geogebra-sans-serif, sans-serif" font-size="12px" font-style="normal" font-weight="normal" text-decoration="normal" x="1224" y="801" text-anchor="start" dominant-baseline="alphabetic" fill-opacity="1">2.5</text><text fill="rgb(28,28,31)" stroke="none" font-family="geogebra-sans-serif, sans-serif" font-size="12px" font-style="normal" font-weight="normal" text-decoration="normal" x="1290" y="801" text-anchor="start" dominant-baseline="alphabetic" fill-opacity="1">3</text><text fill="rgb(28,28,31)" stroke="none" font-family="geogebra-sans-serif, sans-serif" font-size="12px" font-style="normal" font-weight="normal" text-decoration="normal" x="903" y="853" text-anchor="start" dominant-baseline="alphabetic" fill-opacity="1">–0.2</text><text fill="rgb(28,28,31)" stroke="none" font-family="geogebra-sans-serif, sans-serif" font-size="12px" font-style="normal" font-weight="normal" text-decoration="normal" x="909" y="727" text-anchor="start" dominant-baseline="alphabetic" fill-opacity="1">0.2</text><text fill="rgb(28,28,31)" stroke="none" font-family="geogebra-sans-serif, sans-serif" font-size="12px" font-style="normal" font-weight="normal" text-decoration="normal" x="909" y="664" text-anchor="start" dominant-baseline="alphabetic" fill-opacity="1">0.4</text><text fill="rgb(28,28,31)" stroke="none" font-family="geogebra-sans-serif, sans-serif" font-size="12px" font-style="normal" font-weight="normal" text-decoration="normal" x="909" y="601" text-anchor="start" dominant-baseline="alphabetic" fill-opacity="1">0.6</text><text fill="rgb(28,28,31)" stroke="none" font-family="geogebra-sans-serif, sans-serif" font-size="12px" font-style="normal" font-weight="normal" text-decoration="normal" x="909" y="539" text-anchor="start" dominant-baseline="alphabetic" fill-opacity="1">0.8</text><text fill="rgb(28,28,31)" stroke="none" font-family="geogebra-sans-serif, sans-serif" font-size="12px" font-style="normal" font-weight="normal" text-decoration="normal" x="919" y="476" text-anchor="start" dominant-baseline="alphabetic" fill-opacity="1">1</text><text fill="rgb(28,28,31)" stroke="none" font-family="geogebra-sans-serif, sans-serif" font-size="12px" font-style="normal" font-weight="normal" text-decoration="normal" x="909" y="413" text-anchor="start" dominant-baseline="alphabetic" fill-opacity="1">1.2</text><text fill="rgb(28,28,31)" stroke="none" font-family="geogebra-sans-serif, sans-serif" font-size="12px" font-style="normal" font-weight="normal" text-decoration="normal" x="909" y="350" text-anchor="start" dominant-baseline="alphabetic" fill-opacity="1">1.4</text><text fill="rgb(28,28,31)" stroke="none" font-family="geogebra-sans-serif, sans-serif" font-size="12px" font-style="normal" font-weight="normal" text-decoration="normal" x="909" y="287" text-anchor="start" dominant-baseline="alphabetic" fill-opacity="1">1.6</text><text fill="rgb(28,28,31)" stroke="none" font-family="geogebra-sans-serif, sans-serif" font-size="12px" font-style="normal" font-weight="normal" text-decoration="normal" x="909" y="224" text-anchor="start" dominant-baseline="alphabetic" fill-opacity="1">1.8</text><text fill="rgb(28,28,31)" stroke="none" font-family="geogebra-sans-serif, sans-serif" font-size="12px" font-style="normal" font-weight="normal" text-decoration="normal" x="919" y="162" text-anchor="start" dominant-baseline="alphabetic" fill-opacity="1">2</text><text fill="rgb(28,28,31)" stroke="none" font-family="geogebra-sans-serif, sans-serif" font-size="12px" font-style="normal" font-weight="normal" text-decoration="normal" x="909" y="99" text-anchor="start" dominant-baseline="alphabetic" fill-opacity="1">2.2</text><text fill="rgb(28,28,31)" stroke="none" font-family="geogebra-sans-serif, sans-serif" font-size="12px" font-style="normal" font-weight="normal" text-decoration="normal" x="909" y="36" text-anchor="start" dominant-baseline="alphabetic" fill-opacity="1">2.4</text><text fill="rgb(28,28,31)" stroke="none" font-family="geogebra-sans-serif, sans-serif" font-size="12px" font-style="normal" font-weight="normal" text-decoration="normal" x="919" y="801" text-anchor="start" dominant-baseline="alphabetic" fill-opacity="1">0</text><path fill="none" stroke="rgb(102,102,102)" paint-order="fill stroke markers" d=" M 0 786.3522343443353 L 5.1484375 786.3911328626541 L 10.296875 786.4314788077451 L 15.4453125 786.4733242912162 L 20.59375 786.5167232092907 L 25.7421875 786.5617312989339 L 30.890625 786.6084061954518 L 36.0390625 786.6568074915917 L 41.1875 786.7069967981587 L 46.3359375 786.7590378061632 L 51.484375000000114 786.8129963505257 L 56.6328125 786.8689404753424 L 61.78125 786.9269405007325 L 66.9296875 786.9870690912803 L 72.078125 787.0494013260735 L 77.2265625 787.1140147703509 L 82.375 787.1809895487602 L 87.5234375 787.2504084202335 L 92.671875 787.3223568544687 L 97.8203125 787.396923110021 L 102.96875 787.4741983139912 L 108.1171875 787.5542765432982 L 113.26562500000011 787.6372549075204 L 118.4140625 787.7232336332786 L 123.5625 787.8123161501434 L 128.7109375 787.9046091780215 L 133.859375 788.0002228159935 L 139.0078125 788.0992706325491 L 144.15625 788.2018697571715 L 149.3046875 788.3081409732132 L 154.453125 788.4182088119854 L 159.6015625 788.5322016479992 L 164.75 788.6502517952536 L 169.8984375 788.7724956044904 L 175.046875 788.8990735612969 L 180.1953125 789.0301303849426 L 185.34375 789.1658151278151 L 190.4921875 789.306281275312 L 195.640625 789.4516868460247 L 200.7890625 789.6021944920476 L 205.9375 789.7579715992068 L 211.0859375000001 789.9191903870125 L 216.2343749999999 790.0860280080984 L 221.3828125 790.2586666469027 L 226.53125 790.4372936173172 L 231.6796875 790.6221014590187 L 236.828125 790.8132880321531 L 241.9765625 791.011056610042 L 247.125 791.2156159695305 L 252.2734374999999 791.4271804785777 L 257.421875 791.6459701806599 L 262.5703125 791.8722108755172 L 267.71875 792.1061341957416 L 272.8671875000001 792.3479776786689 L 278.015625 792.5979848329915 L 283.1640625 792.8564051994723 L 288.3125 793.1234944050874 L 293.4609375 793.399514209885 L 298.609375 793.6847325457874 L 303.7578125 793.9794235465187 L 308.9062500000001 794.2838675677775 L 314.0546874999999 794.598351196709 L 319.203125 794.9231672496774 L 324.3515625 795.258614757262 L 329.5 795.6049989353304 L 334.6484375 795.9626311409666 L 339.796875 796.3318288119514 L 344.9453125 796.7129153884051 L 350.0937499999999 797.1062202151146 L 355.2421875 797.5120784229696 L 360.390625 797.9308307878349 L 365.5390625 798.362823565075 L 370.6875 798.8084082978463 L 375.8359375 799.2679415971376 L 380.984375 799.7417848914364 L 386.1328124999999 800.2303041437544 L 391.28125 800.7338695336118 L 396.4296875 801.2528551014442 L 401.578125 801.7876383527366 L 406.7265625000001 802.33859981904 L 411.8749999999999 802.9061225728548 L 417.0234375 803.4905916931982 L 422.171875 804.0923936784947 L 427.3203125 804.7119158032341 L 432.46875 805.3495454146552 L 437.61718749999994 806.0056691655042 L 442.76562500000006 806.6806721787148 L 447.91406249999994 807.3749371396246 L 453.0625 808.0888433111348 L 458.2109375 808.8227654669689 L 463.359375 809.5770727379604 L 468.50781249999994 810.3521273660467 L 473.65625 811.1482833603875 L 478.8046875 811.9658850497809 L 483.953125 812.805265525274 L 489.1015625 813.6667449666062 L 494.25 814.5506288458474 L 499.39843749999994 815.45720600133 L 504.54687499999994 816.3867465746936 L 509.69531249999994 817.3394998036027 L 514.84375 818.3156916624262 L 519.9921875 819.3155223429136 L 525.140625 820.3391635666627 L 530.2890625 821.386755720925 L 535.4375 822.4584048090995 L 540.5859375 823.5541792070551 L 545.734375 824.6741062162635 L 550.8828125 825.8181684045894 L 556.03125 826.9862997254922 L 561.1796875 828.178381406336 L 566.328125 829.3942375965246 L 571.4765625 830.633630766239 L 576.625 831.896256846703 L 581.7734375 833.1817401031309 L 586.921875 834.4896277318469 L 592.0703125 835.8193841734934 L 597.21875 837.1703851348306 L 602.3671875 838.5419113123285 L 607.515625 839.9331418116435 L 612.6640625 841.3431472581217 L 617.8125 842.7708825947444 L 622.9609375 844.2151795654318 L 628.109375 845.6747388833653 L 633.2578125 847.148122086038 L 638.40625 848.6337430810813 L 643.5546875 850.1298593896189 L 648.703125 851.6345630969685 L 653.8515625 853.1457715239906 L 659 854.6612176363151 L 664.1484375 856.178440213084 L 669.296875 857.6947738017763 L 674.4453125 859.2073384911519 L 679.59375 860.7130295404213 L 684.7421875 862.2085069094142 L 689.890625 863.6901847418436 L 695.0390625 865.154220861737 L 700.1875 866.5965063517581 L 705.3359375 868.0126552914779 L 710.484375 869.3979947436583 L 715.6328125 870.74755508726 L 720.78125 872.05606080716 L 725.9296875 873.3179218623648 L 731.078125 874.5272257667978 L 736.2265625 875.6777305293582 L 741.3749999999999 876.7628586127973 L 746.5234375 877.775692083818 L 751.671875 878.7089691394782 L 756.8203125 879.5550822071955 L 761.96875 880.3060778270885 L 767.1171875 880.9536585357131 L 772.2656249999999 881.4891869790198 L 777.4140625 881.9036924891285 L 782.5625 882.1878803637685 L 787.7109375 882.3321440884091 L 792.859375 882.3265807386106 L 798.0078125 882.1610097933313 L 803.15625 881.8249955781932 L 808.3046875 881.3078735403814 L 813.453125 880.598780533328 L 818.6015625 879.6866892590119 L 823.75 878.5604469781096 L 828.8984375 877.2088185529574 L 834.0468749999999 875.6205338350987 L 839.1953124999999 873.7843393480173 L 844.34375 871.6890541466871 L 849.4921875 869.3236296592169 L 854.640625 866.6772132328704 L 859.7890625 863.7392150181826 L 864.9375 860.4993777321621 L 870.0859374999999 856.9478487464843 L 875.234375 853.0752538512697 L 880.3828125 848.8727719520035 L 885.53125 844.3322098691706 L 890.6796875 839.446076330285 L 895.828125 834.2076541753557 L 900.9765624999999 828.6110697426716 L 906.125 822.6513583652568 L 911.2734375 816.3245248923486 L 916.421875 809.6275981573345 L 921.5703125 802.5586783457709 L 926.71875 795.1169762757219 L 931.8671874999999 787.3028436882558 L 937.0156249999999 779.117793758116 L 942.1640625 770.5645111720016 L 947.3125 761.6468512821534 L 952.4609375 752.3698280226862 L 957.609375 742.7395904710537 L 962.7578124999999 732.7633881420882 L 965.33203125 727.648105537109 L 967.90625 722.4495253115521 L 970.4804687499999 717.1688410931778 L 973.0546874999999 711.8073048739743 L 975.62890625 706.3662247348939 L 978.203125 700.8469624394866 L 980.77734375 695.250930905035 L 983.3515624999999 689.5795915603421 L 985.9257812499999 683.8344515998247 L 988.5 678.0170611440192 L 991.07421875 672.1290103169684 L 993.6484375 666.17192625129 L 996.2226562499999 660.1474700319683 L 998.7968749999999 654.0573335900931 L 1001.37109375 647.9032365578903 L 1003.9453125 641.6869230964168 L 1006.51953125 635.4101587072867 L 1009.0937499999999 629.0747270396957 L 1011.66796875 622.6824267038533 L 1014.2421875 616.2350681017259 L 1016.81640625 609.7344702856984 L 1019.3906249999999 603.1824578554438 L 1021.9648437499999 596.5808579028884 L 1024.5390625 589.9314970147419 L 1027.11328125 583.2361983415535 L 1029.6875 576.4967787417636 L 1032.2617187499998 569.7150460086441 L 1034.8359375 562.8927961874427 L 1037.41015625 556.0318109894436 L 1039.984375 549.1338553090072 L 1042.55859375 542.2006748490311 L 1045.1328125 535.2339938596056 L 1047.70703125 528.2355129939826 L 1050.28125 521.2069072853303 L 1052.85546875 514.1498242470708 L 1055.4296875 507.0658820989831 L 1058.00390625 499.9566681206029 L 1060.578125 492.8237371328478 L 1063.15234375 485.66861010821003 L 1065.7265625 478.49277290927586 L 1068.3007812499998 471.2976751548056 L 1070.875 464.0847292120843 L 1073.44921875 456.85530931378355 L 1076.0234375 449.61075079710804 L 1078.59765625 442.3523494626015 L 1081.1718749999998 435.08136104960073 L 1083.74609375 427.79900082497056 L 1086.3203125 420.50644328146666 L 1088.89453125 413.2048219417674 L 1091.46875 405.89522926400434 L 1094.04296875 398.57871664439966 L 1096.6171875 391.2562945124551 L 1099.19140625 383.9289325140021 L 1101.765625 376.5975597773048 L 1104.33984375 369.26306525734844 L 1106.9140625 361.92629815338717 L 1109.48828125 354.58806839480934 L 1112.0625 347.249147190395 L 1114.63671875 339.9102676360472 L 1117.2109374999998 332.5721253761606 L 1119.78515625 325.2353793138384 L 1122.359375 317.9006523652816 L 1124.93359375 310.56853225376295 L 1127.5078125 303.2395723387348 L 1130.0820312499998 295.91429247575377 L 1132.65625 288.5931799030413 L 1135.23046875 281.2766901506798 L 1137.8046875 273.96524796857744 L 1140.37890625 266.65924826953403 L 1142.953125 259.3590570839041 L 1145.52734375 252.06501252252724 L 1148.1015625 244.77742574480158 L 1150.67578125 237.49658192892662 L 1153.25 230.22274124155706 L 1155.82421875 222.956139804273 L 1158.3984375 215.6969906544573 L 1160.97265625 208.44548469835775 L 1163.546875 201.20179165427123 L 1166.1210937499998 193.96606098397433 L 1168.6953125 186.73842281067527 L 1171.26953125 179.51898882194712 L 1173.84375 172.30785315622438 L 1176.41796875 165.1050932716281 L 1178.9921874999998 157.91077079600996 L 1181.56640625 150.724932357243 L 1184.140625 143.54761039293442 L 1186.71484375 136.37882393883433 L 1189.2890625 129.2185793953572 L 1191.86328125 122.06687127172677 L 1194.4375 114.9236829073676 L 1197.01171875 107.78898717026607 L 1199.5859375 100.66274713210328 L 1202.1601562499998 93.5449167200635 L 1204.734375 86.43544134528429 L 1207.30859375 79.33425850800677 L 1209.8828125 72.24129837952455 L 1212.45703125 65.15648436111883 L 1215.0312499999998 58.07973362020414 L 1217.60546875 51.01095760396129 L 1220.1796875 43.95006253079748 L 1222.75390625 36.8969498599821 L 1225.328125 29.851516739874 L 1227.90234375 22.81365643517063 L 1230.4765625 15.78325873363542 L 1233.05078125 8.760210332802444 L 1235.625 1.7443952071498643 L 1238.19921875 -5.264305043726495" stroke-opacity="0.6980392156862745" stroke-linecap="round" stroke-linejoin="round" stroke-miterlimit="10" stroke-width="2.5"/><text fill="rgb(102,102,102)" stroke="none" font-family="geogebra-sans-serif, sans-serif" font-size="16px" font-style="normal" font-weight="normal" text-decoration="normal" x="8" y="786" text-anchor="start" dominant-baseline="alphabetic" fill-opacity="1">Mish</text></g></g></svg>