<svg version="1.1" xmlns="http://www.w3.org/2000/svg" xmlns:xlink="http://www.w3.org/1999/xlink" width="1318" height="890"><defs><clipPath id="ShBGExvGzQzN"><path fill="none" stroke="none" d=" M 0 0 L 1318 0 L 1318 890 L 0 890 L 0 0 Z"/></clipPath></defs><g transform="scale(1,1)" clip-path="url(#ShBGExvGzQzN)"><g><rect fill="rgb(255,255,255)" stroke="none" x="0" y="0" width="1319" height="891" fill-opacity="1"/><path fill="none" stroke="rgb(180,179,186)" paint-order="fill stroke markers" d=" M 25.5 0.5 L 25.5 853.5 M 25.5 0.5 L 25.5 853.5 M 88.5 0.5 L 88.5 853.5 M 151.5 0.5 L 151.5 853.5 M 215.5 0.5 L 215.5 853.5 M 278.5 0.5 L 278.5 853.5 M 342.5 0.5 L 342.5 853.5 M 405.5 0.5 L 405.5 853.5 M 468.5 0.5 L 468.5 853.5 M 532.5 0.5 L 532.5 853.5 M 595.5 0.5 L 595.5 853.5 M 722.5 0.5 L 722.5 853.5 M 785.5 0.5 L 785.5 853.5 M 849.5 0.5 L 849.5 853.5 M 912.5 0.5 L 912.5 853.5 M 975.5 0.5 L 975.5 853.5 M 1039.5 0.5 L 1039.5 853.5 M 1102.5 0.5 L 1102.5 853.5 M 1166.5 0.5 L 1166.5 853.5 M 1229.5 0.5 L 1229.5 853.5 M 1292.5 0.5 L 1292.5 853.5" stroke-opacity="1" stroke-linecap="round" stroke-linejoin="round" stroke-miterlimit="10"/><path fill="none" stroke="rgb(180,179,186)" paint-order="fill stroke markers" d="" stroke-opacity="0.23529411764705882" stroke-linecap="round" stroke-linejoin="round" stroke-miterlimit="10"/><path fill="none" stroke="rgb(180,179,186)" paint-order="fill stroke markers" d=" M 0.5 3.5 L 1318.5 3.5 M 0.5 3.5 L 1318.5 3.5 M 0.5 74.5 L 1318.5 74.5 M 0.5 145.5 L 1318.5 145.5 M 0.5 216.5 L 1318.5 216.5 M 0.5 286.5 L 1318.5 286.5 M 0.5 357.5 L 1318.5 357.5 M 0.5 428.5 L 1318.5 428.5 M 0.5 499.5 L 1318.5 499.5 M 0.5 569.5 L 1318.5 569.5 M 0.5 640.5 L 1318.5 640.5 M 0.5 711.5 L 1318.5 711.5 M 0.5 782.5 L 1318.5 782.5" stroke-opacity="1" stroke-linecap="round" stroke-linejoin="round" stroke-miterlimit="10"/><path fill="none" stroke="rgb(180,179,186)" paint-order="fill stroke markers" d="" stroke-opacity="0.23529411764705882" stroke-linecap="round" stroke-linejoin="round" stroke-miterlimit="10"/><path fill="none" stroke="rgb(28,28,31)" paint-order="fill stroke markers" d=" M 659.5 2.5 L 659.5 853.5" stroke-opacity="1" stroke-miterlimit="10"/><path fill="none" stroke="rgb(28,28,31)" paint-order="fill stroke markers" d=" M 659.5 1.5 L 655.5 5.5" stroke-opacity="1" stroke-miterlimit="10"/><path fill="none" stroke="rgb(28,28,31)" paint-order="fill stroke markers" d=" M 659.5 1.5 L 663.5 5.5" stroke-opacity="1" stroke-miterlimit="10"/><path fill="none" stroke="rgb(28,28,31)" paint-order="fill stroke markers" d=" M 0.5 853.5 L 1316.5 853.5" stroke-opacity="1" stroke-miterlimit="10"/><path fill="none" stroke="rgb(28,28,31)" paint-order="fill stroke markers" d=" M 1317.5 853.5 L 1313.5 849.5" stroke-opacity="1" stroke-miterlimit="10"/><path fill="none" stroke="rgb(28,28,31)" paint-order="fill stroke markers" d=" M 1317.5 853.5 L 1313.5 857.5" stroke-opacity="1" stroke-miterlimit="10"/><text fill="rgb(28,28,31)" stroke="none" font-family="geogebra-sans-serif, sans-serif" font-size="12px" font-style="normal" font-weight="normal" text-decoration="normal" x="20" y="869" text-anchor="start" dominant-baseline="alphabetic" fill-opacity="1">–1</text><text fill="rgb(28,28,31)" stroke="none" font-family="geogebra-sans-serif, sans-serif" font-size="12px" font-style="normal" font-weight="normal" text-decoration="normal" x="77" y="869" text-anchor="start" dominant-baseline="alphabetic" fill-opacity="1">–0.9</text><text fill="rgb(28,28,31)" stroke="none" font-family="geogebra-sans-serif, sans-serif" font-size="12px" font-style="normal" font-weight="normal" text-decoration="normal" x="140" y="869" text-anchor="start" dominant-baseline="alphabetic" fill-opacity="1">–0.8</text><text fill="rgb(28,28,31)" stroke="none" font-family="geogebra-sans-serif, sans-serif" font-size="12px" font-style="normal" font-weight="normal" text-decoration="normal" x="204" y="869" text-anchor="start" dominant-baseline="alphabetic" fill-opacity="1">–0.7</text><text fill="rgb(28,28,31)" stroke="none" font-family="geogebra-sans-serif, sans-serif" font-size="12px" font-style="normal" font-weight="normal" text-decoration="normal" x="267" y="869" text-anchor="start" dominant-baseline="alphabetic" fill-opacity="1">–0.6</text><text fill="rgb(28,28,31)" stroke="none" font-family="geogebra-sans-serif, sans-serif" font-size="12px" font-style="normal" font-weight="normal" text-decoration="normal" x="331" y="869" text-anchor="start" dominant-baseline="alphabetic" fill-opacity="1">–0.5</text><text fill="rgb(28,28,31)" stroke="none" font-family="geogebra-sans-serif, sans-serif" font-size="12px" font-style="normal" font-weight="normal" text-decoration="normal" x="394" y="869" text-anchor="start" dominant-baseline="alphabetic" fill-opacity="1">–0.4</text><text fill="rgb(28,28,31)" stroke="none" font-family="geogebra-sans-serif, sans-serif" font-size="12px" font-style="normal" font-weight="normal" text-decoration="normal" x="457" y="869" text-anchor="start" dominant-baseline="alphabetic" fill-opacity="1">–0.3</text><text fill="rgb(28,28,31)" stroke="none" font-family="geogebra-sans-serif, sans-serif" font-size="12px" font-style="normal" font-weight="normal" text-decoration="normal" x="521" y="869" text-anchor="start" dominant-baseline="alphabetic" fill-opacity="1">–0.2</text><text fill="rgb(28,28,31)" stroke="none" font-family="geogebra-sans-serif, sans-serif" font-size="12px" font-style="normal" font-weight="normal" text-decoration="normal" x="584" y="869" text-anchor="start" dominant-baseline="alphabetic" fill-opacity="1">–0.1</text><text fill="rgb(28,28,31)" stroke="none" font-family="geogebra-sans-serif, sans-serif" font-size="12px" font-style="normal" font-weight="normal" text-decoration="normal" x="714" y="869" text-anchor="start" dominant-baseline="alphabetic" fill-opacity="1">0.1</text><text fill="rgb(28,28,31)" stroke="none" font-family="geogebra-sans-serif, sans-serif" font-size="12px" font-style="normal" font-weight="normal" text-decoration="normal" x="777" y="869" text-anchor="start" dominant-baseline="alphabetic" fill-opacity="1">0.2</text><text fill="rgb(28,28,31)" stroke="none" font-family="geogebra-sans-serif, sans-serif" font-size="12px" font-style="normal" font-weight="normal" text-decoration="normal" x="841" y="869" text-anchor="start" dominant-baseline="alphabetic" fill-opacity="1">0.3</text><text fill="rgb(28,28,31)" stroke="none" font-family="geogebra-sans-serif, sans-serif" font-size="12px" font-style="normal" font-weight="normal" text-decoration="normal" x="904" y="869" text-anchor="start" dominant-baseline="alphabetic" fill-opacity="1">0.4</text><text fill="rgb(28,28,31)" stroke="none" font-family="geogebra-sans-serif, sans-serif" font-size="12px" font-style="normal" font-weight="normal" text-decoration="normal" x="967" y="869" text-anchor="start" dominant-baseline="alphabetic" fill-opacity="1">0.5</text><text fill="rgb(28,28,31)" stroke="none" font-family="geogebra-sans-serif, sans-serif" font-size="12px" font-style="normal" font-weight="normal" text-decoration="normal" x="1031" y="869" text-anchor="start" dominant-baseline="alphabetic" fill-opacity="1">0.6</text><text fill="rgb(28,28,31)" stroke="none" font-family="geogebra-sans-serif, sans-serif" font-size="12px" font-style="normal" font-weight="normal" text-decoration="normal" x="1094" y="869" text-anchor="start" dominant-baseline="alphabetic" fill-opacity="1">0.7</text><text fill="rgb(28,28,31)" stroke="none" font-family="geogebra-sans-serif, sans-serif" font-size="12px" font-style="normal" font-weight="normal" text-decoration="normal" x="1158" y="869" text-anchor="start" dominant-baseline="alphabetic" fill-opacity="1">0.8</text><text fill="rgb(28,28,31)" stroke="none" font-family="geogebra-sans-serif, sans-serif" font-size="12px" font-style="normal" font-weight="normal" text-decoration="normal" x="1221" y="869" text-anchor="start" dominant-baseline="alphabetic" fill-opacity="1">0.9</text><text fill="rgb(28,28,31)" stroke="none" font-family="geogebra-sans-serif, sans-serif" font-size="12px" font-style="normal" font-weight="normal" text-decoration="normal" x="1290" y="869" text-anchor="start" dominant-baseline="alphabetic" fill-opacity="1">1</text><text fill="rgb(28,28,31)" stroke="none" font-family="geogebra-sans-serif, sans-serif" font-size="12px" font-style="normal" font-weight="normal" text-decoration="normal" x="635" y="787" text-anchor="start" dominant-baseline="alphabetic" fill-opacity="1">0.1</text><text fill="rgb(28,28,31)" stroke="none" font-family="geogebra-sans-serif, sans-serif" font-size="12px" font-style="normal" font-weight="normal" text-decoration="normal" x="635" y="716" text-anchor="start" dominant-baseline="alphabetic" fill-opacity="1">0.2</text><text fill="rgb(28,28,31)" stroke="none" font-family="geogebra-sans-serif, sans-serif" font-size="12px" font-style="normal" font-weight="normal" text-decoration="normal" x="635" y="645" text-anchor="start" dominant-baseline="alphabetic" fill-opacity="1">0.3</text><text fill="rgb(28,28,31)" stroke="none" font-family="geogebra-sans-serif, sans-serif" font-size="12px" font-style="normal" font-weight="normal" text-decoration="normal" x="635" y="574" text-anchor="start" dominant-baseline="alphabetic" fill-opacity="1">0.4</text><text fill="rgb(28,28,31)" stroke="none" font-family="geogebra-sans-serif, sans-serif" font-size="12px" font-style="normal" font-weight="normal" text-decoration="normal" x="635" y="504" text-anchor="start" dominant-baseline="alphabetic" fill-opacity="1">0.5</text><text fill="rgb(28,28,31)" stroke="none" font-family="geogebra-sans-serif, sans-serif" font-size="12px" font-style="normal" font-weight="normal" text-decoration="normal" x="635" y="433" text-anchor="start" dominant-baseline="alphabetic" fill-opacity="1">0.6</text><text fill="rgb(28,28,31)" stroke="none" font-family="geogebra-sans-serif, sans-serif" font-size="12px" font-style="normal" font-weight="normal" text-decoration="normal" x="635" y="362" text-anchor="start" dominant-baseline="alphabetic" fill-opacity="1">0.7</text><text fill="rgb(28,28,31)" stroke="none" font-family="geogebra-sans-serif, sans-serif" font-size="12px" font-style="normal" font-weight="normal" text-decoration="normal" x="635" y="291" text-anchor="start" dominant-baseline="alphabetic" fill-opacity="1">0.8</text><text fill="rgb(28,28,31)" stroke="none" font-family="geogebra-sans-serif, sans-serif" font-size="12px" font-style="normal" font-weight="normal" text-decoration="normal" x="635" y="221" text-anchor="start" dominant-baseline="alphabetic" fill-opacity="1">0.9</text><text fill="rgb(28,28,31)" stroke="none" font-family="geogebra-sans-serif, sans-serif" font-size="12px" font-style="normal" font-weight="normal" text-decoration="normal" x="645" y="150" text-anchor="start" dominant-baseline="alphabetic" fill-opacity="1">1</text><text fill="rgb(28,28,31)" stroke="none" font-family="geogebra-sans-serif, sans-serif" font-size="12px" font-style="normal" font-weight="normal" text-decoration="normal" x="635" y="79" text-anchor="start" dominant-baseline="alphabetic" fill-opacity="1">1.1</text><text fill="rgb(28,28,31)" stroke="none" font-family="geogebra-sans-serif, sans-serif" font-size="12px" font-style="normal" font-weight="normal" text-decoration="normal" x="656" y="869" text-anchor="start" dominant-baseline="alphabetic" fill-opacity="1">0</text><path fill="none" stroke="rgb(199,80,0)" paint-order="fill stroke markers" d=" M 0 853.1904603931089 L 2.5742187499998863 853.1904603931089 L 5.1484375 853.1904603931089 L 7.722656249999886 853.1904603931089 L 10.296874999999886 853.1904603931089 L 12.87109375 853.1904603931089 L 15.445312499999886 853.1904603931089 L 18.019531249999886 853.1904603931089 L 20.59375 853.1904603931089 L 23.167968749999886 853.1904603931089 L 25.7421875 853.1904603931089 L 28.31640625 853.1904603931089 L 30.890624999999886 853.1904603931089 L 33.464843749999886 853.1904603931089 L 36.0390625 853.1904603931089 L 38.61328125 853.1904603931089 L 41.187499999999886 853.1904603931089 L 43.76171875 853.1904603931089 L 46.3359375 853.1904603931089 L 48.910156249999886 853.1904603931089 L 51.484375 853.1904603931089 L 54.05859375 853.1904603931089 L 56.6328125 853.1904603931089 L 59.207031249999886 853.1904603931089 L 61.78125 853.1904603931089 L 64.35546875 853.1904603931089 L 66.92968749999989 853.1904603931089 L 69.50390625 853.1904603931089 L 72.078125 853.1904603931089 L 74.65234374999989 853.1904603931089 L 77.2265625 853.1904603931089 L 79.80078125 853.1904603931089 L 82.37499999999989 853.1904603931089 L 84.94921874999989 853.1904603931089 L 87.5234375 853.1904603931089 L 90.09765624999989 853.1904603931089 L 92.67187499999989 853.1904603931089 L 95.24609375 853.1904603931089 L 97.8203125 853.1904603931089 L 100.39453125 853.1904603931089 L 102.96875 853.1904603931089 L 105.54296875 853.1904603931089 L 108.1171875 853.1904603931089 L 110.69140624999989 853.1904603931089 L 113.265625 853.1904603931089 L 115.83984375 853.1904603931089 L 118.41406249999989 853.1904603931089 L 120.98828125 853.1904603931089 L 123.5625 853.1904603931089 L 126.13671874999989 853.1904603931089 L 128.7109375 853.1904603931089 L 131.28515625 853.1904603931089 L 133.8593749999999 853.1904603931089 L 136.4335937499999 853.1904603931089 L 139.0078125 853.1904603931089 L 141.58203125 853.1904603931089 L 144.15625 853.1904603931089 L 146.73046875 853.1904603931089 L 149.3046875 853.1904603931089 L 151.87890625 853.1904603931089 L 154.45312499999994 853.1904603931089 L 157.02734374999994 853.1904603931089 L 159.6015625 853.1904603931089 L 162.17578124999994 853.1904603931089 L 164.74999999999994 853.1904603931089 L 167.32421875 853.1904603931089 L 169.89843749999994 853.1904603931089 L 172.47265624999994 853.1904603931089 L 175.046875 853.1904603931089 L 177.62109374999994 853.1904603931089 L 180.19531249999994 853.1904603931089 L 182.76953124999994 853.1904603931089 L 185.34374999999994 853.1904603931089 L 187.91796875 853.1904603931089 L 190.49218749999994 853.1904603931089 L 193.0664062499999 853.1904603931089 L 195.640625 853.1904603931089 L 198.21484374999994 853.1904603931089 L 200.7890625 853.1904603931089 L 203.36328125 853.1904603931089 L 205.93749999999994 853.1904603931089 L 208.51171874999994 853.1904603931089 L 211.0859375 853.1904603931089 L 213.66015624999994 853.1904603931089 L 216.23437499999994 853.1904603931089 L 218.80859375 853.1904603931089 L 221.38281249999994 853.1904603931089 L 223.95703124999994 853.1904603931089 L 226.53125 853.1904603931089 L 229.10546874999994 853.1904603931089 L 231.6796875 853.1904603931089 L 234.25390624999994 853.1904603931089 L 236.82812499999994 853.1904603931089 L 239.40234375 853.1904603931089 L 241.97656249999994 853.1904603931089 L 244.55078125 853.1904603931089 L 247.125 853.1904603931089 L 249.69921874999994 853.1904603931089 L 252.2734375 853.1904603931089 L 254.84765625 853.1904603931089 L 257.42187499999994 853.1904603931089 L 259.99609374999994 853.1904603931089 L 262.5703125 853.1904603931089 L 265.14453124999994 853.1904603931089 L 267.71874999999994 853.1904603931089 L 270.29296875 853.1904603931089 L 272.86718749999994 853.1904603931089 L 275.44140624999994 853.1904603931089 L 278.015625 853.1904603931089 L 280.58984374999994 853.1904603931089 L 283.1640625 853.1904603931089 L 285.73828124999994 853.1904603931089 L 288.3125 853.1904603931089 L 290.88671875 853.1904603931089 L 293.46093749999994 853.1904603931089 L 296.03515625 853.1904603931089 L 298.609375 853.1904603931089 L 301.18359374999994 853.1904603931089 L 303.7578125 853.1904603931089 L 306.33203125 853.1904603931089 L 308.90624999999994 853.1904603931089 L 311.48046874999994 853.1904603931089 L 314.0546875 853.1904603931089 L 316.62890624999994 853.1904603931089 L 319.20312499999994 853.1904603931089 L 321.77734375 853.1904603931089 L 324.3515625 853.1904603931089 L 326.92578124999994 853.1904603931089 L 329.5 853.1904603931089 L 332.07421875 853.1904603931089 L 334.64843749999994 853.1904603931089 L 337.22265624999994 853.1904603931089 L 339.796875 853.1904603931089 L 342.37109375 853.1904603931089 L 344.94531249999994 853.1904603931089 L 347.51953125 853.1904603931089 L 350.09375 853.1904603931089 L 352.66796874999994 853.1904603931089 L 355.2421875 853.1904603931089 L 357.81640625 853.1904603931089 L 360.39062499999994 853.1904603931089 L 362.96484374999994 853.1904603931089 L 365.5390625 853.1904603931089 L 368.11328125 853.1904603931089 L 370.68749999999994 853.1904603931089 L 373.26171875 853.1904603931089 L 375.8359375 853.1904603931089 L 378.41015624999994 853.1904603931089 L 380.984375 853.1904603931089 L 383.55859375 853.1904603931089 L 386.13281249999994 853.1904603931089 L 388.70703124999994 853.1904603931089 L 391.28125 853.1904603931089 L 393.85546875 853.1904603931089 L 396.42968749999994 853.1904603931089 L 399.00390625 853.1904603931089 L 401.578125 853.1904603931089 L 404.15234374999994 853.1904603931089 L 406.7265625 853.1904603931089 L 409.30078125 853.1904603931089 L 411.87499999999994 853.1904603931089 L 414.44921875 853.1904603931089 L 417.0234375 853.1904603931089 L 419.59765625 853.1904603931089 L 422.171875 853.1904603931089 L 424.74609375 853.1904603931089 L 427.3203125 853.1904603931089 L 429.89453124999994 853.1904603931089 L 432.46875 853.1904603931089 L 435.04296875 853.1904603931089 L 437.6171875 853.1904603931089 L 440.19140625 853.1904603931089 L 442.765625 853.1904603931089 L 445.33984375 853.1904603931089 L 447.9140625 853.1904603931089 L 450.48828125 853.1904603931089 L 453.0625 853.1904603931089 L 455.63671874999994 853.1904603931089 L 458.2109375 853.1904603931089 L 460.78515625 853.1904603931089 L 463.359375 853.1904603931089 L 465.93359375 853.1904603931089 L 468.5078125 853.1904603931089 L 471.08203125 853.1904603931089 L 473.65625 853.1904603931089 L 476.23046875 853.1904603931089 L 478.8046875 853.1904603931089 L 481.37890624999994 853.1904603931089 L 483.953125 853.1904603931089 L 486.52734375 853.1904603931089 L 489.1015625 853.1904603931089 L 491.67578125 853.1904603931089 L 494.25 853.1904603931089 L 496.82421875 853.1904603931089 L 499.3984375 853.1904603931089 L 501.97265625 853.1904603931089 L 504.546875 853.1904603931089 L 507.12109375 853.1904603931089 L 509.6953125 853.1904603931089 L 512.26953125 853.1904603931089 L 514.84375 853.1904603931089 L 517.41796875 853.1904603931089 L 519.9921875 853.1904603931089 L 522.56640625 853.1904603931089 L 525.140625 853.1904603931089 L 527.71484375 853.1904603931089 L 530.2890625 853.1904603931089 L 532.86328125 853.1904603931089 L 535.4375 853.1904603931089 L 538.01171875 853.1904603931089 L 540.5859375 853.1904603931089 L 543.16015625 853.1904603931089 L 545.734375 853.1904603931089 L 548.30859375 853.1904603931089 L 550.8828125 853.1904603931089 L 553.45703125 853.1904603931089 L 556.03125 853.1904603931089 L 558.60546875 853.1904603931089 L 561.1796875 853.1904603931089 L 563.75390625 853.1904603931089 L 566.328125 853.1904603931089 L 568.90234375 853.1904603931089 L 571.4765625 853.1904603931089 L 574.05078125 853.1904603931089 L 576.625 853.1904603931089 L 579.19921875 853.1904603931089 L 581.7734375 853.1904603931089 L 584.34765625 853.1904603931089 L 586.921875 853.1904603931089 L 589.49609375 853.1904603931089 L 592.0703125 853.1904603931089 L 594.64453125 853.1904603931089 L 597.21875 853.1904603931089 L 599.79296875 853.1904603931089 L 602.3671875 853.1904603931089 L 604.94140625 853.1904603931089 L 607.515625 853.1904603931089 L 610.08984375 853.1904603931089 L 612.6640625 853.1904603931089 L 615.23828125 853.1904603931089 L 617.8125 853.1904603931089 L 620.38671875 853.1904603931089 L 622.9609375 853.1904603931089 L 625.53515625 853.1904603931089 L 628.109375 853.1904603931089 L 630.68359375 853.1904603931089 L 633.2578125 853.1904603931089 L 635.83203125 853.1904603931089 L 638.40625 853.1904603931089 L 640.9804687500001 853.1904603931089 L 643.5546875 853.1904603931089 L 646.12890625 853.1904603931089 L 648.703125 853.1904603931089 L 651.27734375 853.1904603931089 L 653.8515625 853.1904603931089 L 656.42578125 853.1904603931089 L 659 853.1904603931089 M 659 853.1904603931089 L 661.57421875 850.3147255953157 L 664.1484375 847.4389907975226 L 666.72265625 844.5632559997294 L 669.296875 841.6875212019363 L 671.87109375 838.8117864041432 L 674.4453125 835.93605160635 L 677.01953125 833.0603168085569 L 679.59375 830.1845820107637 L 682.16796875 827.3088472129706 L 684.7421875 824.4331124151774 L 687.31640625 821.5573776173843 L 689.890625 818.6816428195912 L 692.46484375 815.805908021798 L 695.0390625 812.9301732240049 L 697.61328125 810.0544384262117 L 700.1875 807.1787036284186 L 702.76171875 804.3029688306254 L 705.3359375 801.4272340328323 L 707.91015625 798.5514992350392 L 710.484375 795.675764437246 L 713.05859375 792.8000296394529 L 715.6328125 789.9242948416597 L 718.20703125 787.0485600438667 L 720.78125 784.1728252460734 L 723.35546875 781.2970904482804 L 725.9296875 778.4213556504872 L 728.50390625 775.5456208526941 L 731.078125 772.6698860549009 L 733.65234375 769.7941512571078 L 736.2265625 766.9184164593146 L 738.80078125 764.0426816615216 L 741.375 761.1669468637284 L 743.94921875 758.2912120659353 L 746.5234375 755.4154772681421 L 749.09765625 752.539742470349 L 751.671875 749.6640076725558 L 754.24609375 746.7882728747627 L 756.8203125 743.9125380769696 L 759.39453125 741.0368032791764 L 761.96875 738.1610684813833 L 764.54296875 735.2853336835901 L 767.1171875 732.409598885797 L 769.69140625 729.5338640880038 L 772.265625 726.6581292902107 L 774.83984375 723.7823944924176 L 777.4140625 720.9066596946244 L 779.98828125 718.0309248968313 L 782.5625 715.1551900990381 L 785.13671875 712.279455301245 L 787.7109375 709.4037205034518 L 790.28515625 706.5279857056587 L 792.859375 703.6522509078656 L 795.43359375 700.7765161100724 L 798.0078125 697.9007813122793 L 800.58203125 695.0250465144861 L 803.15625 692.149311716693 L 805.73046875 689.2735769188998 L 808.3046875 686.3978421211067 L 810.87890625 683.5221073233135 L 813.453125 680.6463725255204 L 816.02734375 677.7706377277273 L 818.6015625 674.8949029299341 L 821.17578125 672.019168132141 L 823.75 669.1434333343478 L 826.32421875 666.2676985365547 L 828.8984375 663.3919637387615 L 831.47265625 660.5162289409684 L 834.046875 657.6404941431753 L 836.62109375 654.7647593453821 L 839.1953125 651.8890245475891 L 841.76953125 649.0132897497958 L 844.34375 646.1375549520028 L 846.91796875 643.2618201542095 L 849.4921875 640.3860853564165 L 852.06640625 637.5103505586233 L 854.640625 634.6346157608302 L 857.21484375 631.758880963037 L 859.7890625 628.8831461652438 L 862.36328125 626.0074113674507 L 864.9375 623.1316765696577 L 867.51171875 620.2559417718644 L 870.0859375 617.3802069740714 L 872.66015625 614.5044721762781 L 875.234375 611.6287373784851 L 877.80859375 608.7530025806918 L 880.3828125 605.8772677828988 L 882.95703125 603.0015329851057 L 885.53125 600.1257981873125 L 888.10546875 597.2500633895194 L 890.6796875 594.3743285917262 L 893.25390625 591.498593793933 L 895.828125 588.6228589961399 L 898.40234375 585.7471241983467 L 900.9765625 582.8713894005537 L 903.55078125 579.9956546027604 L 906.125 577.1199198049674 L 908.69921875 574.2441850071742 L 911.2734375 571.3684502093811 L 913.84765625 568.4927154115879 L 916.421875 565.6169806137948 L 918.99609375 562.7412458160017 L 921.5703125 559.8655110182085 L 924.14453125 556.9897762204154 L 926.71875 554.1140414226222 L 929.29296875 551.2383066248291 L 931.8671875 548.3625718270359 L 934.44140625 545.4868370292428 L 937.015625 542.6111022314496 L 939.58984375 539.7353674336565 L 942.1640625 536.8596326358634 L 944.73828125 533.9838978380702 L 947.3125 531.1081630402771 L 949.88671875 528.2324282424839 L 952.4609375 525.3566934446908 L 955.03515625 522.4809586468976 L 957.609375 519.6052238491045 L 960.18359375 516.7294890513114 L 962.7578125 513.8537542535182 L 965.33203125 510.97801945572513 L 967.90625 508.10228465793193 L 970.48046875 505.22654986013885 L 973.0546875 502.35081506234565 L 975.62890625 499.47508026455256 L 978.203125 496.5993454667594 L 980.77734375 493.7236106689663 L 983.3515625 490.8478758711731 L 985.92578125 487.97214107338 L 988.5 485.09640627558684 L 991.07421875 482.22067147779364 L 993.6484375 479.34493668000056 L 996.22265625 476.4692018822074 L 998.796875 473.59346708441427 L 1001.37109375 470.7177322866211 L 1003.9453125 467.841997488828 L 1006.51953125 464.96626269103484 L 1009.09375 462.0905278932417 L 1011.66796875 459.2147930954486 L 1014.2421875 456.3390582976554 L 1016.81640625 453.46332349986227 L 1019.390625 450.5875887020692 L 1021.96484375 447.71185390427604 L 1024.5390625 444.83611910648284 L 1027.11328125 441.9603843086897 L 1029.6875 439.0846495108966 L 1032.26171875 436.2089147131034 L 1034.8359375 433.33317991531027 L 1037.41015625 430.4574451175172 L 1039.984375 427.58171031972404 L 1042.55859375 424.70597552193084 L 1045.1328125 421.83024072413775 L 1047.70703125 418.9545059263446 L 1050.28125 416.07877112855147 L 1052.85546875 413.20303633075827 L 1055.4296875 410.3273015329652 L 1058.00390625 407.45156673517204 L 1060.578125 404.57583193737884 L 1063.15234375 401.7000971395858 L 1065.7265625 398.8243623417926 L 1068.30078125 395.94862754399946 L 1070.875 393.0728927462064 L 1073.44921875 390.1971579484132 L 1076.0234375 387.32142315062003 L 1078.59765625 384.4456883528269 L 1081.171875 381.5699535550338 L 1083.74609375 378.6942187572406 L 1086.3203125 375.81848395944746 L 1088.89453125 372.9427491616544 L 1091.46875 370.06701436386123 L 1094.04296875 367.19127956606803 L 1096.6171875 364.3155447682749 L 1099.19140625 361.4398099704818 L 1101.765625 358.5640751726886 L 1104.33984375 355.68834037489546 L 1106.9140625 352.8126055771024 L 1109.48828125 349.93687077930923 L 1112.0625 347.06113598151603 L 1114.63671875 344.18540118372295 L 1117.2109375 341.3096663859298 L 1119.78515625 338.4339315881366 L 1122.359375 335.55819679034346 L 1124.93359375 332.68246199255043 L 1127.5078125 329.8067271947572 L 1130.08203125 326.93099239696403 L 1132.65625 324.055257599171 L 1135.23046875 321.17952280137786 L 1137.8046875 318.3037880035846 L 1140.37890625 315.42805320579157 L 1142.953125 312.5523184079984 L 1145.52734375 309.6765836102053 L 1148.1015625 306.800848812412 L 1150.67578125 303.925114014619 L 1153.25 301.04937921682586 L 1155.82421875 298.1736444190326 L 1158.3984375 295.29790962123957 L 1160.97265625 292.4221748234464 L 1163.546875 289.5464400256533 L 1166.12109375 286.67070522786 L 1168.6953125 283.794970430067 L 1171.26953125 280.91923563227385 L 1173.84375 278.0435008344807 L 1176.41796875 275.16776603668757 L 1178.9921875 272.2920312388944 L 1181.56640625 269.4162964411013 L 1184.140625 266.54056164330814 L 1186.71484375 263.664826845515 L 1189.2890625 260.78909204772185 L 1191.86328125 257.9133572499287 L 1194.4375 255.03762245213557 L 1197.01171875 252.16188765434242 L 1199.5859375 249.28615285654928 L 1202.16015625 246.41041805875614 L 1204.734375 243.534683260963 L 1207.30859375 240.65894846316985 L 1209.8828125 237.7832136653767 L 1212.45703125 234.90747886758356 L 1215.03125 232.03174406979042 L 1217.60546875 229.15600927199728 L 1220.1796875 226.28027447420413 L 1222.75390625 223.404539676411 L 1225.328125 220.52880487861785 L 1227.90234375 217.6530700808247 L 1230.4765625 214.77733528303156 L 1233.05078125 211.90160048523842 L 1235.625 209.02586568744528 L 1238.19921875 206.15013088965213 L 1240.7734375 203.274396091859 L 1243.34765625 200.39866129406585 L 1245.921875 197.52292649627282 L 1248.49609375 194.64719169847956 L 1251.0703125 191.77145690068642 L 1253.64453125 188.8957221028934 L 1256.21875 186.01998730510013 L 1258.79296875 183.144252507307 L 1261.3671875 180.26851770951384 L 1263.94140625 177.39278291172081 L 1266.515625 174.51704811392756 L 1269.08984375 171.64131331613441 L 1271.6640625 168.76557851834139 L 1274.23828125 165.88984372054824 L 1276.8125 163.01410892275499 L 1279.38671875 160.13837412496196 L 1281.9609375 157.2626393271688 L 1284.53515625 154.38690452937567 L 1287.109375 151.5111697315824 L 1289.68359375 148.63543493378938 L 1292.2578125 145.75970013599624 L 1294.83203125 142.88396533820298 L 1297.40625 140.00823054040995 L 1299.98046875 137.1324957426167 L 1302.5546875 134.25676094482367 L 1305.12890625 131.38102614703052 L 1307.703125 128.50529134923727 L 1310.27734375 125.62955655144424 L 1312.8515625 122.7538217536511 L 1315.42578125 119.87808695585784 L 1318 117.00235215806481" stroke-opacity="0.6980392156862745" stroke-linecap="round" stroke-linejoin="round" stroke-miterlimit="10" stroke-width="2.5"/><text fill="rgb(199,80,0)" stroke="none" font-family="geogebra-sans-serif, sans-serif" font-size="16px" font-style="normal" font-weight="normal" text-decoration="normal" x="8" y="853" text-anchor="start" dominant-baseline="alphabetic" fill-opacity="1">ReLU</text></g></g></svg>