<svg version="1.1" xmlns="http://www.w3.org/2000/svg" xmlns:xlink="http://www.w3.org/1999/xlink" width="1318" height="890"><defs><clipPath id="CBhhKxeTCTEB"><path fill="none" stroke="none" d=" M 0 0 L 1318 0 L 1318 890 L 0 890 L 0 0 Z"/></clipPath></defs><g transform="scale(1,1)" clip-path="url(#CBhhKxeTCTEB)"><g><rect fill="rgb(255,255,255)" stroke="none" x="0" y="0" width="1319" height="891" fill-opacity="1"/><path fill="none" stroke="rgb(180,179,186)" paint-order="fill stroke markers" d=" M 36.5 0.5 L 36.5 890.5 M 36.5 0.5 L 36.5 890.5 M 76.5 0.5 L 76.5 890.5 M 116.5 0.5 L 116.5 890.5 M 157.5 0.5 L 157.5 890.5 M 197.5 0.5 L 197.5 890.5 M 237.5 0.5 L 237.5 890.5 M 277.5 0.5 L 277.5 890.5 M 317.5 0.5 L 317.5 890.5 M 357.5 0.5 L 357.5 890.5 M 397.5 0.5 L 397.5 890.5 M 438.5 0.5 L 438.5 890.5 M 478.5 0.5 L 478.5 890.5 M 518.5 0.5 L 518.5 890.5 M 558.5 0.5 L 558.5 890.5 M 598.5 0.5 L 598.5 890.5 M 638.5 0.5 L 638.5 890.5 M 679.5 0.5 L 679.5 890.5 M 719.5 0.5 L 719.5 890.5 M 799.5 0.5 L 799.5 890.5 M 839.5 0.5 L 839.5 890.5 M 879.5 0.5 L 879.5 890.5 M 920.5 0.5 L 920.5 890.5 M 960.5 0.5 L 960.5 890.5 M 1000.5 0.5 L 1000.5 890.5 M 1040.5 0.5 L 1040.5 890.5 M 1080.5 0.5 L 1080.5 890.5 M 1120.5 0.5 L 1120.5 890.5 M 1161.5 0.5 L 1161.5 890.5 M 1201.5 0.5 L 1201.5 890.5 M 1241.5 0.5 L 1241.5 890.5 M 1281.5 0.5 L 1281.5 890.5" stroke-opacity="1" stroke-linecap="round" stroke-linejoin="round" stroke-miterlimit="10"/><path fill="none" stroke="rgb(180,179,186)" paint-order="fill stroke markers" d="" stroke-opacity="0.23529411764705882" stroke-linecap="round" stroke-linejoin="round" stroke-miterlimit="10"/><path fill="none" stroke="rgb(180,179,186)" paint-order="fill stroke markers" d=" M 0.5 35.5 L 1318.5 35.5 M 0.5 35.5 L 1318.5 35.5 M 0.5 106.5 L 1318.5 106.5 M 0.5 178.5 L 1318.5 178.5 M 0.5 249.5 L 1318.5 249.5 M 0.5 320.5 L 1318.5 320.5 M 0.5 391.5 L 1318.5 391.5 M 0.5 462.5 L 1318.5 462.5 M 0.5 534.5 L 1318.5 534.5 M 0.5 605.5 L 1318.5 605.5 M 0.5 676.5 L 1318.5 676.5 M 0.5 818.5 L 1318.5 818.5 M 0.5 889.5 L 1318.5 889.5" stroke-opacity="1" stroke-linecap="round" stroke-linejoin="round" stroke-miterlimit="10"/><path fill="none" stroke="rgb(180,179,186)" paint-order="fill stroke markers" d="" stroke-opacity="0.23529411764705882" stroke-linecap="round" stroke-linejoin="round" stroke-miterlimit="10"/><path fill="none" stroke="rgb(28,28,31)" paint-order="fill stroke markers" d=" M 759.5 2.5 L 759.5 890.5" stroke-opacity="1" stroke-miterlimit="10"/><path fill="none" stroke="rgb(28,28,31)" paint-order="fill stroke markers" d=" M 759.5 1.5 L 755.5 5.5" stroke-opacity="1" stroke-miterlimit="10"/><path fill="none" stroke="rgb(28,28,31)" paint-order="fill stroke markers" d=" M 759.5 1.5 L 763.5 5.5" stroke-opacity="1" stroke-miterlimit="10"/><path fill="none" stroke="rgb(28,28,31)" paint-order="fill stroke markers" d=" M 0.5 747.5 L 1316.5 747.5" stroke-opacity="1" stroke-miterlimit="10"/><path fill="none" stroke="rgb(28,28,31)" paint-order="fill stroke markers" d=" M 1317.5 747.5 L 1313.5 743.5" stroke-opacity="1" stroke-miterlimit="10"/><path fill="none" stroke="rgb(28,28,31)" paint-order="fill stroke markers" d=" M 1317.5 747.5 L 1313.5 751.5" stroke-opacity="1" stroke-miterlimit="10"/><text fill="rgb(28,28,31)" stroke="none" font-family="geogebra-sans-serif, sans-serif" font-size="12px" font-style="normal" font-weight="normal" text-decoration="normal" x="25" y="763" text-anchor="start" dominant-baseline="alphabetic" fill-opacity="1">–3.6</text><text fill="rgb(28,28,31)" stroke="none" font-family="geogebra-sans-serif, sans-serif" font-size="12px" font-style="normal" font-weight="normal" text-decoration="normal" x="65" y="763" text-anchor="start" dominant-baseline="alphabetic" fill-opacity="1">–3.4</text><text fill="rgb(28,28,31)" stroke="none" font-family="geogebra-sans-serif, sans-serif" font-size="12px" font-style="normal" font-weight="normal" text-decoration="normal" x="105" y="763" text-anchor="start" dominant-baseline="alphabetic" fill-opacity="1">–3.2</text><text fill="rgb(28,28,31)" stroke="none" font-family="geogebra-sans-serif, sans-serif" font-size="12px" font-style="normal" font-weight="normal" text-decoration="normal" x="151" y="763" text-anchor="start" dominant-baseline="alphabetic" fill-opacity="1">–3</text><text fill="rgb(28,28,31)" stroke="none" font-family="geogebra-sans-serif, sans-serif" font-size="12px" font-style="normal" font-weight="normal" text-decoration="normal" x="186" y="763" text-anchor="start" dominant-baseline="alphabetic" fill-opacity="1">–2.8</text><text fill="rgb(28,28,31)" stroke="none" font-family="geogebra-sans-serif, sans-serif" font-size="12px" font-style="normal" font-weight="normal" text-decoration="normal" x="226" y="763" text-anchor="start" dominant-baseline="alphabetic" fill-opacity="1">–2.6</text><text fill="rgb(28,28,31)" stroke="none" font-family="geogebra-sans-serif, sans-serif" font-size="12px" font-style="normal" font-weight="normal" text-decoration="normal" x="266" y="763" text-anchor="start" dominant-baseline="alphabetic" fill-opacity="1">–2.4</text><text fill="rgb(28,28,31)" stroke="none" font-family="geogebra-sans-serif, sans-serif" font-size="12px" font-style="normal" font-weight="normal" text-decoration="normal" x="306" y="763" text-anchor="start" dominant-baseline="alphabetic" fill-opacity="1">–2.2</text><text fill="rgb(28,28,31)" stroke="none" font-family="geogebra-sans-serif, sans-serif" font-size="12px" font-style="normal" font-weight="normal" text-decoration="normal" x="352" y="763" text-anchor="start" dominant-baseline="alphabetic" fill-opacity="1">–2</text><text fill="rgb(28,28,31)" stroke="none" font-family="geogebra-sans-serif, sans-serif" font-size="12px" font-style="normal" font-weight="normal" text-decoration="normal" x="386" y="763" text-anchor="start" dominant-baseline="alphabetic" fill-opacity="1">–1.8</text><text fill="rgb(28,28,31)" stroke="none" font-family="geogebra-sans-serif, sans-serif" font-size="12px" font-style="normal" font-weight="normal" text-decoration="normal" x="427" y="763" text-anchor="start" dominant-baseline="alphabetic" fill-opacity="1">–1.6</text><text fill="rgb(28,28,31)" stroke="none" font-family="geogebra-sans-serif, sans-serif" font-size="12px" font-style="normal" font-weight="normal" text-decoration="normal" x="467" y="763" text-anchor="start" dominant-baseline="alphabetic" fill-opacity="1">–1.4</text><text fill="rgb(28,28,31)" stroke="none" font-family="geogebra-sans-serif, sans-serif" font-size="12px" font-style="normal" font-weight="normal" text-decoration="normal" x="507" y="763" text-anchor="start" dominant-baseline="alphabetic" fill-opacity="1">–1.2</text><text fill="rgb(28,28,31)" stroke="none" font-family="geogebra-sans-serif, sans-serif" font-size="12px" font-style="normal" font-weight="normal" text-decoration="normal" x="553" y="763" text-anchor="start" dominant-baseline="alphabetic" fill-opacity="1">–1</text><text fill="rgb(28,28,31)" stroke="none" font-family="geogebra-sans-serif, sans-serif" font-size="12px" font-style="normal" font-weight="normal" text-decoration="normal" x="587" y="763" text-anchor="start" dominant-baseline="alphabetic" fill-opacity="1">–0.8</text><text fill="rgb(28,28,31)" stroke="none" font-family="geogebra-sans-serif, sans-serif" font-size="12px" font-style="normal" font-weight="normal" text-decoration="normal" x="627" y="763" text-anchor="start" dominant-baseline="alphabetic" fill-opacity="1">–0.6</text><text fill="rgb(28,28,31)" stroke="none" font-family="geogebra-sans-serif, sans-serif" font-size="12px" font-style="normal" font-weight="normal" text-decoration="normal" x="668" y="763" text-anchor="start" dominant-baseline="alphabetic" fill-opacity="1">–0.4</text><text fill="rgb(28,28,31)" stroke="none" font-family="geogebra-sans-serif, sans-serif" font-size="12px" font-style="normal" font-weight="normal" text-decoration="normal" x="708" y="763" text-anchor="start" dominant-baseline="alphabetic" fill-opacity="1">–0.2</text><text fill="rgb(28,28,31)" stroke="none" font-family="geogebra-sans-serif, sans-serif" font-size="12px" font-style="normal" font-weight="normal" text-decoration="normal" x="791" y="763" text-anchor="start" dominant-baseline="alphabetic" fill-opacity="1">0.2</text><text fill="rgb(28,28,31)" stroke="none" font-family="geogebra-sans-serif, sans-serif" font-size="12px" font-style="normal" font-weight="normal" text-decoration="normal" x="831" y="763" text-anchor="start" dominant-baseline="alphabetic" fill-opacity="1">0.4</text><text fill="rgb(28,28,31)" stroke="none" font-family="geogebra-sans-serif, sans-serif" font-size="12px" font-style="normal" font-weight="normal" text-decoration="normal" x="871" y="763" text-anchor="start" dominant-baseline="alphabetic" fill-opacity="1">0.6</text><text fill="rgb(28,28,31)" stroke="none" font-family="geogebra-sans-serif, sans-serif" font-size="12px" font-style="normal" font-weight="normal" text-decoration="normal" x="912" y="763" text-anchor="start" dominant-baseline="alphabetic" fill-opacity="1">0.8</text><text fill="rgb(28,28,31)" stroke="none" font-family="geogebra-sans-serif, sans-serif" font-size="12px" font-style="normal" font-weight="normal" text-decoration="normal" x="958" y="763" text-anchor="start" dominant-baseline="alphabetic" fill-opacity="1">1</text><text fill="rgb(28,28,31)" stroke="none" font-family="geogebra-sans-serif, sans-serif" font-size="12px" font-style="normal" font-weight="normal" text-decoration="normal" x="992" y="763" text-anchor="start" dominant-baseline="alphabetic" fill-opacity="1">1.2</text><text fill="rgb(28,28,31)" stroke="none" font-family="geogebra-sans-serif, sans-serif" font-size="12px" font-style="normal" font-weight="normal" text-decoration="normal" x="1032" y="763" text-anchor="start" dominant-baseline="alphabetic" fill-opacity="1">1.4</text><text fill="rgb(28,28,31)" stroke="none" font-family="geogebra-sans-serif, sans-serif" font-size="12px" font-style="normal" font-weight="normal" text-decoration="normal" x="1072" y="763" text-anchor="start" dominant-baseline="alphabetic" fill-opacity="1">1.6</text><text fill="rgb(28,28,31)" stroke="none" font-family="geogebra-sans-serif, sans-serif" font-size="12px" font-style="normal" font-weight="normal" text-decoration="normal" x="1112" y="763" text-anchor="start" dominant-baseline="alphabetic" fill-opacity="1">1.8</text><text fill="rgb(28,28,31)" stroke="none" font-family="geogebra-sans-serif, sans-serif" font-size="12px" font-style="normal" font-weight="normal" text-decoration="normal" x="1159" y="763" text-anchor="start" dominant-baseline="alphabetic" fill-opacity="1">2</text><text fill="rgb(28,28,31)" stroke="none" font-family="geogebra-sans-serif, sans-serif" font-size="12px" font-style="normal" font-weight="normal" text-decoration="normal" x="1193" y="763" text-anchor="start" dominant-baseline="alphabetic" fill-opacity="1">2.2</text><text fill="rgb(28,28,31)" stroke="none" font-family="geogebra-sans-serif, sans-serif" font-size="12px" font-style="normal" font-weight="normal" text-decoration="normal" x="1233" y="763" text-anchor="start" dominant-baseline="alphabetic" fill-opacity="1">2.4</text><text fill="rgb(28,28,31)" stroke="none" font-family="geogebra-sans-serif, sans-serif" font-size="12px" font-style="normal" font-weight="normal" text-decoration="normal" x="1273" y="763" text-anchor="start" dominant-baseline="alphabetic" fill-opacity="1">2.6</text><text fill="rgb(28,28,31)" stroke="none" font-family="geogebra-sans-serif, sans-serif" font-size="12px" font-style="normal" font-weight="normal" text-decoration="normal" x="729" y="823" text-anchor="start" dominant-baseline="alphabetic" fill-opacity="1">–0.1</text><text fill="rgb(28,28,31)" stroke="none" font-family="geogebra-sans-serif, sans-serif" font-size="12px" font-style="normal" font-weight="normal" text-decoration="normal" x="735" y="681" text-anchor="start" dominant-baseline="alphabetic" fill-opacity="1">0.1</text><text fill="rgb(28,28,31)" stroke="none" font-family="geogebra-sans-serif, sans-serif" font-size="12px" font-style="normal" font-weight="normal" text-decoration="normal" x="735" y="610" text-anchor="start" dominant-baseline="alphabetic" fill-opacity="1">0.2</text><text fill="rgb(28,28,31)" stroke="none" font-family="geogebra-sans-serif, sans-serif" font-size="12px" font-style="normal" font-weight="normal" text-decoration="normal" x="735" y="538" text-anchor="start" dominant-baseline="alphabetic" fill-opacity="1">0.3</text><text fill="rgb(28,28,31)" stroke="none" font-family="geogebra-sans-serif, sans-serif" font-size="12px" font-style="normal" font-weight="normal" text-decoration="normal" x="735" y="467" text-anchor="start" dominant-baseline="alphabetic" fill-opacity="1">0.4</text><text fill="rgb(28,28,31)" stroke="none" font-family="geogebra-sans-serif, sans-serif" font-size="12px" font-style="normal" font-weight="normal" text-decoration="normal" x="735" y="396" text-anchor="start" dominant-baseline="alphabetic" fill-opacity="1">0.5</text><text fill="rgb(28,28,31)" stroke="none" font-family="geogebra-sans-serif, sans-serif" font-size="12px" font-style="normal" font-weight="normal" text-decoration="normal" x="735" y="325" text-anchor="start" dominant-baseline="alphabetic" fill-opacity="1">0.6</text><text fill="rgb(28,28,31)" stroke="none" font-family="geogebra-sans-serif, sans-serif" font-size="12px" font-style="normal" font-weight="normal" text-decoration="normal" x="735" y="254" text-anchor="start" dominant-baseline="alphabetic" fill-opacity="1">0.7</text><text fill="rgb(28,28,31)" stroke="none" font-family="geogebra-sans-serif, sans-serif" font-size="12px" font-style="normal" font-weight="normal" text-decoration="normal" x="735" y="182" text-anchor="start" dominant-baseline="alphabetic" fill-opacity="1">0.8</text><text fill="rgb(28,28,31)" stroke="none" font-family="geogebra-sans-serif, sans-serif" font-size="12px" font-style="normal" font-weight="normal" text-decoration="normal" x="735" y="111" text-anchor="start" dominant-baseline="alphabetic" fill-opacity="1">0.9</text><text fill="rgb(28,28,31)" stroke="none" font-family="geogebra-sans-serif, sans-serif" font-size="12px" font-style="normal" font-weight="normal" text-decoration="normal" x="745" y="40" text-anchor="start" dominant-baseline="alphabetic" fill-opacity="1">1</text><text fill="rgb(28,28,31)" stroke="none" font-family="geogebra-sans-serif, sans-serif" font-size="12px" font-style="normal" font-weight="normal" text-decoration="normal" x="745" y="763" text-anchor="start" dominant-baseline="alphabetic" fill-opacity="1">0</text><path fill="none" stroke="rgb(0,100,0)" paint-order="fill stroke markers" d=" M 0 747.809562995921 L 5.1484375 747.83065714825 L 10.296874999999886 747.8537044908122 L 15.4453125 747.8788676769375 L 20.59375 747.9063210613816 L 25.7421875 747.9362513650753 L 30.890625 747.9688583612324 L 36.039062499999886 748.0043555819094 L 41.1875 748.0429710439186 L 46.3359375 748.084947992766 L 51.484375 748.130545663072 L 56.6328125 748.180040053668 L 61.781249999999886 748.2337247153239 L 66.9296875 748.2919115487686 L 72.078125 748.3549316103856 L 77.22656249999989 748.4231359226692 L 82.375 748.4968962861959 L 87.5234375 748.5766060895578 L 92.671875 748.6626811133476 L 97.8203125 748.7555603239498 L 102.96875 748.855706652522 L 108.1171875 748.9636077541938 L 113.265625 749.0797767421284 L 118.41406249999989 749.2047528907211 L 123.5625 749.339102301824 L 128.7109375 749.4834185275057 L 133.859375 749.638323142478 L 139.0078125 749.8044662589405 L 144.1562499999999 749.9825269762317 L 149.3046875 750.1732137573116 L 154.453125 750.3772647237565 L 159.6015625 750.5954478606176 L 164.75 750.8285611221834 L 169.8984374999999 751.0774324293966 L 175.046875 751.34291954942 L 180.1953125 751.6259098476116 L 185.34375 751.9273199019733 L 190.4921875 752.2480949699833 L 195.640625 752.5892082976043 L 200.7890624999999 752.9516602601924 L 205.9375 753.3364773250153 L 211.0859375 753.7447108251225 L 216.234375 754.1774355344112 L 221.3828125 754.6357480338847 L 226.5312499999999 755.1207648593321 L 231.6796875 755.6336204209482 L 236.828125 756.1754646857861 L 241.9765625 756.7474606143796 L 247.125 757.3507813434011 L 252.27343749999994 757.9866071068258 L 257.42187499999994 758.6561218887718 L 262.5703125 759.3605098019615 L 267.71875 760.1009511866204 L 272.86718749999994 760.8786184255852 L 278.015625 761.6946714724403 L 283.16406249999994 762.5502530906336 L 288.3125 763.4464838027501 L 293.4609375 764.3844565504241 L 298.60937499999994 765.3652310667743 L 303.7578125 766.3898279647069 L 308.90624999999994 767.4592225460002 L 314.05468749999994 768.5743383376956 L 319.203125 769.7360403640239 L 324.35156250000006 770.9451281638468 L 329.5 772.2023285654068 L 334.64843749999994 773.5082882320374 L 339.79687499999994 774.8635659943878 L 344.9453125 776.2686249866406 L 350.09375 777.7238246061587 L 355.24218749999994 779.2294123179541 L 360.390625 780.7855153273355 L 365.5390625 782.3921321460346 L 370.6875 784.0491240790429 L 375.83593749999994 785.7562066612693 L 380.98437499999994 787.5129410749629 L 386.1328125 789.318725580628 L 391.28125 791.1727869958282 L 396.4296875 793.0741722578989 L 401.578125 795.021740108058 L 406.72656249999994 797.0141529357916 L 411.875 799.0498688236106 L 417.0234375 801.1271338333706 L 422.17187499999994 803.2439745762607 L 427.3203125 805.3981911093124 L 432.46874999999994 807.5873502018319 L 437.6171875 809.808779015519 L 442.765625 812.0595592421589 L 447.91406249999994 814.3365217427065 L 453.0625 816.6362417312479 L 458.2109375 818.9550345467767 L 463.35937499999994 821.2889520549052 L 468.5078125 823.6337797205737 L 473.65625000000006 825.9850343914944 L 478.8046875 828.3379628304846 L 483.953125 830.6875410330008 L 489.10156249999994 833.0284743640723 L 494.25 835.3551985464626 L 499.3984375 837.6618815292711 L 504.546875 839.9424262632991 L 509.6953125 842.1904744063977 L 514.84375 844.3994109786563 L 519.9921875 846.5623699837242 L 525.140625 848.6722410087712 L 530.2890625 850.7216768116209 L 535.4375 852.7031018994439 L 540.5859375 854.6087220990823 L 545.734375 856.430535114639 L 550.8828125 858.1603420633977 L 556.03125 859.789759976489 L 561.1796875 861.3102352459949 L 566.328125 862.7130579954191 L 571.4765625 863.9893773456689 L 576.625 865.1302175439273 L 581.7734375 866.1264949180655 L 586.921875 866.969035614581 L 592.0703125 867.6485940734893 L 597.21875 868.1558721891556 L 602.3671875 868.4815391017739 L 607.515625 868.616251560103 L 612.6640625 868.5506747921843 L 617.8125 868.2755038171181 L 622.9609375 867.7814851275998 L 628.109375 867.0594386698208 L 633.2578125 866.1002800445738 L 638.40625 864.8950428509551 L 643.5546875 863.4349010919859 L 648.703125 861.7111915597628 L 653.8515625 859.7154361164417 L 659 857.4393637864513 L 664.1484375 854.874932574848 L 669.296875 852.0143509266641 L 674.4453125 848.8500987424746 L 679.59375 845.3749478662262 L 684.7421875 841.5819819626175 L 689.890625 837.464615703017 L 695.0390625 833.0166131810203 L 700.1875 828.232105481302 L 705.3359375 823.1056073283798 L 710.484375 817.6320327452696 L 715.6328125 811.8067096557681 L 720.78125 805.6253933682165 L 725.9296875 799.0842788830636 L 731.078125 792.1800119713419 L 736.2265625 784.9096989762568 L 741.375 777.2709152954466 L 746.5234375 769.2617125070781 L 751.671875 760.8806241087462 L 756.8203125 752.1266698441384 L 761.96875 742.999358598557 L 767.1171875 733.4986898506284 L 772.265625 723.6251536738446 L 774.83984375 718.5488472677891 L 777.4140625 713.3797292879302 L 779.98828125 708.117998091243 L 782.5625 702.7638821663763 L 785.13671875 697.3176399652582 L 787.7109375 691.7795597127988 L 790.28515625 686.1499591949024 L 792.859375 680.4291855250138 L 795.43359375 674.6176148894604 L 798.0078125 668.7156522718589 L 800.58203125 662.7237311568928 L 803.15625 656.642313213777 L 805.73046875 650.4718879597544 L 808.3046875000001 644.212972403987 L 810.87890625 637.8661106722279 L 813.4531249999999 631.4318736126722 L 816.02734375 624.9108583834173 L 818.6015625 618.3036880219715 L 821.1757812500001 611.6110109972657 L 823.75 604.8335007446583 L 826.3242187499999 597.9718551844122 L 828.8984375 591.026796224168 L 831.47265625 583.999069245932 L 834.0468750000001 576.889442578118 L 836.62109375 569.698706953206 L 839.1953124999999 562.427674951575 L 841.76953125 555.077180432096 L 844.34375 547.6480779500798 L 846.9179687500001 540.1412421631702 L 849.4921875 532.5575672258105 L 852.0664062499999 524.8979661728915 L 854.640625 517.1633702932177 L 857.21484375 509.3547284934313 L 859.7890625 501.4730066530269 L 862.36328125 493.51918697112194 L 864.9374999999999 485.49426730562186 L 867.51171875 477.39926050545097 L 870.0859375 469.2351937365062 L 872.66015625 461.0031078019914 L 875.234375 452.7040564578127 L 877.8085937500001 444.3391057236828 L 880.3828125 435.9093331906186 L 882.95703125 427.41582732547965 L 885.53125 418.85968677322387 L 888.10546875 410.242019657536 L 890.6796875000001 401.56394288047846 L 893.25390625 392.8265814218339 L 895.828125 384.0310676387646 L 898.40234375 375.17854056645047 L 900.9765625 366.27014522032897 L 903.5507812500001 357.30703190056306 L 906.125 348.2903554993659 L 908.69921875 339.2212748117802 L 911.2734375 330.10095185052296 L 913.84765625 320.93055116548425 L 916.4218750000001 311.71123916844886 L 918.99609375 302.44418346363 L 921.5703125 293.13055218454724 L 924.14453125 283.77151333781063 L 926.71875 274.3682341543347 L 929.29296875 264.92188044849064 L 931.8671875 255.4336159857176 L 934.4414062499999 245.9046018590575 L 937.015625 236.33599587510594 L 939.58984375 226.7289519498254 L 942.1640625 217.084619514657 L 944.73828125 207.40414293337153 L 947.3125000000001 197.6886609300435 L 949.88671875 187.93930602856597 L 952.4609375 178.15720400405007 L 955.03515625 168.34347334648965 L 957.609375 158.49922473701554 L 960.1835937500001 148.62556053705475 L 962.7578125 138.72357429071394 L 965.33203125 128.79435024064628 L 967.90625 118.83896285768515 L 970.48046875 108.85847638448456 L 971.767578125 103.85915065900394 L 973.0546875000001 98.85394439338324 L 974.341796875 93.84298754676229 L 975.62890625 88.82640935872075 L 976.916015625 83.80433833672055 L 978.203125 78.77690224377375 L 979.4902343750001 73.74422808634688 L 980.77734375 68.70644210250066 L 982.064453125 63.66366975026267 L 983.3515625 58.616035696238896 L 984.638671875 53.56366380446377 L 985.9257812500001 48.50667712548454 L 987.212890625 43.44519788569278 L 988.5 38.37934747688382 L 989.787109375 33.309246446067164 L 991.07421875 28.235014485513034 L 992.3613281250001 23.156770423039802 L 993.6484375 18.074632212547158 L 994.935546875 12.988716924783603 L 996.22265625 7.899140738363826 L 997.509765625 2.8060189310251644 L 998.7968750000001 -2.290534128875038 L 1000.083984375 -7.39040499061457" stroke-opacity="0.6980392156862745" stroke-linecap="round" stroke-linejoin="round" stroke-miterlimit="10" stroke-width="2.5"/><text fill="rgb(0,100,0)" stroke="none" font-family="geogebra-sans-serif, sans-serif" font-size="16px" font-style="normal" font-weight="normal" text-decoration="normal" x="8" y="747" text-anchor="start" dominant-baseline="alphabetic" fill-opacity="1">GELU</text></g></g></svg>