<svg version="1.1" xmlns="http://www.w3.org/2000/svg" xmlns:xlink="http://www.w3.org/1999/xlink" width="1318" height="890"><defs><clipPath id="ABwzGvctAJWq"><path fill="none" stroke="none" d=" M 0 0 L 1318 0 L 1318 890 L 0 890 L 0 0 Z"/></clipPath></defs><g transform="scale(1,1)" clip-path="url(#ABwzGvctAJWq)"><g><rect fill="rgb(255,255,255)" stroke="none" x="0" y="0" width="1319" height="891" fill-opacity="1"/><path fill="none" stroke="rgb(180,179,186)" paint-order="fill stroke markers" d=" M 5.5 0.5 L 5.5 849.5 M 5.5 0.5 L 5.5 849.5 M 98.5 0.5 L 98.5 849.5 M 191.5 0.5 L 191.5 849.5 M 285.5 0.5 L 285.5 849.5 M 378.5 0.5 L 378.5 849.5 M 472.5 0.5 L 472.5 849.5 M 565.5 0.5 L 565.5 849.5 M 752.5 0.5 L 752.5 849.5 M 845.5 0.5 L 845.5 849.5 M 939.5 0.5 L 939.5 849.5 M 1032.5 0.5 L 1032.5 849.5 M 1126.5 0.5 L 1126.5 849.5 M 1219.5 0.5 L 1219.5 849.5 M 1312.5 0.5 L 1312.5 849.5" stroke-opacity="1" stroke-linecap="round" stroke-linejoin="round" stroke-miterlimit="10"/><path fill="none" stroke="rgb(180,179,186)" paint-order="fill stroke markers" d="" stroke-opacity="0.23529411764705882" stroke-linecap="round" stroke-linejoin="round" stroke-miterlimit="10"/><path fill="none" stroke="rgb(180,179,186)" paint-order="fill stroke markers" d=" M 0.5 40.5 L 1318.5 40.5 M 0.5 40.5 L 1318.5 40.5 M 0.5 121.5 L 1318.5 121.5 M 0.5 202.5 L 1318.5 202.5 M 0.5 283.5 L 1318.5 283.5 M 0.5 364.5 L 1318.5 364.5 M 0.5 445.5 L 1318.5 445.5 M 0.5 525.5 L 1318.5 525.5 M 0.5 606.5 L 1318.5 606.5 M 0.5 687.5 L 1318.5 687.5 M 0.5 768.5 L 1318.5 768.5" stroke-opacity="1" stroke-linecap="round" stroke-linejoin="round" stroke-miterlimit="10"/><path fill="none" stroke="rgb(180,179,186)" paint-order="fill stroke markers" d="" stroke-opacity="0.23529411764705882" stroke-linecap="round" stroke-linejoin="round" stroke-miterlimit="10"/><path fill="none" stroke="rgb(28,28,31)" paint-order="fill stroke markers" d=" M 659.5 2.5 L 659.5 849.5" stroke-opacity="1" stroke-miterlimit="10"/><path fill="none" stroke="rgb(28,28,31)" paint-order="fill stroke markers" d=" M 659.5 1.5 L 655.5 5.5" stroke-opacity="1" stroke-miterlimit="10"/><path fill="none" stroke="rgb(28,28,31)" paint-order="fill stroke markers" d=" M 659.5 1.5 L 663.5 5.5" stroke-opacity="1" stroke-miterlimit="10"/><path fill="none" stroke="rgb(28,28,31)" paint-order="fill stroke markers" d=" M 0.5 849.5 L 1316.5 849.5" stroke-opacity="1" stroke-miterlimit="10"/><path fill="none" stroke="rgb(28,28,31)" paint-order="fill stroke markers" d=" M 1317.5 849.5 L 1313.5 845.5" stroke-opacity="1" stroke-miterlimit="10"/><path fill="none" stroke="rgb(28,28,31)" paint-order="fill stroke markers" d=" M 1317.5 849.5 L 1313.5 853.5" stroke-opacity="1" stroke-miterlimit="10"/><text fill="rgb(28,28,31)" stroke="none" font-family="geogebra-sans-serif, sans-serif" font-size="12px" font-style="normal" font-weight="normal" text-decoration="normal" x="90" y="865" text-anchor="start" dominant-baseline="alphabetic" fill-opacity="1">–12</text><text fill="rgb(28,28,31)" stroke="none" font-family="geogebra-sans-serif, sans-serif" font-size="12px" font-style="normal" font-weight="normal" text-decoration="normal" x="183" y="865" text-anchor="start" dominant-baseline="alphabetic" fill-opacity="1">–10</text><text fill="rgb(28,28,31)" stroke="none" font-family="geogebra-sans-serif, sans-serif" font-size="12px" font-style="normal" font-weight="normal" text-decoration="normal" x="280" y="865" text-anchor="start" dominant-baseline="alphabetic" fill-opacity="1">–8</text><text fill="rgb(28,28,31)" stroke="none" font-family="geogebra-sans-serif, sans-serif" font-size="12px" font-style="normal" font-weight="normal" text-decoration="normal" x="373" y="865" text-anchor="start" dominant-baseline="alphabetic" fill-opacity="1">–6</text><text fill="rgb(28,28,31)" stroke="none" font-family="geogebra-sans-serif, sans-serif" font-size="12px" font-style="normal" font-weight="normal" text-decoration="normal" x="467" y="865" text-anchor="start" dominant-baseline="alphabetic" fill-opacity="1">–4</text><text fill="rgb(28,28,31)" stroke="none" font-family="geogebra-sans-serif, sans-serif" font-size="12px" font-style="normal" font-weight="normal" text-decoration="normal" x="560" y="865" text-anchor="start" dominant-baseline="alphabetic" fill-opacity="1">–2</text><text fill="rgb(28,28,31)" stroke="none" font-family="geogebra-sans-serif, sans-serif" font-size="12px" font-style="normal" font-weight="normal" text-decoration="normal" x="750" y="865" text-anchor="start" dominant-baseline="alphabetic" fill-opacity="1">2</text><text fill="rgb(28,28,31)" stroke="none" font-family="geogebra-sans-serif, sans-serif" font-size="12px" font-style="normal" font-weight="normal" text-decoration="normal" x="843" y="865" text-anchor="start" dominant-baseline="alphabetic" fill-opacity="1">4</text><text fill="rgb(28,28,31)" stroke="none" font-family="geogebra-sans-serif, sans-serif" font-size="12px" font-style="normal" font-weight="normal" text-decoration="normal" x="937" y="865" text-anchor="start" dominant-baseline="alphabetic" fill-opacity="1">6</text><text fill="rgb(28,28,31)" stroke="none" font-family="geogebra-sans-serif, sans-serif" font-size="12px" font-style="normal" font-weight="normal" text-decoration="normal" x="1030" y="865" text-anchor="start" dominant-baseline="alphabetic" fill-opacity="1">8</text><text fill="rgb(28,28,31)" stroke="none" font-family="geogebra-sans-serif, sans-serif" font-size="12px" font-style="normal" font-weight="normal" text-decoration="normal" x="1121" y="865" text-anchor="start" dominant-baseline="alphabetic" fill-opacity="1">10</text><text fill="rgb(28,28,31)" stroke="none" font-family="geogebra-sans-serif, sans-serif" font-size="12px" font-style="normal" font-weight="normal" text-decoration="normal" x="1214" y="865" text-anchor="start" dominant-baseline="alphabetic" fill-opacity="1">12</text><text fill="rgb(28,28,31)" stroke="none" font-family="geogebra-sans-serif, sans-serif" font-size="12px" font-style="normal" font-weight="normal" text-decoration="normal" x="635" y="773" text-anchor="start" dominant-baseline="alphabetic" fill-opacity="1">0.1</text><text fill="rgb(28,28,31)" stroke="none" font-family="geogebra-sans-serif, sans-serif" font-size="12px" font-style="normal" font-weight="normal" text-decoration="normal" x="635" y="692" text-anchor="start" dominant-baseline="alphabetic" fill-opacity="1">0.2</text><text fill="rgb(28,28,31)" stroke="none" font-family="geogebra-sans-serif, sans-serif" font-size="12px" font-style="normal" font-weight="normal" text-decoration="normal" x="635" y="611" text-anchor="start" dominant-baseline="alphabetic" fill-opacity="1">0.3</text><text fill="rgb(28,28,31)" stroke="none" font-family="geogebra-sans-serif, sans-serif" font-size="12px" font-style="normal" font-weight="normal" text-decoration="normal" x="635" y="530" text-anchor="start" dominant-baseline="alphabetic" fill-opacity="1">0.4</text><text fill="rgb(28,28,31)" stroke="none" font-family="geogebra-sans-serif, sans-serif" font-size="12px" font-style="normal" font-weight="normal" text-decoration="normal" x="635" y="449" text-anchor="start" dominant-baseline="alphabetic" fill-opacity="1">0.5</text><text fill="rgb(28,28,31)" stroke="none" font-family="geogebra-sans-serif, sans-serif" font-size="12px" font-style="normal" font-weight="normal" text-decoration="normal" x="635" y="369" text-anchor="start" dominant-baseline="alphabetic" fill-opacity="1">0.6</text><text fill="rgb(28,28,31)" stroke="none" font-family="geogebra-sans-serif, sans-serif" font-size="12px" font-style="normal" font-weight="normal" text-decoration="normal" x="635" y="288" text-anchor="start" dominant-baseline="alphabetic" fill-opacity="1">0.7</text><text fill="rgb(28,28,31)" stroke="none" font-family="geogebra-sans-serif, sans-serif" font-size="12px" font-style="normal" font-weight="normal" text-decoration="normal" x="635" y="207" text-anchor="start" dominant-baseline="alphabetic" fill-opacity="1">0.8</text><text fill="rgb(28,28,31)" stroke="none" font-family="geogebra-sans-serif, sans-serif" font-size="12px" font-style="normal" font-weight="normal" text-decoration="normal" x="635" y="126" text-anchor="start" dominant-baseline="alphabetic" fill-opacity="1">0.9</text><text fill="rgb(28,28,31)" stroke="none" font-family="geogebra-sans-serif, sans-serif" font-size="12px" font-style="normal" font-weight="normal" text-decoration="normal" x="645" y="45" text-anchor="start" dominant-baseline="alphabetic" fill-opacity="1">1</text><text fill="rgb(28,28,31)" stroke="none" font-family="geogebra-sans-serif, sans-serif" font-size="12px" font-style="normal" font-weight="normal" text-decoration="normal" x="656" y="865" text-anchor="start" dominant-baseline="alphabetic" fill-opacity="1">0</text><path fill="none" stroke="rgb(0,100,0)" paint-order="fill stroke markers" d=" M 1 849.5448396296714 L 1 849.544852657046 L 1 849.5448396296714 L 2 849.5448263203303 L 2 849.5448263203303 L 3 849.5448127229199 L 3 849.5448127229199 L 4 849.5447988312051 L 4 849.5447988312051 L 5 849.5447846388159 L 5 849.5447846388159 L 6 849.5447701392445 L 6 849.5447701392445 L 7 849.5447553258422 L 7 849.5447553258422 L 8 849.5447401918165 L 8 849.5447401918165 L 9 849.5447247302276 L 9 849.5447247302276 L 10 849.5447089339859 L 10 849.5447089339859 L 11 849.544692795848 L 11 849.544692795848 L 12 849.544676308414 L 12 849.544676308414 L 13 849.5446594641236 L 13 849.5446594641236 L 14 849.5446422552528 L 14 849.5446422552528 L 15 849.544624673911 L 15 849.544624673911 L 16 849.544606712036 L 16 849.544606712036 L 17 849.5445883613918 L 17 849.5445883613918 L 18 849.5445696135636 L 18 849.5445696135636 L 19 849.5445504599548 L 19 849.5445504599548 L 20 849.5445308917828 L 20 849.5445308917828 L 21 849.5445109000744 L 21 849.5445109000744 L 22 849.544490475663 L 22 849.544490475663 L 23 849.5444696091829 L 23 849.5444696091829 L 24 849.5444482910658 L 24 849.5444482910658 L 25 849.5444265115367 L 25 849.5444265115367 L 26 849.5444042606086 L 26 849.5444042606086 L 27 849.5443815280786 L 27 849.5443815280786 L 28 849.5443583035227 L 28 849.5443583035227 L 29 849.5443345762916 L 29 849.5443345762916 L 30 849.5443103355054 L 30 849.5443103355054 L 31 849.5442855700486 L 31 849.5442855700486 L 32 849.5442602685653 L 32 849.5442602685653 L 33 849.5442344194535 L 33 849.5442344194535 L 34 849.5442080108605 L 34 849.5442080108605 L 35 849.5441810306768 L 35 849.5441810306768 L 36 849.5441534665308 L 36 849.5441534665308 L 37 849.5441253057833 L 37 849.5441253057833 L 38 849.5440965355214 L 38 849.5440965355214 L 39 849.5440671425525 L 39 849.5440671425525 L 40 849.5440371133992 L 40 849.5440371133992 L 41 849.5440064342915 L 41 849.5440064342915 L 42 849.543975091162 L 42 849.543975091162 L 43 849.5439430696384 L 43 849.5439430696384 L 44 849.5439103550376 L 44 849.5439103550376 L 45 849.5438769323588 L 45 849.5438769323588 L 46 849.5438427862761 L 46 849.5438427862761 L 47 849.5438079011321 L 47 849.5438079011321 L 48 849.5437722609307 L 48 849.5437722609307 L 49 849.5437358493296 L 49 849.5437358493296 L 50 849.5436986496322 L 50 849.5436986496322 L 51 849.5436606447813 L 51 849.5436606447813 L 52 849.5436218173501 L 52 849.5436218173501 L 53 849.5435821495345 L 53 849.5435821495345 L 54 849.5435416231453 L 54 849.5435416231453 L 55 849.5435002195998 L 55 849.5435002195998 L 56 849.5434579199125 L 56 849.5434579199125 L 57 849.5434147046875 L 57 849.5434147046875 L 58 849.543370554109 L 58 849.543370554109 L 59 849.543325447932 L 59 849.543325447932 L 60 849.5432793654738 L 60 849.5432793654738 L 61 849.5432322856038 L 61 849.5432322856038 L 62 849.5431841867339 L 62 849.5431841867339 L 63 849.5431350468092 L 63 849.5431350468092 L 64 849.5430848432969 L 64 849.5430848432969 L 65 849.5430335531769 L 65 849.5430335531769 L 66 849.5429811529308 L 66 849.5429811529308 L 67 849.5429276185309 L 67 849.5429276185309 L 68 849.54287292543 L 68 849.54287292543 L 69 849.542817048549 L 69 849.542817048549 L 70 849.5427599622664 L 70 849.5427599622664 L 71 849.542701640406 L 71 849.542701640406 L 72 849.5426420562252 L 72 849.5426420562252 L 73 849.5425811824023 L 73 849.5425811824023 L 74 849.5425189910245 L 74 849.5425189910245 L 75 849.5424554535749 L 75 849.5424554535749 L 76 849.5423905409193 L 76 849.5423905409193 L 77 849.5423242232929 L 77 849.5423242232929 L 78 849.5422564702866 L 78 849.5422564702866 L 79 849.5421872508334 L 79 849.5421872508334 L 80 849.5421165331938 L 80 849.5421165331938 L 81 849.5420442849412 L 81 849.5420442849412 L 82 849.5419704729474 L 82 849.5419704729474 L 83 849.541895063367 L 83 849.541895063367 L 84 849.541818021622 L 84 849.541818021622 L 85 849.5417393123864 L 85 849.5417393123864 L 86 849.5416588995694 L 86 849.5416588995694 L 87 849.5415767462989 L 87 849.5415767462989 L 88 849.5414928149049 L 88 849.5414928149049 L 89 849.5414070669024 L 89 849.5414070669024 L 90 849.5413194629729 L 90 849.5413194629729 L 91 849.5412299629472 L 91 849.5412299629472 L 92 849.5411385257869 L 92 849.5411385257869 L 93 849.541045109565 L 93 849.541045109565 L 94 849.5409496714473 L 94 849.5409496714473 L 95 849.5408521676725 L 95 849.5408521676725 L 96 849.5407525535322 L 96 849.5407525535322 L 97 849.5406507833503 L 97 849.5406507833503 L 98 849.5405468104622 L 98 849.5405468104622 L 99 849.5404405871931 L 99 849.5404405871931 L 100 849.5403320648365 L 100 849.5403320648365 L 101 849.5402211936322 L 101 849.5402211936322 L 102 849.5401079227422 L 102 849.5401079227422 L 103 849.5399922002289 L 103 849.5399922002289 L 104 849.5398739730301 L 104 849.5398739730301 L 105 849.5397531869356 L 105 849.5397531869356 L 106 849.5396297865617 L 106 849.5396297865617 L 107 849.539503715326 L 107 849.539503715326 L 108 849.5393749154217 L 108 849.5393749154217 L 109 849.5392433277907 L 109 849.5392433277907 L 110 849.5391088920967 L 110 849.5391088920967 L 111 849.5389715466978 L 111 849.5389715466978 L 112 849.5388312286178 L 112 849.5388312286178 L 113 849.5386878735173 L 113 849.5386878735173 L 114 849.538541415665 L 114 849.538541415665 L 115 849.5383917879066 L 115 849.5383917879066 L 116 849.5382389216342 L 116 849.5382389216342 L 117 849.5380827467555 L 117 849.5380827467555 L 118 849.537923191661 L 118 849.537923191661 L 119 849.5377601831915 L 119 849.5377601831915 L 120 849.5375936466041 L 120 849.5375936466041 L 121 849.5374235055388 L 121 849.5374235055388 L 122 849.5372496819825 L 122 849.5372496819825 L 123 849.537072096234 L 123 849.537072096234 L 124 849.5368906668672 L 124 849.5368906668672 L 125 849.5367053106935 L 125 849.5367053106935 L 126 849.536515942724 L 126 849.536515942724 L 127 849.5363224761306 L 127 849.5363224761306 L 128 849.5361248222059 L 128 849.5361248222059 L 129 849.5359228903226 L 129 849.5359228903226 L 130 849.5357165878924 L 130 849.5357165878924 L 131 849.5355058203226 L 131 849.5355058203226 L 132 849.5352904909737 L 132 849.5352904909737 L 133 849.5350705011149 L 133 849.5350705011149 L 134 849.5348457498783 L 134 849.5348457498783 L 135 849.5346161342131 L 135 849.5346161342131 L 136 849.5343815488385 L 136 849.5343815488385 L 137 849.5341418861949 L 137 849.5341418861949 L 138 849.5338970363952 L 138 849.5338970363952 L 139 849.533646887174 L 139 849.533646887174 L 140 849.5333913238363 L 140 849.5333913238363 L 141 849.533130229205 L 141 849.533130229205 L 142 849.5328634835671 L 142 849.5328634835671 L 143 849.5325909646187 L 143 849.5325909646187 L 144 849.5323125474092 L 144 849.5323125474092 L 145 849.5320281042839 L 145 849.5320281042839 L 146 849.5317375048252 L 146 849.5317375048252 L 147 849.5314406157935 L 147 849.5314406157935 L 147.99999999999994 849.5311373010654 L 147.99999999999994 849.5311373010654 L 149 849.530827421572 L 149 849.530827421572 L 150 849.5305108352343 L 150 849.5305108352343 L 151.00000000000006 849.5301873968991 L 151.00000000000006 849.5301873968991 L 152 849.5298569582715 L 152 849.5298569582715 L 152.99999999999994 849.5295193678477 L 152.99999999999994 849.5295193678477 L 154 849.529174470845 L 154 849.529174470845 L 155 849.5288221091312 L 155 849.5288221091312 L 156.00000000000006 849.528462121152 L 156.00000000000006 849.528462121152 L 157 849.5280943418569 L 157 849.5280943418569 L 157.99999999999994 849.5277186026238 L 157.99999999999994 849.5277186026238 L 159 849.5273347311814 L 159 849.5273347311814 L 160 849.5269425515304 L 160 849.5269425515304 L 161 849.5265418838628 L 161 849.5265418838628 L 162 849.5261325444798 L 162 849.5261325444798 L 163.00000000000006 849.5257143457068 L 163.00000000000006 849.5257143457068 L 164 849.5252870958084 L 164 849.5252870958084 L 165 849.5248505988998 L 165 849.5248505988998 L 166 849.5244046548574 L 166 849.5244046548574 L 167 849.5239490592272 L 167 849.5239490592272 L 168.00000000000006 849.5234836031304 L 168.00000000000006 849.5234836031304 L 169 849.5230080731685 L 169 849.5230080731685 L 169.99999999999994 849.5225222513251 L 169.99999999999994 849.5225222513251 L 171 849.522025914866 L 171 849.522025914866 L 172 849.5215188362373 L 172 849.5215188362373 L 173.00000000000006 849.5210007829611 L 173.00000000000006 849.5210007829611 L 174 849.5204715175287 L 174 849.5204715175287 L 174.99999999999994 849.5199307972921 L 174.99999999999994 849.5199307972921 L 176 849.5193783743526 L 176 849.5193783743526 L 177 849.5188139954477 L 177 849.5188139954477 L 178.00000000000006 849.518237401834 L 178.00000000000006 849.518237401834 L 179 849.5176483291698 L 179 849.5176483291698 L 179.99999999999994 849.5170465073933 L 179.99999999999994 849.5170465073933 L 181 849.5164316605992 L 181 849.5164316605992 L 182 849.5158035069119 L 182 849.5158035069119 L 183 849.515161758357 L 183 849.515161758357 L 184 849.5145061207285 L 184 849.5145061207285 L 185.00000000000006 849.5138362934548 L 185.00000000000006 849.5138362934548 L 186 849.5131519694606 L 186 849.5131519694606 L 187 849.5124528350264 L 187 849.5124528350264 L 188 849.5117385696444 L 188 849.5117385696444 L 189 849.5110088458723 L 189 849.5110088458723 L 190.00000000000006 849.5102633291829 L 190.00000000000006 849.5102633291829 L 191 849.5095016778106 L 191 849.5095016778106 L 192 849.5087235425955 L 192 849.5087235425955 L 193 849.5079285668231 L 193 849.5079285668231 L 194 849.5071163860608 L 194 849.5071163860608 L 195.00000000000006 849.5062866279914 L 195.00000000000006 849.5062866279914 L 196 849.5054389122419 L 196 849.5054389122419 L 196.99999999999994 849.5045728502098 L 196.99999999999994 849.5045728502098 L 198 849.503688044885 L 198 849.503688044885 L 199 849.5027840906683 L 199 849.5027840906683 L 200.00000000000006 849.5018605731847 L 200.00000000000006 849.5018605731847 L 201 849.5009170690944 L 201 849.5009170690944 L 201.99999999999994 849.499953145899 L 201.99999999999994 849.499953145899 L 203 849.498968361743 L 203 849.498968361743 L 204 849.4979622652118 L 204 849.4979622652118 L 205.00000000000006 849.4969343951244 L 205.00000000000006 849.4969343951244 L 206 849.4958842803233 L 206 849.4958842803233 L 206.99999999999994 849.4948114394576 L 206.99999999999994 849.4948114394576 L 208 849.4937153807634 L 208 849.4937153807634 L 209 849.4925956018383 L 209 849.4925956018383 L 210 849.4914515894112 L 210 849.4914515894112 L 211 849.490282819108 L 211 849.490282819108 L 212.00000000000006 849.4890887552107 L 212.00000000000006 849.4890887552107 L 213 849.4878688504125 L 213 849.4878688504125 L 214 849.4866225455676 L 214 849.4866225455676 L 215 849.4853492694347 L 215 849.4853492694347 L 216 849.4840484384156 L 216 849.4840484384156 L 217.00000000000006 849.4827194562884 L 217.00000000000006 849.4827194562884 L 218 849.4813617139342 L 218 849.4813617139342 L 218.99999999999994 849.4799745890587 L 218.99999999999994 849.4799745890587 L 220 849.478557445907 L 220 849.478557445907 L 221 849.477109634973 L 221 849.477109634973 L 222.00000000000006 849.4756304927015 L 222.00000000000006 849.4756304927015 L 223 849.4741193411858 L 223 849.4741193411858 L 223.99999999999994 849.4725754878558 L 223.99999999999994 849.4725754878558 L 225 849.4709982251628 L 225 849.4709982251628 L 226 849.4693868302543 L 226 849.4693868302543 L 227.00000000000006 849.4677405646444 L 227.00000000000006 849.4677405646444 L 228 849.4660586738748 L 228 849.4660586738748 L 228.99999999999994 849.4643403871711 L 228.99999999999994 849.4643403871711 L 230 849.4625849170886 L 230 849.4625849170886 L 231 849.4607914591533 L 231 849.4607914591533 L 232 849.458959191493 L 232 849.458959191493 L 233 849.4570872744624 L 233 849.4570872744624 L 234.00000000000006 849.4551748502579 L 234.00000000000006 849.4551748502579 L 235 849.4532210425261 L 235 849.4532210425261 L 236 849.451224955963 L 236 849.451224955963 L 237 849.4491856759038 L 237 849.4491856759038 L 238 849.4471022679056 L 238 849.4471022679056 L 239.00000000000006 849.4449737773195 L 239.00000000000006 849.4449737773195 L 240 849.4427992288547 L 240 849.4427992288547 L 240.99999999999994 849.4405776261316 L 240.99999999999994 849.4405776261316 L 242 849.4383079512273 L 242 849.4383079512273 L 243 849.4359891642099 L 243 849.4359891642099 L 244.00000000000006 849.4336202026632 L 244.00000000000006 849.4336202026632 L 245 849.4311999812007 L 245 849.4311999812007 L 245.99999999999994 849.4287273909703 L 245.99999999999994 849.4287273909703 L 247 849.4262012991466 L 247 849.4262012991466 L 248 849.4236205484143 L 248 849.4236205484143 L 249.00000000000006 849.4209839564384 L 249.00000000000006 849.4209839564384 L 250 849.4182903153244 L 250 849.4182903153244 L 250.99999999999994 849.4155383910669 L 250.99999999999994 849.4155383910669 L 252 849.4127269229849 L 252 849.4127269229849 L 253 849.4098546231468 L 253 849.4098546231468 L 254.00000000000006 849.4069201757815 L 254.00000000000006 849.4069201757815 L 255 849.4039222366778 L 255 849.4039222366778 L 255.99999999999994 849.4008594325704 L 255.99999999999994 849.4008594325704 L 257 849.3977303605132 L 257 849.3977303605132 L 258 849.3945335872379 L 258 849.3945335872379 L 259 849.3912676485003 L 259 849.3912676485003 L 260 849.3879310484118 L 260 849.3879310484118 L 261.00000000000006 849.3845222587563 L 261.00000000000006 849.3845222587563 L 262 849.3810397182926 L 262 849.3810397182926 L 263 849.3774818320426 L 263 849.3774818320426 L 264 849.3738469705623 L 264 849.3738469705623 L 265 849.3701334691997 L 265 849.3701334691997 L 266.00000000000006 849.366339627334 L 266.00000000000006 849.366339627334 L 267 849.3624637076006 L 267 849.3624637076006 L 267.99999999999994 849.3585039350983 L 267.99999999999994 849.3585039350983 L 269 849.3544584965803 L 269 849.3544584965803 L 270 849.3503255396263 L 270 849.3503255396263 L 271.00000000000006 849.3461031717991 L 271.00000000000006 849.3461031717991 L 272 849.3417894597807 L 272 849.3417894597807 L 272.99999999999994 849.3373824284917 L 272.99999999999994 849.3373824284917 L 274 849.3328800601905 L 274 849.3328800601905 L 275 849.3282802935545 L 275 849.3282802935545 L 276.00000000000006 849.3235810227399 L 276.00000000000006 849.3235810227399 L 277 849.3187800964225 L 277 849.3187800964225 L 277.99999999999994 849.3138753168184 L 277.99999999999994 849.3138753168184 L 279 849.3088644386818 L 279 849.3088644386818 L 280 849.3037451682828 L 280 849.3037451682828 L 281 849.2985151623637 L 281 849.2985151623637 L 282 849.2931720270709 L 282 849.2931720270709 L 283.00000000000006 849.287713316866 L 283.00000000000006 849.287713316866 L 284 849.2821365334127 L 284 849.2821365334127 L 285 849.2764391244391 L 285 849.2764391244391 L 286 849.2706184825776 L 286 849.2706184825776 L 287 849.2646719441777 L 287 849.2646719441777 L 288 849.258596788095 L 288 849.258596788095 L 289 849.2523902344535 L 289 849.2523902344535 L 290 849.2460494433818 L 290 849.2460494433818 L 291 849.2395715137219 L 291 849.2395715137219 L 292 849.2329534817106 L 292 849.2329534817106 L 293 849.2261923196331 L 293 849.2261923196331 L 294 849.2192849344468 L 294 849.2192849344468 L 295 849.2122281663765 L 295 849.2122281663765 L 296 849.2050187874794 L 296 849.2050187874794 L 297 849.1976535001796 L 297 849.1976535001796 L 298 849.1901289357709 L 298 849.1901289357709 L 299 849.1824416528877 L 299 849.1824416528877 L 300 849.1745881359441 L 300 849.1745881359441 L 301 849.166564793538 L 301 849.166564793538 L 302 849.1583679568234 L 302 849.1583679568234 L 303 849.1499938778456 L 303 849.1499938778456 L 304 849.1414387278433 L 304 849.1414387278433 L 305 849.1326985955118 L 305 849.1326985955118 L 306 849.1237694852326 L 306 849.1237694852326 L 307 849.114647315262 L 307 849.114647315262 L 308 849.1053279158831 L 308 849.1053279158831 L 309 849.0958070275182 L 309 849.0958070275182 L 310 849.0860802988002 L 310 849.0860802988002 L 311 849.0761432846043 L 311 849.0761432846043 L 312 849.0659914440371 L 312 849.0659914440371 L 313 849.0556201383824 L 313 849.0556201383824 L 314 849.045024629005 L 314 849.045024629005 L 315 849.0342000752084 L 315 849.0342000752084 L 316 849.0231415320482 L 316 849.0231415320482 L 317 849.0118439480981 L 317 849.0118439480981 L 318 849.0003021631695 L 318 849.0003021631695 L 319 848.9885109059827 L 319 848.9885109059827 L 320 848.9764647917875 L 320 848.9764647917875 L 321 848.9641583199353 L 321 848.9641583199353 L 322 848.9515858713986 L 322 848.9515858713986 L 323 848.9387417062383 L 323 848.9387417062383 L 324 848.9256199610176 L 324 848.9256199610176 L 325 848.9122146461614 L 325 848.9122146461614 L 326 848.8985196432598 L 326 848.8985196432598 L 327 848.8845287023144 L 327 848.8845287023144 L 328 848.8702354389268 L 328 848.8702354389268 L 329 848.8556333314283 L 329 848.8556333314283 L 330 848.8407157179485 L 330 848.8407157179485 L 331 848.825475793422 L 331 848.825475793422 L 332 848.8099066065331 L 332 848.8099066065331 L 333 848.7940010565953 L 333 848.7940010565953 L 334 848.7777518903658 L 334 848.7777518903658 L 335 848.7611516987928 L 335 848.7611516987928 L 336 848.7441929136947 L 336 848.7441929136947 L 337 848.7268678043699 L 337 848.7268678043699 L 338 848.7091684741348 L 338 848.7091684741348 L 339 848.6910868567903 L 339 848.6910868567903 L 340 848.6726147130136 L 340 848.6726147130136 L 341 848.653743626675 L 341 848.653743626675 L 342 848.6344650010775 L 342 848.6344650010775 L 343 848.6147700551181 L 343 848.6147700551181 L 344 848.594649819369 L 344 848.594649819369 L 345 848.5740951320769 L 345 848.5740951320769 L 346 848.5530966350791 L 346 848.5530966350791 L 347 848.5316447696352 L 347 848.5316447696352 L 348 848.5097297721713 L 348 848.5097297721713 L 349 848.4873416699361 L 349 848.4873416699361 L 350 848.4644702765671 L 350 848.4644702765671 L 351 848.4411051875651 L 351 848.4411051875651 L 352 848.417235775674 L 352 848.417235775674 L 353 848.3928511861667 L 353 848.3928511861667 L 354 848.3679403320313 L 354 848.3679403320313 L 355 848.34249188906 L 355 848.34249188906 L 356 848.3164942908363 L 356 848.3164942908363 L 357 848.2899357236175 L 357 848.2899357236175 L 358 848.2628041211137 L 358 848.2628041211137 L 359 848.2350871591589 L 359 848.2350871591589 L 360 848.2067722502721 L 360 848.2067722502721 L 361 848.177846538108 L 361 848.177846538108 L 362 848.1482968917927 L 362 848.1482968917927 L 363 848.118109900145 L 363 848.118109900145 L 364 848.0872718657788 L 364 848.0872718657788 L 365 848.0557687990852 L 365 848.0557687990852 L 366 848.0235864120924 L 366 848.0235864120924 L 367 847.9907101122008 L 367 847.9907101122008 L 368 847.9571249957901 L 368 847.9571249957901 L 369 847.9228158416972 L 369 847.9228158416972 L 370 847.8877671045628 L 370 847.8877671045628 L 371 847.851962908042 L 371 847.851962908042 L 372 847.8153870378785 L 372 847.8153870378785 L 373 847.7780229348398 L 373 847.7780229348398 L 374 847.7398536875093 L 374 847.7398536875093 L 375 847.7008620249342 L 375 847.7008620249342 L 376 847.6610303091256 L 376 847.6610303091256 L 377 847.6203405274088 L 377 847.6203405274088 L 378 847.5787742846205 L 378 847.5787742846205 L 379 847.5363127951506 L 379 847.5363127951506 L 380 847.4929368748254 L 380 847.4929368748254 L 381 847.4486269326296 L 381 847.4486269326296 L 382 847.4033629622646 L 382 847.4033629622646 L 383 847.3571245335388 L 383 847.3571245335388 L 384 847.309890783589 L 384 847.309890783589 L 385 847.2616404079284 L 385 847.2616404079284 L 386 847.2123516513186 L 386 847.2123516513186 L 387 847.1620022984627 L 387 847.1620022984627 L 388 847.110569664516 L 388 847.110569664516 L 389 847.0580305854127 L 389 847.0580305854127 L 390 847.0043614080022 L 390 847.0043614080022 L 391 846.9495379799962 L 391 846.9495379799962 L 392 846.8935356397192 L 392 846.8935356397192 L 393 846.8363292056624 L 393 846.8363292056624 L 394 846.7778929658353 L 394 846.7778929658353 L 395 846.718200666914 L 395 846.718200666914 L 396 846.6572255031799 L 396 846.6572255031799 L 397 846.5949401052496 L 397 846.5949401052496 L 398 846.531316528588 L 398 846.531316528588 L 399 846.4663262418051 L 399 846.4663262418051 L 400 846.3999401147299 L 400 846.3999401147299 L 401 846.3321284062616 L 401 846.3321284062616 L 402 846.2628607519905 L 402 846.2628607519905 L 403 846.1921061515882 L 403 846.1921061515882 L 404 846.1198329559628 L 404 846.1198329559628 L 405 846.0460088541748 L 405 846.0460088541748 L 406 845.9706008601116 L 406 845.9706008601116 L 407 845.8935752989155 L 407 845.8935752989155 L 408 845.814897793163 L 408 845.814897793163 L 409 845.7345332487916 L 409 845.7345332487916 L 410 845.6524458407698 L 410 845.6524458407698 L 411 845.5685989985078 L 411 845.5685989985078 L 412 845.4829553910054 L 412 845.4829553910054 L 413 845.3954769117319 L 413 845.3954769117319 L 414 845.3061246632374 L 414 845.3061246632374 L 415 845.2148589414898 L 415 845.2148589414898 L 416 845.1216392199344 L 416 845.1216392199344 L 417 845.0264241332738 L 417 845.0264241332738 L 418 844.9291714609637 L 418 844.9291714609637 L 419 844.8298381104216 L 419 844.8298381104216 L 420 844.7283800999452 L 420 844.7283800999452 L 421 844.624752541337 L 421 844.624752541337 L 422 844.5189096222326 L 422 844.5189096222326 L 423 844.4108045881287 L 423 844.4108045881287 L 424 844.3003897241081 L 424 844.3003897241081 L 425 844.1876163362589 L 425 844.1876163362589 L 426 844.0724347327853 L 426 844.0724347327854 L 427 843.954794204806 L 427 843.954794204806 L 428 843.834643006839 L 428 843.834643006839 L 429 843.7119283369685 L 429 843.7119283369685 L 430 843.586596316694 L 430 843.586596316694 L 431 843.4585919704558 L 431 843.4585919704558 L 432 843.3278592048374 L 432 843.3278592048374 L 433 843.1943407874417 L 433 843.1943407874417 L 434 843.0579783254387 L 434 843.0579783254387 L 435 842.9187122437838 L 435 842.9187122437838 L 436 842.7764817631042 L 436 842.7764817631042 L 437 842.6312248772522 L 437 842.6312248772522 L 438 842.4828783305248 L 438 842.4828783305248 L 439 842.3313775945475 L 439 842.3313775945475 L 440 842.176656844822 L 440 842.176656844822 L 441 842.0186489369382 L 441 842.0186489369382 L 442 841.8572853824477 L 442 841.8572853824477 L 443 841.6924963244011 L 443 841.6924963244011 L 444 841.5242105125487 L 444 841.5242105125487 L 445 841.352355278204 L 445 841.352355278204 L 446 841.1768565087723 L 446 841.1768565087723 L 447 840.9976386219444 L 447 840.9976386219444 L 448 840.8146245395579 L 448 840.8146245395579 L 449 840.6277356611272 L 449 840.6277356611272 L 450 840.436891837044 L 450 840.436891837044 L 451 840.2420113414527 L 451 840.2420113414527 L 452 840.043010844802 L 452 840.043010844802 L 453 839.8398053860773 L 453 839.8398053860773 L 454 839.6323083447168 L 454 839.6323083447168 L 455 839.4204314122168 L 455 839.4204314122168 L 456 839.2040845634317 L 456 839.2040845634317 L 457 838.9831760275716 L 457 838.9831760275716 L 458 838.7576122589074 L 458 838.7576122589074 L 459 838.5272979071864 L 459 838.5272979071864 L 460 838.2921357877683 L 460 838.2921357877683 L 461 838.0520268514891 L 461 838.0520268514891 L 462 837.8068701542604 L 462 837.8068701542604 L 463 837.5565628264145 L 463 837.5565628264145 L 464 837.3010000418055 L 464 837.3010000418057 L 465 837.0400749866769 L 465 837.0400749866769 L 466 836.7736788283071 L 466 836.7736788283071 L 467 836.5017006834461 L 467 836.5017006834461 L 468 836.224027586557 L 468 836.224027586557 L 469 835.9405444578751 L 469 835.9405444578751 L 470 835.6511340713021 L 470 835.6511340713021 L 471 835.3556770221489 L 471 835.3556770221489 L 472 835.0540516947488 L 472 835.0540516947488 L 473 834.746134229953 L 473 834.7461342299531 L 474 834.4317984925358 L 474 834.4317984925358 L 475 834.1109160385221 L 475 834.1109160385221 L 476 833.7833560824657 L 476 833.7833560824657 L 477 833.4489854646981 L 477 833.4489854646981 L 478 833.1076686185725 L 478 833.1076686185725 L 479 832.7592675377296 L 479 832.7592675377296 L 480 832.4036417434123 L 480 832.4036417434123 L 481 832.0406482518576 L 481 832.0406482518576 L 482 831.670141541795 L 482 831.670141541795 L 483 831.291973522085 L 483 831.291973522085 L 484 830.9059934995288 L 484 830.9059934995288 L 485 830.5120481468858 L 485 830.5120481468858 L 486 830.1099814711342 L 486 830.1099814711342 L 487 829.6996347820133 L 487 829.6996347820133 L 488 829.2808466608883 L 488 829.2808466608883 L 489 828.8534529299786 L 489 828.8534529299786 L 490 828.4172866219947 L 490 828.4172866219947 L 491 827.9721779502272 L 491 827.9721779502272 L 492 827.5179542791391 L 492 827.5179542791391 L 493 827.0544400955085 L 493 827.0544400955085 L 494 826.5814569801756 L 494 826.5814569801757 L 495 826.0988235804468 L 495 826.0988235804468 L 496 825.6063555832137 L 496 825.6063555832137 L 497 825.1038656888456 L 497 825.1038656888456 L 498 824.5911635859161 L 498 824.5911635859161 L 499 824.0680559268277 L 499 824.0680559268277 L 500 823.5343463044013 L 500 823.5343463044013 L 501 822.9898352294978 L 501 822.9898352294978 L 502 822.4343201097438 L 502 822.4343201097438 L 503 821.8675952294358 L 503 821.8675952294358 L 504 821.289451730698 L 504 821.289451730698 L 505 820.6996775959742 L 505 820.6996775959742 L 506 820.0980576319347 L 506 820.0980576319347 L 507 819.484373454884 L 507 819.484373454884 L 508 818.8584034777566 L 508 818.8584034777566 L 509 818.2199228987906 L 509 818.2199228987906 L 510 817.5687036919738 L 510 817.5687036919738 L 511 816.9045145993582 L 511 816.9045145993582 L 512 816.2271211253418 L 512 816.2271211253418 L 513 815.5362855330202 L 513 815.5362855330202 L 514 814.8317668427145 L 514 814.8317668427145 L 515 814.113320832782 L 515 814.113320832782 L 516 813.3807000428227 L 516 813.3807000428227 L 517 812.6336537793943 L 517 812.6336537793943 L 518 811.8719281243556 L 518 811.8719281243556 L 519 811.095265945956 L 519 811.095265945956 L 520 810.3034069127968 L 520 810.3034069127968 L 521 809.4960875107886 L 521 809.4960875107887 L 522 808.6730410632357 L 522 808.6730410632357 L 523 807.8339977541787 L 523 807.8339977541787 L 524 806.9786846551305 L 524 806.9786846551305 L 525 806.1068257553435 L 525 806.1068257553435 L 526 805.2181419957473 L 526 805.2181419957473 L 527 804.3123513067009 L 527 804.3123513067009 L 528 803.389168649704 L 528 803.3891686497041 L 529 802.4483060632155 L 529 802.4483060632155 L 530 801.4894727127277 L 530 801.4894727127277 L 531 800.5123749452497 L 531 800.5123749452497 L 532 799.5167163483528 L 532 799.5167163483528 L 533 798.5021978139334 L 533 798.5021978139334 L 534 797.4685176068496 L 534 797.4685176068497 L 535 796.415371438592 L 535 796.415371438592 L 536 795.3424525461454 L 536 795.3424525461454 L 537 794.2494517762025 L 537 794.2494517762025 L 538 793.1360576748913 L 538 793.1360576748913 L 539 792.0019565831758 L 539 792.0019565831758 L 540 790.8468327380912 L 540 790.8468327380912 L 541 789.6703683799743 L 541 789.6703683799744 L 542 788.4722438658501 L 542 788.4722438658501 L 543 787.2521377891302 L 543 787.2521377891302 L 544 786.0097271057841 L 544 786.0097271057841 L 545 784.7446872671362 L 545 784.7446872671362 L 546 783.4566923594417 L 546 783.4566923594417 L 547 782.145415250393 L 547 782.1454152503931 L 548 780.8105277427017 L 548 780.8105277427017 L 549 779.4517007349 L 549 779.4517007349 L 550 778.0686043895012 L 550 778.0686043895012 L 551 776.66090830865 L 551 776.66090830865 L 552 775.2282817173947 L 552 775.2282817173948 L 553 773.7703936546992 L 553 773.7703936546992 L 554 772.2869131723138 L 554 772.2869131723139 L 555 770.7775095416097 L 555 770.7775095416098 L 556 769.2418524684778 L 556 769.2418524684778 L 557 767.6796123163828 L 557 767.6796123163828 L 558 766.0904603376532 L 558 766.0904603376532 L 559 764.4740689130784 L 559 764.4740689130784 L 560 762.8301117998711 L 560 762.8301117998711 L 561 761.1582643880446 L 561 761.1582643880446 L 562 759.4582039652382 L 562 759.4582039652382 L 563 757.7296099900133 L 563 757.7296099900134 L 564 755.9721643736252 L 564 755.9721643736252 L 565 754.1855517702644 L 565 754.1855517702644 L 566 752.36945987574 L 566 752.36945987574 L 567 750.5235797345664 L 567 750.5235797345664 L 568 748.6476060553912 L 568 748.6476060553912 L 569 746.7412375346871 L 569 746.7412375346871 L 570 744.8041771886093 L 570 744.8041771886093 L 571 742.8361326928988 L 571 742.8361326928989 L 572 740.8368167306936 L 572 740.8368167306936 L 573 738.8059473480821 L 573 738.8059473480821 L 574 736.7432483172157 L 574 736.7432483172157 L 575 734.6484495067691 L 575 734.6484495067691 L 576 732.5212872595152 L 576 732.5212872595154 L 577 730.3615047767532 L 577 730.3615047767532 L 578 728.1688525093041 L 578 728.1688525093041 L 579 725.9430885547614 L 579 725.9430885547614 L 580 723.683979060654 L 580 723.683979060654 L 581 721.3912986331537 L 581 721.3912986331537 L 582 719.064830750929 L 582 719.064830750929 L 583 716.7043681837173 L 583 716.7043681837174 L 584 714.3097134151603 L 584 714.3097134151603 L 585 711.8806790694141 L 585 711.8806790694141 L 586 709.4170883410173 L 586 709.4170883410175 L 587 706.9187754274722 L 587 706.9187754274722 L 588 704.3855859639555 L 588 704.3855859639555 L 589 701.8173774595576 L 589 701.8173774595576 L 590 699.2140197344052 L 590 699.2140197344053 L 591 696.5753953570025 L 591 696.5753953570025 L 592 693.901400081091 L 592 693.9014000810911 L 593 691.191943281301 L 593 691.191943281301 L 594 688.4469483868372 L 594 688.4469483868373 L 595 685.6663533124175 L 595 685.6663533124175 L 596 682.8501108856486 L 596 682.8501108856486 L 597 679.9981892700077 L 597 679.9981892700077 L 598 677.1105723825635 L 598 677.1105723825635 L 599 674.1872603055544 L 599 674.1872603055546 L 600 671.2282696909153 L 600 671.2282696909153 L 601 668.2336341568256 L 601 668.2336341568257 L 602 665.2034046753341 L 602 665.2034046753341 L 603 662.1376499500956 L 603 662.1376499500957 L 604 659.0364567832446 L 604 659.0364567832447 L 605 655.8999304304152 L 605 655.8999304304152 L 606 652.7281949429087 L 606 652.7281949429087 L 607 649.5213934960027 L 607 649.5213934960028 L 608 646.279688702391 L 608 646.2796887023911 L 609 643.0032629097399 L 609 643.00326290974 L 610 639.6923184813518 L 610 639.6923184813518 L 611 636.3470780589275 L 611 636.3470780589275 L 612 632.9677848064291 L 612 632.9677848064292 L 613 629.5547026340527 L 613 629.5547026340527 L 614 626.1081164013382 L 614 626.1081164013382 L 615 622.6283320984612 L 615 622.6283320984612 L 616 619.115677004769 L 616 619.115677004769 L 617 615.5704998236533 L 617 615.5704998236533 L 618 611.993170792878 L 618 611.9931707928781 L 619 608.384081769514 L 619 608.3840817695141 L 620 604.7436462886687 L 620 604.7436462886689 L 621 601.0722995952399 L 621 601.07229959524 L 622 597.3704986479627 L 622 597.3704986479627 L 623 593.6387220950735 L 623 593.6387220950735 L 624 589.8774702209586 L 624 589.8774702209587 L 625 586.0872648632142 L 625 586.0872648632143 L 626 582.2686492996008 L 626 582.268649299601 L 627 578.4221881044389 L 627 578.4221881044389 L 628 574.5484669740529 L 628 574.5484669740529 L 629 570.6480925209455 L 629 570.6480925209456 L 630 566.7216920364477 L 630 566.7216920364477 L 631 562.7699132216657 L 631 562.7699132216658 L 632 558.7934238866262 L 632 558.7934238866262 L 633 554.7929116175926 L 633 554.7929116175926 L 634 550.7690834126076 L 634 550.7690834126076 L 635 546.7226652854014 L 635 546.7226652854015 L 636 542.6544018378843 L 636 542.6544018378843 L 637 538.5650558015273 L 637 538.5650558015275 L 638 534.4554075480223 L 638 534.4554075480225 L 639 530.326254569693 L 639 530.3262545696932 L 640 526.1784109302189 L 640 526.1784109302191 L 641 522.012706686316 L 641 522.012706686316 L 642 517.8299872811034 L 642 517.8299872811035 L 643 513.631112909969 L 643 513.6311129099691 L 644 509.4169578598295 L 644 509.41695785982955 L 645 505.1884098227587 L 645 505.18840982275873 L 646 500.9463691850399 L 646 500.9463691850399 L 647 496.6917482927706 L 647 496.6917482927706 L 648 492.4254706952228 L 648 492.4254706952228 L 649 488.1484703672321 L 649 488.14847036723216 L 650 483.8616909119547 L 650 483.8616909119547 L 651 479.5660847453955 L 651 479.5660847453955 L 652 475.26261226416693 L 652 475.26261226416693 L 653 470.95224099799646 L 653 470.95224099799657 L 654 466.6359447485448 L 654 466.63594474854494 L 655 462.3147027161483 L 655 462.31470271614836 L 656 457.9894986161326 L 656 457.98949861613266 L 657 453.6613197863846 L 657 453.6613197863847 L 658 449.33115628789346 L 658 449.3311562878937 L 659 445.0000000000001 L 659 445.0000000000001 L 660 440.6688437121066 L 660 440.6688437121067 L 661 436.33868021361565 L 661 436.33868021361565 L 662 432.01050138386756 L 662 432.01050138386756 L 663 427.6852972838519 L 663 427.6852972838519 L 664 423.36405525145534 L 664 423.36405525145534 L 665 419.04775900200366 L 665 419.0477590020038 L 666 414.73738773583324 L 666 414.73738773583324 L 667 410.43391525460476 L 667 410.43391525460476 L 668 406.1383090880454 L 668 406.13830908804556 L 669 401.85152963276806 L 669 401.8515296327682 L 670 397.57452930477734 L 670 397.5745293047775 L 671 393.3082517072296 L 671 393.30825170722966 L 672 389.0536308149603 L 672 389.05363081496046 L 673 384.81159017724156 L 673 384.81159017724156 L 674 380.5830421401707 L 674 380.58304214017073 L 675 376.36888709003114 L 675 376.36888709003114 L 676 372.1700127188967 L 676 372.17001271889677 L 677 367.9872933136841 L 677 367.9872933136841 L 678 363.8215890697811 L 678 363.8215890697812 L 679 359.6737454303071 L 679 359.6737454303072 L 680 355.5445924519778 L 680 355.5445924519778 L 681 351.43494419847275 L 681 351.43494419847286 L 682 347.3455981621159 L 682 347.345598162116 L 683 343.2773347145987 L 683 343.2773347145988 L 684 339.23091658739264 L 684 339.2309165873927 L 685 335.2070883824075 L 685 335.20708838240773 L 686 331.206576113374 L 686 331.206576113374 L 687 327.23008677833457 L 687 327.23008677833457 L 688 323.2783079635525 L 688 323.2783079635526 L 689 319.3519074790545 L 689 319.3519074790546 L 690 315.45153302594747 L 690 315.45153302594747 L 691 311.57781189556135 L 691 311.57781189556135 L 692 307.7313507003994 L 692 307.7313507003994 L 693 303.91273513678595 L 693 303.91273513678595 L 694 300.12252977904154 L 694 300.12252977904166 L 695 296.36127790492685 L 695 296.36127790492685 L 696 292.62950135203766 L 696 292.62950135203766 L 697 288.92770040476023 L 697 288.92770040476023 L 698 285.25635371133126 L 698 285.25635371133137 L 699 281.6159182304863 L 699 281.6159182304863 L 700 278.0068292071222 L 700 278.0068292071222 L 701 274.4295001763468 L 701 274.4295001763469 L 702 270.8843229952312 L 702 270.8843229952312 L 703 267.371667901539 L 703 267.3716679015391 L 704 263.89188359866193 L 704 263.89188359866205 L 705 260.44529736594757 L 705 260.44529736594757 L 706 257.032215193571 L 706 257.0322151935711 L 707 253.6529219410727 L 707 253.6529219410727 L 708 250.30768151864856 L 708 250.30768151864856 L 709 246.99673709026024 L 709 246.99673709026024 L 710 243.7203112976091 L 710 243.72031129760921 L 711 240.4786065039974 L 711 240.4786065039974 L 712 237.27180505709157 L 712 237.27180505709157 L 713 234.100069569585 L 713 234.10006956958512 L 714 230.9635432167555 L 714 230.96354321675562 L 715 227.86235004990465 L 715 227.86235004990465 L 716 224.7965953246661 L 716 224.7965953246661 L 717 221.76636584317464 L 717 221.76636584317464 L 718 218.77173030908477 L 718 218.771730309085 L 719 215.81273969444567 L 719 215.81273969444567 L 720 212.88942761743658 L 720 212.8894276174367 L 721 210.00181072999248 L 721 210.0018107299926 L 722 207.1498891143516 L 722 207.1498891143516 L 723 204.3336466875827 L 723 204.3336466875828 L 724 201.553051613163 L 724 201.553051613163 L 725 198.8080567186994 L 725 198.8080567186994 L 726 196.09859991890914 L 726 196.09859991890914 L 727 193.42460464299768 L 727 193.42460464299768 L 728 190.78598026559484 L 728 190.78598026559507 L 729 188.1826225404426 L 729 188.1826225404427 L 730 185.61441403604476 L 730 185.61441403604476 L 731 183.08122457252807 L 731 183.08122457252807 L 732 180.58291165898288 L 732 180.58291165898288 L 733 178.11932093058624 L 733 178.11932093058624 L 734 175.6902865848399 L 734 175.6902865848399 L 735 173.29563181628282 L 735 173.29563181628282 L 736 170.93516924907124 L 736 170.93516924907124 L 737 168.6087013668464 L 737 168.6087013668464 L 738 166.31602093934623 L 738 166.31602093934623 L 739 164.0569114452387 L 739 164.05691144523894 L 740 161.83114749069603 L 740 161.83114749069625 L 741 159.6384952232471 L 741 159.6384952232471 L 742 157.47871274048487 L 742 157.47871274048498 L 743 155.35155049323112 L 743 155.35155049323112 L 744 153.2567516827844 L 744 153.2567516827845 L 745 151.19405265191813 L 745 151.19405265191813 L 746 149.16318326930661 L 746 149.16318326930661 L 747 147.16386730710133 L 747 147.16386730710133 L 748 145.19582281139105 L 748 145.19582281139105 L 749 143.2587624653131 L 749 143.2587624653131 L 750 141.35239394460893 L 750 141.35239394460905 L 751 139.47642026543383 L 751 139.47642026543383 L 752 137.63054012426016 L 752 137.63054012426028 L 753 135.81444822973572 L 753 135.81444822973594 L 754 134.027835626375 L 754 134.027835626375 L 755 132.27039000998684 L 755 132.27039000998695 L 756 130.54179603476211 L 756 130.54179603476211 L 757 128.84173561195564 L 757 128.84173561195564 L 758 127.1698882001291 L 758 127.1698882001291 L 759 125.52593108692179 L 759 125.52593108692179 L 760 123.90953966234702 L 760 123.90953966234702 L 761 122.32038768361758 L 761 122.32038768361758 L 762 120.75814753152247 L 762 120.75814753152247 L 763 119.22249045839044 L 763 119.22249045839055 L 764 117.71308682768642 L 764 117.71308682768642 L 765 116.22960634530102 L 765 116.22960634530102 L 766 114.77171828260555 L 766 114.77171828260555 L 767 113.33909169135006 L 767 113.33909169135006 L 768 111.93139561049907 L 768 111.93139561049907 L 769 110.54829926510024 L 769 110.54829926510024 L 770 109.18947225729858 L 770 109.18947225729858 L 771 107.85458474960717 L 771 107.85458474960717 L 772 106.54330764055851 L 772 106.54330764055851 L 773 105.25531273286401 L 773 105.25531273286401 L 774 103.9902728942161 L 774 103.9902728942161 L 775 102.74786221087004 L 775 102.74786221087004 L 776 101.52775613414997 L 776 101.5277561341502 L 777 100.3296316200258 L 777 100.3296316200259 L 778 99.15316726190918 L 778 99.15316726190918 L 779 97.99804341682443 L 779 97.99804341682443 L 780 96.86394232510895 L 780 96.86394232510895 L 781 95.75054822379775 L 781 95.75054822379775 L 782 94.65754745385482 L 782 94.65754745385482 L 783 93.58462856140818 L 783 93.58462856140818 L 784 92.53148239315055 L 784 92.53148239315055 L 785 91.4978021860669 L 785 91.4978021860669 L 786 90.48328365164741 L 786 90.48328365164741 L 787 89.48762505475042 L 787 89.48762505475065 L 788 88.51052728727257 L 788 88.51052728727257 L 789 87.55169393678466 L 789 87.55169393678466 L 790 86.61083135029628 L 790 86.61083135029628 L 791 85.68764869329948 L 791 85.68764869329948 L 792 84.78185800425285 L 792 84.78185800425285 L 793 83.89317424465673 L 793 83.89317424465673 L 794 83.02131534486966 L 794 83.02131534486989 L 795 82.16600224582169 L 795 82.16600224582169 L 796 81.32695893676453 L 796 81.32695893676453 L 797 80.50391248921142 L 797 80.50391248921164 L 798 79.69659308720338 L 798 79.69659308720338 L 799 78.90473405404418 L 799 78.90473405404418 L 800 78.12807187564476 L 800 78.12807187564476 L 801 77.36634622060592 L 801 77.36634622060592 L 802 76.61929995717753 L 802 76.61929995717753 L 803 75.88667916721818 L 803 75.88667916721818 L 804 75.16823315728573 L 804 75.16823315728573 L 805 74.46371446697992 L 805 74.46371446698015 L 806 73.77287887465843 L 806 73.77287887465843 L 807 73.0954854006419 L 807 73.0954854006419 L 808 72.43129630802639 L 808 72.43129630802639 L 809 71.7800771012096 L 809 71.7800771012096 L 810 71.14159652224362 L 810 71.14159652224362 L 811 70.51562654511622 L 811 70.51562654511622 L 812 69.90194236806553 L 812 69.90194236806553 L 813 69.30032240402602 L 813 69.30032240402602 L 814 68.7105482693022 L 814 68.7105482693022 L 815 68.13240477056445 L 815 68.13240477056445 L 816 67.56567989025643 L 816 67.56567989025643 L 817 67.01016477050246 L 817 67.01016477050246 L 818 66.46565369559903 L 818 66.46565369559903 L 819 65.93194407317253 L 819 65.93194407317253 L 820 65.40883641408425 L 820 65.40883641408425 L 821 64.89613431115458 L 821 64.89613431115458 L 822 64.3936444167864 L 822 64.3936444167864 L 823 63.901176419553394 L 823 63.901176419553394 L 824 63.41854301982448 L 824 63.41854301982448 L 825 62.94555990449169 L 825 62.94555990449169 L 826 62.48204572086115 L 826 62.48204572086115 L 827 62.027822049773135 L 827 62.027822049773135 L 828 61.58271337800545 L 828 61.58271337800545 L 829 61.146547070021484 L 829 61.146547070021484 L 830 60.71915333911204 L 830 60.71915333911204 L 831 60.30036521798695 L 831 60.30036521798695 L 832 59.89001852886588 L 832 59.89001852886588 L 833 59.487951853114396 L 833 59.487951853114396 L 834 59.09400650047144 L 834 59.09400650047144 L 835 58.70802647791527 L 835 58.70802647791527 L 836 58.32985845820531 L 836 58.32985845820531 L 837 57.95935174814258 L 837 57.95935174814258 L 838 57.596358256587905 L 838 57.596358256587905 L 839 57.24073246227056 L 839 57.24073246227056 L 840 56.892331381427766 L 840 56.892331381427766 L 841 56.5510145353021 L 841 56.5510145353021 L 842 56.2166439175345 L 842 56.2166439175345 L 843 55.88908396147826 L 843 55.88908396147826 L 844 55.56820150746432 L 844 55.56820150746455 L 845 55.25386577004713 L 845 55.25386577004713 L 846 54.94594830525148 L 846 54.94594830525148 L 847 54.6443229778514 L 847 54.6443229778514 L 848 54.34886592869816 L 848 54.34886592869816 L 849 54.05945554212508 L 849 54.05945554212508 L 850 53.775972413443355 L 850 53.775972413443355 L 851 53.49829931655404 L 851 53.49829931655404 L 852 53.22632117169326 L 852 53.22632117169326 L 853 52.9599250133233 L 853 52.9599250133233 L 854 52.69899995819469 L 854 52.69899995819469 L 855 52.443437173585835 L 855 52.443437173585835 L 856 52.193129845739804 L 856 52.193129845739804 L 857 51.947973148511096 L 857 51.947973148511096 L 858 51.70786421223204 L 858 51.70786421223204 L 859 51.47270209281385 L 859 51.47270209281385 L 860 51.2423877410929 L 860 51.2423877410929 L 861 51.01682397242848 L 861 51.01682397242848 L 862 50.795915436568635 L 862 50.795915436568635 L 863 50.57956858778334 L 863 50.57956858778334 L 864 50.36769165528358 L 864 50.36769165528358 L 865 50.160194613922954 L 865 50.160194613922954 L 866 49.956989155198244 L 866 49.956989155198244 L 867 49.75798865854756 L 867 49.75798865854756 L 868 49.563108162956155 L 868 49.563108162956155 L 869 49.372264338872924 L 869 49.372264338872924 L 870 49.18537546044229 L 870 49.18537546044229 L 871 49.00236137805575 L 871 49.00236137805575 L 872 48.82314349122805 L 872 48.82314349122805 L 873 48.64764472179627 L 873 48.64764472179627 L 874 48.47578948745161 L 874 48.47578948745161 L 875 48.307503675599264 L 875 48.307503675599264 L 876 48.14271461755254 L 876 48.14271461755254 L 877 47.98135106306199 L 877 47.98135106306199 L 878 47.823343155178236 L 878 47.823343155178236 L 879 47.668622405452766 L 879 47.668622405452766 L 880 47.51712166947539 L 880 47.51712166947539 L 881 47.36877512274805 L 881 47.36877512274805 L 882 47.223518236895984 L 882 47.223518236895984 L 883 47.08128775621651 L 883 47.08128775621651 L 884 46.9420216745616 L 884 46.9420216745616 L 885 46.80565921255857 L 885 46.80565921255857 L 886 46.67214079516282 L 886 46.67214079516282 L 887 46.541408029544414 L 887 46.541408029544414 L 888 46.41340368330623 L 888 46.41340368330623 L 889 46.2880716630317 L 889 46.2880716630317 L 890 46.165356993161254 L 890 46.165356993161254 L 891 46.04520579519419 L 891 46.04520579519419 L 892 45.92756526721496 L 892 45.92756526721496 L 893 45.81238366374134 L 893 45.81238366374134 L 894 45.69961027589227 L 894 45.69961027589227 L 895 45.589195411871515 L 895 45.589195411871515 L 896 45.48109037776749 L 896 45.48109037776749 L 897 45.37524745866324 L 897 45.37524745866324 L 898 45.27161990005504 L 898 45.27161990005504 L 899 45.17016188957848 L 899 45.17016188957848 L 900 45.070828539036484 L 900 45.070828539036484 L 901 44.97357586672638 L 901 44.97357586672638 L 902 44.87836078006569 L 902 44.87836078006569 L 903 44.78514105851036 L 903 44.78514105851036 L 904 44.69387533676286 L 904 44.69387533676286 L 905 44.60452308826848 L 905 44.60452308826848 L 906 44.51704460899475 L 906 44.51704460899475 L 907 44.43140100149242 L 907 44.43140100149242 L 908 44.347554159230526 L 908 44.347554159230526 L 909 44.26546675120858 L 909 44.26546675120858 L 910 44.18510220683709 L 910 44.18510220683709 L 911 44.10642470108485 L 911 44.10642470108485 L 912 44.02939913988848 L 912 44.02939913988848 L 913 43.9539911458254 L 913 43.9539911458254 L 914 43.88016704403742 L 914 43.88016704403742 L 915 43.80789384841205 L 915 43.80789384841205 L 916 43.73713924800961 L 916 43.73713924800961 L 917 43.667871593738596 L 917 43.667871593738596 L 918 43.60005988527041 L 918 43.60005988527041 L 919 43.533673758195164 L 919 43.533673758195164 L 920 43.468683471412305 L 920 43.468683471412305 L 921 43.40505989475059 L 921 43.40505989475059 L 922 43.34277449682031 L 922 43.34277449682031 L 923 43.28179933308627 L 923 43.28179933308627 L 924 43.22210703416488 L 924 43.22210703416488 L 925 43.163670794337804 L 925 43.16367079433792 L 926 43.10646436028094 L 926 43.10646436028094 L 927 43.05046202000415 L 927 43.05046202000415 L 928 42.99563859199816 L 928 42.99563859199816 L 929 42.94196941458756 L 929 42.94196941458756 L 930 42.889430335484235 L 930 42.889430335484235 L 931 42.837997701537574 L 931 42.837997701537574 L 932 42.787648348681614 L 932 42.787648348681614 L 933 42.73835959207179 L 933 42.73835959207179 L 934 42.6901092164112 L 934 42.6901092164112 L 935 42.64287546646142 L 935 42.64287546646142 L 936 42.59663703773549 L 936 42.59663703773549 L 937 42.55137306737049 L 937 42.55137306737049 L 938 42.50706312517468 L 938 42.50706312517468 L 939 42.46368720484952 L 939 42.46368720484952 L 940 42.42122571537982 L 940 42.42122571537982 L 941 42.37965947259147 L 941 42.37965947259147 L 942 42.338969690874706 L 942 42.338969690874706 L 943 42.29913797506606 L 943 42.29913797506606 L 944 42.260146312490974 L 944 42.260146312490974 L 945 42.221977065160445 L 945 42.221977065160445 L 946 42.18461296212172 L 946 42.18461296212172 L 947 42.14803709195826 L 947 42.14803709195826 L 948 42.11223289543739 L 948 42.11223289543739 L 949 42.077184158303 L 949 42.077184158303 L 950 42.04287500421026 L 950 42.04287500421026 L 951 42.009289887799355 L 951 42.009289887799355 L 952 41.97641358790793 L 952 41.97641358790793 L 953 41.94423120091494 L 953 41.94423120091494 L 954 41.912728134221425 L 954 41.912728134221425 L 955 41.88189009985524 L 955 41.88189009985524 L 956 41.85170310820763 L 956 41.85170310820763 L 957 41.8221534618923 L 957 41.8221534618923 L 958 41.79322774972809 L 958 41.79322774972809 L 959 41.76491284084125 L 959 41.76491284084125 L 960 41.737195878886496 L 960 41.737195878886496 L 961 41.71006427638281 L 961 41.71006427638281 L 962 41.683505709164024 L 962 41.683505709164024 L 963 41.65750811094017 L 963 41.65750811094017 L 964 41.632059667968974 L 964 41.632059667968974 L 965 41.60714881383353 L 965 41.60714881383353 L 966 41.58276422432607 L 966 41.58276422432607 L 967 41.558894812435256 L 967 41.558894812435256 L 968 41.53552972343323 L 968 41.53552972343323 L 969 41.512658330064255 L 969 41.512658330064255 L 970 41.490270227829 L 970 41.490270227829 L 971 41.46835523036498 L 971 41.46835523036498 L 972 41.44690336492113 L 972 41.44690336492113 L 973 41.42590486792335 L 973 41.42590486792335 L 974 41.40535018063122 L 974 41.40535018063122 L 975 41.3852299448821 L 975 41.3852299448821 L 976 41.36553499892284 L 976 41.36553499892284 L 977 41.34625637332533 L 977 41.34625637332533 L 978 41.32738528698667 L 978 41.32738528698667 L 979 41.30891314320991 L 979 41.30891314320991 L 980 41.29083152586543 L 980 41.29083152586543 L 981 41.27313219563018 L 981 41.27313219563018 L 982 41.255807086305595 L 982 41.255807086305595 L 983 41.23884830120744 L 983 41.23884830120744 L 984 41.22224810963439 L 984 41.22224810963439 L 985 41.20599894340489 L 985 41.20599894340489 L 986 41.19009339346712 L 986 41.19009339346712 L 987 41.17452420657821 L 987 41.17452420657821 L 988 41.15928428205166 L 988 41.15928428205166 L 989 41.14436666857205 L 989 41.14436666857205 L 990 41.12976456107344 L 990 41.12976456107344 L 991 41.115471297685986 L 991 41.115471297685986 L 992 41.10148035674047 L 992 41.10148035674047 L 993 41.08778535383885 L 993 41.08778535383885 L 994 41.07438003898267 L 994 41.07438003898267 L 995 41.06125829376208 L 995 41.06125829376208 L 996 41.04841412860162 L 996 41.04841412860162 L 997 41.03584168006489 L 997 41.03584168006489 L 998 41.02353520821271 L 998 41.02353520821271 L 999 41.01148909401752 L 999 41.01148909401752 L 1000 40.99969783683059 L 1000 40.99969783683059 L 1001 40.98815605190225 L 1001 40.98815605190225 L 1002 40.97685846795207 L 1002 40.97685846795207 L 1003 40.965799924791895 L 1003 40.965799924791895 L 1004 40.95497537099516 L 1004 40.95497537099516 L 1005 40.944379861617904 L 1005 40.944379861617904 L 1006 40.934008555963146 L 1006 40.934008555963146 L 1007 40.923856715395914 L 1007 40.923856715395914 L 1008 40.91391970120014 L 1008 40.91391970120014 L 1009 40.90419297248218 L 1009 40.90419297248218 L 1010 40.89467208411713 L 1010 40.89467208411713 L 1011 40.88535268473811 L 1011 40.88535268473811 L 1012 40.8762305147676 L 1012 40.8762305147676 L 1013 40.867301404488444 L 1013 40.867301404488444 L 1014 40.858561272156976 L 1014 40.858561272156976 L 1015 40.85000612215458 L 1015 40.85000612215458 L 1016 40.8416320431769 L 1016 40.8416320431769 L 1017 40.83343520646224 L 1017 40.83343520646224 L 1018 40.82541186405615 L 1018 40.82541186405615 L 1019 40.817558347112595 L 1019 40.817558347112595 L 1020 40.80987106422947 L 1020 40.80987106422947 L 1021 40.802346499820715 L 1021 40.802346499820715 L 1022 40.79498121252084 L 1022 40.79498121252084 L 1023 40.787771833623765 L 1023 40.787771833623765 L 1024 40.78071506555352 L 1024 40.78071506555352 L 1025 40.7738076803671 L 1025 40.7738076803671 L 1026 40.7670465182897 L 1026 40.7670465182897 L 1027 40.76042848627844 L 1027 40.76042848627844 L 1028 40.753950556618406 L 1028 40.753950556618406 L 1029 40.74760976554671 L 1029 40.74760976554671 L 1030 40.74140321190521 L 1030 40.74140321190521 L 1031 40.73532805582249 L 1031 40.73532805582249 L 1032 40.72938151742255 L 1032 40.72938151742255 L 1033 40.723560875561134 L 1033 40.723560875561134 L 1034 40.71786346658757 L 1034 40.71786346658757 L 1035 40.71228668313415 L 1035 40.71228668313415 L 1036 40.70682797292932 L 1036 40.70682797292932 L 1037 40.701484837636485 L 1037 40.701484837636485 L 1038 40.69625483171728 L 1038 40.69625483171728 L 1039 40.69113556131845 L 1039 40.69113556131845 L 1040 40.686124683181674 L 1040 40.686124683181674 L 1041 40.681219903577585 L 1041 40.681219903577585 L 1042 40.676418977260255 L 1042 40.676418977260255 L 1043 40.67171970644563 L 1043 40.67171970644563 L 1044 40.66711993980971 L 1044 40.66711993980971 L 1045 40.66261757150858 L 1045 40.66261757150858 L 1046 40.65821054021967 L 1046 40.65821054021967 L 1047 40.653896828201255 L 1047 40.653896828201255 L 1048 40.64967446037406 L 1048 40.64967446037406 L 1049 40.64554150341996 L 1049 40.64554150341996 L 1050 40.64149606490196 L 1050 40.64149606490196 L 1051 40.63753629239966 L 1051 40.63753629239966 L 1052 40.63366037266633 L 1052 40.63366037266633 L 1053 40.62986653080054 L 1053 40.62986653080054 L 1054 40.62615302943789 L 1054 40.62615302943789 L 1055 40.62251816795765 L 1055 40.62251816795765 L 1056 40.61896028170759 L 1056 40.61896028170759 L 1057 40.61547774124392 L 1057 40.61547774124392 L 1058 40.612068951588526 L 1058 40.612068951588526 L 1059 40.60873235149995 L 1059 40.60873235149995 L 1060 40.605466412762325 L 1060 40.605466412762325 L 1061 40.602269639487076 L 1061 40.602269639487076 L 1062 40.599140567429686 L 1062 40.599140567429686 L 1063 40.59607776332257 L 1063 40.59607776332257 L 1064 40.59307982421865 L 1064 40.59307982421865 L 1065 40.59014537685346 L 1065 40.59014537685346 L 1066 40.5872730770152 L 1066 40.5872730770152 L 1067 40.584461608933225 L 1067 40.584461608933225 L 1068 40.58170968467584 L 1068 40.58170968467584 L 1069 40.57901604356198 L 1069 40.57901604356198 L 1070 40.57637945158592 L 1070 40.57637945158592 L 1071 40.57379870085356 L 1071 40.57379870085356 L 1072 40.57127260902996 L 1072 40.57127260902996 L 1073 40.56880001879949 L 1073 40.56880001879949 L 1074 40.566379797336936 L 1074 40.566379797336936 L 1075 40.564010835790214 L 1075 40.564010835790214 L 1076 40.56169204877301 L 1076 40.56169204877301 L 1077 40.55942237386864 L 1077 40.55942237386864 L 1078 40.55720077114563 L 1078 40.55720077114563 L 1079 40.55502622268068 L 1079 40.55502622268068 L 1080 40.55289773209461 L 1080 40.55289773209461 L 1081 40.550814324096336 L 1081 40.550814324096336 L 1082 40.54877504403737 L 1082 40.54877504403737 L 1083 40.546778957473975 L 1083 40.546778957473975 L 1084 40.54482514974234 L 1084 40.54482514974234 L 1085 40.54291272553792 L 1085 40.54291272553792 L 1086 40.541040808507205 L 1086 40.541040808507205 L 1087 40.53920854084697 L 1087 40.53920854084697 L 1088 40.53741508291159 L 1088 40.53741508291159 L 1089 40.535659612829136 L 1089 40.535659612829136 L 1090 40.53394132612527 L 1090 40.53394132612527 L 1091 40.532259435355854 L 1091 40.532259435355854 L 1092 40.53061316974595 L 1092 40.53061316974595 L 1093 40.52900177483741 L 1093 40.52900177483741 L 1094 40.52742451214442 L 1094 40.52742451214442 L 1095 40.52588065881446 L 1095 40.52588065881446 L 1096 40.524369507298616 L 1096 40.524369507298616 L 1097 40.52289036502725 L 1097 40.52289036502725 L 1098 40.52144255409314 L 1098 40.52144255409314 L 1099 40.52002541094157 L 1099 40.52002541094157 L 1100 40.51863828606611 L 1100 40.51863828606611 L 1101 40.51728054371188 L 1101 40.51728054371188 L 1102 40.51595156158464 L 1102 40.51595156158464 L 1103 40.51465073056556 L 1103 40.51465073056556 L 1104 40.51337745443266 L 1104 40.51337745443266 L 1105 40.51213114958773 L 1105 40.51213114958773 L 1106 40.51091124478967 L 1106 40.51091124478967 L 1107 40.50971718089227 L 1107 40.50971718089227 L 1108 40.508548410589015 L 1108 40.508548410589015 L 1109 40.50740439816195 L 1109 40.50740439816195 L 1110 40.506284619236794 L 1110 40.506284619236794 L 1111 40.505188560542706 L 1111 40.505188560542706 L 1112 40.50411571967686 L 1112 40.50411571967686 L 1113 40.503065604875815 L 1113 40.503065604875815 L 1114 40.50203773478836 L 1114 40.50203773478836 L 1115 40.50103163825713 L 1115 40.50103163825713 L 1116 40.50004685410113 L 1116 40.50004685410113 L 1117 40.499082930905956 L 1117 40.499082930905956 L 1118 40.49813942681567 L 1118 40.49813942681567 L 1119 40.49721590933177 L 1119 40.49721590933177 L 1120 40.496311955115175 L 1120 40.496311955115175 L 1121 40.49542714979043 L 1121 40.49542714979043 L 1122 40.49456108775826 L 1122 40.49456108775826 L 1123 40.493713372008756 L 1123 40.493713372008756 L 1124 40.4928836139394 L 1124 40.4928836139394 L 1125 40.492071433177216 L 1125 40.492071433177216 L 1126 40.49127645740475 L 1126 40.49127645740475 L 1127 40.49049832218975 L 1127 40.49049832218975 L 1128 40.48973667081748 L 1128 40.48973667081748 L 1129 40.4889911541278 L 1129 40.4889911541278 L 1130 40.488261430355806 L 1130 40.488261430355806 L 1131 40.48754716497376 L 1131 40.48754716497376 L 1132 40.48684803053959 L 1132 40.48684803053959 L 1133 40.48616370654531 L 1133 40.48616370654531 L 1134 40.485493879271644 L 1134 40.485493879271644 L 1135 40.48483824164316 L 1135 40.48483824164316 L 1136 40.484196493088234 L 1136 40.484196493088234 L 1137 40.48356833940102 L 1137 40.48356833940102 L 1138 40.48295349260695 L 1138 40.48295349260695 L 1139 40.48235167083044 L 1139 40.48235167083044 L 1140 40.481762598166256 L 1140 40.481762598166256 L 1141 40.481186004552455 L 1141 40.481186004552455 L 1142 40.48062162564747 L 1142 40.48062162564747 L 1143 40.48006920270814 L 1143 40.48006920270814 L 1144 40.47952848247155 L 1144 40.47952848247155 L 1145 40.47899921703913 L 1145 40.47899921703913 L 1146 40.47848116376292 L 1146 40.47848116376292 L 1147 40.47797408513418 L 1147 40.47797408513418 L 1148 40.47747774867503 L 1148 40.47747774867503 L 1149 40.476991926831715 L 1149 40.476991926831715 L 1150 40.47651639686978 L 1150 40.47651639686978 L 1151 40.47605094077301 L 1151 40.47605094077301 L 1152 40.47559534514289 L 1152 40.47559534514289 L 1153 40.47514940110045 L 1153 40.47514940110045 L 1154 40.47471290419196 L 1154 40.47471290419196 L 1155 40.47428565429357 L 1155 40.47428565429357 L 1156 40.47386745552046 L 1156 40.47386745552046 L 1157 40.47345811613741 L 1157 40.47345811613741 L 1158 40.47305744846983 L 1158 40.47305744846983 L 1159 40.47266526881879 L 1159 40.47266526881879 L 1160 40.472281397376264 L 1160 40.472281397376264 L 1161 40.47190565814333 L 1161 40.47190565814333 L 1162 40.47153787884815 L 1162 40.47153787884815 L 1163 40.47117789086917 L 1163 40.47117789086917 L 1164 40.47082552915526 L 1164 40.47082552915526 L 1165 40.470480632152544 L 1165 40.470480632152544 L 1166 40.47014304172865 L 1166 40.47014304172865 L 1167 40.46981260310122 L 1167 40.46981260310122 L 1168 40.469489164765946 L 1168 40.469489164765946 L 1169 40.46917257842824 L 1169 40.46917257842824 L 1170 40.46886269893491 L 1170 40.46886269893491 L 1171 40.468559384206856 L 1171 40.468559384206856 L 1172 40.468262495175054 L 1172 40.468262495175054 L 1173 40.467971895716346 L 1173 40.467971895716346 L 1174 40.467687452590894 L 1174 40.467687452590894 L 1175 40.46740903538148 L 1175 40.46740903538148 L 1176 40.46713651643313 L 1176 40.46713651643313 L 1177 40.466869770795256 L 1177 40.466869770795256 L 1178 40.4666086761639 L 1178 40.4666086761639 L 1179 40.466353112826255 L 1179 40.466353112826255 L 1180 40.46610296360507 L 1180 40.46610296360507 L 1181 40.46585811380544 L 1181 40.46585811380544 L 1182 40.46561845116173 L 1182 40.46561845116173 L 1183 40.46538386578709 L 1183 40.46538386578709 L 1184 40.46515425012183 L 1184 40.46515425012183 L 1185 40.464929498885226 L 1185 40.464929498885226 L 1186 40.464709509026534 L 1186 40.464709509026534 L 1187 40.46449417967767 L 1187 40.46449417967767 L 1188 40.464283412107875 L 1188 40.464283412107875 L 1189 40.464077109677646 L 1189 40.464077109677646 L 1190 40.46387517779442 L 1190 40.46387517779442 L 1191 40.463677523869706 L 1191 40.463677523869706 L 1192 40.46348405727622 L 1192 40.46348405727622 L 1193 40.463294689306736 L 1193 40.463294689306736 L 1194 40.46310933313316 L 1194 40.46310933313316 L 1195 40.46292790376606 L 1195 40.46292790376606 L 1196 40.4627503180177 L 1196 40.4627503180177 L 1197 40.46257649446159 L 1197 40.46257649446159 L 1198 40.462406353396204 L 1198 40.462406353396204 L 1199 40.46223981680873 L 1199 40.46223981680873 L 1200 40.462076808339134 L 1200 40.462076808339134 L 1201 40.46191725324468 L 1201 40.46191725324468 L 1202 40.46176107836607 L 1202 40.46176107836607 L 1203 40.461608212093665 L 1203 40.461608212093665 L 1204 40.46145858433522 L 1204 40.46145858433522 L 1205 40.46131212648277 L 1205 40.46131212648277 L 1206 40.461168771382404 L 1206 40.461168771382404 L 1207 40.46102845330233 L 1207 40.46102845330233 L 1208 40.460891107903535 L 1208 40.460891107903535 L 1209 40.46075667220964 L 1209 40.46075667220964 L 1210 40.46062508457862 L 1210 40.46062508457862 L 1211 40.46049628467415 L 1211 40.46049628467415 L 1212 40.46037021343864 L 1212 40.46037021343864 L 1213 40.460246813064714 L 1213 40.460246813064714 L 1214 40.4601260269701 L 1214 40.4601260269701 L 1215 40.46000779977146 L 1215 40.46000779977146 L 1216 40.459892077257905 L 1216 40.459892077257905 L 1217 40.459778806368035 L 1217 40.459778806368035 L 1218 40.45966793516368 L 1218 40.45966793516368 L 1219 40.45955941280715 L 1219 40.45955941280715 L 1220 40.45945318953795 L 1220 40.45945318953795 L 1221 40.459349216650025 L 1221 40.459349216650025 L 1222 40.459247446468 L 1222 40.459247446468 L 1223 40.459147832327744 L 1223 40.459147832327744 L 1224 40.45905032855296 L 1224 40.45905032855296 L 1225 40.45895489043539 L 1225 40.45895489043539 L 1226 40.45886147421345 L 1226 40.45886147421345 L 1227 40.458770037053 L 1227 40.458770037053 L 1228 40.45868053702736 L 1228 40.45868053702736 L 1229 40.45859293309786 L 1229 40.45859293309786 L 1230 40.4585071850953 L 1230 40.4585071850953 L 1231 40.45842325370131 L 1231 40.45842325370131 L 1232 40.458341100430744 L 1232 40.458341100430744 L 1233 40.4582606876138 L 1233 40.4582606876138 L 1234 40.45818197837832 L 1234 40.45818197837832 L 1235 40.458104936633276 L 1235 40.458104936633276 L 1236 40.45802952705276 L 1236 40.45802952705276 L 1237 40.45795571505903 L 1237 40.45795571505903 L 1238 40.45788346680638 L 1238 40.45788346680638 L 1239 40.457812749166806 L 1239 40.457812749166806 L 1240 40.457743529713525 L 1240 40.457743529713525 L 1241 40.45767577670745 L 1241 40.45767577670745 L 1242 40.4576094590808 L 1242 40.4576094590808 L 1243 40.4575445464252 L 1243 40.4575445464252 L 1244 40.457481008975606 L 1244 40.457481008975606 L 1245 40.457418817597954 L 1245 40.457418817597954 L 1246 40.45735794377504 L 1246 40.45735794377504 L 1247 40.45729835959423 L 1247 40.45729835959423 L 1248 40.45724003773387 L 1248 40.45724003773387 L 1249 40.45718295145127 L 1249 40.45718295145127 L 1250 40.45712707457028 L 1250 40.45712707457028 L 1251 40.4570723814694 L 1251 40.4570723814694 L 1252 40.457018847069435 L 1252 40.457018847069435 L 1253 40.456966446823344 L 1253 40.456966446823344 L 1254 40.45691515670342 L 1254 40.45691515670342 L 1255 40.45686495319103 L 1255 40.45686495319103 L 1256 40.4568158132663 L 1256 40.4568158132663 L 1257 40.45676771439639 L 1257 40.45676771439639 L 1258 40.45672063452639 L 1258 40.45672063452639 L 1259 40.45667455206808 L 1259 40.45667455206808 L 1260 40.45662944589128 L 1260 40.45662944589128 L 1261 40.45658529531272 L 1261 40.45658529531272 L 1262 40.456542080087615 L 1262 40.456542080087615 L 1263 40.45649978040058 L 1263 40.45649978040058 L 1264 40.456458376854926 L 1264 40.456458376854926 L 1265 40.456417850465755 L 1265 40.456417850465755 L 1266 40.45637818265027 L 1266 40.45637818265027 L 1267 40.456339355218915 L 1267 40.456339355218915 L 1268 40.456301350367994 L 1268 40.456301350367994 L 1269 40.45626415067056 L 1269 40.45626415067056 L 1270 40.45622773906939 L 1270 40.45622773906939 L 1271 40.4561920988682 L 1271 40.4561920988682 L 1272 40.45615721372428 L 1272 40.45615721372428 L 1273 40.45612306764144 L 1273 40.45612306764144 L 1274 40.45608964496262 L 1274 40.45608964496262 L 1275 40.45605693036191 L 1275 40.45605693036191 L 1276 40.45602490883823 L 1276 40.45602490883823 L 1277 40.45599356570858 L 1277 40.45599356570858 L 1278 40.45596288660113 L 1278 40.45596288660113 L 1279 40.45593285744758 L 1279 40.45593285744758 L 1280 40.455903464478865 L 1280 40.455903464478865 L 1281 40.45587469421696 L 1281 40.45587469421696 L 1282 40.45584653346941 L 1282 40.45584653346941 L 1283 40.45581896932356 L 1283 40.45581896932356 L 1284 40.45579198913981 L 1284 40.45579198913981 L 1285 40.455765580546654 L 1285 40.455765580546654 L 1286 40.45573973143496 L 1286 40.45573973143496 L 1287 40.45571442995151 L 1287 40.45571442995151 L 1288 40.4556896644948 L 1288 40.4556896644948 L 1289 40.45566542370864 L 1289 40.45566542370864 L 1290 40.45564169647764 L 1290 40.45564169647764 L 1291 40.45561847192175 L 1291 40.45561847192175 L 1292 40.4555957393917 L 1292 40.4555957393917 L 1293 40.45557348846353 L 1293 40.45557348846353 L 1294 40.45555170893431 L 1294 40.45555170893431 L 1295 40.45553039081733 L 1295 40.45553039081733 L 1296 40.45550952433723 L 1296 40.45550952433723 L 1297 40.455489099925785 L 1297 40.455489099925785 L 1298 40.45546910821747 L 1298 40.45546910821747 L 1299 40.45544954004538 L 1299 40.45544954004538 L 1300 40.45543038643655 L 1300 40.45543038643655 L 1301 40.45541163860844 L 1301 40.45541163860844 L 1302 40.455393287964284 L 1302 40.455393287964284 L 1303 40.45537532608921 L 1303 40.45537532608921 L 1304 40.4553577447474 L 1304 40.4553577447474 L 1305 40.455340535876644 L 1305 40.455340535876644 L 1306 40.45532369158627 L 1306 40.45532369158627 L 1307 40.45530720415229 L 1307 40.45530720415229 L 1308 40.4552910660143 L 1308 40.4552910660143 L 1309 40.45527526977253 L 1309 40.45527526977253 L 1310 40.45525980818377 L 1310 40.45525980818377 L 1311 40.45524467415805 L 1311 40.45524467415805 L 1312 40.45522986075582 L 1312 40.45522986075582 L 1313 40.4552153611844 L 1313 40.4552153611844 L 1314 40.455201168795156 L 1314 40.455201168795156 L 1315 40.45518727708031 L 1315 40.45518727708031 L 1316 40.45517367967 L 1316 40.45517367967 L 1317 40.45516037032883 L 1317 40.45516037032883 L 1318 40.45514734295432" stroke-opacity="0.6980392156862745" stroke-linecap="round" stroke-linejoin="round" stroke-miterlimit="10" stroke-width="2.5"/><text fill="rgb(0,100,0)" stroke="none" font-family="geogebra-sans-serif, sans-serif" font-size="16px" font-style="normal" font-weight="normal" text-decoration="normal" x="8" y="849" text-anchor="start" dominant-baseline="alphabetic" fill-opacity="1">Sigmoid</text></g></g></svg>