<svg version="1.1" xmlns="http://www.w3.org/2000/svg" xmlns:xlink="http://www.w3.org/1999/xlink" width="1318" height="890"><defs><clipPath id="wCPzwaiEJKyd"><path fill="none" stroke="none" d=" M 0 0 L 1318 0 L 1318 890 L 0 890 L 0 0 Z"/></clipPath></defs><g transform="scale(1,1)" clip-path="url(#wCPzwaiEJKyd)"><g><rect fill="rgb(255,255,255)" stroke="none" x="0" y="0" width="1319" height="891" fill-opacity="1"/><path fill="none" stroke="rgb(180,179,186)" paint-order="fill stroke markers" d=" M 5.5 0.5 L 5.5 890.5 M 5.5 0.5 L 5.5 890.5 M 98.5 0.5 L 98.5 890.5 M 192.5 0.5 L 192.5 890.5 M 285.5 0.5 L 285.5 890.5 M 378.5 0.5 L 378.5 890.5 M 472.5 0.5 L 472.5 890.5 M 565.5 0.5 L 565.5 890.5 M 752.5 0.5 L 752.5 890.5 M 845.5 0.5 L 845.5 890.5 M 939.5 0.5 L 939.5 890.5 M 1032.5 0.5 L 1032.5 890.5 M 1126.5 0.5 L 1126.5 890.5 M 1219.5 0.5 L 1219.5 890.5 M 1312.5 0.5 L 1312.5 890.5" stroke-opacity="1" stroke-linecap="round" stroke-linejoin="round" stroke-miterlimit="10"/><path fill="none" stroke="rgb(180,179,186)" paint-order="fill stroke markers" d="" stroke-opacity="0.23529411764705882" stroke-linecap="round" stroke-linejoin="round" stroke-miterlimit="10"/><path fill="none" stroke="rgb(180,179,186)" paint-order="fill stroke markers" d=" M 0.5 21.5 L 1318.5 21.5 M 0.5 21.5 L 1318.5 21.5 M 0.5 105.5 L 1318.5 105.5 M 0.5 190.5 L 1318.5 190.5 M 0.5 275.5 L 1318.5 275.5 M 0.5 360.5 L 1318.5 360.5 M 0.5 529.5 L 1318.5 529.5 M 0.5 614.5 L 1318.5 614.5 M 0.5 699.5 L 1318.5 699.5 M 0.5 784.5 L 1318.5 784.5 M 0.5 868.5 L 1318.5 868.5" stroke-opacity="1" stroke-linecap="round" stroke-linejoin="round" stroke-miterlimit="10"/><path fill="none" stroke="rgb(180,179,186)" paint-order="fill stroke markers" d="" stroke-opacity="0.23529411764705882" stroke-linecap="round" stroke-linejoin="round" stroke-miterlimit="10"/><path fill="none" stroke="rgb(28,28,31)" paint-order="fill stroke markers" d=" M 659.5 2.5 L 659.5 890.5" stroke-opacity="1" stroke-miterlimit="10"/><path fill="none" stroke="rgb(28,28,31)" paint-order="fill stroke markers" d=" M 659.5 1.5 L 655.5 5.5" stroke-opacity="1" stroke-miterlimit="10"/><path fill="none" stroke="rgb(28,28,31)" paint-order="fill stroke markers" d=" M 659.5 1.5 L 663.5 5.5" stroke-opacity="1" stroke-miterlimit="10"/><path fill="none" stroke="rgb(28,28,31)" paint-order="fill stroke markers" d=" M 0.5 445.5 L 1316.5 445.5" stroke-opacity="1" stroke-miterlimit="10"/><path fill="none" stroke="rgb(28,28,31)" paint-order="fill stroke markers" d=" M 1317.5 445.5 L 1313.5 441.5" stroke-opacity="1" stroke-miterlimit="10"/><path fill="none" stroke="rgb(28,28,31)" paint-order="fill stroke markers" d=" M 1317.5 445.5 L 1313.5 449.5" stroke-opacity="1" stroke-miterlimit="10"/><text fill="rgb(28,28,31)" stroke="none" font-family="geogebra-sans-serif, sans-serif" font-size="12px" font-style="normal" font-weight="normal" text-decoration="normal" x="90" y="461" text-anchor="start" dominant-baseline="alphabetic" fill-opacity="1">–12</text><text fill="rgb(28,28,31)" stroke="none" font-family="geogebra-sans-serif, sans-serif" font-size="12px" font-style="normal" font-weight="normal" text-decoration="normal" x="184" y="461" text-anchor="start" dominant-baseline="alphabetic" fill-opacity="1">–10</text><text fill="rgb(28,28,31)" stroke="none" font-family="geogebra-sans-serif, sans-serif" font-size="12px" font-style="normal" font-weight="normal" text-decoration="normal" x="280" y="461" text-anchor="start" dominant-baseline="alphabetic" fill-opacity="1">–8</text><text fill="rgb(28,28,31)" stroke="none" font-family="geogebra-sans-serif, sans-serif" font-size="12px" font-style="normal" font-weight="normal" text-decoration="normal" x="373" y="461" text-anchor="start" dominant-baseline="alphabetic" fill-opacity="1">–6</text><text fill="rgb(28,28,31)" stroke="none" font-family="geogebra-sans-serif, sans-serif" font-size="12px" font-style="normal" font-weight="normal" text-decoration="normal" x="467" y="461" text-anchor="start" dominant-baseline="alphabetic" fill-opacity="1">–4</text><text fill="rgb(28,28,31)" stroke="none" font-family="geogebra-sans-serif, sans-serif" font-size="12px" font-style="normal" font-weight="normal" text-decoration="normal" x="560" y="461" text-anchor="start" dominant-baseline="alphabetic" fill-opacity="1">–2</text><text fill="rgb(28,28,31)" stroke="none" font-family="geogebra-sans-serif, sans-serif" font-size="12px" font-style="normal" font-weight="normal" text-decoration="normal" x="750" y="461" text-anchor="start" dominant-baseline="alphabetic" fill-opacity="1">2</text><text fill="rgb(28,28,31)" stroke="none" font-family="geogebra-sans-serif, sans-serif" font-size="12px" font-style="normal" font-weight="normal" text-decoration="normal" x="843" y="461" text-anchor="start" dominant-baseline="alphabetic" fill-opacity="1">4</text><text fill="rgb(28,28,31)" stroke="none" font-family="geogebra-sans-serif, sans-serif" font-size="12px" font-style="normal" font-weight="normal" text-decoration="normal" x="937" y="461" text-anchor="start" dominant-baseline="alphabetic" fill-opacity="1">6</text><text fill="rgb(28,28,31)" stroke="none" font-family="geogebra-sans-serif, sans-serif" font-size="12px" font-style="normal" font-weight="normal" text-decoration="normal" x="1030" y="461" text-anchor="start" dominant-baseline="alphabetic" fill-opacity="1">8</text><text fill="rgb(28,28,31)" stroke="none" font-family="geogebra-sans-serif, sans-serif" font-size="12px" font-style="normal" font-weight="normal" text-decoration="normal" x="1121" y="461" text-anchor="start" dominant-baseline="alphabetic" fill-opacity="1">10</text><text fill="rgb(28,28,31)" stroke="none" font-family="geogebra-sans-serif, sans-serif" font-size="12px" font-style="normal" font-weight="normal" text-decoration="normal" x="1214" y="461" text-anchor="start" dominant-baseline="alphabetic" fill-opacity="1">12</text><text fill="rgb(28,28,31)" stroke="none" font-family="geogebra-sans-serif, sans-serif" font-size="12px" font-style="normal" font-weight="normal" text-decoration="normal" x="639" y="873" text-anchor="start" dominant-baseline="alphabetic" fill-opacity="1">–1</text><text fill="rgb(28,28,31)" stroke="none" font-family="geogebra-sans-serif, sans-serif" font-size="12px" font-style="normal" font-weight="normal" text-decoration="normal" x="629" y="789" text-anchor="start" dominant-baseline="alphabetic" fill-opacity="1">–0.8</text><text fill="rgb(28,28,31)" stroke="none" font-family="geogebra-sans-serif, sans-serif" font-size="12px" font-style="normal" font-weight="normal" text-decoration="normal" x="629" y="704" text-anchor="start" dominant-baseline="alphabetic" fill-opacity="1">–0.6</text><text fill="rgb(28,28,31)" stroke="none" font-family="geogebra-sans-serif, sans-serif" font-size="12px" font-style="normal" font-weight="normal" text-decoration="normal" x="629" y="619" text-anchor="start" dominant-baseline="alphabetic" fill-opacity="1">–0.4</text><text fill="rgb(28,28,31)" stroke="none" font-family="geogebra-sans-serif, sans-serif" font-size="12px" font-style="normal" font-weight="normal" text-decoration="normal" x="629" y="534" text-anchor="start" dominant-baseline="alphabetic" fill-opacity="1">–0.2</text><text fill="rgb(28,28,31)" stroke="none" font-family="geogebra-sans-serif, sans-serif" font-size="12px" font-style="normal" font-weight="normal" text-decoration="normal" x="635" y="365" text-anchor="start" dominant-baseline="alphabetic" fill-opacity="1">0.2</text><text fill="rgb(28,28,31)" stroke="none" font-family="geogebra-sans-serif, sans-serif" font-size="12px" font-style="normal" font-weight="normal" text-decoration="normal" x="635" y="280" text-anchor="start" dominant-baseline="alphabetic" fill-opacity="1">0.4</text><text fill="rgb(28,28,31)" stroke="none" font-family="geogebra-sans-serif, sans-serif" font-size="12px" font-style="normal" font-weight="normal" text-decoration="normal" x="635" y="195" text-anchor="start" dominant-baseline="alphabetic" fill-opacity="1">0.6</text><text fill="rgb(28,28,31)" stroke="none" font-family="geogebra-sans-serif, sans-serif" font-size="12px" font-style="normal" font-weight="normal" text-decoration="normal" x="635" y="110" text-anchor="start" dominant-baseline="alphabetic" fill-opacity="1">0.8</text><text fill="rgb(28,28,31)" stroke="none" font-family="geogebra-sans-serif, sans-serif" font-size="12px" font-style="normal" font-weight="normal" text-decoration="normal" x="645" y="26" text-anchor="start" dominant-baseline="alphabetic" fill-opacity="1">1</text><text fill="rgb(28,28,31)" stroke="none" font-family="geogebra-sans-serif, sans-serif" font-size="12px" font-style="normal" font-weight="normal" text-decoration="normal" x="645" y="461" text-anchor="start" dominant-baseline="alphabetic" fill-opacity="1">0</text><path fill="none" stroke="rgb(204,0,0)" paint-order="fill stroke markers" d=" M 0 868.8095238090548 L 5.1484375 868.809523808939 L 10.296875 868.8095238087949 L 15.4453125 868.8095238086148 L 20.59375 868.8095238083906 L 25.7421875 868.8095238081112 L 30.890625 868.8095238077626 L 36.0390625 868.8095238073282 L 41.1875 868.8095238067867 L 46.3359375 868.8095238061114 L 51.484375 868.8095238052697 L 56.6328125 868.8095238042201 L 61.78125 868.8095238029118 L 66.92968750000011 868.8095238012809 L 72.078125 868.8095237992474 L 77.2265625 868.8095237967123 L 82.375 868.8095237935518 L 87.5234375 868.8095237896116 L 92.671875 868.8095237846996 L 97.8203125 868.8095237785759 L 102.96875 868.8095237709415 L 108.1171875 868.8095237614236 L 113.265625 868.8095237495579 L 118.4140625 868.8095237347652 L 123.5625 868.8095237163232 L 128.7109375 868.8095236933318 L 133.859375 868.8095236646686 L 139.0078125 868.8095236289348 L 144.15625 868.8095235843857 L 149.30468750000006 868.809523528847 L 154.453125 868.8095234596074 L 159.60156250000006 868.8095233732877 L 164.75000000000006 868.8095232656738 L 169.8984375 868.8095231315128 L 175.046875 868.8095229642562 L 180.1953125 868.8095227557395 L 185.34375 868.8095224957844 L 190.4921875 868.8095221717016 L 195.64062500000006 868.8095217676718 L 200.78906249999994 868.8095212639728 L 205.93750000000006 868.809520636018 L 211.08593750000006 868.8095198531546 L 216.234375 868.8095188771688 L 221.3828125 868.8095176604197 L 226.53125 868.8095161435141 L 231.67968750000006 868.8095142524073 L 236.828125 868.8095118947886 L 241.97656250000006 868.8095089555754 L 247.12499999999994 868.8095052912959 L 252.27343750000006 868.8095007230854 L 257.421875 868.8094950279558 L 262.5703125 868.8094879279104 L 267.71875 868.8094790763744 L 272.8671875 868.8094680412778 L 278.01562500000006 868.8094542839641 L 283.1640625 868.8094371328971 L 288.3125 868.8094157508815 L 293.4609375 868.8093890941972 L 298.609375 868.809355861651 L 303.7578125 868.8093144310634 L 308.90625 868.8092627800839 L 314.0546875 868.8091983874755 L 319.20312500000006 868.8091181100456 L 324.3515625 868.809018029219 L 329.5 868.8088932597623 L 334.6484375 868.8087377113236 L 339.796875 868.8085437911491 L 344.9453125 868.8083020334652 L 350.09375 868.808000637438 L 355.2421875 868.8076248911552 L 360.390625 868.8071564535243 L 365.5390625 868.8065724590302 L 370.6875 868.8058444016704 L 375.83593750000006 868.8049367435988 L 380.98437500000006 868.8038051805809 L 386.1328125 868.8023944796316 L 391.28125 868.800635783329 L 396.4296875 868.7984432493029 L 401.578125 868.7957098609851 L 406.7265625 868.7923022053249 L 411.875 868.7880539628527 L 417.0234375 868.7827577927903 L 422.171875 868.77615521782 L 427.3203125 868.7679240158826 L 432.46875 868.7576625053142 L 437.6171875 868.7448699589479 L 442.765625 868.7289221953658 L 447.9140625 868.7090411624033 L 453.0625 868.6842570383953 L 458.2109375 868.6533610170707 L 463.35937500000006 868.6148464960215 L 468.5078125 868.5668358362564 L 473.65625 868.5069891771907 L 478.8046875 868.4323909483701 L 483.953125 868.3394086815335 L 489.1015625 868.2235174536413 L 494.25 868.079081736521 L 499.3984375 867.8990845398105 L 504.546875 867.6747914555338 L 509.6953125 867.395334490546 L 514.84375 867.0471973617293 L 519.9921875 866.6135802054343 L 525.140625 866.0736174403645 L 530.2890625 865.4014179280489 L 535.4375 864.5648918449704 L 540.5859375 863.5243242940237 L 545.734375 862.2306524835482 L 550.8828125 860.6234026908327 L 556.03125 858.6282474329203 L 561.1796875 856.1541557064136 L 566.328125 853.0901348731275 L 571.4765625 849.30160890345 L 576.625 844.6265538501652 L 581.7734375 838.8716296183052 L 586.921875 831.8087206444422 L 592.0703125 823.1725385311458 L 594.64453125 818.171249673303 L 597.21875 812.660250119553 L 599.79296875 806.5963029609109 L 602.3671875 799.9344577809388 L 604.94140625 792.6284490452467 L 607.515625 784.6312192506001 L 610.08984375 775.89558165524 L 612.6640625 766.3750351151621 L 613.951171875 761.3063135642564 L 615.23828125 756.0247396270893 L 616.525390625 750.5251547471255 L 617.8125 744.802655318435 L 619.099609375 738.8526367476247 L 620.38671875 732.6708395895982 L 621.673828125 726.2533975139129 L 622.9609375 719.5968868021275 L 624.248046875 712.698377017569 L 625.53515625 705.5554824282842 L 626.822265625 698.1664137027769 L 628.109375 690.530029337791 L 629.396484375 682.6458862194743 L 630.68359375 674.5142886654645 L 631.970703125 666.1363352476875 L 633.2578125 657.513962655972 L 634.544921875 648.649985832982 L 635.83203125 639.5481335935427 L 637.119140625 630.2130789381017 L 638.40625 620.6504632826493 L 639.693359375 610.8669138573689 L 640.98046875 600.8700535747715 L 641.6240234375 595.7942868753463 L 642.267578125 590.6685027357803 L 642.9111328125 585.4939333882717 L 643.5546875 580.2718720292385 L 644.1982421875 575.0036720947732 L 644.841796875 569.6907463861992 L 645.4853515625 564.3345660446109 L 646.12890625 558.936659373899 L 646.7724609375 553.498610512373 L 647.416015625 548.0220579537402 L 648.0595703125 542.508692918847 L 648.703125 536.960257580264 L 649.3466796875 531.378543142446 L 649.990234375 525.7653877809033 L 650.6337890625 520.1226744444605 L 651.27734375 514.4523285253588 L 651.9208984375 508.75631540260565 L 652.564453125 503.0366378646074 L 653.2080078125 497.2953334177408 L 653.8515625 491.5344714880895 L 654.4951171875 485.7561505241551 L 655.138671875 479.96249500884505 L 655.7822265625 474.15565238954173 L 656.42578125 468.33778993548594 L 657.0693359375 462.51109153210496 L 657.712890625 456.6777544222606 L 658.3564453125 450.8399859046685 L 659 445 L 659.6435546875 439.1600140953315 L 660.287109375 433.3222455777394 L 660.9306640625 427.48890846789504 L 661.57421875 421.66221006451406 L 662.2177734375 415.84434761045827 L 662.861328125 410.03750499115495 L 663.5048828125 404.2438494758449 L 664.1484375 398.4655285119105 L 664.7919921875 392.7046665822592 L 665.435546875 386.9633621353926 L 666.0791015625 381.24368459739435 L 666.72265625 375.54767147464116 L 667.3662109375 369.87732555553947 L 668.009765625 364.2346122190967 L 668.6533203125 358.62145685755394 L 669.296875 353.03974241973594 L 669.9404296875 347.49130708115297 L 670.583984375 341.9779420462599 L 671.2275390625 336.501389487627 L 671.87109375 331.06334062610097 L 672.5146484375 325.665433955389 L 673.158203125 320.3092536138008 L 673.8017578125 314.99632790522685 L 674.4453125 309.72812797076153 L 675.0888671875 304.5060666117283 L 675.732421875 299.3314972642197 L 676.3759765625 294.2057131246537 L 677.01953125 289.12994642522847 L 678.306640625 279.13308614263104 L 679.59375 269.3495367173507 L 680.880859375 259.7869210618983 L 682.16796875 250.45186640645724 L 683.455078125 241.35001416701797 L 684.7421875 232.486037344028 L 686.029296875 223.86366475231253 L 687.31640625 215.48571133453552 L 688.603515625 207.35411378052575 L 689.890625 199.46997066220896 L 691.177734375 191.83358629722304 L 692.46484375 184.44451757171583 L 693.751953125 177.301622982431 L 695.0390625 170.40311319787253 L 696.326171875 163.74660248608706 L 697.61328125 157.32916041040176 L 698.900390625 151.14736325237533 L 700.1875 145.19734468156503 L 701.474609375 139.47484525287456 L 702.76171875 133.97526037291072 L 704.048828125 128.69368643574364 L 705.3359375 123.62496488483788 L 707.91015625 114.10441834476 L 710.484375 105.36878074939989 L 713.05859375 97.37155095475327 L 715.6328125 90.06554221906111 L 718.20703125 83.4036970390892 L 720.78125 77.33974988044696 L 723.35546875 71.82875032669699 L 725.9296875 66.82746146885415 L 731.078125 58.191279355557754 L 736.2265625 51.12837038169482 L 741.375 45.373446149834706 L 746.5234375 40.6983910965501 L 751.6718750000001 36.90986512687249 L 756.8203125 33.84584429358648 L 761.96875 31.371752567079795 L 767.1171875 29.376597309167323 L 772.265625 27.76934751645183 L 777.4140625 26.475675705976244 L 782.5625 25.435108155029695 L 787.7109374999999 24.598582071951114 L 792.859375 23.9263825596355 L 798.0078125 23.386419794565597 L 803.15625 22.95280263827061 L 808.3046875 22.60466550945398 L 813.453125 22.325208544466193 L 818.6015625 22.10091546018947 L 823.75 21.92091826347911 L 828.8984375 21.77648254635875 L 834.0468749999999 21.660591318466402 L 839.1953125 21.567609051629972 L 844.34375 21.493010822809367 L 849.4921875 21.433164163743584 L 854.640625 21.38515350397853 L 859.7890625 21.346638982929278 L 864.9375 21.315742961604656 L 870.0859374999999 21.290958837596747 L 875.234375 21.27107780463416 L 880.3828125000001 21.255130041052098 L 885.53125 21.242337494685785 L 890.6796875 21.232075984117387 L 895.828125 21.22384478217998 L 900.9765625 21.217242207209665 L 906.125 21.2119460371473 L 911.2734375 21.20769779467514 L 916.421875 21.204290139014915 L 921.5703125 21.201556750697193 L 926.71875 21.199364216670972 L 931.8671875 21.197605520368313 L 937.015625 21.196194819419077 L 942.1640625 21.19506325640117 L 947.3125 21.194155598329587 L 952.4609375 21.193427540969765 L 957.609375 21.19284354647573 L 962.7578124999999 21.192375108844715 L 967.90625 21.191999362562058 L 973.0546875 21.19169796653472 L 978.203125 21.19145620885098 L 983.3515625 21.191262288676455 L 988.5 21.19110674023767 L 993.6484375 21.190981970781024 L 998.796875 21.190881889954426 L 1003.9453125 21.190801612524524 L 1009.0937499999999 21.19073721991606 L 1014.2421875 21.1906855689366 L 1019.390625 21.190644138348887 L 1024.5390625 21.190610905802828 L 1029.6875 21.190584249118444 L 1034.8359375 21.190562867102926 L 1039.984375 21.1905457160359 L 1045.1328125 21.190531958722204 L 1050.28125 21.19052092362557 L 1055.4296875 21.19051207208969 L 1060.578125 21.190504972044266 L 1065.7265625 21.190499276914636 L 1070.875 21.190494708704136 L 1076.0234375 21.19049104442462 L 1081.171875 21.190488105211386 L 1086.3203125 21.19048574759273 L 1091.46875 21.190483856485912 L 1096.6171875 21.190482339580342 L 1101.765625 21.190481122831272 L 1106.9140625 21.19048014684546 L 1112.0625 21.190479363982035 L 1117.2109375 21.190478736027217 L 1122.359375 21.190478232328246 L 1127.5078125 21.190477828298413 L 1132.65625 21.190477504215607 L 1137.8046875 21.190477244260478 L 1142.953125 21.19047703574381 L 1148.1015625 21.19047686848711 L 1153.25 21.19047673432624 L 1158.3984375 21.190476626712325 L 1163.546875 21.19047654039258 L 1168.6953125 21.19047647115309 L 1173.84375 21.19047641561434 L 1178.9921875 21.190476371065245 L 1184.140625 21.19047633533137 L 1189.2890625 21.190476306668245 L 1194.4375 21.190476283676844 L 1199.5859375 21.19047626523485 L 1204.734375 21.19047625044209 L 1209.8828125 21.190476238576366 L 1215.03125 21.19047622905856 L 1220.1796875 21.190476221424092 L 1225.328125 21.19047621530035 L 1230.4765625 21.19047621038834 L 1235.625 21.19047620644818 L 1240.7734375 21.1904762032878 L 1245.921875 21.19047620075264 L 1251.0703125 21.190476198719182 L 1256.21875 21.190476197088174 L 1261.3671875 21.19047619577981 L 1266.515625 21.190476194730365 L 1271.6640625 21.190476193888628 L 1276.8125 21.19047619321333 L 1281.9609375 21.19047619267178 L 1287.109375 21.190476192237327 L 1292.2578125 21.19047619188882 L 1297.40625 21.19047619160932 L 1302.5546875 21.19047619138513 L 1307.703125 21.190476191205164 L 1312.8515625 21.190476191060895 L 1318 21.190476190945276" stroke-opacity="0.6980392156862745" stroke-linecap="round" stroke-linejoin="round" stroke-miterlimit="10" stroke-width="2.5"/><text fill="rgb(204,0,0)" stroke="none" font-family="geogebra-sans-serif, sans-serif" font-size="16px" font-style="normal" font-weight="normal" text-decoration="normal" x="8" y="868" text-anchor="start" dominant-baseline="alphabetic" fill-opacity="1">Tanh</text></g></g></svg>