<svg version="1.1" xmlns="http://www.w3.org/2000/svg" xmlns:xlink="http://www.w3.org/1999/xlink" width="1318" height="890"><defs><clipPath id="AJgTRQGdAqGi"><path fill="none" stroke="none" d=" M 0 0 L 1318 0 L 1318 890 L 0 890 L 0 0 Z"/></clipPath></defs><g transform="scale(1,1)" clip-path="url(#AJgTRQGdAqGi)"><g><rect fill="rgb(255,255,255)" stroke="none" x="0" y="0" width="1319" height="891" fill-opacity="1"/><path fill="none" stroke="rgb(180,179,186)" paint-order="fill stroke markers" d=" M 33.5 0.5 L 33.5 890.5 M 33.5 0.5 L 33.5 890.5 M 93.5 0.5 L 93.5 890.5 M 153.5 0.5 L 153.5 890.5 M 213.5 0.5 L 213.5 890.5 M 273.5 0.5 L 273.5 890.5 M 333.5 0.5 L 333.5 890.5 M 393.5 0.5 L 393.5 890.5 M 453.5 0.5 L 453.5 890.5 M 513.5 0.5 L 513.5 890.5 M 573.5 0.5 L 573.5 890.5 M 633.5 0.5 L 633.5 890.5 M 693.5 0.5 L 693.5 890.5 M 753.5 0.5 L 753.5 890.5 M 813.5 0.5 L 813.5 890.5 M 873.5 0.5 L 873.5 890.5 M 993.5 0.5 L 993.5 890.5 M 1053.5 0.5 L 1053.5 890.5 M 1113.5 0.5 L 1113.5 890.5 M 1173.5 0.5 L 1173.5 890.5 M 1232.5 0.5 L 1232.5 890.5 M 1292.5 0.5 L 1292.5 890.5" stroke-opacity="1" stroke-linecap="round" stroke-linejoin="round" stroke-miterlimit="10"/><path fill="none" stroke="rgb(180,179,186)" paint-order="fill stroke markers" d="" stroke-opacity="0.23529411764705882" stroke-linecap="round" stroke-linejoin="round" stroke-miterlimit="10"/><path fill="none" stroke="rgb(180,179,186)" paint-order="fill stroke markers" d=" M 0.5 31.5 L 1318.5 31.5 M 0.5 31.5 L 1318.5 31.5 M 0.5 95.5 L 1318.5 95.5 M 0.5 158.5 L 1318.5 158.5 M 0.5 222.5 L 1318.5 222.5 M 0.5 285.5 L 1318.5 285.5 M 0.5 349.5 L 1318.5 349.5 M 0.5 412.5 L 1318.5 412.5 M 0.5 476.5 L 1318.5 476.5 M 0.5 539.5 L 1318.5 539.5 M 0.5 603.5 L 1318.5 603.5 M 0.5 666.5 L 1318.5 666.5 M 0.5 730.5 L 1318.5 730.5 M 0.5 857.5 L 1318.5 857.5" stroke-opacity="1" stroke-linecap="round" stroke-linejoin="round" stroke-miterlimit="10"/><path fill="none" stroke="rgb(180,179,186)" paint-order="fill stroke markers" d="" stroke-opacity="0.23529411764705882" stroke-linecap="round" stroke-linejoin="round" stroke-miterlimit="10"/><path fill="none" stroke="rgb(28,28,31)" paint-order="fill stroke markers" d=" M 933.5 2.5 L 933.5 890.5" stroke-opacity="1" stroke-miterlimit="10"/><path fill="none" stroke="rgb(28,28,31)" paint-order="fill stroke markers" d=" M 933.5 1.5 L 929.5 5.5" stroke-opacity="1" stroke-miterlimit="10"/><path fill="none" stroke="rgb(28,28,31)" paint-order="fill stroke markers" d=" M 933.5 1.5 L 937.5 5.5" stroke-opacity="1" stroke-miterlimit="10"/><path fill="none" stroke="rgb(28,28,31)" paint-order="fill stroke markers" d=" M 0.5 793.5 L 1316.5 793.5" stroke-opacity="1" stroke-miterlimit="10"/><path fill="none" stroke="rgb(28,28,31)" paint-order="fill stroke markers" d=" M 1317.5 793.5 L 1313.5 789.5" stroke-opacity="1" stroke-miterlimit="10"/><path fill="none" stroke="rgb(28,28,31)" paint-order="fill stroke markers" d=" M 1317.5 793.5 L 1313.5 797.5" stroke-opacity="1" stroke-miterlimit="10"/><text fill="rgb(28,28,31)" stroke="none" font-family="geogebra-sans-serif, sans-serif" font-size="12px" font-style="normal" font-weight="normal" text-decoration="normal" x="22" y="809" text-anchor="start" dominant-baseline="alphabetic" fill-opacity="1">–7.5</text><text fill="rgb(28,28,31)" stroke="none" font-family="geogebra-sans-serif, sans-serif" font-size="12px" font-style="normal" font-weight="normal" text-decoration="normal" x="88" y="809" text-anchor="start" dominant-baseline="alphabetic" fill-opacity="1">–7</text><text fill="rgb(28,28,31)" stroke="none" font-family="geogebra-sans-serif, sans-serif" font-size="12px" font-style="normal" font-weight="normal" text-decoration="normal" x="142" y="809" text-anchor="start" dominant-baseline="alphabetic" fill-opacity="1">–6.5</text><text fill="rgb(28,28,31)" stroke="none" font-family="geogebra-sans-serif, sans-serif" font-size="12px" font-style="normal" font-weight="normal" text-decoration="normal" x="208" y="809" text-anchor="start" dominant-baseline="alphabetic" fill-opacity="1">–6</text><text fill="rgb(28,28,31)" stroke="none" font-family="geogebra-sans-serif, sans-serif" font-size="12px" font-style="normal" font-weight="normal" text-decoration="normal" x="262" y="809" text-anchor="start" dominant-baseline="alphabetic" fill-opacity="1">–5.5</text><text fill="rgb(28,28,31)" stroke="none" font-family="geogebra-sans-serif, sans-serif" font-size="12px" font-style="normal" font-weight="normal" text-decoration="normal" x="328" y="809" text-anchor="start" dominant-baseline="alphabetic" fill-opacity="1">–5</text><text fill="rgb(28,28,31)" stroke="none" font-family="geogebra-sans-serif, sans-serif" font-size="12px" font-style="normal" font-weight="normal" text-decoration="normal" x="382" y="809" text-anchor="start" dominant-baseline="alphabetic" fill-opacity="1">–4.5</text><text fill="rgb(28,28,31)" stroke="none" font-family="geogebra-sans-serif, sans-serif" font-size="12px" font-style="normal" font-weight="normal" text-decoration="normal" x="448" y="809" text-anchor="start" dominant-baseline="alphabetic" fill-opacity="1">–4</text><text fill="rgb(28,28,31)" stroke="none" font-family="geogebra-sans-serif, sans-serif" font-size="12px" font-style="normal" font-weight="normal" text-decoration="normal" x="502" y="809" text-anchor="start" dominant-baseline="alphabetic" fill-opacity="1">–3.5</text><text fill="rgb(28,28,31)" stroke="none" font-family="geogebra-sans-serif, sans-serif" font-size="12px" font-style="normal" font-weight="normal" text-decoration="normal" x="568" y="809" text-anchor="start" dominant-baseline="alphabetic" fill-opacity="1">–3</text><text fill="rgb(28,28,31)" stroke="none" font-family="geogebra-sans-serif, sans-serif" font-size="12px" font-style="normal" font-weight="normal" text-decoration="normal" x="622" y="809" text-anchor="start" dominant-baseline="alphabetic" fill-opacity="1">–2.5</text><text fill="rgb(28,28,31)" stroke="none" font-family="geogebra-sans-serif, sans-serif" font-size="12px" font-style="normal" font-weight="normal" text-decoration="normal" x="688" y="809" text-anchor="start" dominant-baseline="alphabetic" fill-opacity="1">–2</text><text fill="rgb(28,28,31)" stroke="none" font-family="geogebra-sans-serif, sans-serif" font-size="12px" font-style="normal" font-weight="normal" text-decoration="normal" x="742" y="809" text-anchor="start" dominant-baseline="alphabetic" fill-opacity="1">–1.5</text><text fill="rgb(28,28,31)" stroke="none" font-family="geogebra-sans-serif, sans-serif" font-size="12px" font-style="normal" font-weight="normal" text-decoration="normal" x="808" y="809" text-anchor="start" dominant-baseline="alphabetic" fill-opacity="1">–1</text><text fill="rgb(28,28,31)" stroke="none" font-family="geogebra-sans-serif, sans-serif" font-size="12px" font-style="normal" font-weight="normal" text-decoration="normal" x="862" y="809" text-anchor="start" dominant-baseline="alphabetic" fill-opacity="1">–0.5</text><text fill="rgb(28,28,31)" stroke="none" font-family="geogebra-sans-serif, sans-serif" font-size="12px" font-style="normal" font-weight="normal" text-decoration="normal" x="985" y="809" text-anchor="start" dominant-baseline="alphabetic" fill-opacity="1">0.5</text><text fill="rgb(28,28,31)" stroke="none" font-family="geogebra-sans-serif, sans-serif" font-size="12px" font-style="normal" font-weight="normal" text-decoration="normal" x="1051" y="809" text-anchor="start" dominant-baseline="alphabetic" fill-opacity="1">1</text><text fill="rgb(28,28,31)" stroke="none" font-family="geogebra-sans-serif, sans-serif" font-size="12px" font-style="normal" font-weight="normal" text-decoration="normal" x="1105" y="809" text-anchor="start" dominant-baseline="alphabetic" fill-opacity="1">1.5</text><text fill="rgb(28,28,31)" stroke="none" font-family="geogebra-sans-serif, sans-serif" font-size="12px" font-style="normal" font-weight="normal" text-decoration="normal" x="1171" y="809" text-anchor="start" dominant-baseline="alphabetic" fill-opacity="1">2</text><text fill="rgb(28,28,31)" stroke="none" font-family="geogebra-sans-serif, sans-serif" font-size="12px" font-style="normal" font-weight="normal" text-decoration="normal" x="1224" y="809" text-anchor="start" dominant-baseline="alphabetic" fill-opacity="1">2.5</text><text fill="rgb(28,28,31)" stroke="none" font-family="geogebra-sans-serif, sans-serif" font-size="12px" font-style="normal" font-weight="normal" text-decoration="normal" x="1290" y="809" text-anchor="start" dominant-baseline="alphabetic" fill-opacity="1">3</text><text fill="rgb(28,28,31)" stroke="none" font-family="geogebra-sans-serif, sans-serif" font-size="12px" font-style="normal" font-weight="normal" text-decoration="normal" x="903" y="862" text-anchor="start" dominant-baseline="alphabetic" fill-opacity="1">–0.2</text><text fill="rgb(28,28,31)" stroke="none" font-family="geogebra-sans-serif, sans-serif" font-size="12px" font-style="normal" font-weight="normal" text-decoration="normal" x="909" y="735" text-anchor="start" dominant-baseline="alphabetic" fill-opacity="1">0.2</text><text fill="rgb(28,28,31)" stroke="none" font-family="geogebra-sans-serif, sans-serif" font-size="12px" font-style="normal" font-weight="normal" text-decoration="normal" x="909" y="671" text-anchor="start" dominant-baseline="alphabetic" fill-opacity="1">0.4</text><text fill="rgb(28,28,31)" stroke="none" font-family="geogebra-sans-serif, sans-serif" font-size="12px" font-style="normal" font-weight="normal" text-decoration="normal" x="909" y="608" text-anchor="start" dominant-baseline="alphabetic" fill-opacity="1">0.6</text><text fill="rgb(28,28,31)" stroke="none" font-family="geogebra-sans-serif, sans-serif" font-size="12px" font-style="normal" font-weight="normal" text-decoration="normal" x="909" y="544" text-anchor="start" dominant-baseline="alphabetic" fill-opacity="1">0.8</text><text fill="rgb(28,28,31)" stroke="none" font-family="geogebra-sans-serif, sans-serif" font-size="12px" font-style="normal" font-weight="normal" text-decoration="normal" x="919" y="481" text-anchor="start" dominant-baseline="alphabetic" fill-opacity="1">1</text><text fill="rgb(28,28,31)" stroke="none" font-family="geogebra-sans-serif, sans-serif" font-size="12px" font-style="normal" font-weight="normal" text-decoration="normal" x="909" y="417" text-anchor="start" dominant-baseline="alphabetic" fill-opacity="1">1.2</text><text fill="rgb(28,28,31)" stroke="none" font-family="geogebra-sans-serif, sans-serif" font-size="12px" font-style="normal" font-weight="normal" text-decoration="normal" x="909" y="354" text-anchor="start" dominant-baseline="alphabetic" fill-opacity="1">1.4</text><text fill="rgb(28,28,31)" stroke="none" font-family="geogebra-sans-serif, sans-serif" font-size="12px" font-style="normal" font-weight="normal" text-decoration="normal" x="909" y="290" text-anchor="start" dominant-baseline="alphabetic" fill-opacity="1">1.6</text><text fill="rgb(28,28,31)" stroke="none" font-family="geogebra-sans-serif, sans-serif" font-size="12px" font-style="normal" font-weight="normal" text-decoration="normal" x="909" y="227" text-anchor="start" dominant-baseline="alphabetic" fill-opacity="1">1.8</text><text fill="rgb(28,28,31)" stroke="none" font-family="geogebra-sans-serif, sans-serif" font-size="12px" font-style="normal" font-weight="normal" text-decoration="normal" x="919" y="163" text-anchor="start" dominant-baseline="alphabetic" fill-opacity="1">2</text><text fill="rgb(28,28,31)" stroke="none" font-family="geogebra-sans-serif, sans-serif" font-size="12px" font-style="normal" font-weight="normal" text-decoration="normal" x="909" y="100" text-anchor="start" dominant-baseline="alphabetic" fill-opacity="1">2.2</text><text fill="rgb(28,28,31)" stroke="none" font-family="geogebra-sans-serif, sans-serif" font-size="12px" font-style="normal" font-weight="normal" text-decoration="normal" x="909" y="36" text-anchor="start" dominant-baseline="alphabetic" fill-opacity="1">2.4</text><text fill="rgb(28,28,31)" stroke="none" font-family="geogebra-sans-serif, sans-serif" font-size="12px" font-style="normal" font-weight="normal" text-decoration="normal" x="919" y="809" text-anchor="start" dominant-baseline="alphabetic" fill-opacity="1">0</text><path fill="none" stroke="rgb(0,100,0)" paint-order="fill stroke markers" d=" M 0 793.7357305936164 L 5.1484375 793.7357305936199 L 10.296875 793.7357305936249 L 15.4453125 793.7357305936316 L 20.593750000000114 793.735730593641 L 25.7421875 793.7357305936539 L 30.890625 793.7357305936715 L 36.0390625 793.735730593696 L 41.1875 793.7357305937293 L 46.3359375 793.7357305937749 L 51.484375000000114 793.735730593837 L 56.632812500000114 793.735730593922 L 61.78125 793.7357305940374 L 66.9296875 793.7357305941939 L 72.078125 793.7357305944062 L 77.2265625 793.7357305946932 L 82.375 793.7357305950808 L 87.52343750000011 793.7357305956028 L 92.671875 793.735730596305 L 97.8203125 793.7357305972475 L 102.96875 793.7357305985103 L 108.1171875 793.7357306001988 L 113.265625 793.7357306024528 L 118.4140625 793.7357306054554 L 123.56250000000011 793.7357306094483 L 128.7109375 793.7357306147474 L 133.859375 793.7357306217673 L 139.0078125 793.735730631049 L 144.15625 793.7357306432981 L 149.3046875 793.7357306594329 L 154.453125 793.7357306806457 L 159.6015625000001 793.7357307084822 L 164.75 793.7357307449412 L 169.8984375 793.7357307926035 L 175.046875 793.7357308547939 L 180.1953125 793.7357309357868 L 185.34375 793.7357310410674 L 190.4921875 793.7357311776598 L 195.6406250000001 793.7357313545403 L 200.7890625 793.7357315831578 L 205.9375 793.7357318780842 L 211.0859375 793.7357322578301 L 216.234375 793.7357327458606 L 221.3828125000001 793.7357333718612 L 226.53125 793.7357341733109 L 231.6796875000001 793.7357351974309 L 236.828125 793.7357365035965 L 241.9765625 793.7357381663116 L 247.125 793.7357402788728 L 252.2734375 793.7357429578685 L 257.4218750000001 793.7357463486951 L 262.5703125 793.7357506323006 L 267.71875 793.735756033412 L 272.8671875 793.7357628305496 L 278.015625 793.7357713681866 L 283.1640625 793.7357820714808 L 288.3125 793.7357954640778 L 293.4609375000001 793.7358121895769 L 298.609375 793.7358330373527 L 303.7578125 793.7358589735366 L 308.90625 793.7358911781054 L 314.0546875 793.7359310891678 L 319.203125 793.7359804557196 L 324.3515625 793.7360414003272 L 329.5000000000001 793.7361164934272 L 334.6484375 793.7362088411699 L 339.796875 793.7363221890122 L 344.9453125 793.7364610435737 L 350.09375 793.7366308156024 L 355.2421875 793.7368379872704 L 360.390625 793.7370903074254 L 365.5390625000001 793.7373970188604 L 370.6875 793.7377691221387 L 375.8359375 793.7382196810212 L 380.984375 793.7387641750752 L 386.1328125 793.7394209056158 L 391.2812500000001 793.7402114617186 L 396.4296875 793.741161253649 L 401.5781250000001 793.7423001216745 L 406.7265625 793.7436630288427 L 411.875 793.745290846913 L 417.0234375 793.7472312452168 L 422.171875 793.7495396927518 L 427.3203125000001 793.7522805843031 L 432.46875 793.7555285017656 L 437.61718750000006 793.7593696221348 L 442.76562500000006 793.7639032837703 L 447.91406250000006 793.769243722517 L 453.0625 793.7755219890331 L 458.2109375 793.7828880582089 L 463.35937500000006 793.7915131408002 L 468.5078125 793.8015922063312 L 473.65625 793.813346724867 L 478.80468750000006 793.8270276334122 L 483.95312500000006 793.8429185303672 L 489.1015625 793.861339098668 L 494.25 793.8826487548763 L 499.3984375 793.9072505175509 L 504.54687500000006 793.9355950836775 L 509.69531250000006 793.9681850967409 L 514.84375 794.0055795841638 L 519.9921875 794.0483985353095 L 525.140625 794.0973275840422 L 530.2890625 794.153122751987 L 535.4375 794.2166152001533 L 540.5859375 794.2887159275342 L 545.734375 794.3704203457389 L 550.8828125 794.4628126487459 L 556.03125 794.567069886592 L 561.1796875 794.684465641375 L 566.328125 794.8163731935065 L 571.4765625 794.9642680558901 L 576.625 795.1297297438372 L 581.7734375 795.3144426392829 L 586.921875 795.5201957995159 L 592.0703125 795.7488815534264 L 597.21875 796.0024927225355 L 602.3671875 796.2831183000712 L 607.515625 796.5929374194385 L 612.6640625 796.9342114438923 L 617.8125 797.3092740123857 L 622.9609375 797.720518882721 L 628.109375 798.1703854225715 L 633.2578125 798.6613416119078 L 638.40625 799.1958644370757 L 643.5546875 799.7764175774121 L 648.703125 800.405426309946 L 653.8515625 801.0852495864901 L 659 801.8181492702425 L 664.1484375 802.6062565558011 L 669.296875 803.4515356370483 L 674.4453125 804.3557447314066 L 679.5937500000001 805.3203946161315 L 684.7421875 806.3467048820911 L 689.890625 807.4355581623324 L 695.0390625 808.5874526459461 L 700.1875 809.8024532415615 L 705.3359375 811.0801418083631 L 710.484375 812.4195669248774 L 715.6328125000001 813.8191937159454 L 720.78125 815.2768543051977 L 725.9296875 816.7896995029171 L 731.078125 818.3541523762927 L 736.2265625 819.9658643796627 L 741.375 821.6196747453237 L 746.5234375000001 823.309573849886 L 751.671875 825.0286712760036 L 756.8203125 826.7691692838484 L 761.96875 828.5223423901757 L 767.1171875 830.278523724783 L 772.265625 832.0270987941951 L 777.4140625 833.7565072303901 L 782.5625000000001 835.4542530383549 L 787.7109375 837.1069237805458 L 792.859375 838.7002190494164 L 798.0078125 840.2189884818524 L 803.15625 841.6472794626246 L 808.3046875 842.9683945490601 L 813.453125 844.1649585275018 L 818.6015625000001 845.2189948854493 L 823.75 846.1120113533567 L 828.8984375 846.8250940389298 L 834.046875 847.3390095464971 L 839.1953125 847.6343143468202 L 844.34375 847.6914705407914 L 849.4921875 847.4909670460454 L 854.6406250000001 847.0134451307857 L 859.7890625 846.2398271261352 L 864.9375 845.1514470690422 L 870.0859375 843.7301819639231 L 875.234375 841.9585823043525 L 880.3828125 839.8200004674683 L 885.5312500000001 837.2987155843123 L 890.6796875000001 834.3800534997229 L 895.828125 831.0505004659173 L 900.9765625 827.2978092645028 L 906.125 823.111096521887 L 911.2734375 818.480930072146 L 916.421875 813.3994053281926 L 921.5703125000001 807.8602097450879 L 926.7187500000001 801.8586745967536 L 931.8671875 795.3918134371104 L 937.015625 788.4583467764429 L 942.1640625 781.0587126710899 L 947.3125 773.1950630966912 L 952.4609375 764.8712461494505 L 957.6093750000001 756.0927742933744 L 962.7578125 746.8667790414645 L 967.90625 737.2019526226145 L 970.4804687500001 732.2081036602484 L 973.0546875000001 727.1084773409589 L 975.62890625 721.9045658048485 L 978.203125 716.5979434781425 L 980.7773437500001 711.1902639512775 L 983.3515625000001 705.6832567193051 L 985.92578125 700.0787237941433 L 988.5 694.3785361985115 L 991.07421875 688.584630351665 L 993.6484375000001 682.6990043572725 L 996.2226562500001 676.7237142039875 L 998.796875 670.6608698894166 L 1001.37109375 664.5126314783055 L 1003.9453125 658.2812051058498 L 1006.5195312500001 651.9688389370649 L 1009.0937500000001 645.577819093161 L 1011.66796875 639.1104655558279 L 1014.2421875 632.5691280602493 L 1016.81640625 625.9561819875732 L 1019.3906250000001 619.2740242673876 L 1021.96484375 612.5250693005898 L 1024.5390625 605.7117449128039 L 1027.11328125 598.8364883482611 L 1029.6875 591.9017423137608 L 1032.26171875 584.909951082029 L 1034.8359375 577.8635566634523 L 1037.41015625 570.7649950547857 L 1039.984375 563.6166925730677 L 1042.55859375 556.4210622825344 L 1045.1328125000002 549.1805005219178 L 1047.70703125 541.8973835390535 L 1050.28125 534.5740642392532 L 1052.85546875 527.212869053435 L 1055.4296875 519.8160949314934 L 1058.0039062500002 512.3860064659056 L 1060.578125 504.92483315006604 L 1063.15234375 497.4347667753152 L 1065.7265625 489.9179589701368 L 1068.30078125 482.3765188844595 L 1070.875 474.8125110215056 L 1073.44921875 467.22795321910763 L 1076.0234375 459.6248147819223 L 1078.59765625 452.00501476545577 L 1081.1718750000002 444.3704204123476 L 1083.74609375 436.722845740871 L 1086.3203125 429.0640502851437 L 1088.89453125 421.39573798610803 L 1091.46875 413.71955623187665 L 1094.0429687500002 406.03709504565364 L 1096.6171875 398.3498864190172 L 1099.19140625 390.6594037879807 L 1101.765625 382.96706164889173 L 1104.33984375 375.27421531087174 L 1106.9140625 367.5821607812019 L 1109.48828125 359.89213477974795 L 1112.0625 352.2053148782608 L 1114.63671875 344.52281976011665 L 1117.2109375 336.8457095958574 L 1119.78515625 329.17498652967515 L 1122.359375 321.5115952718085 L 1124.93359375 313.8564237916685 L 1127.5078125 306.2103041063675 L 1130.0820312500002 298.57401315923255 L 1132.65625 290.94827378277995 L 1135.23046875 283.33375574058067 L 1137.8046875 275.7310768423997 L 1140.37890625 268.1408041269599 L 1142.953125 260.56345510670326 L 1145.52734375 252.9994990689213 L 1148.1015625 245.44935842768632 L 1150.67578125 237.9134101210492 L 1153.25 230.39198704806586 L 1155.82421875 222.88537954029255 L 1158.3984375 215.39383686249937 L 1160.97265625 207.91756873747977 L 1163.546875 200.45674688995223 L 1166.1210937500002 193.01150660471126 L 1168.6953125 185.58194829433808 L 1171.26953125 178.16813907194057 L 1173.84375 170.77011432458778 L 1176.41796875 163.38787928326303 L 1178.9921875 156.0214105853736 L 1181.56640625 148.67065782603902 L 1184.140625 141.33554509459054 L 1186.71484375 134.01597249290683 L 1189.2890625 126.71181763243612 L 1191.86328125 119.42293710695287 L 1194.4375 112.14916793830798 L 1197.01171875 104.89032899265987 L 1199.5859375 97.64622236485218 L 1202.16015625 90.41663472884534 L 1204.734375 83.20133865229741 L 1207.30859375 76.00009387358898 L 1209.8828125 68.8126485398086 L 1212.45703125 61.63874040437918 L 1215.0312500000002 54.47809798322294 L 1217.60546875 47.330441668530625 L 1220.1796875 40.195484799386236 L 1222.75390625 33.07293468867192 L 1225.328125 25.962493605835675 L 1227.90234375 18.863859715270905 L 1230.4765625 11.776727970203638 L 1233.05078125 4.700790962134079 L 1235.625 -2.364260273998525 L 1238.19921875 -9.418735498618389" stroke-opacity="0.6980392156862745" stroke-linecap="round" stroke-linejoin="round" stroke-miterlimit="10" stroke-width="2.5"/><text fill="rgb(0,100,0)" stroke="none" font-family="geogebra-sans-serif, sans-serif" font-size="16px" font-style="normal" font-weight="normal" text-decoration="normal" x="85" y="787" text-anchor="start" dominant-baseline="alphabetic" fill-opacity="1">GELU</text><path fill="none" stroke="rgb(0,0,255)" paint-order="fill stroke markers" d=" M 0 794.767603521585 L 5.1484375 794.8069003174006 L 10.296875 794.8476585325312 L 15.4453125 794.8899307125531 L 20.593750000000114 794.933771196615 L 25.7421875 794.9792361733412 L 30.890625 795.02638373816 L 36.0390625 795.0752739520747 L 41.1875 795.1259689018902 L 46.3359375 795.1785327619082 L 51.484375000000114 795.2330318571003 L 56.632812500000114 795.2895347277687 L 61.78125 795.3481121956991 L 66.9296875 795.4088374318105 L 72.078125 795.4717860253013 L 77.2265625 795.5370360542903 L 82.375 795.6046681579461 L 87.52343750000011 795.6747656100961 L 92.671875 795.747414394301 L 97.8203125 795.8227032803777 L 102.96875 795.9007239023474 L 108.1171875 795.9815708377827 L 113.265625 796.0653416885184 L 118.4140625 796.1521371626899 L 123.56250000000011 796.2420611580504 L 128.7109375 796.3352208465172 L 133.859375 796.4317267598855 L 139.0078125 796.531692876641 L 144.15625 796.6352367097974 L 149.3046875 796.7424793956679 L 154.453125 796.8535457834785 L 159.6015625000001 796.968564525712 L 164.75 797.0876681690683 L 169.8984375 797.210993245904 L 175.046875 797.3386803660107 L 180.1953125 797.4708743085713 L 185.34375 797.6077241141176 L 190.4921875 797.749383176302 L 195.6406250000001 797.8960093332704 L 200.7890625 798.0477649584119 L 205.9375 798.2048170502349 L 211.0859375 798.3673373211019 L 216.234375 798.5355022845321 L 221.3828125000001 798.7094933407512 L 226.53125 798.8894968601513 L 231.6796875000001 799.0757042642856 L 236.828125 799.2683121040028 L 241.9765625 799.4675221342862 L 247.125 799.673541385337 L 252.2734375 799.8865822293981 L 257.4218750000001 800.1068624427852 L 262.5703125 800.3346052625457 L 267.71875 800.5700394371255 L 272.8671875 800.8133992703819 L 278.015625 801.0649246582287 L 283.1640625 801.3248611171535 L 288.3125 801.5934598037899 L 293.4609375000001 801.8709775246755 L 298.609375 802.1576767352655 L 303.7578125 802.4538255272068 L 308.90625 802.7596976028162 L 314.0546875 803.0755722356316 L 319.203125 803.4017342158378 L 324.3515625 803.7384737792858 L 329.5000000000001 804.0860865187469 L 334.6484375 804.4448732759591 L 339.796875 804.8151400129286 L 344.9453125 805.1971976608653 L 350.09375 805.5913619450236 L 355.2421875 805.9979531836258 L 360.390625 806.4172960589353 L 365.5390625000001 806.8497193584359 L 370.6875 807.2955556839604 L 375.8359375 807.7551411264913 L 380.984375 808.2288149042299 L 386.1328125 808.7169189614068 L 391.2812500000001 809.2197975251687 L 396.4296875 809.7377966177444 L 401.5781250000001 810.2712635209496 L 406.7265625 810.8205461899486 L 411.875 811.3859926130415 L 417.0234375 811.9679501140985 L 422.171875 812.5667645941094 L 427.3203125000001 813.1827797081634 L 432.46875 813.816335974021 L 437.61718750000006 814.4677698082825 L 442.76562500000006 815.1374124860097 L 447.91406250000006 815.8255890194994 L 453.0625 816.5326169517649 L 458.2109375 817.2588050601349 L 463.35937500000006 818.0044519652434 L 468.5078125 818.7698446405554 L 473.65625 819.555256817453 L 478.80468750000006 820.3609472808025 L 483.95312500000006 821.187158049828 L 489.1015625 822.0341124390453 L 494.25 822.9020129939573 L 499.3984375 823.7910392961782 L 504.54687500000006 824.7013456326576 L 509.69531250000006 825.633058523702 L 514.84375 826.5862741045548 L 519.9921875 827.561055355411 L 525.140625 828.5574291748815 L 530.2890625 829.5753832921376 L 535.4375 830.6148630132194 L 540.5859375 831.6757677973148 L 545.734375 832.7579476592125 L 550.8828125 833.8611993945974 L 556.03125 834.9852626254121 L 561.1796875 836.1298156631516 L 566.328125 837.2944711886994 L 571.4765625 838.4787717481677 L 576.625 839.682185065164 L 581.7734375 840.9040991709978 L 586.921875 842.1438173555587 L 592.0703125 843.4005529429577 L 597.21875 844.6734238975249 L 602.3671875 845.9614472674185 L 607.515625 847.2635334749199 L 612.6640625 848.5784804644693 L 617.8125 849.9049677216602 L 622.9609375 851.2415501787302 L 628.109375 852.5866520245977 L 633.2578125 853.9385604401664 L 638.40625 855.2954192824732 L 643.5546875 856.6552227442681 L 648.703125 858.0158090187913 L 653.8515625 859.3748540028292 L 659 860.7298650745838 L 664.1484375 862.0781749864472 L 669.296875 863.4169359164175 L 674.4453125 864.7431137255967 L 679.5937500000001 866.0534824729252 L 684.7421875 867.3446192420165 L 689.890625 868.6128993385834 L 695.0390625 869.8544919204633 L 700.1875 871.0653561255876 L 705.3359375 872.2412377663275 L 710.484375 873.3776666614277 L 715.6328125000001 874.4699546791262 L 720.78125 875.5131945669639 L 725.9296875 876.5022596451464 L 731.078125 877.431804441017 L 736.2265625 878.296266342166 L 741.375 879.0898683448294 L 746.5234375000001 879.8066229724335 L 751.671875 880.440337436335 L 756.8203125 880.9846201069038 L 761.96875 881.4328883580196 L 767.1171875 881.7783778417429 L 772.265625 882.0141532423256 L 777.4140625 882.1331205498001 L 782.5625000000001 882.1280408831292 L 787.7109375 881.9915458812987 L 792.859375 881.7161546678337 L 798.0078125 881.2942923800725 L 803.15625 880.7183102392196 L 808.3046875 879.9805071208445 L 813.453125 879.0731525682486 L 818.6015625000001 877.9885111731581 L 823.75 876.718868229749 L 828.8984375 875.2565565492915 L 834.046875 873.5939843040187 L 839.1953125 871.723663750441 L 844.34375 869.6382406645934 L 849.4921875 867.3305243049232 L 854.6406250000001 864.7935177030613 L 859.7890625 862.0204480688953 L 864.9375 859.0047970845276 L 870.0859375 855.7403308521524 L 875.234375 852.221129253946 L 880.3828125 848.441614477954 L 885.5312500000001 844.3965784629355 L 890.6796875000001 840.0812090173252 L 895.828125 835.4911143730196 L 900.9765625 830.622345943638 L 906.125 825.471419069216 L 911.2734375 820.035331544883 L 916.421875 814.3115797497873 L 921.5703125000001 808.2981722141371 L 926.7187500000001 801.9936404864245 L 931.8671875 795.3970471893361 L 937.015625 788.5079911811289 L 942.1640625 781.3266097688935 L 947.3125 773.8535779506717 L 952.4609375 766.0901046943177 L 957.6093750000001 758.037926291792 L 962.7578125 749.6992968577218 L 967.90625 741.0769760700625 L 973.0546875000001 732.1742142780992 L 978.203125 722.9947351283523 L 983.3515625000001 713.5427158818837 L 988.5 703.8227656166601 L 993.6484375000001 693.8399015257638 L 996.2226562500001 688.7515500470239 L 998.796875 683.5995235361984 L 1001.37109375 678.3845523845976 L 1003.9453125 673.1073874836104 L 1006.5195312500001 667.7687993245453 L 1009.0937500000001 662.3695770854815 L 1011.66796875 656.9105277070637 L 1014.2421875 651.3924749591556 L 1016.81640625 645.8162585002659 L 1019.3906250000001 640.1827329316186 L 1021.96484375 634.4927668477326 L 1024.5390625 628.747241885324 L 1027.11328125 622.9470517723273 L 1029.6875 617.0931013787649 L 1032.26171875 611.1863057711703 L 1034.8359375 605.2275892722073 L 1037.41015625 599.2178845270728 L 1039.984375 593.1581315782232 L 1042.55859375 587.0492769498896 L 1045.1328125000002 580.8922727437941 L 1047.70703125 574.6880757474095 L 1050.28125 568.4376465560351 L 1052.85546875 562.1419487098999 L 1055.4296875 555.801947847419 L 1058.0039062500002 549.4186108756699 L 1060.578125 542.9929051590796 L 1063.15234375 536.525797727231 L 1065.7265625 530.0182545026435 L 1068.30078125 523.4712395492817 L 1070.875 516.8857143425006 L 1073.44921875 510.2626370610423 L 1076.0234375 503.60296190164587 L 1078.59765625 496.9076384167416 L 1081.1718750000002 490.1776108756506 L 1083.74609375 483.41381764963216 L 1086.3203125 476.61719062105595 L 1088.89453125 469.7886546169232 L 1091.46875 462.9291268668785 L 1094.0429687500002 456.03951648581483 L 1096.6171875 449.12072398110587 L 1099.19140625 442.17364078444103 L 1101.765625 435.1991488082029 L 1104.33984375 428.1981200262504 L 1106.9140625 421.17141607894763 L 1109.48828125 414.11988790221585 L 1112.0625 407.0443753803589 L 1114.63671875 399.9457070223534 L 1117.2109375 392.8246996612741 L 1119.78515625 385.68215817648394 L 1122.359375 378.5188752381811 L 1124.93359375 371.33563107388 L 1127.5078125 364.13319325635496 L 1130.0820312500002 356.91231651257294 L 1132.65625 349.6737425531032 L 1135.23046875 342.4181999214779 L 1137.8046875 335.14640386296924 L 1140.37890625 327.8590562122109 L 1142.953125 320.55684529910366 L 1145.52734375 313.24044587241735 L 1148.1015625 305.9105190405035 L 1150.67578125 298.5677122285138 L 1153.25 291.2126591515274 L 1155.82421875 283.8459798029795 L 1158.3984375 276.4682804577784 L 1160.97265625 269.080153689516 L 1163.546875 261.6821784011498 L 1166.1210937500002 254.27491986856353 L 1168.6953125 246.8589297964046 L 1171.26953125 239.43474638560065 L 1173.84375 232.00289441197754 L 1176.41796875 224.56388531538607 L 1178.9921875 217.11821729877727 L 1181.56640625 209.6663754366558 L 1184.140625 202.20883179237 L 1186.71484375 194.7460455436874 L 1189.2890625 187.27846311613087 L 1191.86328125 179.8065183235634 L 1194.4375 172.3306325155055 L 1197.01171875 164.85121473071013 L 1199.5859375 157.3686618565 L 1202.16015625 149.8833587934173 L 1204.734375 142.3956786247295 L 1207.30859375 134.90598279035294 L 1209.8828125 127.41462126478336 L 1212.45703125 119.92193273861596 L 1215.0312500000002 112.4282448032659 L 1217.60546875 104.93387413851656 L 1220.1796875 97.43912670252371 L 1222.75390625 89.94429792393885 L 1225.328125 82.4496728958037 L 1227.90234375 74.95552657090923 L 1230.4765625 67.46212395829991 L 1233.05078125 59.96972032064809 L 1235.625 52.478561372204126 L 1238.19921875 44.98888347706634 L 1240.7734375 37.500913847518746 L 1243.34765625 30.01487074219358 L 1245.921875 22.530963663843067 L 1248.49609375 15.049393556493328 L 1251.0703125000002 7.570353001790181 L 1253.64453125 0.09402641434212455 L 1256.21875 -7.379409764116531" stroke-opacity="0.6980392156862745" stroke-linecap="round" stroke-linejoin="round" stroke-miterlimit="10" stroke-width="2.5"/><text fill="rgb(0,0,255)" stroke="none" font-family="geogebra-sans-serif, sans-serif" font-size="16px" font-style="normal" font-weight="normal" text-decoration="normal" x="72" y="838" text-anchor="start" dominant-baseline="alphabetic" fill-opacity="1">Swish</text></g></g></svg>