<svg version="1.1" xmlns="http://www.w3.org/2000/svg" xmlns:xlink="http://www.w3.org/1999/xlink" width="1318" height="890"><defs><clipPath id="QqtIJrCmQTAH"><path fill="none" stroke="none" d=" M 0 0 L 1318 0 L 1318 890 L 0 890 L 0 0 Z"/></clipPath></defs><g transform="scale(1,1)" clip-path="url(#QqtIJrCmQTAH)"><g><rect fill="rgb(255,255,255)" stroke="none" x="0" y="0" width="1319" height="891" fill-opacity="1"/><path fill="none" stroke="rgb(180,179,186)" paint-order="fill stroke markers" d=" M 33.5 0.5 L 33.5 890.5 M 33.5 0.5 L 33.5 890.5 M 93.5 0.5 L 93.5 890.5 M 153.5 0.5 L 153.5 890.5 M 213.5 0.5 L 213.5 890.5 M 273.5 0.5 L 273.5 890.5 M 333.5 0.5 L 333.5 890.5 M 393.5 0.5 L 393.5 890.5 M 453.5 0.5 L 453.5 890.5 M 513.5 0.5 L 513.5 890.5 M 573.5 0.5 L 573.5 890.5 M 633.5 0.5 L 633.5 890.5 M 693.5 0.5 L 693.5 890.5 M 753.5 0.5 L 753.5 890.5 M 813.5 0.5 L 813.5 890.5 M 873.5 0.5 L 873.5 890.5 M 993.5 0.5 L 993.5 890.5 M 1053.5 0.5 L 1053.5 890.5 M 1113.5 0.5 L 1113.5 890.5 M 1173.5 0.5 L 1173.5 890.5 M 1232.5 0.5 L 1232.5 890.5 M 1292.5 0.5 L 1292.5 890.5" stroke-opacity="1" stroke-linecap="round" stroke-linejoin="round" stroke-miterlimit="10"/><path fill="none" stroke="rgb(180,179,186)" paint-order="fill stroke markers" d="" stroke-opacity="0.23529411764705882" stroke-linecap="round" stroke-linejoin="round" stroke-miterlimit="10"/><path fill="none" stroke="rgb(180,179,186)" paint-order="fill stroke markers" d=" M 0.5 35.5 L 1318.5 35.5 M 0.5 35.5 L 1318.5 35.5 M 0.5 105.5 L 1318.5 105.5 M 0.5 175.5 L 1318.5 175.5 M 0.5 246.5 L 1318.5 246.5 M 0.5 316.5 L 1318.5 316.5 M 0.5 386.5 L 1318.5 386.5 M 0.5 457.5 L 1318.5 457.5 M 0.5 527.5 L 1318.5 527.5 M 0.5 597.5 L 1318.5 597.5 M 0.5 668.5 L 1318.5 668.5 M 0.5 738.5 L 1318.5 738.5 M 0.5 808.5 L 1318.5 808.5" stroke-opacity="1" stroke-linecap="round" stroke-linejoin="round" stroke-miterlimit="10"/><path fill="none" stroke="rgb(180,179,186)" paint-order="fill stroke markers" d="" stroke-opacity="0.23529411764705882" stroke-linecap="round" stroke-linejoin="round" stroke-miterlimit="10"/><path fill="none" stroke="rgb(28,28,31)" paint-order="fill stroke markers" d=" M 933.5 2.5 L 933.5 890.5" stroke-opacity="1" stroke-miterlimit="10"/><path fill="none" stroke="rgb(28,28,31)" paint-order="fill stroke markers" d=" M 933.5 1.5 L 929.5 5.5" stroke-opacity="1" stroke-miterlimit="10"/><path fill="none" stroke="rgb(28,28,31)" paint-order="fill stroke markers" d=" M 933.5 1.5 L 937.5 5.5" stroke-opacity="1" stroke-miterlimit="10"/><path fill="none" stroke="rgb(28,28,31)" paint-order="fill stroke markers" d=" M 0.5 879.5 L 1316.5 879.5" stroke-opacity="1" stroke-miterlimit="10"/><path fill="none" stroke="rgb(28,28,31)" paint-order="fill stroke markers" d=" M 1317.5 879.5 L 1313.5 875.5" stroke-opacity="1" stroke-miterlimit="10"/><path fill="none" stroke="rgb(28,28,31)" paint-order="fill stroke markers" d=" M 1317.5 879.5 L 1313.5 883.5" stroke-opacity="1" stroke-miterlimit="10"/><text fill="rgb(28,28,31)" stroke="none" font-family="geogebra-sans-serif, sans-serif" font-size="12px" font-style="normal" font-weight="normal" text-decoration="normal" x="22" y="884" text-anchor="start" dominant-baseline="alphabetic" fill-opacity="1">–7.5</text><text fill="rgb(28,28,31)" stroke="none" font-family="geogebra-sans-serif, sans-serif" font-size="12px" font-style="normal" font-weight="normal" text-decoration="normal" x="88" y="884" text-anchor="start" dominant-baseline="alphabetic" fill-opacity="1">–7</text><text fill="rgb(28,28,31)" stroke="none" font-family="geogebra-sans-serif, sans-serif" font-size="12px" font-style="normal" font-weight="normal" text-decoration="normal" x="142" y="884" text-anchor="start" dominant-baseline="alphabetic" fill-opacity="1">–6.5</text><text fill="rgb(28,28,31)" stroke="none" font-family="geogebra-sans-serif, sans-serif" font-size="12px" font-style="normal" font-weight="normal" text-decoration="normal" x="208" y="884" text-anchor="start" dominant-baseline="alphabetic" fill-opacity="1">–6</text><text fill="rgb(28,28,31)" stroke="none" font-family="geogebra-sans-serif, sans-serif" font-size="12px" font-style="normal" font-weight="normal" text-decoration="normal" x="262" y="884" text-anchor="start" dominant-baseline="alphabetic" fill-opacity="1">–5.5</text><text fill="rgb(28,28,31)" stroke="none" font-family="geogebra-sans-serif, sans-serif" font-size="12px" font-style="normal" font-weight="normal" text-decoration="normal" x="328" y="884" text-anchor="start" dominant-baseline="alphabetic" fill-opacity="1">–5</text><text fill="rgb(28,28,31)" stroke="none" font-family="geogebra-sans-serif, sans-serif" font-size="12px" font-style="normal" font-weight="normal" text-decoration="normal" x="382" y="884" text-anchor="start" dominant-baseline="alphabetic" fill-opacity="1">–4.5</text><text fill="rgb(28,28,31)" stroke="none" font-family="geogebra-sans-serif, sans-serif" font-size="12px" font-style="normal" font-weight="normal" text-decoration="normal" x="448" y="884" text-anchor="start" dominant-baseline="alphabetic" fill-opacity="1">–4</text><text fill="rgb(28,28,31)" stroke="none" font-family="geogebra-sans-serif, sans-serif" font-size="12px" font-style="normal" font-weight="normal" text-decoration="normal" x="502" y="884" text-anchor="start" dominant-baseline="alphabetic" fill-opacity="1">–3.5</text><text fill="rgb(28,28,31)" stroke="none" font-family="geogebra-sans-serif, sans-serif" font-size="12px" font-style="normal" font-weight="normal" text-decoration="normal" x="568" y="884" text-anchor="start" dominant-baseline="alphabetic" fill-opacity="1">–3</text><text fill="rgb(28,28,31)" stroke="none" font-family="geogebra-sans-serif, sans-serif" font-size="12px" font-style="normal" font-weight="normal" text-decoration="normal" x="622" y="884" text-anchor="start" dominant-baseline="alphabetic" fill-opacity="1">–2.5</text><text fill="rgb(28,28,31)" stroke="none" font-family="geogebra-sans-serif, sans-serif" font-size="12px" font-style="normal" font-weight="normal" text-decoration="normal" x="688" y="884" text-anchor="start" dominant-baseline="alphabetic" fill-opacity="1">–2</text><text fill="rgb(28,28,31)" stroke="none" font-family="geogebra-sans-serif, sans-serif" font-size="12px" font-style="normal" font-weight="normal" text-decoration="normal" x="742" y="884" text-anchor="start" dominant-baseline="alphabetic" fill-opacity="1">–1.5</text><text fill="rgb(28,28,31)" stroke="none" font-family="geogebra-sans-serif, sans-serif" font-size="12px" font-style="normal" font-weight="normal" text-decoration="normal" x="808" y="884" text-anchor="start" dominant-baseline="alphabetic" fill-opacity="1">–1</text><text fill="rgb(28,28,31)" stroke="none" font-family="geogebra-sans-serif, sans-serif" font-size="12px" font-style="normal" font-weight="normal" text-decoration="normal" x="862" y="884" text-anchor="start" dominant-baseline="alphabetic" fill-opacity="1">–0.5</text><text fill="rgb(28,28,31)" stroke="none" font-family="geogebra-sans-serif, sans-serif" font-size="12px" font-style="normal" font-weight="normal" text-decoration="normal" x="985" y="884" text-anchor="start" dominant-baseline="alphabetic" fill-opacity="1">0.5</text><text fill="rgb(28,28,31)" stroke="none" font-family="geogebra-sans-serif, sans-serif" font-size="12px" font-style="normal" font-weight="normal" text-decoration="normal" x="1051" y="884" text-anchor="start" dominant-baseline="alphabetic" fill-opacity="1">1</text><text fill="rgb(28,28,31)" stroke="none" font-family="geogebra-sans-serif, sans-serif" font-size="12px" font-style="normal" font-weight="normal" text-decoration="normal" x="1105" y="884" text-anchor="start" dominant-baseline="alphabetic" fill-opacity="1">1.5</text><text fill="rgb(28,28,31)" stroke="none" font-family="geogebra-sans-serif, sans-serif" font-size="12px" font-style="normal" font-weight="normal" text-decoration="normal" x="1171" y="884" text-anchor="start" dominant-baseline="alphabetic" fill-opacity="1">2</text><text fill="rgb(28,28,31)" stroke="none" font-family="geogebra-sans-serif, sans-serif" font-size="12px" font-style="normal" font-weight="normal" text-decoration="normal" x="1224" y="884" text-anchor="start" dominant-baseline="alphabetic" fill-opacity="1">2.5</text><text fill="rgb(28,28,31)" stroke="none" font-family="geogebra-sans-serif, sans-serif" font-size="12px" font-style="normal" font-weight="normal" text-decoration="normal" x="1290" y="884" text-anchor="start" dominant-baseline="alphabetic" fill-opacity="1">3</text><text fill="rgb(28,28,31)" stroke="none" font-family="geogebra-sans-serif, sans-serif" font-size="12px" font-style="normal" font-weight="normal" text-decoration="normal" x="909" y="813" text-anchor="start" dominant-baseline="alphabetic" fill-opacity="1">0.2</text><text fill="rgb(28,28,31)" stroke="none" font-family="geogebra-sans-serif, sans-serif" font-size="12px" font-style="normal" font-weight="normal" text-decoration="normal" x="909" y="743" text-anchor="start" dominant-baseline="alphabetic" fill-opacity="1">0.4</text><text fill="rgb(28,28,31)" stroke="none" font-family="geogebra-sans-serif, sans-serif" font-size="12px" font-style="normal" font-weight="normal" text-decoration="normal" x="909" y="673" text-anchor="start" dominant-baseline="alphabetic" fill-opacity="1">0.6</text><text fill="rgb(28,28,31)" stroke="none" font-family="geogebra-sans-serif, sans-serif" font-size="12px" font-style="normal" font-weight="normal" text-decoration="normal" x="909" y="602" text-anchor="start" dominant-baseline="alphabetic" fill-opacity="1">0.8</text><text fill="rgb(28,28,31)" stroke="none" font-family="geogebra-sans-serif, sans-serif" font-size="12px" font-style="normal" font-weight="normal" text-decoration="normal" x="919" y="532" text-anchor="start" dominant-baseline="alphabetic" fill-opacity="1">1</text><text fill="rgb(28,28,31)" stroke="none" font-family="geogebra-sans-serif, sans-serif" font-size="12px" font-style="normal" font-weight="normal" text-decoration="normal" x="909" y="462" text-anchor="start" dominant-baseline="alphabetic" fill-opacity="1">1.2</text><text fill="rgb(28,28,31)" stroke="none" font-family="geogebra-sans-serif, sans-serif" font-size="12px" font-style="normal" font-weight="normal" text-decoration="normal" x="909" y="391" text-anchor="start" dominant-baseline="alphabetic" fill-opacity="1">1.4</text><text fill="rgb(28,28,31)" stroke="none" font-family="geogebra-sans-serif, sans-serif" font-size="12px" font-style="normal" font-weight="normal" text-decoration="normal" x="909" y="321" text-anchor="start" dominant-baseline="alphabetic" fill-opacity="1">1.6</text><text fill="rgb(28,28,31)" stroke="none" font-family="geogebra-sans-serif, sans-serif" font-size="12px" font-style="normal" font-weight="normal" text-decoration="normal" x="909" y="251" text-anchor="start" dominant-baseline="alphabetic" fill-opacity="1">1.8</text><text fill="rgb(28,28,31)" stroke="none" font-family="geogebra-sans-serif, sans-serif" font-size="12px" font-style="normal" font-weight="normal" text-decoration="normal" x="919" y="180" text-anchor="start" dominant-baseline="alphabetic" fill-opacity="1">2</text><text fill="rgb(28,28,31)" stroke="none" font-family="geogebra-sans-serif, sans-serif" font-size="12px" font-style="normal" font-weight="normal" text-decoration="normal" x="909" y="110" text-anchor="start" dominant-baseline="alphabetic" fill-opacity="1">2.2</text><text fill="rgb(28,28,31)" stroke="none" font-family="geogebra-sans-serif, sans-serif" font-size="12px" font-style="normal" font-weight="normal" text-decoration="normal" x="909" y="40" text-anchor="start" dominant-baseline="alphabetic" fill-opacity="1">2.4</text><path fill="none" stroke="rgb(153,51,255)" paint-order="fill stroke markers" d=" M 1.0000000000001137 879.1872289618973 L 1.0000000000001137 879.1884591576221 L 1.0000000000001137 879.1872289618973 L 2.0000000000001137 879.1859884705061 L 2.0000000000001137 879.1859884705061 L 3 879.1847375973196 L 3 879.1847375973196 L 4.000000000000114 879.1834762554888 L 4.000000000000114 879.1834762554888 L 5.000000000000114 879.182204357439 L 5.000000000000114 879.182204357439 L 6 879.1809218148633 L 6 879.1809218148633 L 7 879.1796285387171 L 7 879.1796285387171 L 8.000000000000114 879.1783244392111 L 8.000000000000114 879.1783244392111 L 9 879.177009425806 L 9 879.177009425806 L 10 879.1756834072055 L 10 879.1756834072055 L 11.000000000000114 879.1743462913505 L 11.000000000000114 879.1743462913505 L 12.000000000000114 879.1729979854123 L 12.000000000000114 879.1729979854123 L 13 879.1716383957865 L 13 879.1716383957865 L 14.000000000000114 879.1702674280867 L 14.000000000000114 879.1702674280867 L 15.000000000000114 879.1688849871373 L 15.000000000000114 879.1688849871373 L 16 879.1674909769675 L 16 879.1674909769675 L 17 879.1660853008048 L 17 879.1660853008048 L 18.000000000000114 879.1646678610673 L 18.000000000000114 879.1646678610673 L 19.000000000000114 879.1632385593582 L 19.000000000000114 879.1632385593582 L 20 879.1617972964584 L 20 879.1617972964584 L 21.000000000000114 879.1603439723197 L 21.000000000000114 879.1603439723197 L 22.000000000000114 879.1588784860577 L 22.000000000000114 879.1588784860577 L 23 879.1574007359451 L 23 879.1574007359451 L 24 879.1559106194048 L 24 879.1559106194048 L 25.000000000000114 879.1544080330025 L 25.000000000000114 879.1544080330025 L 26 879.1528928724393 L 26 879.1528928724393 L 27 879.1513650325454 L 27 879.1513650325454 L 28.000000000000114 879.1498244072719 L 28.000000000000114 879.1498244072719 L 29.000000000000114 879.148270889684 L 29.000000000000114 879.148270889684 L 30 879.1467043719534 L 30 879.1467043719534 L 31.000000000000114 879.145124745351 L 31.000000000000114 879.145124745351 L 32.000000000000114 879.1435319002394 L 32.000000000000114 879.1435319002394 L 33 879.1419257260648 L 33 879.1419257260648 L 34 879.1403061113504 L 34 879.1403061113504 L 35.000000000000114 879.1386729436875 L 35.000000000000114 879.1386729436875 L 36 879.1370261097289 L 36 879.1370261097289 L 37 879.1353654951803 L 37 879.1353654951803 L 38.000000000000114 879.1336909847923 L 38.000000000000114 879.1336909847923 L 39.000000000000114 879.1320024623534 L 39.000000000000114 879.1320024623534 L 40 879.1302998106806 L 40 879.1302998106806 L 41.000000000000114 879.1285829116126 L 41.000000000000114 879.1285829116126 L 42.000000000000114 879.126851646001 L 42.000000000000114 879.126851646001 L 43 879.125105893702 L 43 879.125105893702 L 44 879.1233455335683 L 44 879.1233455335683 L 45.000000000000114 879.1215704434408 L 45.000000000000114 879.1215704434408 L 46 879.11978050014 L 46 879.11978050014 L 47 879.1179755794577 L 47 879.1179755794577 L 48.000000000000114 879.1161555561483 L 48.000000000000114 879.1161555561483 L 49.000000000000114 879.1143203039198 L 49.000000000000114 879.1143203039198 L 50 879.1124696954261 L 50 879.1124696954261 L 51.000000000000114 879.1106036022568 L 51.000000000000114 879.1106036022568 L 52.000000000000114 879.1087218949299 L 52.000000000000114 879.1087218949299 L 53 879.1068244428814 L 53 879.1068244428814 L 54 879.1049111144573 L 54 879.1049111144573 L 55.000000000000114 879.1029817769041 L 55.000000000000114 879.1029817769041 L 56.000000000000114 879.1010362963599 L 56.000000000000114 879.1010362963599 L 57 879.0990745378446 L 57 879.0990745378446 L 58.000000000000114 879.0970963652514 L 58.000000000000114 879.0970963652514 L 59.000000000000114 879.0951016413366 L 59.000000000000114 879.0951016413366 L 60 879.0930902277111 L 60 879.0930902277111 L 61 879.0910619848295 L 61 879.0910619848295 L 62.000000000000114 879.089016771982 L 62.000000000000114 879.089016771982 L 63 879.0869544472837 L 63 879.0869544472837 L 64 879.0848748676648 L 64 879.0848748676648 L 65.00000000000011 879.0827778888615 L 65.00000000000011 879.0827778888615 L 66.00000000000011 879.0806633654054 L 66.00000000000011 879.0806633654054 L 67 879.0785311506133 L 67 879.0785311506133 L 68.00000000000011 879.0763810965782 L 68.00000000000011 879.0763810965782 L 69.00000000000011 879.0742130541577 L 69.00000000000011 879.0742130541577 L 70 879.0720268729646 L 70 879.0720268729646 L 71 879.0698224013563 L 71 879.0698224013563 L 72.00000000000011 879.0675994864243 L 72.00000000000011 879.0675994864243 L 73 879.0653579739842 L 73 879.0653579739842 L 74 879.0630977085636 L 74 879.0630977085636 L 75.00000000000011 879.0608185333934 L 75.00000000000011 879.0608185333934 L 76.00000000000011 879.0585202903958 L 76.00000000000011 879.0585202903958 L 77 879.056202820173 L 77 879.056202820173 L 78.00000000000011 879.0538659619974 L 78.00000000000011 879.0538659619974 L 79.00000000000011 879.0515095538 L 79.00000000000011 879.0515095538 L 80 879.049133432159 L 80 879.049133432159 L 81 879.0467374322888 L 81 879.0467374322888 L 82.00000000000011 879.0443213880285 L 82.00000000000011 879.0443213880285 L 83 879.0418851318309 L 83 879.0418851318309 L 84 879.0394284947503 L 84 879.0394284947503 L 85.00000000000011 879.0369513064315 L 85.00000000000011 879.0369513064315 L 86.00000000000011 879.0344533950976 L 86.00000000000011 879.0344533950976 L 87 879.0319345875384 L 87 879.0319345875384 L 88 879.0293947090985 L 88 879.0293947090985 L 89.00000000000011 879.0268335836653 L 89.00000000000011 879.0268335836653 L 90 879.0242510336567 L 90 879.0242510336567 L 91 879.021646880009 L 91 879.021646880009 L 92.00000000000011 879.0190209421646 L 92.00000000000011 879.0190209421646 L 93.00000000000011 879.0163730380597 L 93.00000000000011 879.0163730380597 L 94 879.0137029841114 L 94 879.0137029841114 L 95.00000000000011 879.0110105952058 L 95.00000000000011 879.0110105952058 L 96.00000000000011 879.0082956846841 L 96.00000000000011 879.0082956846841 L 97 879.0055580643309 L 97 879.0055580643309 L 98 879.0027975443609 L 98 879.0027975443609 L 99.00000000000011 879.0000139334054 L 99.00000000000011 879.0000139334054 L 100 878.9972070384999 L 100 878.9972070384999 L 101 878.9943766650703 L 101 878.9943766650703 L 102.00000000000011 878.9915226169196 L 102.00000000000011 878.9915226169196 L 103.00000000000011 878.9886446962147 L 103.00000000000011 878.9886446962147 L 104 878.9857427034723 L 104 878.9857427034723 L 105.00000000000011 878.982816437546 L 105.00000000000011 878.982816437546 L 106.00000000000011 878.9798656956114 L 106.00000000000011 878.9798656956114 L 107 878.9768902731533 L 107 878.9768902731533 L 108 878.9738899639508 L 108 878.9738899639508 L 109.00000000000011 878.9708645600634 L 109.00000000000011 878.9708645600634 L 110 878.967813851817 L 110 878.967813851817 L 111 878.9647376277892 L 111 878.9647376277892 L 112.00000000000011 878.9616356747949 L 112.00000000000011 878.9616356747949 L 113.00000000000011 878.9585077778714 L 113.00000000000011 878.9585077778714 L 114 878.955353720264 L 114 878.955353720264 L 115 878.9521732834112 L 115 878.9521732834112 L 116.00000000000011 878.9489662469293 L 116.00000000000011 878.9489662469293 L 117 878.9457323885973 L 117 878.9457323885973 L 118 878.9424714843423 L 118 878.9424714843423 L 119.00000000000011 878.9391833082232 L 119.00000000000011 878.9391833082232 L 120 878.9358676324159 L 120 878.9358676324159 L 121 878.9325242271974 L 121 878.9325242271974 L 122.00000000000011 878.9291528609301 L 122.00000000000011 878.9291528609301 L 123.00000000000011 878.9257533000457 L 123.00000000000011 878.9257533000457 L 124 878.9223253090298 L 124 878.9223253090298 L 125 878.9188686504049 L 125 878.9188686504049 L 126.00000000000011 878.9153830847148 L 126.00000000000011 878.9153830847148 L 127 878.9118683705079 L 127 878.9118683705079 L 128 878.9083242643206 L 128 878.9083242643206 L 129.0000000000001 878.904750520661 L 129.0000000000001 878.904750520661 L 130.0000000000001 878.9011468919914 L 130.0000000000001 878.9011468919914 L 131 878.8975131287121 L 131 878.8975131287121 L 132.0000000000001 878.893848979144 L 132.0000000000001 878.893848979144 L 133.0000000000001 878.8901541895107 L 133.0000000000001 878.8901541895107 L 134 878.8864285039224 L 134 878.8864285039224 L 135 878.8826716643574 L 135 878.8826716643574 L 136.0000000000001 878.8788834106448 L 136.0000000000001 878.8788834106448 L 137 878.8750634804467 L 137 878.8750634804467 L 138 878.8712116092402 L 138 878.8712116092402 L 139.0000000000001 878.8673275302989 L 139.0000000000001 878.8673275302989 L 140.0000000000001 878.8634109746756 L 140.0000000000001 878.8634109746756 L 141 878.859461671183 L 141 878.859461671183 L 142.0000000000001 878.8554793463757 L 142.0000000000001 878.8554793463757 L 143.0000000000001 878.8514637245306 L 143.0000000000001 878.8514637245306 L 144 878.8474145276299 L 144 878.8474145276299 L 145 878.8433314753398 L 145 878.8433314753398 L 146.0000000000001 878.8392142849931 L 146.0000000000001 878.8392142849931 L 147 878.8350626715688 L 147 878.8350626715688 L 148 878.8308763476736 L 148 878.8308763476736 L 149.0000000000001 878.826655023521 L 149.0000000000001 878.826655023521 L 150.0000000000001 878.8223984069125 L 150.0000000000001 878.8223984069125 L 151 878.8181062032176 L 151 878.8181062032176 L 152 878.813778115353 L 152 878.813778115353 L 153.0000000000001 878.8094138437631 L 153.0000000000001 878.8094138437631 L 154 878.8050130863987 L 154 878.8050130863987 L 155 878.8005755386972 L 155 878.8005755386972 L 156.0000000000001 878.7961008935613 L 156.0000000000001 878.7961008935613 L 157 878.7915888413382 L 157 878.7915888413382 L 158 878.7870390697985 L 158 878.7870390697985 L 159.0000000000001 878.7824512641148 L 159.0000000000001 878.7824512641148 L 160.0000000000001 878.7778251068402 L 160.0000000000001 878.7778251068402 L 161 878.7731602778866 L 161 878.7731602778866 L 162 878.7684564545035 L 162 878.7684564545035 L 163.0000000000001 878.7637133112548 L 163.0000000000001 878.7637133112548 L 164 878.7589305199976 L 164 878.7589305199976 L 165 878.7541077498597 L 165 878.7541077498597 L 166.0000000000001 878.7492446672164 L 166.0000000000001 878.7492446672164 L 167.0000000000001 878.7443409356686 L 167.0000000000001 878.7443409356686 L 168 878.7393962160191 L 168 878.7393962160191 L 169.0000000000001 878.7344101662503 L 169.0000000000001 878.7344101662503 L 170.0000000000001 878.7293824415004 L 170.0000000000001 878.7293824415004 L 171 878.7243126940398 L 171 878.7243126940398 L 172 878.7192005732478 L 172 878.7192005732478 L 173.0000000000001 878.7140457255883 L 173.0000000000001 878.7140457255883 L 174 878.7088477945864 L 174 878.7088477945864 L 175 878.7036064208035 L 175 878.7036064208035 L 176.0000000000001 878.698321241813 L 176.0000000000001 878.698321241813 L 177.0000000000001 878.6929918921758 L 177.0000000000001 878.6929918921758 L 178 878.6876180034154 L 178 878.6876180034154 L 179.0000000000001 878.6821992039928 L 179.0000000000001 878.6821992039928 L 180.0000000000001 878.6767351192813 L 180.0000000000001 878.6767351192813 L 181 878.6712253715407 L 181 878.6712253715407 L 182 878.665669579892 L 182 878.665669579892 L 183.0000000000001 878.6600673602917 L 183.0000000000001 878.6600673602917 L 184 878.6544183255052 L 184 878.6544183255052 L 185 878.6487220850805 L 185 878.6487220850805 L 186.0000000000001 878.6429782453223 L 186.0000000000001 878.6429782453223 L 187.0000000000001 878.6371864092648 L 187.0000000000001 878.6371864092648 L 188 878.6313461766445 L 188 878.6313461766445 L 189.0000000000001 878.6254571438737 L 189.0000000000001 878.6254571438737 L 190.0000000000001 878.6195189040126 L 190.0000000000001 878.6195189040126 L 191 878.6135310467416 L 191 878.6135310467416 L 192.0000000000001 878.6074931583345 L 192.0000000000001 878.6074931583345 L 193 878.6014048216286 L 193 878.6014048216286 L 194 878.5952656159985 L 194 878.5952656159985 L 195 878.5890751173258 L 195 878.5890751173258 L 196 878.5828328979715 L 196 878.5828328979715 L 197.0000000000001 878.5765385267464 L 197.0000000000001 878.5765385267464 L 198 878.5701915688825 L 198 878.5701915688825 L 199 878.5637915860026 L 199 878.5637915860026 L 200.0000000000001 878.5573381360917 L 200.0000000000001 878.5573381360917 L 201 878.5508307734665 L 201 878.5508307734665 L 202 878.5442690487449 L 202 878.5442690487449 L 203.0000000000001 878.5376525088164 L 203.0000000000001 878.5376525088164 L 204.0000000000001 878.5309806968108 L 204.0000000000001 878.5309806968108 L 205 878.5242531520679 L 205 878.5242531520679 L 206.0000000000001 878.5174694101054 L 206.0000000000001 878.5174694101054 L 207.0000000000001 878.5106290025885 L 207.0000000000001 878.5106290025885 L 208 878.5037314572976 L 208 878.5037314572976 L 209.0000000000001 878.4967762980965 L 209.0000000000001 878.4967762980965 L 210 878.489763044901 L 210 878.489763044901 L 211 878.4826912136448 L 211 878.4826912136448 L 212.0000000000001 878.4755603162486 L 212.0000000000001 878.4755603162486 L 213 878.4683698605859 L 213 878.4683698605859 L 214.0000000000001 878.4611193504506 L 214.0000000000001 878.4611193504506 L 215 878.453808285523 L 215 878.453808285523 L 216 878.4464361613361 L 216 878.4464361613361 L 217.0000000000001 878.4390024692419 L 217.0000000000001 878.4390024692419 L 218 878.4315066963769 L 218 878.4315066963769 L 219 878.4239483256272 L 219 878.4239483256272 L 220.0000000000001 878.4163268355942 L 220.0000000000001 878.4163268355942 L 221 878.4086417005592 L 221 878.4086417005592 L 222 878.4008923904482 L 222 878.4008923904482 L 223.0000000000001 878.3930783707959 L 223.0000000000001 878.3930783707959 L 224.0000000000001 878.3851991027097 L 224.0000000000001 878.3851991027097 L 225 878.3772540428338 L 225 878.3772540428338 L 226.0000000000001 878.3692426433123 L 226.0000000000001 878.3692426433123 L 227.0000000000001 878.3611643517526 L 227.0000000000001 878.3611643517526 L 228 878.353018611188 L 228 878.353018611188 L 229.0000000000001 878.3448048600404 L 229.0000000000001 878.3448048600404 L 230 878.3365225320827 L 230 878.3365225320827 L 231 878.3281710564003 L 231 878.3281710564003 L 232 878.3197498573533 L 232 878.3197498573533 L 233 878.3112583545376 L 233 878.3112583545376 L 234.0000000000001 878.3026959627457 L 234.0000000000001 878.3026959627457 L 235 878.294062091928 L 235 878.294062091928 L 236 878.2853561471524 L 236 878.2853561471524 L 237.0000000000001 878.2765775285653 L 237.0000000000001 878.2765775285653 L 238 878.2677256313509 L 238 878.2677256313509 L 239 878.2587998456903 L 239 878.2587998456903 L 240.0000000000001 878.2497995567217 L 240.0000000000001 878.2497995567217 L 241.0000000000001 878.2407241444977 L 241.0000000000001 878.2407241444977 L 242 878.2315729839456 L 242 878.2315729839456 L 243.0000000000001 878.2223454448239 L 243.0000000000001 878.2223454448239 L 244.0000000000001 878.213040891681 L 244.0000000000001 878.213040891681 L 245 878.2036586838126 L 245 878.2036586838126 L 246.0000000000001 878.1941981752186 L 246.0000000000001 878.1941981752186 L 247 878.1846587145603 L 247 878.1846587145603 L 248 878.1750396451164 L 248 878.1750396451164 L 249.0000000000001 878.1653403047393 L 249.0000000000001 878.1653403047393 L 250 878.155560025811 L 250 878.155560025811 L 251.0000000000001 878.1456981351988 L 251.0000000000001 878.1456981351988 L 252 878.1357539542093 L 252 878.1357539542093 L 253 878.1257267985445 L 253 878.1257267985445 L 254.0000000000001 878.115615978255 L 254.0000000000001 878.115615978255 L 255 878.1054207976949 L 255 878.1054207976949 L 256 878.0951405554747 L 256 878.0951405554747 L 257.0000000000001 878.0847745444148 L 257.0000000000001 878.0847745444148 L 258 878.0743220514988 L 258 878.0743220514988 L 259 878.0637823578257 L 259 878.0637823578257 L 260.0000000000001 878.0531547385618 L 260.0000000000001 878.0531547385618 L 261.0000000000001 878.042438462893 L 261.0000000000001 878.042438462893 L 262 878.0316327939756 L 262 878.0316327939756 L 263.0000000000001 878.020736988888 L 263.0000000000001 878.020736988888 L 264 878.0097502985807 L 264 878.0097502985807 L 265 877.9986719678268 L 265 877.9986719678268 L 266.0000000000001 877.9875012351723 L 266.0000000000001 877.9875012351723 L 267 877.9762373328846 L 267 877.9762373328846 L 268 877.9648794869023 L 268 877.9648794869023 L 269 877.9534269167837 L 269 877.9534269167837 L 270 877.9418788356547 L 270 877.9418788356547 L 271.0000000000001 877.9302344501572 L 271.0000000000001 877.9302344501572 L 272 877.9184929603962 L 272 877.9184929603962 L 273 877.9066535598869 L 273 877.9066535598869 L 274.0000000000001 877.8947154355013 L 274.0000000000001 877.8947154355013 L 275 877.8826777674146 L 275 877.8826777674146 L 276 877.8705397290505 L 276 877.8705397290505 L 277.0000000000001 877.8583004870271 L 277.0000000000001 877.8583004870271 L 278.0000000000001 877.8459592011016 L 278.0000000000001 877.8459592011016 L 279 877.8335150241144 L 279 877.8335150241144 L 280.0000000000001 877.8209671019341 L 280.0000000000001 877.8209671019341 L 281.0000000000001 877.8083145734004 L 281.0000000000001 877.8083145734004 L 282 877.7955565702673 L 282 877.7955565702673 L 283.0000000000001 877.7826922171462 L 283.0000000000001 877.7826922171462 L 284 877.769720631448 L 284 877.769720631448 L 285 877.7566409233251 L 285 877.7566409233251 L 286.0000000000001 877.7434521956123 L 286.0000000000001 877.7434521956123 L 287 877.7301535437689 L 287 877.7301535437689 L 288.0000000000001 877.7167440558177 L 288.0000000000001 877.7167440558177 L 289 877.7032228122862 L 289 877.7032228122862 L 290 877.6895888861458 L 290 877.6895888861458 L 291.0000000000001 877.6758413427505 L 291.0000000000001 877.6758413427505 L 292 877.6619792397762 L 292 877.6619792397762 L 293 877.6480016271586 L 293 877.6480016271586 L 294.0000000000001 877.6339075470305 L 294.0000000000001 877.6339075470305 L 295 877.6196960336598 L 295 877.6196960336598 L 296 877.6053661133852 L 296 877.6053661133852 L 297.0000000000001 877.5909168045534 L 297.0000000000001 877.5909168045534 L 298.0000000000001 877.5763471174544 L 298.0000000000001 877.5763471174544 L 299 877.5616560542566 L 299 877.5616560542566 L 300.0000000000001 877.5468426089415 L 300.0000000000001 877.5468426089415 L 301 877.5319057672385 L 301 877.5319057672385 L 302 877.5168445065583 L 302 877.5168445065583 L 303.0000000000001 877.5016577959259 L 303.0000000000001 877.5016577959259 L 304 877.4863445959138 L 304 877.4863445959138 L 305 877.4709038585736 L 305 877.4709038585736 L 306 877.4553345273683 L 306 877.4553345273683 L 307 877.4396355371033 L 307 877.4396355371033 L 308.0000000000001 877.4238058138568 L 308.0000000000001 877.4238058138568 L 309 877.4078442749098 L 309 877.4078442749098 L 310 877.3917498286764 L 310 877.3917498286764 L 311.0000000000001 877.3755213746323 L 311.0000000000001 877.3755213746323 L 312 877.3591578032431 L 312 877.3591578032431 L 313 877.3426579958926 L 313 877.3426579958926 L 314.0000000000001 877.3260208248106 L 314.0000000000001 877.3260208248106 L 315.0000000000001 877.3092451529988 L 315.0000000000001 877.3092451529988 L 316 877.2923298341577 L 316 877.2923298341577 L 317.0000000000001 877.2752737126127 L 317.0000000000001 877.2752737126127 L 318.0000000000001 877.2580756232384 L 318.0000000000001 877.2580756232384 L 319 877.2407343913837 L 319 877.2407343913837 L 320.0000000000001 877.2232488327962 L 320.0000000000001 877.2232488327962 L 321 877.205617753545 L 321 877.205617753545 L 322 877.1878399499441 L 322 877.1878399499441 L 323 877.1699142084742 L 323 877.1699142084742 L 324 877.1518393057052 L 324 877.1518393057052 L 325.0000000000001 877.1336140082168 L 325.0000000000001 877.1336140082168 L 326 877.1152370725189 L 326 877.1152370725189 L 327 877.0967072449722 L 327 877.0967072449722 L 328.0000000000001 877.0780232617072 L 328.0000000000001 877.0780232617072 L 329 877.0591838485425 L 329 877.0591838485425 L 330 877.0401877209039 L 330 877.0401877209039 L 331.0000000000001 877.0210335837413 L 331.0000000000001 877.0210335837413 L 332 877.0017201314455 L 332 877.0017201314455 L 333 876.9822460477652 L 333 876.9822460477652 L 334.0000000000001 876.9626100057219 L 334.0000000000001 876.9626100057219 L 335.0000000000001 876.9428106675255 L 335.0000000000001 876.9428106675255 L 336 876.9228466844885 L 336 876.9228466844885 L 337.0000000000001 876.9027166969395 L 337.0000000000001 876.9027166969395 L 338 876.882419334137 L 338 876.882419334137 L 339 876.8619532141814 L 339 876.8619532141814 L 340.0000000000001 876.8413169439273 L 340.0000000000001 876.8413169439273 L 341 876.8205091188937 L 341 876.8205091188937 L 342 876.7995283231761 L 342 876.7995283231761 L 343 876.7783731293548 L 343 876.7783731293548 L 344 876.7570420984055 L 344 876.7570420984055 L 345.0000000000001 876.7355337796066 L 345.0000000000001 876.7355337796066 L 346 876.7138467104483 L 346 876.7138467104483 L 347 876.691979416539 L 347 876.691979416539 L 348.0000000000001 876.6699304115117 L 348.0000000000001 876.6699304115117 L 349 876.6476981969308 L 349 876.6476981969308 L 350 876.6252812621963 L 350 876.6252812621963 L 351.0000000000001 876.6026780844487 L 351.0000000000001 876.6026780844487 L 352.0000000000001 876.5798871284726 L 352.0000000000001 876.5798871284726 L 353 876.5569068465999 L 353 876.5569068465999 L 354.0000000000001 876.5337356786122 L 354.0000000000001 876.5337356786122 L 355.0000000000001 876.5103720516423 L 355.0000000000001 876.5103720516423 L 356 876.4868143800753 L 356 876.4868143800753 L 357.0000000000001 876.4630610654485 L 357.0000000000001 876.4630610654485 L 358 876.4391104963515 L 358 876.4391104963515 L 359 876.4149610483244 L 359 876.4149610483244 L 360 876.3906110837557 L 360 876.3906110837557 L 361 876.3660589517809 L 361 876.3660589517809 L 362.0000000000001 876.3413029881772 L 362.0000000000001 876.3413029881772 L 363 876.3163415152609 L 363 876.3163415152609 L 364 876.2911728417814 L 364 876.2911728417814 L 365.0000000000001 876.2657952628164 L 365.0000000000001 876.2657952628164 L 366 876.2402070596647 L 366 876.2402070596647 L 367 876.2144064997399 L 367 876.2144064997399 L 368.0000000000001 876.1883918364612 L 368.0000000000001 876.1883918364612 L 369 876.162161309146 L 369 876.162161309146 L 370 876.1357131428997 L 370 876.1357131428997 L 371.0000000000001 876.1090455485054 L 371.0000000000001 876.1090455485054 L 372.0000000000001 876.0821567223132 L 372.0000000000001 876.0821567223132 L 373 876.0550448461283 L 373 876.0550448461283 L 374.0000000000001 876.027708087098 L 374.0000000000001 876.027708087098 L 375 876.0001445975985 L 375 876.0001445975985 L 376 875.9723525151211 L 376 875.9723525151211 L 377.0000000000001 875.9443299621568 L 377.0000000000001 875.9443299621568 L 378 875.9160750460801 L 378 875.9160750460801 L 379.0000000000001 875.8875858590332 L 379.0000000000001 875.8875858590332 L 380 875.858860477808 L 380 875.858860477808 L 381 875.8298969637278 L 381 875.8298969637278 L 382.0000000000001 875.8006933625288 L 382.0000000000001 875.8006933625288 L 383 875.7712477042395 L 383 875.7712477042395 L 384 875.7415580030599 L 384 875.7415580030599 L 385.0000000000001 875.7116222572411 L 385.0000000000001 875.7116222572411 L 386 875.6814384489609 L 386 875.6814384489609 L 387 875.6510045442025 L 387 875.6510045442025 L 388.0000000000001 875.6203184926292 L 388.0000000000001 875.6203184926292 L 389.0000000000001 875.5893782274597 L 389.0000000000001 875.5893782274597 L 390 875.5581816653424 L 390 875.5581816653424 L 391.0000000000001 875.5267267062287 L 391.0000000000001 875.5267267062287 L 392 875.4950112332451 L 392 875.4950112332451 L 393 875.4630331125654 L 393 875.4630331125654 L 394.0000000000001 875.4307901932809 L 394.0000000000001 875.4307901932809 L 395 875.3982803072703 L 395 875.3982803072703 L 396 875.3655012690685 L 396 875.3655012690685 L 397 875.3324508757355 L 397 875.3324508757355 L 398 875.2991269067222 L 398 875.2991269067222 L 399.0000000000001 875.2655271237381 L 399.0000000000001 875.2655271237381 L 400 875.2316492706155 L 400 875.2316492706155 L 401 875.1974910731744 L 401 875.1974910731744 L 402.0000000000001 875.1630502390866 L 402.0000000000001 875.1630502390866 L 403 875.1283244577372 L 403 875.1283244577372 L 404 875.0933114000875 L 404 875.0933114000875 L 405.0000000000001 875.0580087185352 L 405.0000000000001 875.0580087185352 L 406 875.0224140467743 L 406 875.0224140467743 L 407 874.9865249996544 L 407 874.9865249996544 L 408.0000000000001 874.9503391730383 L 408.0000000000001 874.9503391730383 L 409.0000000000001 874.9138541436595 L 409.0000000000001 874.9138541436595 L 410 874.8770674689782 L 410 874.8770674689782 L 411.0000000000001 874.8399766870365 L 411.0000000000001 874.8399766870365 L 412 874.8025793163127 L 412 874.8025793163127 L 413 874.764872855575 L 413 874.764872855575 L 414.0000000000001 874.7268547837332 L 414.0000000000001 874.7268547837332 L 415 874.6885225596906 L 415 874.6885225596906 L 416.0000000000001 874.6498736221943 L 416.0000000000001 874.6498736221943 L 417 874.6109053896848 L 417 874.6109053896848 L 418 874.5716152601448 L 418 874.5716152601448 L 419.0000000000001 874.532000610946 L 419.0000000000001 874.532000610946 L 420 874.4920587986965 L 420 874.4920587986965 L 421 874.4517871590859 L 421 874.4517871590859 L 422.00000000000006 874.4111830067304 L 422.00000000000006 874.4111830067304 L 423.00000000000006 874.3702436350159 L 423.00000000000006 874.3702436350159 L 424 874.328966315941 L 424 874.328966315941 L 425.0000000000001 874.2873482999589 L 425.0000000000001 874.2873482999589 L 426.00000000000006 874.2453868158175 L 426.00000000000006 874.2453868158175 L 427.00000000000006 874.2030790703996 L 427.00000000000006 874.2030790703996 L 428.0000000000001 874.1604222485612 L 428.0000000000001 874.1604222485612 L 429.00000000000006 874.1174135129696 L 429.00000000000006 874.1174135129696 L 430.00000000000006 874.0740500039399 L 430.00000000000006 874.0740500039399 L 431 874.0303288392703 L 431 874.0303288392703 L 432 873.9862471140773 L 432 873.9862471140773 L 433.00000000000006 873.9418019006291 L 433.00000000000006 873.9418019006291 L 434 873.8969902481784 L 434 873.8969902481784 L 435 873.8518091827937 L 435 873.8518091827937 L 436.00000000000006 873.80625570719 L 436.00000000000006 873.80625570719 L 437.00000000000006 873.7603268005585 L 437.00000000000006 873.7603268005585 L 438 873.7140194183951 L 438 873.7140194183951 L 439.00000000000006 873.6673304923279 L 439.00000000000006 873.6673304923279 L 440.00000000000006 873.6202569299433 L 440.00000000000006 873.6202569299433 L 441 873.5727956146121 L 441 873.5727956146121 L 442.0000000000001 873.5249434053133 L 442.0000000000001 873.5249434053133 L 443.00000000000006 873.476697136458 L 443.00000000000006 873.476697136458 L 444 873.428053617711 L 444 873.428053617711 L 445.0000000000001 873.3790096338131 L 445.0000000000001 873.3790096338131 L 446.00000000000006 873.3295619444001 L 446.00000000000006 873.3295619444001 L 447.00000000000006 873.2797072838229 L 447.00000000000006 873.2797072838229 L 448 873.2294423609655 L 448 873.2294423609655 L 449.00000000000006 873.1787638590619 L 449.00000000000006 873.1787638590619 L 450.00000000000006 873.1276684355119 L 450.00000000000006 873.1276684355119 L 451 873.0761527216963 L 451 873.0761527216963 L 452 873.0242133227915 L 452 873.0242133227916 L 453.00000000000006 872.9718468175813 L 453.00000000000006 872.9718468175813 L 454 872.9190497582691 L 454 872.9190497582691 L 455.00000000000006 872.8658186702888 L 455.00000000000006 872.8658186702888 L 456.00000000000006 872.8121500521146 L 456.00000000000006 872.8121500521146 L 457.00000000000006 872.758040375069 L 457.00000000000006 872.758040375069 L 458 872.7034860831313 L 458 872.7034860831313 L 459 872.6484835927434 L 459 872.6484835927434 L 460.00000000000006 872.5930292926157 L 460.00000000000006 872.5930292926157 L 461 872.5371195435307 L 461 872.5371195435307 L 462.00000000000006 872.4807506781477 L 462.00000000000006 872.4807506781477 L 463.00000000000006 872.4239190008037 L 463.00000000000006 872.4239190008037 L 464.00000000000006 872.3666207873155 L 464.00000000000006 872.3666207873155 L 465.00000000000006 872.308852284779 L 465.00000000000006 872.308852284779 L 466.00000000000006 872.2506097113695 L 466.00000000000006 872.2506097113695 L 467.00000000000006 872.1918892561386 L 467.00000000000006 872.1918892561386 L 468 872.1326870788114 L 468 872.1326870788114 L 469.00000000000006 872.0729993095829 L 469.00000000000006 872.0729993095829 L 470.00000000000006 872.0128220489121 L 470.00000000000006 872.0128220489121 L 471 871.9521513673166 L 471 871.9521513673166 L 472.00000000000006 871.8909833051644 L 472.00000000000006 871.8909833051644 L 473.00000000000006 871.8293138724662 L 473.00000000000006 871.8293138724662 L 474.00000000000006 871.7671390486659 L 474.00000000000006 871.7671390486659 L 475.00000000000006 871.7044547824299 L 475.00000000000006 871.7044547824299 L 476.00000000000006 871.6412569914359 L 476.00000000000006 871.6412569914359 L 477.00000000000006 871.5775415621598 L 477.00000000000006 871.5775415621598 L 478 871.5133043496629 L 478 871.5133043496629 L 479.00000000000006 871.4485411773767 L 479.00000000000006 871.4485411773767 L 480.00000000000006 871.383247836887 L 480.00000000000006 871.383247836887 L 481 871.3174200877179 L 481 871.3174200877179 L 482.00000000000006 871.2510536571133 L 482.00000000000006 871.2510536571133 L 483.00000000000006 871.1841442398184 L 483.00000000000006 871.1841442398184 L 484.00000000000006 871.1166874978595 L 484.00000000000006 871.1166874978595 L 485 871.0486790603242 L 485 871.0486790603242 L 486.00000000000006 870.9801145231377 L 486.00000000000006 870.9801145231377 L 487.00000000000006 870.9109894488415 L 487.00000000000006 870.9109894488415 L 488 870.8412993663687 L 488 870.8412993663687 L 489.00000000000006 870.7710397708187 L 489.00000000000006 870.7710397708187 L 490.00000000000006 870.7002061232321 L 490.00000000000006 870.7002061232321 L 491 870.6287938503627 L 491 870.6287938503627 L 492.00000000000006 870.5567983444506 L 492.00000000000006 870.5567983444506 L 493.00000000000006 870.484214962992 L 493.00000000000006 870.484214962992 L 494.00000000000006 870.4110390285102 L 494.00000000000006 870.4110390285102 L 495 870.3372658283241 L 495 870.3372658283241 L 496 870.2628906143162 L 496 870.2628906143162 L 497.00000000000006 870.1879086027 L 497.00000000000006 870.1879086027 L 498 870.1123149737857 L 498 870.1123149737857 L 499.00000000000006 870.0361048717457 L 499.00000000000006 870.0361048717457 L 500.00000000000006 869.9592734043783 L 500.00000000000006 869.9592734043783 L 501.00000000000006 869.8818156428713 L 501.00000000000006 869.8818156428713 L 502.00000000000006 869.8037266215641 L 502.00000000000006 869.8037266215641 L 503.00000000000006 869.7250013377089 L 503.00000000000006 869.7250013377089 L 504.00000000000006 869.6456347512313 L 504.00000000000006 869.6456347512313 L 505 869.5656217844896 L 505 869.5656217844896 L 506.00000000000006 869.4849573220333 L 506.00000000000006 869.4849573220333 L 507.00000000000006 869.4036362103612 L 507.00000000000006 869.4036362103612 L 508 869.3216532576773 L 508 869.3216532576773 L 509.00000000000006 869.2390032336475 L 509.00000000000006 869.2390032336475 L 510.00000000000006 869.1556808691538 L 510.00000000000006 869.1556808691538 L 511.00000000000006 869.071680856049 L 511.00000000000006 869.071680856049 L 512 868.9869978469098 L 512 868.9869978469098 L 513 868.9016264547887 L 513 868.9016264547887 L 514 868.8155612529662 L 514 868.8155612529662 L 515 868.7287967747008 L 515 868.7287967747008 L 516 868.6413275129795 L 516 868.6413275129795 L 517 868.5531479202666 L 517 868.5531479202666 L 518 868.464252408252 L 518 868.464252408252 L 519 868.3746353475983 L 519 868.3746353475983 L 520 868.2842910676883 L 520 868.2842910676883 L 521 868.1932138563699 L 521 868.1932138563699 L 522 868.1013979597021 L 522 868.1013979597021 L 523 868.0088375816991 L 523 868.0088375816991 L 524 867.9155268840743 L 524 867.9155268840743 L 525 867.8214599859825 L 525 867.8214599859825 L 526 867.7266309637635 L 526 867.7266309637635 L 527 867.6310338506822 L 527 867.6310338506822 L 528 867.5346626366709 L 528 867.5346626366709 L 529 867.4375112680688 L 529 867.4375112680688 L 530 867.3395736473618 L 530 867.3395736473618 L 531 867.2408436329218 L 531 867.2408436329218 L 532 867.141315038745 L 532 867.141315038745 L 533 867.0409816341895 L 533 867.0409816341895 L 534 866.9398371437127 L 534 866.9398371437127 L 535 866.8378752466083 L 535 866.8378752466083 L 536 866.7350895767422 L 536 866.7350895767422 L 537 866.6314737222881 L 537 866.6314737222881 L 538 866.527021225463 L 538 866.527021225463 L 539 866.4217255822614 L 539 866.4217255822614 L 540 866.3155802421898 L 540 866.3155802421898 L 541 866.2085786080006 L 541 866.2085786080006 L 542 866.1007140354253 L 542 866.1007140354253 L 543 865.9919798329073 L 543 865.9919798329073 L 544 865.8823692613348 L 544 865.8823692613348 L 545 865.7718755337729 L 545 865.7718755337729 L 546 865.6604918151952 L 546 865.6604918151952 L 547 865.548211222216 L 547 865.548211222216 L 548 865.4350268228209 L 548 865.4350268228209 L 549 865.3209316360983 L 549 865.3209316360983 L 550 865.20591863197 L 550 865.2059186319701 L 551 865.089980730922 L 551 865.089980730922 L 552 864.9731108037344 L 552 864.9731108037344 L 553 864.8553016712118 L 553 864.8553016712118 L 554 864.7365461039138 L 554 864.736546103914 L 555 864.6168368218847 L 555 864.6168368218847 L 556 864.4961664943827 L 556 864.4961664943827 L 557 864.3745277396108 L 557 864.3745277396108 L 558 864.2519131244461 L 558 864.2519131244461 L 559 864.1283151641694 L 559 864.1283151641694 L 560 864.0037263221955 L 560 864.0037263221955 L 561 863.8781390098023 L 561 863.8781390098023 L 562 863.7515455858619 L 562 863.7515455858619 L 563 863.6239383565695 L 563 863.6239383565695 L 564 863.4953095751746 L 564 863.4953095751746 L 565 863.3656514417106 L 565 863.3656514417106 L 566 863.2349561027263 L 566 863.2349561027263 L 567 863.1032156510161 L 567 863.1032156510161 L 568 862.9704221253512 L 568 862.9704221253513 L 569 862.8365675102118 L 569 862.8365675102118 L 570 862.7016437355182 L 570 862.7016437355182 L 571 862.5656426763633 L 571 862.5656426763633 L 572 862.4285561527449 L 572 862.4285561527449 L 573 862.2903759293 L 573 862.2903759293 L 574 862.1510937150368 L 574 862.1510937150368 L 575 862.0107011630702 L 575 862.0107011630702 L 576 861.8691898703555 L 576 861.8691898703555 L 577 861.7265513774248 L 577 861.7265513774248 L 578 861.582777168122 L 578 861.582777168122 L 579 861.4378586693401 L 579 861.4378586693401 L 580 861.2917872507587 L 580 861.2917872507588 L 581 861.144554224582 L 581 861.144554224582 L 582 860.9961508452776 L 582 860.9961508452776 L 583 860.8465683093168 L 583 860.8465683093169 L 584 860.6957977549157 L 584 860.6957977549157 L 585 860.5438302617763 L 585 860.5438302617763 L 586 860.3906568508295 L 586 860.3906568508295 L 587 860.2362684839792 L 587 860.2362684839792 L 588 860.0806560638471 L 588 860.0806560638471 L 589 859.9238104335186 L 589 859.9238104335186 L 590 859.7657223762905 L 590 859.7657223762905 L 591 859.6063826154184 L 591 859.6063826154184 L 592 859.445781813868 L 592 859.4457818138682 L 593 859.2839105740654 L 593 859.2839105740654 L 594 859.1207594376493 L 594 859.1207594376493 L 595 858.9563188852255 L 595 858.9563188852256 L 596 858.7905793361224 L 596 858.7905793361224 L 597 858.6235311481474 L 597 858.6235311481474 L 598 858.455164617346 L 598 858.4551646173461 L 599 858.2854699777622 L 599 858.2854699777623 L 600 858.1144374011998 L 600 858.1144374011998 L 601 857.9420569969866 L 601 857.9420569969866 L 602 857.7683188117401 L 602 857.7683188117401 L 603 857.5932128291342 L 603 857.5932128291342 L 604 857.4167289696697 L 604 857.4167289696697 L 605 857.2388570904446 L 605 857.2388570904446 L 606 857.0595869849283 L 606 857.0595869849283 L 607 856.8789083827365 L 607 856.8789083827367 L 608 856.6968109494098 L 608 856.6968109494098 L 609 856.5132842861929 L 609 856.5132842861929 L 610 856.328317929817 L 610 856.3283179298171 L 611 856.1419013522852 L 611 856.1419013522852 L 612 855.9540239606588 L 612 855.9540239606588 L 613 855.764675096847 L 613 855.764675096847 L 614 855.5738440373998 L 614 855.5738440373998 L 615 855.3815199933018 L 615 855.3815199933018 L 616 855.1876921097708 L 616 855.1876921097708 L 617 854.9923494660568 L 617 854.9923494660569 L 618 854.7954810752467 L 618 854.7954810752468 L 619 854.597075884069 L 619 854.597075884069 L 620 854.3971227727035 L 620 854.3971227727035 L 621 854.1956105545933 L 621 854.1956105545933 L 622 853.99252797626 L 622 853.99252797626 L 623 853.7878637171223 L 623 853.7878637171223 L 624 853.5816063893172 L 624 853.5816063893172 L 625 853.3737445375257 L 625 853.3737445375257 L 626 853.1642666388009 L 626 853.164266638801 L 627 852.9531611023999 L 627 852.9531611023999 L 628 852.7404162696198 L 628 852.7404162696198 L 629 852.5260204136365 L 629 852.5260204136365 L 630 852.3099617393478 L 630 852.3099617393478 L 631 852.0922283832206 L 631 852.0922283832206 L 632 851.8728084131405 L 632 851.8728084131405 L 633 851.6516898282678 L 633 851.6516898282678 L 634 851.4288605588954 L 634 851.4288605588954 L 635 851.2043084663118 L 635 851.2043084663118 L 636 850.9780213426684 L 636 850.9780213426684 L 637 850.7499869108507 L 637 850.7499869108507 L 638 850.5201928243542 L 638 850.5201928243542 L 639 850.288626667165 L 639 850.288626667165 L 640 850.0552759536439 L 640 850.0552759536439 L 641 849.8201281284167 L 641 849.8201281284167 L 642 849.5831705662682 L 642 849.5831705662682 L 643 849.3443905720411 L 643 849.3443905720412 L 644 849.1037753805404 L 644 849.1037753805405 L 645 848.8613121564422 L 645 848.8613121564422 L 646 848.6169879942078 L 646 848.6169879942078 L 647 848.3707899180032 L 647 848.3707899180032 L 648 848.1227048816239 L 648 848.122704881624 L 649 847.8727197684248 L 649 847.8727197684248 L 650 847.620821391255 L 650 847.620821391255 L 651 847.3669964924002 L 651 847.3669964924002 L 652 847.1112317435284 L 652 847.1112317435284 L 653 846.8535137456427 L 653 846.8535137456428 L 654 846.5938290290397 L 654 846.5938290290397 L 655 846.332164053274 L 655 846.332164053274 L 656 846.068505207128 L 656 846.068505207128 L 657 845.802838808589 L 657 845.802838808589 L 658 845.5351511048314 L 658 845.5351511048314 L 659 845.2654282722063 L 659 845.2654282722065 L 660 844.9936564162371 L 660 844.9936564162371 L 661 844.7198215716207 L 661 844.7198215716207 L 662 844.4439097022374 L 662 844.4439097022375 L 663 844.1659067011658 L 663 844.1659067011658 L 664 843.8857983907048 L 664 843.8857983907048 L 665 843.603570522404 L 665 843.603570522404 L 666 843.3192087770984 L 666 843.3192087770985 L 667 843.032698764954 L 667 843.032698764954 L 668 842.7440260255166 L 668 842.7440260255166 L 669 842.4531760277708 L 669 842.4531760277708 L 670 842.1601341702061 L 670 842.1601341702061 L 671 841.864885780889 L 671 841.864885780889 L 672 841.5674161175448 L 672 841.5674161175448 L 673 841.2677103676453 L 673 841.2677103676453 L 674 840.9657536485067 L 674 840.9657536485067 L 675 840.6615310073926 L 675 840.6615310073926 L 676 840.3550274216276 L 676 840.3550274216276 L 677 840.0462277987178 L 677 840.046227798718 L 678 839.7351169764804 L 678 839.7351169764804 L 679 839.4216797231803 L 679 839.4216797231804 L 680 839.1059007376774 L 680 839.1059007376774 L 681 838.7877646495804 L 681 838.7877646495804 L 682 838.4672560194105 L 682 838.4672560194105 L 683 838.1443593387744 L 683 838.1443593387744 L 684 837.8190590305446 L 684 837.8190590305446 L 685 837.4913394490505 L 685 837.4913394490505 L 686 837.1611848802773 L 686 837.1611848802773 L 687 836.8285795420755 L 687 836.8285795420755 L 688 836.4935075843784 L 688 836.4935075843784 L 689 836.1559530894302 L 689 836.1559530894302 L 690 835.8159000720234 L 690 835.8159000720234 L 691 835.473332479745 L 691 835.473332479745 L 692 835.1282341932341 L 692 835.1282341932341 L 693 834.7805890264485 L 693 834.7805890264486 L 694 834.4303807269413 L 694 834.4303807269413 L 695 834.0775929761472 L 695 834.0775929761473 L 696 833.7222093896806 L 696 833.7222093896806 L 697 833.3642135176424 L 697 833.3642135176424 L 698 833.0035888449379 L 698 833.0035888449379 L 699 832.6403187916053 L 699 832.6403187916053 L 700 832.2743867131552 L 700 832.2743867131552 L 701 831.9057759009195 L 701 831.9057759009195 L 702 831.5344695824127 L 702 831.5344695824128 L 703 831.1604509217038 L 703 831.160450921704 L 704 830.7837030197984 L 704 830.7837030197985 L 705 830.4042089150325 L 705 830.4042089150325 L 706 830.0219515834781 L 706 830.0219515834782 L 707 829.6369139393596 L 707 829.6369139393596 L 708 829.2490788354813 L 708 829.2490788354814 L 709 828.8584290636672 L 709 828.8584290636672 L 710 828.4649473552122 L 710 828.4649473552122 L 711 828.0686163813444 L 711 828.0686163813444 L 712 827.6694187537006 L 712 827.6694187537006 L 713 827.2673370248124 L 713 827.2673370248124 L 714 826.8623536886048 L 714 826.8623536886048 L 715 826.4544511809074 L 715 826.4544511809074 L 716 826.0436118799769 L 716 826.0436118799769 L 717 825.6298181070324 L 717 825.6298181070325 L 718 825.2130521268039 L 718 825.2130521268039 L 719 824.7932961480906 L 719 824.7932961480906 L 720 824.3705323243355 L 720 824.3705323243355 L 721 823.9447427542092 L 721 823.9447427542093 L 722 823.5159094822089 L 722 823.5159094822089 L 723 823.0840144992686 L 723 823.0840144992687 L 724 822.6490397433829 L 724 822.6490397433829 L 725 822.2109671002434 L 725 822.2109671002435 L 726 821.7697784038888 L 726 821.7697784038888 L 727 821.3254554373674 L 727 821.3254554373674 L 728 820.8779799334125 L 728 820.8779799334125 L 729 820.4273335751321 L 729 820.4273335751321 L 730 819.9734979967114 L 730 819.9734979967114 L 731 819.516454784128 L 731 819.516454784128 L 732 819.0561854758815 L 732 819.0561854758815 L 733 818.5926715637362 L 733 818.5926715637363 L 734 818.1258944934773 L 734 818.1258944934774 L 735 817.6558356656808 L 735 817.6558356656808 L 736 817.1824764364968 L 736 817.1824764364968 L 737 816.7057981184473 L 737 816.7057981184473 L 738 816.2257819812365 L 738 816.2257819812365 L 739 815.7424092525764 L 739 815.7424092525764 L 740 815.2556611190246 L 740 815.2556611190246 L 741 814.7655187268377 L 741 814.7655187268377 L 742 814.2719631828376 L 742 814.2719631828376 L 743 813.7749755552913 L 743 813.7749755552915 L 744 813.2745368748069 L 744 813.274536874807 L 745 812.7706281352406 L 745 812.7706281352407 L 746 812.2632302946201 L 746 812.2632302946201 L 747 811.7523242760816 L 747 811.7523242760816 L 748 811.2378909688198 L 748 811.2378909688198 L 749 810.7199112290535 L 749 810.7199112290535 L 750 810.198365881005 L 750 810.198365881005 L 751 809.6732357178926 L 751 809.6732357178926 L 752 809.1445015029386 L 752 809.1445015029387 L 753 808.6121439703912 L 753 808.6121439703913 L 754 808.0761438265599 L 754 808.0761438265599 L 755 807.5364817508657 L 755 807.5364817508658 L 756 806.9931383969057 L 756 806.9931383969058 L 757 806.446094393531 L 757 806.446094393531 L 758 805.8953303459397 L 758 805.8953303459397 L 759 805.3408268367835 L 759 805.3408268367835 L 760 804.7825644272891 L 760 804.7825644272891 L 761 804.2205236583923 L 761 804.2205236583923 L 762 803.6546850518879 L 762 803.6546850518879 L 763 803.0850291115927 L 763 803.0850291115927 L 764 802.5115363245227 L 764 802.5115363245227 L 765 801.9341871620843 L 765 801.9341871620843 L 766 801.3529620812795 L 766 801.3529620812795 L 767 800.7678415259252 L 767 800.7678415259252 L 768 800.1788059278857 L 768 800.1788059278858 L 769 799.5858357083204 L 769 799.5858357083204 L 770 798.988911278943 L 770 798.9889112789431 L 771 798.3880130432971 L 771 798.3880130432971 L 772 797.7831213980429 L 772 797.783121398043 L 773 797.1742167342597 L 773 797.1742167342599 L 774 796.5612794387603 L 774 796.5612794387603 L 775 795.9442898954186 L 775 795.9442898954186 L 776 795.3232284865127 L 776 795.3232284865128 L 777 794.6980755940788 L 777 794.6980755940789 L 778 794.0688116012794 L 778 794.0688116012795 L 779 793.4354168937847 L 779 793.4354168937847 L 780 792.7978718611658 L 780 792.797871861166 L 781 792.1561568983032 L 781 792.1561568983032 L 782 791.5102524068042 L 782 791.5102524068042 L 783 790.860138796437 L 783 790.8601387964371 L 784 790.2057964865746 L 784 790.2057964865747 L 785 789.5472059076521 L 785 789.5472059076523 L 786 788.8843475026358 L 786 788.8843475026359 L 787 788.2172017285048 L 787 788.217201728505 L 788 787.5457490577446 L 788 787.5457490577447 L 789 786.8699699798522 L 789 786.8699699798523 L 790 786.189845002853 L 790 786.189845002853 L 791 785.5053546548293 L 791 785.5053546548293 L 792 784.81647948546 L 792 784.8164794854601 L 793 784.1232000675725 L 793 784.1232000675725 L 794 783.4254969987031 L 794 783.4254969987032 L 795 782.7233509026717 L 795 782.7233509026717 L 796 782.0167424311642 L 796 782.0167424311642 L 797 781.3056522653272 L 797 781.3056522653272 L 798 780.5900611173723 L 798 780.5900611173724 L 799 779.8699497321911 L 799 779.8699497321912 L 800 779.1452988889786 L 800 779.1452988889787 L 801 778.4160894028686 L 801 778.4160894028686 L 802 777.6823021265766 L 802 777.6823021265766 L 803 776.9439179520534 L 803 776.9439179520535 L 804 776.200917812147 L 804 776.200917812147 L 805 775.4532826822733 L 805 775.4532826822733 L 806 774.7009935820959 L 806 774.700993582096 L 807 773.9440315772144 L 807 773.9440315772144 L 808 773.18237778086 L 808 773.18237778086 L 809 772.4160133555997 L 809 772.4160133555998 L 810 771.6449195150487 L 810 771.6449195150489 L 811 770.8690775255886 L 811 770.8690775255888 L 812 770.0884687080942 L 812 770.0884687080943 L 813 769.3030744396667 L 813 769.3030744396668 L 814 768.5128761553738 L 814 768.5128761553738 L 815 767.7178553499949 L 815 767.717855349995 L 816 766.917993579775 L 816 766.9179935797752 L 817 766.1132724641815 L 817 766.1132724641815 L 818 765.303673687668 L 818 765.303673687668 L 819 764.4891790014439 L 819 764.489179001444 L 820 763.6697702252474 L 820 763.6697702252475 L 821 762.8454292491241 L 821 762.8454292491242 L 822 762.01613803521 L 822 762.0161380352101 L 823 761.1818786195182 L 823 761.1818786195183 L 824 760.3426331137291 L 824 760.3426331137292 L 825 759.4983837069847 L 825 759.4983837069847 L 826 758.6491126676849 L 826 758.6491126676849 L 827 757.7948023452883 L 827 757.7948023452883 L 828 756.9354351721133 L 828 756.9354351721133 L 829 756.0709936651431 L 829 756.0709936651432 L 830 755.2014604278309 L 830 755.201460427831 L 831 754.326818151908 L 831 754.3268181519081 L 832 753.4470496191923 L 832 753.4470496191924 L 833 752.5621377033968 L 833 752.5621377033968 L 834 751.67206537194 L 834 751.67206537194 L 835 750.7768156877548 L 835 750.7768156877548 L 836 749.8763718110987 L 836 749.8763718110988 L 837 748.9707170013612 L 837 748.9707170013613 L 838 748.0598346188726 L 838 748.0598346188726 L 839 747.1437081267089 L 839 747.143708126709 L 840 746.222321092497 L 840 746.2223210924972 L 841 745.2956571902164 L 841 745.2956571902165 L 842 744.3637002019991 L 842 744.3637002019991 L 843 743.4264340199255 L 843 743.4264340199256 L 844 742.4838426478193 L 844 742.4838426478193 L 845 741.5359102030354 L 845 741.5359102030355 L 846 740.5826209182472 L 846 740.5826209182472 L 847 739.6239591432263 L 847 739.6239591432263 L 848 738.65990934662 L 848 738.6599093466201 L 849 737.6904561177219 L 849 737.6904561177219 L 850 736.7155841682371 L 850 736.7155841682372 L 851 735.7352783340425 L 851 735.7352783340426 L 852 734.749523576939 L 852 734.7495235769392 L 853 733.7583049863985 L 853 733.7583049863985 L 854 732.7616077813018 L 854 732.761607781302 L 855 731.7594173116718 L 855 731.7594173116718 L 856 730.7517190603949 L 856 730.7517190603949 L 857 729.7384986449375 L 857 729.7384986449376 L 858 728.7197418190518 L 858 728.7197418190519 L 859 727.6954344744726 L 859 727.6954344744727 L 860 726.6655626426045 L 860 726.6655626426046 L 861 725.6301124962 L 861 725.6301124962001 L 862 724.5890703510258 L 862 724.5890703510258 L 863 723.542422667519 L 863 723.5424226675191 L 864 722.4901560524321 L 864 722.4901560524322 L 865 721.4322572604666 L 865 721.4322572604667 L 866 720.3687131958939 L 866 720.3687131958939 L 867 719.299510914164 L 867 719.2995109141641 L 868 718.2246376235018 L 868 718.224637623502 L 869 717.1440806864902 L 869 717.1440806864903 L 870 716.0578276216381 L 870 716.0578276216382 L 871 714.9658661049373 L 871 714.9658661049374 L 872 713.8681839714015 L 872 713.8681839714015 L 873 712.7647692165935 L 873 712.7647692165937 L 874 711.6556099981354 L 874 711.6556099981356 L 875 710.5406946372041 L 875 710.5406946372041 L 876 709.4200116200097 L 876 709.4200116200097 L 877 708.2935495992599 L 877 708.2935495992599 L 878 707.1612973956046 L 878 707.1612973956046 L 879 706.0232439990658 L 879 706.0232439990658 L 880 704.8793785704488 L 880 704.879378570449 L 881 703.7296904427365 L 881 703.7296904427366 L 882 702.5741691224636 L 882 702.5741691224638 L 883 701.4128042910752 L 883 701.4128042910752 L 884 700.245585806263 L 884 700.2455858062631 L 885 699.0725037032852 L 885 699.0725037032853 L 886 697.8935481962648 L 886 697.8935481962649 L 887 696.7087096794687 L 887 696.7087096794688 L 888 695.5179787285663 L 888 695.5179787285665 L 889 694.3213461018673 L 889 694.3213461018674 L 890 693.1188027415385 L 890 693.1188027415387 L 891 691.9103397747992 L 891 691.9103397747992 L 892 690.6959485150949 L 892 690.6959485150951 L 893 689.4756204632492 L 893 689.4756204632494 L 894 688.2493473085927 L 894 688.2493473085929 L 895 687.0171209300703 L 895 687.0171209300704 L 896 685.7789333973241 L 896 685.7789333973242 L 897 684.5347769717545 L 897 684.5347769717546 L 898 683.2846441075567 L 898 683.2846441075567 L 899 682.0285274527337 L 899 682.0285274527338 L 900 680.7664198500854 L 900 680.7664198500855 L 901 679.4983143381725 L 901 679.4983143381727 L 902 678.2242041522568 L 902 678.224204152257 L 903 676.9440827252154 L 903 676.9440827252155 L 904 675.6579436884306 L 904 675.6579436884307 L 905 674.3657808726533 L 905 674.3657808726534 L 906 673.0675883088423 L 906 673.0675883088425 L 907 671.7633602289761 L 907 671.7633602289762 L 908 670.4530910668384 L 908 670.4530910668386 L 909 669.1367754587789 L 909 669.1367754587791 L 910 667.8144082444455 L 910 667.8144082444458 L 911 666.4859844674912 L 911 666.4859844674913 L 912 665.1514993762526 L 912 665.1514993762527 L 913 663.8109484244018 L 913 663.8109484244019 L 914 662.4643272715715 L 914 662.4643272715716 L 915 661.111631783951 L 915 661.1116317839512 L 916 659.7528580348558 L 916 659.7528580348559 L 917 658.388002305268 L 917 658.3880023052682 L 918 657.0170610843496 L 918 657.0170610843497 L 919 655.6400310699273 L 919 655.6400310699274 L 920 654.2569091689479 L 920 654.256909168948 L 921 652.867692497907 L 921 652.8676924979072 L 922 651.4723783832472 L 922 651.4723783832472 L 923 650.0709643617282 L 923 650.0709643617284 L 924 648.663448180769 L 924 648.6634481807693 L 925 647.249827798759 L 925 647.2498277987592 L 926 645.8301013853417 L 926 645.8301013853419 L 927 644.4042673216691 L 927 644.4042673216692 L 928 642.9723242006253 L 928 642.9723242006254 L 929 641.5342708270233 L 929 641.5342708270234 L 930 640.0901062177699 L 930 640.09010621777 L 931 638.6398296020029 L 931 638.639829602003 L 932 637.1834404211982 L 932 637.1834404211983 L 933 635.7209383292468 L 933 635.7209383292469 L 934 634.2523231925043 L 934 634.2523231925044 L 935 632.7775950898077 L 935 632.7775950898078 L 936 631.2967543124662 L 936 631.2967543124662 L 937 629.809801364219 L 937 629.8098013642191 L 938 628.3167369611668 L 938 628.316736961167 L 939 626.8175620316716 L 939 626.8175620316717 L 940 625.3122777162271 L 940 625.3122777162272 L 941 623.8008853673015 L 941 623.8008853673016 L 942 622.2833865491484 L 942 622.2833865491484 L 943 620.7597830375908 L 943 620.7597830375909 L 944 619.2300768197738 L 944 619.230076819774 L 945 617.6942700938894 L 945 617.6942700938895 L 946 616.1523652688713 L 946 616.1523652688713 L 947 614.6043649640615 L 947 614.6043649640616 L 948 613.0502720088476 L 948 613.050272008848 L 949 611.4900894422713 L 949 611.4900894422715 L 950 609.9238205126073 L 950 609.9238205126076 L 951 608.3514686769159 L 951 608.351468676916 L 952 606.7730376005643 L 952 606.7730376005645 L 953 605.1885311567219 L 953 605.1885311567221 L 954 603.5979534258264 L 954 603.5979534258265 L 955 602.0013086950214 L 955 602.0013086950216 L 956 600.3986014575678 L 956 600.398601457568 L 957 598.7898364122254 L 957 598.7898364122257 L 958 597.1750184626089 L 958 597.1750184626092 L 959 595.5541527165155 L 959 595.5541527165158 L 960 593.9272444852255 L 960 593.9272444852256 L 961 592.2942992827766 L 961 592.2942992827766 L 962 590.6553228252101 L 962 590.6553228252103 L 963 589.0103210297932 L 963 589.0103210297934 L 964 587.3593000142121 L 964 587.3593000142121 L 965 585.70226609574 L 965 585.7022660957402 L 966 584.039225790382 L 966 584.0392257903823 L 967 582.3701858119894 L 967 582.3701858119894 L 968 580.6951530713527 L 968 580.6951530713528 L 969 579.0141346752687 L 969 579.0141346752687 L 970 577.3271379255816 L 970 577.3271379255818 L 971 575.6341703182015 L 971 575.6341703182017 L 972 573.9352395420962 L 972 573.9352395420964 L 973 572.2303534782616 L 973 572.2303534782618 L 974 570.5195201986669 L 974 570.5195201986671 L 975 568.802747965177 L 975 568.8027479651772 L 976 567.080045228452 L 976 567.080045228452 L 977 565.3514206268226 L 977 565.3514206268228 L 978 563.6168829851458 L 978 563.616882985146 L 979 561.8764413136355 L 979 561.8764413136355 L 980 560.130104806673 L 980 560.1301048066732 L 981 558.3778828415964 L 981 558.3778828415966 L 982 556.6197849774669 L 982 556.6197849774669 L 983 554.8558209538164 L 983 554.8558209538166 L 984 553.0860006893738 L 984 553.0860006893738 L 985 551.3103342807705 L 985 551.3103342807708 L 986 549.528832001228 L 986 549.5288320012282 L 987 547.7415042992234 L 987 547.7415042992236 L 988 545.9483617971389 L 988 545.9483617971391 L 989 544.1494152898899 L 989 544.1494152898902 L 990 542.3446757435368 L 990 542.344675743537 L 991 540.5341542938774 L 991 540.5341542938775 L 992 538.7178622450225 L 992 538.7178622450226 L 993 536.8958110679548 L 993 536.895811067955 L 994 535.0680123990692 L 994 535.0680123990694 L 995 533.2344780386984 L 995 533.2344780386986 L 996 531.3952199496223 L 996 531.3952199496224 L 997 529.5502502555594 L 997 529.5502502555596 L 998 527.6995812396474 L 998 527.6995812396474 L 999 525.8432253429032 L 999 525.8432253429035 L 1000 523.9811951626746 L 1000 523.9811951626748 L 1001 522.1135034510719 L 1001 522.113503451072 L 1002 520.2401631133903 L 1002 520.2401631133904 L 1003 518.3611872065167 L 1003 518.3611872065167 L 1004 516.4765889373236 L 1004 516.4765889373239 L 1005 514.586381661053 L 1005 514.5863816610531 L 1006 512.690578879683 L 1006 512.6905788796832 L 1007 510.7891942402886 L 1007 510.78919424028885 L 1008 508.88224153338757 L 1008 508.88224153338774 L 1009 506.9697346912754 L 1009 506.9697346912756 L 1010 505.05168778635203 L 1010 505.0516877863522 L 1011 503.1281150294356 L 1011 503.12811502943583 L 1012 501.1990307680691 L 1012 501.1990307680694 L 1013 499.26444948481605 L 1013 499.2644494848163 L 1014 497.324385795547 L 1014 497.32438579554724 L 1015 495.37885444771973 L 1015 495.3788544477199 L 1016 493.42787031864816 L 1016 493.42787031864833 L 1017 491.4714484137668 L 1017 491.471448413767 L 1018 489.5096038648853 L 1018 489.50960386488555 L 1019 487.5423519284374 L 1019 487.54235192843777 L 1020 485.5697079837235 L 1020 485.5697079837238 L 1021 483.5916875311456 L 1021 483.5916875311459 L 1022 481.6083061904389 L 1022 481.6083061904391 L 1023 479.619579698896 L 1023 479.6195796988963 L 1024 477.625523909587 L 1024 477.62552390958723 L 1025 475.6261547895752 L 1025 475.6261547895754 L 1026 473.6214884181282 L 1026 473.6214884181284 L 1027 471.6115409849256 L 1027 471.61154098492585 L 1028 469.596328788263 L 1028 469.59632878826324 L 1029 467.5758682332531 L 1029 467.57586823325335 L 1030 465.55017583002444 L 1030 465.55017583002467 L 1031 463.51926819191715 L 1031 463.5192681919174 L 1032 461.4831620336778 L 1032 461.48316203367807 L 1033 459.4418741696518 L 1033 459.441874169652 L 1034 457.39542151197503 L 1034 457.39542151197526 L 1035 455.34382106876535 L 1035 455.3438210687656 L 1036 453.28708994231204 L 1036 453.28708994231226 L 1037 451.2252453272672 L 1037 451.22524532726743 L 1038 449.1583045088352 L 1038 449.15830450883544 L 1039 447.0862848609654 L 1039 447.08628486096563 L 1040 445.0092038445435 L 1040 445.0092038445437 L 1041 442.92707900558474 L 1041 442.92707900558503 L 1042 440.83992797343075 L 1042 440.839927973431 L 1043 438.7477684589451 L 1043 438.7477684589453 L 1044 436.650618252714 L 1044 436.6506182527143 L 1045 434.5484952232485 L 1045 434.5484952232487 L 1046 432.4414173151889 L 1046 432.44141731518914 L 1047 430.3294025475148 L 1047 430.32940254751503 L 1048 428.21246901175596 L 1048 428.2124690117562 L 1049 426.0906348702094 L 1049 426.0906348702096 L 1050 423.9639183541595 L 1050 423.9639183541597 L 1051 421.83233776210255 L 1051 421.8323377621028 L 1052 419.6959114579779 L 1052 419.6959114579781 L 1053 417.5546578694013 L 1053 417.5546578694015 L 1054 415.4085954859065 L 1054 415.4085954859068 L 1055 413.2577428571914 L 1055 413.25774285719166 L 1056 411.1021185913693 L 1056 411.10211859136956 L 1057 408.94174135322857 L 1057 408.9417413532288 L 1058 406.7766298624967 L 1058 406.77662986249703 L 1059 404.60680289211314 L 1059 404.60680289211336 L 1060 402.43227926650746 L 1060 402.4322792665077 L 1061 400.25307785988576 L 1061 400.253077859886 L 1062 398.06921759452536 L 1062 398.06921759452564 L 1063 395.88071743907545 L 1063 395.88071743907574 L 1064 393.6875964068679 L 1064 393.6875964068681 L 1065 391.48987355423503 L 1065 391.4898735542352 L 1066 389.28756797883625 L 1066 389.2875679788365 L 1067 387.08069881799446 L 1067 387.08069881799463 L 1068 384.8692852470395 L 1068 384.8692852470396 L 1069 382.653346477663 L 1069 382.6533464776631 L 1070 380.43290175628084 L 1070 380.432901756281 L 1071 378.2079703624071 L 1071 378.20797036240725 L 1072 375.978571607036 L 1072 375.97857160703626 L 1073 373.74472483103546 L 1073 373.74472483103574 L 1074 371.50644940355005 L 1074 371.50644940355033 L 1075 369.2637647204144 L 1075 369.2637647204145 L 1076 367.0166902025777 L 1076 367.01669020257793 L 1077 364.7652452945392 L 1077 364.76524529453957 L 1078 362.50944946279355 L 1078 362.5094494627938 L 1079 360.24932219428877 L 1079 360.2493221942889 L 1080 357.98488299489384 L 1080 357.98488299489406 L 1081 355.71615138788013 L 1081 355.7161513878805 L 1082 353.44314691241243 L 1082 353.44314691241266 L 1083 351.16588912205157 L 1083 351.1658891220519 L 1084 348.88439758327183 L 1084 348.88439758327206 L 1085 346.59869187398647 L 1085 346.5986918739867 L 1086 344.3087915820888 L 1086 344.30879158208904 L 1087 342.01471630400397 L 1087 342.0147163040041 L 1088 339.71648564325244 L 1088 339.71648564325267 L 1089 337.4141192090293 L 1089 337.4141192090294 L 1090 335.10763661479143 L 1090 335.1076366147918 L 1091 332.79705747686285 L 1091 332.7970574768631 L 1092 330.4824014130477 L 1092 330.4824014130479 L 1093 328.1636880412609 L 1093 328.16368804126125 L 1094 325.840936978169 L 1094 325.84093697816934 L 1095 323.51416783784464 L 1095 323.51416783784487 L 1096 321.18340023043595 L 1096 321.1834002304362 L 1097 318.8486537608469 L 1097 318.8486537608471 L 1098 316.50994802743344 L 1098 316.50994802743367 L 1099 314.16730262071167 L 1099 314.1673026207119 L 1100 311.8207371220798 L 1100 311.82073712208 L 1101 309.47027110255476 L 1101 309.4702711025551 L 1102 307.1159241215213 L 1102 307.1159241215215 L 1103 304.75771572549536 L 1103 304.7577157254957 L 1104 302.3956654469023 L 1104 302.3956654469026 L 1105 300.02979280286684 L 1105 300.02979280286706 L 1106 297.6601172940192 L 1106 297.6601172940195 L 1107 295.2866584033135 L 1107 295.2866584033138 L 1108 292.90943559486175 L 1108 292.9094355948621 L 1109 290.5284683127808 L 1109 290.528468312781 L 1110 288.1437759800525 L 1110 288.14377598005274 L 1111 285.7553779974015 L 1111 285.75537799740175 L 1112 283.36329374218246 L 1112 283.3632937421828 L 1113 280.96754256728525 L 1113 280.9675425672856 L 1114 278.56814380005255 L 1114 278.5681438000528 L 1115 276.16511674121114 L 1115 276.1651167412115 L 1116 273.7584806638197 L 1116 273.7584806638199 L 1117 271.3482548122274 L 1117 271.34825481222776 L 1118 268.9344584010503 L 1118 268.9344584010505 L 1119 266.51711061415904 L 1119 266.5171106141594 L 1120 264.09623060368233 L 1120 264.09623060368267 L 1121 261.67183748902414 L 1121 261.6718374890245 L 1122 259.24395035589487 L 1122 259.2439503558951 L 1123 256.8125882553568 L 1123 256.8125882553571 L 1124 254.37777020288445 L 1124 254.3777702028848 L 1125 251.9395151774371 L 1125 251.93951517743733 L 1126 249.49784212054772 L 1126 249.49784212054794 L 1127 247.05276993542395 L 1127 247.05276993542418 L 1128 244.60431748606493 L 1128 244.60431748606516 L 1129 242.15250359638992 L 1129 242.15250359639026 L 1130 239.69734704938378 L 1130 239.697347049384 L 1131 237.23886658625304 L 1131 237.23886658625327 L 1132 234.77708090559838 L 1132 234.7770809055986 L 1133 232.31200866260008 L 1133 232.31200866260042 L 1134 229.84366846821706 L 1134 229.8436684682173 L 1135 227.37207888839953 L 1135 227.37207888839976 L 1136 224.89725844331633 L 1136 224.89725844331656 L 1137 222.41922560659407 L 1137 222.4192256065943 L 1138 219.9379988045722 L 1138 219.93799880457243 L 1139 217.45359641556945 L 1139 217.45359641556968 L 1140 214.9660367691646 L 1140 214.96603676916482 L 1141 212.47533814549138 L 1141 212.4753381454916 L 1142 209.98151877454495 L 1142 209.98151877454518 L 1143 207.4845968355031 L 1143 207.48459683550334 L 1144 204.9845904560607 L 1144 204.98459045606091 L 1145 202.48151771177538 L 1145 202.4815177117756 L 1146 199.9753966254283 L 1146 199.97539662542852 L 1147 197.46624516639838 L 1147 197.4662451663986 L 1148 194.95408125004553 L 1148 194.95408125004576 L 1149 192.43892273711174 L 1149 192.43892273711197 L 1150 189.9207874331313 L 1150 189.92078743313152 L 1151 187.39969308785567 L 1151 187.3996930878559 L 1152 184.8756573946897 L 1152 184.87565739468994 L 1153 182.34869799014007 L 1153 182.3486979901403 L 1154 179.81883245327901 L 1154 179.81883245327924 L 1155 177.2860783052156 L 1155 177.28607830521582 L 1156 174.75045300858324 L 1156 174.7504530085837 L 1157 172.21197396703894 L 1157 172.21197396703928 L 1158 169.67065852477072 L 1158 169.67065852477106 L 1159 167.12652396602243 L 1159 167.12652396602277 L 1160 164.57958751462638 L 1160 164.57958751462672 L 1161 162.02986633355056 L 1161 162.029866333551 L 1162 159.47737752445482 L 1162 159.47737752445516 L 1163 156.92213812726027 L 1163 156.9221381272606 L 1164 154.36416511973084 L 1164 154.36416511973107 L 1165 151.80347541706396 L 1165 151.8034754170643 L 1166 149.24008587149433 L 1166 149.24008587149456 L 1167 146.6740132719092 L 1167 146.67401327190953 L 1168 144.10527434347227 L 1168 144.10527434347262 L 1169 141.53388574726148 L 1169 141.53388574726182 L 1170 138.95986407991563 L 1170 138.9598640799161 L 1171 136.38322587329367 L 1171 136.38322587329412 L 1172 133.80398759414174 L 1172 133.8039875941422 L 1173 131.2221656437739 L 1173 131.22216564377436 L 1174 128.6377763577625 L 1174 128.63777635776296 L 1175 126.05083600563671 L 1175 126.05083600563705 L 1176 123.46136079059443 L 1176 123.46136079059477 L 1177 120.86936684922193 L 1177 120.86936684922227 L 1178 118.27487025122616 L 1178 118.27487025122662 L 1179 115.67788699917378 L 1179 115.67788699917423 L 1180 113.07843302824199 L 1180 113.07843302824233 L 1181 110.4765242059799 L 1181 110.47652420598024 L 1182 107.8721763320766 L 1182 107.87217633207695 L 1183 105.265405138142 L 1183 105.26540513814246 L 1184 102.65622628749543 L 1184 102.65622628749588 L 1185 100.04465537496287 L 1185 100.04465537496333 L 1186 97.43070792668459 L 1186 97.43070792668516 L 1187 94.8143993999322 L 1187 94.81439939993265 L 1188 92.19574518293359 L 1188 92.19574518293405 L 1189 89.57476059470719 L 1189 89.57476059470753 L 1190 86.9514608849039 L 1190 86.95146088490435 L 1191 84.32586123366139 L 1191 84.32586123366184 L 1192 81.69797675146162 L 1192 81.69797675146208 L 1193 79.06782247900082 L 1193 79.06782247900128 L 1194 76.43541338706677 L 1194 76.43541338706723 L 1195 73.80076437642344 L 1195 73.80076437642367 L 1196 71.16389027770413 L 1196 71.16389027770458 L 1197 68.52480585131366 L 1197 68.52480585131411 L 1198 65.88352578733793 L 1198 65.88352578733839 L 1199 63.240064705459645 L 1199 63.2400647054601 L 1200 60.59443715488396 L 1200 60.59443715488442 L 1201 57.946657614272226 L 1201 57.94665761427268 L 1202 55.2967404916792 L 1202 55.29674049167966 L 1203 52.644700124502606 L 1203 52.64470012450306 L 1204 49.99055077943751 L 1204 49.990550779437854 L 1205 47.33430665243668 L 1205 47.334306652437135 L 1206 44.675981868681106 L 1206 44.67598186868156 L 1207 42.0155904825549 L 1207 42.01559048255524 L 1208 39.353146477629025 L 1208 39.353146477629366 L 1209 36.6886637666496 L 1209 36.68866376665005 L 1210 34.022156191534464 L 1210 34.02215619153492 L 1211 31.3536375233773 L 1211 31.353637523377643 L 1212 28.68312146245455 L 1212 28.683121462455006 L 1213 26.010621638242924 L 1213 26.01062163824338 L 1214 23.336151609440094 L 1214 23.33615160944055 L 1215 20.659724863994256 L 1215 20.65972486399471 L 1216 17.9813548191363 L 1216 17.981354819136754 L 1217 15.301054821420962 L 1217 15.301054821421417 L 1218 12.618838146773783 L 1218 12.618838146774237 L 1219 9.934718000540897 L 1219 9.934718000541238 L 1220 7.248707517547473 L 1220 7.248707517547928 L 1221 4.560819762162055 L 1221 4.5608197621625095 L 1222 1.871067728362732 L 1222 1.8710677283631867 L 1223 -0.8205356601873746 L 1223 -0.8205356601868061 L 1224 -3.5139775500610995 L 1224 -3.5139775500607584 L 1225 -6.20924515798265 L 1225 -6.2092451579821955 L 1226 -8.90632577073768 L 1226 -8.906325770737453 L 1227 -11.605206745080523 L 1227 -11.605206745080068 L 1228 -14.30587550763073 L 1228 -14.30587550763039 L 1229 -17.008319554772697 L 1229 -17.00831955477247 L 1230 -19.71252645254424 L 1230 -19.712526452543898 L 1231 -22.418483836522 L 1231 -22.41848383652166 L 1232 -25.126179411705152 L 1232 -25.126179411704697 L 1233 -27.83560095239045 L 1233 -27.835600952390223 L 1234 -30.546736302046043 L 1234 -30.5467363020457 L 1235 -33.259573373178114 L 1235 -33.25957337317777 L 1236 -35.97410014719662 L 1236 -35.97410014719617 L 1237 -38.69030467427433 L 1237 -38.690304674273875 L 1238 -41.40817507320162 L 1238 -41.408175073201164 L 1239 -44.127699531239955 L 1239 -44.1276995312395 L 1240 -46.84886630396818 L 1240 -46.84886630396784 L 1241 -49.571663715127784 L 1241 -49.57166371512733 L 1242 -52.29608015646113 L 1242 -52.296080156460675 L 1243 -55.02210408755025 L 1243 -55.02210408754979 L 1244 -57.74972403564823 L 1244 -57.74972403564789 L 1245 -60.47892859550882 L 1245 -60.47892859550859 L 1246 -63.20970642921304 L 1246 -63.2097064292127 L 1247 -65.94204626599151 L 1247 -65.94204626599094 L 1248 -68.67593690204217 L 1248 -68.67593690204171 L 1249 -71.41136720034888 L 1249 -71.41136720034865 L 1250 -74.14832609049301 L 1250 -74.14832609049267 L 1251 -76.88680256846317 L 1251 -76.88680256846271 L 1252 -79.6267856964613 L 1252 -79.62678569646096 L 1253 -82.3682646027089 L 1253 -82.36826460270845 L 1254 -85.1112284812458 L 1254 -85.11122848124535 L 1255 -87.85566659172923 L 1255 -87.85566659172866 L 1256 -90.60156825922923 L 1256 -90.60156825922888 L 1257 -93.34892287402226 L 1257 -93.34892287402192 L 1258 -96.09771989137994 L 1258 -96.09771989137948 L 1259 -98.84794883135794 L 1259 -98.84794883135748 L 1260 -101.5995992785812 L 1260 -101.59959927858097 L 1261 -104.35266088202707 L 1261 -104.35266088202673 L 1262 -107.107123354804 L 1262 -107.10712335480378 L 1263 -109.86297647393269 L 1263 -109.86297647393235 L 1264 -112.62021008012039 L 1264 -112.62021008012005 L 1265 -115.37881407753491 L 1265 -115.37881407753468 L 1266 -118.13877843357761 L 1266 -118.13877843357716 L 1267 -120.90009317865236 L 1267 -120.9000931786519 L 1268 -123.66274840593383 L 1268 -123.66274840593337 L 1269 -126.42673427113289 L 1269 -126.42673427113255 L 1270 -129.19204099226204 L 1270 -129.19204099226158 L 1271 -131.95865884939712 L 1271 -131.95865884939667 L 1272 -134.72657818443724 L 1272 -134.7265781844368 L 1273 -137.49578940086508 L 1273 -137.49578940086462 L 1274 -140.2662829635044 L 1274 -140.26628296350395 L 1275 -143.03804939827387 L 1275 -143.03804939827364 L 1276 -145.81107929194388 L 1276 -145.81107929194343 L 1277 -148.58536329188803 L 1277 -148.58536329188757 L 1278 -151.36089210583498 L 1278 -151.36089210583452 L 1279 -154.1376565016177 L 1279 -154.13765650161724 L 1280 -156.91564730692437 L 1280 -156.91564730692392 L 1281 -159.69485540904395 L 1281 -159.69485540904373 L 1282 -162.47527175461312 L 1282 -162.47527175461266 L 1283 -165.2568873493616 L 1283 -165.25688734936114 L 1284 -168.03969325785727 L 1284 -168.0396932578568 L 1285 -170.82368060324654 L 1285 -170.82368060324632 L 1286 -173.6088405669999 L 1286 -173.60884056699945 L 1287 -176.3951643886495 L 1287 -176.39516438864905 L 1288 -179.18264336553295 L 1288 -179.18264336553227 L 1289 -181.97126885252794 L 1289 -181.9712688525275 L 1290 -184.761032261796 L 1290 -184.76103226179555 L 1291 -187.55192506251603 L 1291 -187.55192506251558 L 1292 -190.34393878062258 L 1292 -190.34393878062212 L 1293 -193.137064998543 L 1293 -193.13706499854254 L 1294 -195.9312953549312 L 1294 -195.93129535493097 L 1295 -198.7266215444041 L 1295 -198.72662154440366 L 1296 -201.52303531727432 L 1296 -201.52303531727387 L 1297 -204.32052847928628 L 1297 -204.32052847928583 L 1298 -207.11909289134667 L 1298 -207.11909289134599 L 1299 -209.91872046925903 L 1299 -209.91872046925857 L 1300 -212.71940318345594 L 1300 -212.7194031834557 L 1301 -215.52113305873092 L 1301 -215.52113305873047 L 1302 -218.32390217396858 L 1302 -218.32390217396812 L 1303 -221.12770266187783 L 1303 -221.1277026618776 L 1304 -223.93252670872278 L 1304 -223.93252670872232 L 1305 -226.7383665540516 L 1305 -226.73836655405137 L 1306 -229.54521449042852 L 1306 -229.54521449042807 L 1307 -232.35306286316325 L 1307 -232.3530628631628 L 1308 -235.16190407004285 L 1308 -235.1619040700424 L 1309 -237.9717305610592 L 1309 -237.97173056105873 L 1310 -240.78253483814058 L 1310 -240.78253483814012 L 1311 -243.59430945488123 L 1311 -243.59430945488077 L 1312 -246.40704701627044 L 1312 -246.4070470162702 L 1313 -249.22074017842385 L 1313 -249.2207401784234 L 1314 -252.03538164831104 L 1314 -252.0353816483106 L 1315 -254.85096418348792 L 1315 -254.85096418348746 L 1316 -257.6674805918243 L 1316 -257.66748059182385 L 1317 -260.4849237312354 L 1317 -260.48492373123497 L 1318 -263.3032865094125" stroke-opacity="0.6980392156862745" stroke-linecap="round" stroke-linejoin="round" stroke-miterlimit="10" stroke-width="2.5"/><text fill="rgb(153,51,255)" stroke="none" font-family="geogebra-sans-serif, sans-serif" font-size="16px" font-style="normal" font-weight="normal" text-decoration="normal" x="8" y="879" text-anchor="start" dominant-baseline="alphabetic" fill-opacity="1">Softplus</text></g></g></svg>